<svg id="Layer_1" data-name="Layer 1" xmlns="http://www.w3.org/2000/svg" viewBox="0 0 1631 1479"><defs><style>.cls-1,.cls-2,.cls-3,.cls-4{fill:none;}.cls-1{stroke:#8929a9;}.cls-2{stroke:#fc2130;}.cls-3{stroke:#fd8326;}.cls-4{stroke:#11c574;}.cls-20,.cls-25,.cls-36,.cls-44,.cls-5,.cls-50,.cls-54{isolation:isolate;font-size:22.32px;}.cls-20,.cls-25,.cls-44,.cls-5,.cls-50,.cls-54{font-family:NimbusSan-Reg, Nimbus Sans;}.cls-6{letter-spacing:-0.01em;}.cls-7{letter-spacing:0.03em;}.cls-8{letter-spacing:0em;}.cls-20,.cls-9{letter-spacing:0em;}.cls-10{letter-spacing:-0.01em;}.cls-11{letter-spacing:-0.01em;}.cls-12{letter-spacing:-0.01em;}.cls-13{letter-spacing:-0.01em;}.cls-14{letter-spacing:0em;}.cls-15{letter-spacing:-0.02em;}.cls-16{letter-spacing:-0.01em;}.cls-17,.cls-25{letter-spacing:-0.01em;}.cls-18{letter-spacing:0em;}.cls-19{letter-spacing:0em;}.cls-21{letter-spacing:0.03em;}.cls-22{letter-spacing:0.01em;}.cls-23{letter-spacing:0.03em;}.cls-24{letter-spacing:0em;}.cls-26{letter-spacing:0em;}.cls-27{letter-spacing:0em;}.cls-28{letter-spacing:0.03em;}.cls-29{letter-spacing:0em;}.cls-30{letter-spacing:0em;}.cls-31,.cls-50{letter-spacing:0.01em;}.cls-32{letter-spacing:0em;}.cls-33{letter-spacing:0em;}.cls-34{letter-spacing:0.04em;}.cls-35{letter-spacing:0em;}.cls-36{font-family:ArialUnicodeMS, Arial Unicode MS;}.cls-37,.cls-44{letter-spacing:0.01em;}.cls-38{letter-spacing:0em;}.cls-39{letter-spacing:-0.02em;}.cls-40{letter-spacing:0em;}.cls-41{letter-spacing:-0.01em;}.cls-42{letter-spacing:0.03em;}.cls-43{letter-spacing:0em;}.cls-45{letter-spacing:0.01em;}.cls-46{letter-spacing:0.01em;}.cls-47{letter-spacing:0em;}.cls-48{letter-spacing:0em;}.cls-49{letter-spacing:0em;}.cls-51{letter-spacing:-0.01em;}.cls-52{letter-spacing:-0.02em;}.cls-53{letter-spacing:0.01em;}.cls-54{letter-spacing:0em;}.cls-55{letter-spacing:0.01em;}.cls-56{letter-spacing:0em;}.cls-57{letter-spacing:0em;}</style></defs><g id="edges"><path class="cls-1" d="M1390.61,1224.93c-87.09,40.31-278.19-29.86-318.5-117"/><path class="cls-1" d="M1390.61,1224.93C1226,1195.72,1022.87,905,1052.07,740.37"/><path class="cls-1" d="M1390.61,1224.93c-137.69-14.7-322.16-243.29-307.46-381"/><path class="cls-1" d="M1390.61,1224.93c-139.54,99-497.34,38.19-596.34-101.35"/><path class="cls-1" d="M1390.61,1224.93c-130.23-99.11-176.89-443.12-77.78-573.34"/><path class="cls-1" d="M1390.61,1224.93c43.74,31.6,62,144.61,30.36,188.36"/><path class="cls-1" d="M1390.61,1224.93c38.36-31.62,143.33-21.52,175,16.84"/><path class="cls-1" d="M1390.61,1224.93c32.16-2.5,84.17,42,86.67,74.17"/><path class="cls-1" d="M1390.61,1224.93c1.33,37.15-52.39,94.86-89.54,96.19"/><path class="cls-1" d="M1390.61,1224.93c15.53,26.09-.3,88.52-26.39,104.06"/><path class="cls-1" d="M1390.61,1224.93c50.73-13,146.26,43.72,159.21,94.45"/><path class="cls-1" d="M1390.61,1224.93c52.7,9.3,117.82,102.31,108.52,155"/><path class="cls-1" d="M1390.61,1224.93c.67-31.91,49.56-78.76,81.47-78.09"/><path class="cls-1" d="M1390.61,1224.93c-98.94-83.19-122.56-356.37-39.37-455.3"/><path class="cls-1" d="M1390.61,1224.93c30.36,16.18,51.64,86,35.46,116.36"/><path class="cls-1" d="M1390.61,1224.93c23.7,44-6.81,145.67-50.86,169.38"/><path class="cls-1" d="M1390.61,1224.93c-16.57-21.57-9.07-78.79,12.5-95.36"/><path class="cls-1" d="M1390.61,1224.93c22.77-19.3,85.89-14.08,105.19,8.69"/><path class="cls-1" d="M1390.61,1224.93c-14.2,24.46-72.18,39.85-96.63,25.65"/><path class="cls-1" d="M1390.61,1224.93c17.35-38.86,101.68-71.12,140.55-53.77"/><path class="cls-2" d="M273.29,1007.2C280,874.79,488.69,686.25,621.1,693"/><path class="cls-2" d="M273.29,1007.2C301.13,949.53,429.38,904.79,487,932.62"/><path class="cls-2" d="M273.29,1007.2c35.28-37.42,144.31-40.63,181.72-5.35"/><path class="cls-2" d="M273.29,1007.2c6.33-63,110.3-148,173.28-141.64"/><path class="cls-2" d="M273.29,1007.2c-28.91,31.23-119.13,34.7-150.37,5.79"/><path class="cls-2" d="M273.29,1007.2c127.47-80.92,440.06-11.09,521,116.38"/><path class="cls-2" d="M273.29,1007.2c59.89-31.82,197.44,10.28,229.26,70.16"/><path class="cls-2" d="M273.29,1007.2c59.33-58.63,236.27-57.57,294.9,1.76"/><path class="cls-2" d="M273.29,1007.2c-49.11,24.49-159.52-12.44-184-61.55"/><path class="cls-2" d="M273.29,1007.2c-8.5,31-67.69,64.64-98.65,56.14"/><path class="cls-2" d="M273.29,1007.2c10.34,30.72-20.24,92.33-51,102.67"/><path class="cls-2" d="M273.29,1007.2c26.13,31.69,17.77,118.43-13.92,144.55"/><path class="cls-2" d="M273.29,1007.2c12.67,51.4-45.43,147.5-96.83,160.17"/><path class="cls-2" d="M273.29,1007.2c-29.64,12.94-93.52-12.11-106.47-41.76"/><path class="cls-2" d="M273.29,1007.2c-45.65.41-114.76-67.45-115.18-113.1"/><path class="cls-2" d="M273.29,1007.2c-30.19,51.31-152.45,83-203.76,52.78"/><path class="cls-2" d="M273.29,1007.2C242.17,998.19,209,938,218,906.87"/><path class="cls-2" d="M273.29,1007.2c18.52-158,283.22-367.08,441.16-348.56"/><path class="cls-2" d="M273.29,1007.2c-7.67,52.13-97.38,118.84-149.52,111.16"/><path class="cls-2" d="M273.29,1007.2c42.55-80.08,226.48-136.37,306.55-93.82"/><path class="cls-3" d="M780.6,887C738.46,975.08,543.1,1044,455,1001.85"/><path class="cls-3" d="M780.6,887C731,954.83,554.88,982.21,487,932.62"/><path class="cls-3" d="M780.6,887c50,44.59,58.25,186.54,13.67,236.59"/><path class="cls-3" d="M780.6,887c102.5-14.1,277.4,118.49,291.51,221"/><path class="cls-3" d="M780.6,887c25-83.61,187.85-171.59,271.47-146.62"/><path class="cls-3" d="M780.6,887c-70.7-6.9-166.4-123.32-159.5-194"/><path class="cls-3" d="M780.6,887c51.91-69.11,233.43-94.93,302.55-43"/><path class="cls-3" d="M780.6,887c16.85-14.16,63.35-10.14,77.51,6.71"/><path class="cls-3" d="M780.6,887c11.38,21.17-3.3,70-24.47,81.38"/><path class="cls-3" d="M780.6,887c-18.09,66.88-145.54,140.06-212.41,122"/><path class="cls-3" d="M780.6,887c-17.53,93.69-184.37,207.91-278,190.37"/><path class="cls-3" d="M780.6,887c24.24-.66,61.59,34.7,62.26,58.94"/><path class="cls-3" d="M780.6,887c22.08,12.19,36.91,63.59,24.73,85.66"/><path class="cls-3" d="M780.6,887c-71.09,62.52-271.51,49.66-334-21.43"/><path class="cls-3" d="M780.6,887c-.47-22.62,32.76-57.27,55.38-57.75"/><path class="cls-3" d="M780.6,887c-8,18-47.16,33-65.19,25"/><path class="cls-3" d="M780.6,887c-34.87,45.43-155.33,61.26-200.76,26.39"/><path class="cls-3" d="M780.6,887c-21.81-2.4-50.91-38.73-48.5-60.54"/><path class="cls-3" d="M780.6,887C721.7,854.55,682,717.54,714.45,658.64"/><path class="cls-3" d="M780.6,887c-15.63-17.23-13.24-66.53,4-82.17"/><path class="cls-4" d="M1084.29,259.16c89.8,102.68,70.47,391.41-32.22,481.21"/><path class="cls-4" d="M1084.29,259.16c9.15-27.86,64.65-55.94,92.51-46.79"/><path class="cls-4" d="M1084.29,259.16c5.93,153.86-216,393.55-369.84,399.48"/><path class="cls-4" d="M1084.29,259.16C1078.42,438.56,800.5,698.84,621.1,693"/><path class="cls-4" d="M1084.29,259.16c124.2,32.78,261.32,268.24,228.54,392.43"/><path class="cls-4" d="M1084.29,259.16c116.73,117.19,116,468.07-1.14,584.8"/><path class="cls-4" d="M1084.29,259.16c-27.09,21.66-100.22,13.53-121.89-13.56"/><path class="cls-4" d="M1084.29,259.16c-31,7.25-88.43-28.42-95.67-59.45"/><path class="cls-4" d="M1084.29,259.16c-5.8,26.41-54.11,57.31-80.52,51.51"/><path class="cls-4" d="M1084.29,259.16c-29.53-11.2-57-72.3-45.84-101.84"/><path class="cls-4" d="M1084.29,259.16c-8.5-31.65,26.21-91.88,57.86-100.38"/><path class="cls-4" d="M1084.29,259.16c-10.53-52,51.62-145.71,103.59-156.24"/><path class="cls-4" d="M1084.29,259.16c-24.9-26.82-22-104.42,4.79-129.32"/><path class="cls-4" d="M1084.29,259.16c28.2-7.61,81.9,23.26,89.52,51.45"/><path class="cls-4" d="M1084.29,259.16c27.13-26,106.75-24.18,132.7,2.95"/><path class="cls-4" d="M1084.29,259.16c-49.44,1.56-125.94-70.27-127.5-119.71"/><path class="cls-4" d="M1084.29,259.16C1048.44,215.58,1060,96.44,1103.6,60.58"/><path class="cls-4" d="M1084.29,259.16c-50.55-21.18-94.62-128.79-73.44-179.35"/><path class="cls-4" d="M1084.29,259.16c14-46.86,105.17-96.22,152-82.27"/><path class="cls-4" d="M1084.29,259.16c155.49,48.71,315.65,355,267,510.47"/></g><g id="node-labels"><text class="cls-5" transform="translate(1047.69 1115.38)"><tspan class="cls-6">n</tspan><tspan x="11.74" y="0">y</tspan><tspan class="cls-7" x="22.41" y="0">f</tspan><tspan class="cls-8" x="29.11" y="0">w</tspan></text><text class="cls-5" transform="translate(1028.37 746.01)"><tspan class="cls-7">f</tspan><tspan x="6.7" y="0">w20</tspan></text><text class="cls-5" transform="translate(1056.63 849.81)">sh<tspan class="cls-9" x="22.88" y="0">o</tspan><tspan class="cls-8" x="35.11" y="0">w</tspan></text><text class="cls-5" transform="translate(780.52 1128.86)"><tspan class="cls-10">n</tspan><tspan x="11.74" y="0">y</tspan></text><text class="cls-5" transform="translate(1277.46 658.06)">run<tspan class="cls-11" x="31.83" y="0">w</tspan><tspan class="cls-12" x="46.74" y="0">a</tspan><tspan class="cls-8" x="58.1" y="0">y</tspan></text><text class="cls-5" transform="translate(1395.96 1422.39)">jisoo</text><text class="cls-5" transform="translate(1542.67 1250.05)"><tspan class="cls-13">r</tspan><tspan x="7.57" y="0">osé</tspan></text><text class="cls-5" transform="translate(1409.99 1307.13)"><tspan class="cls-14">k</tspan><tspan x="11.5" y="0">i</tspan><tspan class="cls-15" x="16.54" y="0">k</tspan><tspan x="27.37" y="0">om</tspan><tspan class="cls-16" x="56.94" y="0">i</tspan><tspan class="cls-17" x="61.81" y="0">z</tspan><tspan x="71.92" y="0">uha</tspan><tspan class="cls-17" x="107.63" y="0">r</tspan><tspan x="115.27" y="0">a</tspan></text><text class="cls-5" transform="translate(1271.87 1328.44)"><tspan class="cls-18">c</tspan><tspan x="11.85" y="0">ount</tspan></text><text class="cls-5" transform="translate(1341.92 1336.64)">else</text><text class="cls-5" transform="translate(1514.82 1327.7)">minu<tspan class="cls-19" x="46.41" y="0">t</tspan><tspan x="52.39" y="0">e</tspan></text><text class="cls-5" transform="translate(1481.82 1388.19)">pm</text><text class="cls-20" transform="translate(1461.79 1154.52)">e<tspan class="cls-8" x="11.76" y="0">t</tspan></text><text class="cls-5" transform="translate(1321.7 776.36)"><tspan class="cls-21">t</tspan><tspan class="cls-22" x="6.79" y="0">w</tspan><tspan x="21.96" y="0">i</tspan><tspan class="cls-23" x="27.01" y="0">t</tspan><tspan class="cls-24" x="33.68" y="0">t</tspan><tspan x="39.66" y="0">er</tspan></text><text class="cls-25" transform="translate(1395.13 1349.19)">w<tspan class="cls-26" x="14.91" y="0">a</tspan><tspan class="cls-19" x="26.54" y="0">t</tspan><tspan class="cls-18" x="32.52" y="0">c</tspan><tspan class="cls-8" x="44.38" y="0">h</tspan></text><text class="cls-5" transform="translate(1296.7 1403.14)"><tspan class="cls-27">f</tspan><tspan x="5.8" y="0">ebrua</tspan><tspan class="cls-28" x="61.65" y="0">r</tspan><tspan x="70.11" y="0">y</tspan></text><text class="cls-5" transform="translate(1385.34 1137.06)">l<tspan class="cls-29" x="5.04" y="0">i</tspan><tspan class="cls-17" x="10.2" y="0">v</tspan><tspan class="cls-30" x="19.91" y="0">e</tspan></text><text class="cls-5" transform="translate(1455.44 1242.72)"><tspan class="cls-18">t</tspan><tspan class="cls-8" x="6.12" y="0">uesd</tspan><tspan class="cls-12" x="53.39" y="0">a</tspan><tspan x="64.75" y="0">y</tspan></text><text class="cls-5" transform="translate(1271.44 1257.84)">11<tspan class="cls-31" x="25" y="0">t</tspan><tspan x="31.27" y="0">h</tspan></text><text class="cls-5" transform="translate(1515.91 1179.25)"><tspan class="cls-32">f</tspan><tspan x="5.85" y="0">all</tspan></text><text class="cls-5" transform="translate(573.33 697.97)">gqxpe<tspan class="cls-33" x="59.69" y="0">c</tspan><tspan class="cls-34" x="71.54" y="0">k</tspan><tspan class="cls-35" x="83.77" y="0">x</tspan></text><text class="cls-36" transform="translate(460.21 935.54)">กผล</text><text class="cls-36" transform="translate(436.24 1005.93)">เป</text><text class="cls-36" transform="translate(411.55 870.34)">ตโชค</text><text class="cls-5" transform="translate(93.03 1015.53)"><tspan class="cls-37">t</tspan><tspan x="6.27" y="0">hank</tspan></text><text class="cls-5" transform="translate(426.48 1082.46)">pe<tspan class="cls-33" x="24.35" y="0">c</tspan><tspan class="cls-14" x="36.21" y="0">k</tspan><tspan x="47.7" y="0">pali</tspan><tspan class="cls-38" x="81.99" y="0">t</tspan><tspan class="cls-33" x="87.97" y="0">c</tspan><tspan x="99.82" y="0">ho</tspan><tspan class="cls-39" x="124.13" y="0">k</tspan><tspan class="cls-35" x="135.04" y="0">e</tspan></text><text class="cls-5" transform="translate(495.58 1014.33)">gqxpe<tspan class="cls-33" x="59.69" y="0">c</tspan><tspan class="cls-34" x="71.54" y="0">k</tspan><tspan class="cls-35" x="83.77" y="0">x</tspan><tspan class="cls-7" x="94.33" y="0">f</tspan><tspan class="cls-40" x="101.03" y="0">w20</tspan></text><text class="cls-36" transform="translate(70.14 948.27)">ปล</text><text class="cls-36" transform="translate(146.83 1067.41)">มใจ</text><text class="cls-36" transform="translate(194.42 1114.19)">ในต</text><text class="cls-36" transform="translate(164.4 1155.34)">านประธานมาก</text><text class="cls-36" transform="translate(156.64 1169.51)">วท</text><text class="cls-5" transform="translate(152.69 967.04)">so</text><text class="cls-5" transform="translate(128.72 896.58)">mu<tspan class="cls-33" x="29.33" y="0">c</tspan><tspan x="41.18" y="0">h</tspan></text><text class="cls-5" transform="translate(40.62 1062.4)">i<tspan class="cls-41" x="5.04" y="0">n</tspan><tspan class="cls-22" x="16.94" y="0">v</tspan><tspan x="26.92" y="0">i</tspan><tspan class="cls-38" x="31.96" y="0">t</tspan><tspan x="37.95" y="0">e</tspan></text><text class="cls-5" transform="translate(191.75 909.6)">h<tspan class="cls-41" x="12.03" y="0">av</tspan><tspan x="33.26" y="0">e</tspan></text><text class="cls-5" transform="translate(670.05 663.87)">pe<tspan class="cls-33" x="24.35" y="0">c</tspan><tspan class="cls-14" x="36.21" y="0">k</tspan><tspan x="47.7" y="0">palit</tspan></text><text class="cls-25" transform="translate(99.7 1121.15)">v<tspan class="cls-35" x="9.71" y="0">e</tspan><tspan class="cls-42" x="21.52" y="0">r</tspan><tspan class="cls-40" x="29.98" y="0">y</tspan></text><text class="cls-5" transform="translate(542.34 917.53)"><tspan class="cls-32">f</tspan><tspan class="cls-43" x="5.85" y="0">a</tspan><tspan x="17.52" y="0">shion</tspan></text><text class="cls-36" transform="translate(832 900.05)">ตโช</text><text class="cls-5" transform="translate(731.12 974.24)">pe<tspan class="cls-33" x="24.35" y="0">c</tspan><tspan x="36.21" y="0">k</tspan></text><text class="cls-5" transform="translate(823.64 950)">see</text><text class="cls-5" transform="translate(783.47 977.67)">l<tspan class="cls-13" x="5.04" y="0">o</tspan><tspan class="cls-17" x="17.12" y="0">v</tspan><tspan x="26.83" y="0">e</tspan></text><text class="cls-44" transform="translate(802.3 834.15)">t<tspan class="cls-35" x="6.27" y="0">han</tspan><tspan class="cls-6" x="41.99" y="0">k</tspan><tspan class="cls-30" x="53.08" y="0">s</tspan></text><text class="cls-5" transform="translate(686.83 915.49)"><tspan class="cls-33">c</tspan><tspan x="11.85" y="0">ome</tspan></text><text class="cls-5" transform="translate(708.21 832.07)">s<tspan class="cls-21" x="10.85" y="0">t</tspan><tspan class="cls-45" x="17.63" y="0">y</tspan><tspan x="28.44" y="0">le</tspan></text><text class="cls-5" transform="translate(757.12 809.5)">when</text><text class="cls-5" transform="translate(1127.95 218.69)">ba<tspan class="cls-18" x="24.24" y="0">c</tspan><tspan class="cls-6" x="36.09" y="0">k</tspan><tspan x="47.19" y="0">s</tspan><tspan class="cls-46" x="58.04" y="0">t</tspan><tspan class="cls-13" x="64.29" y="0">a</tspan><tspan class="cls-47" x="75.74" y="0">g</tspan><tspan x="87.99" y="0">e</tspan></text><text class="cls-5" transform="translate(929.85 251.18)">pe<tspan class="cls-23" x="24.35" y="0">r</tspan><tspan class="cls-27" x="32.72" y="0">f</tspan><tspan x="38.53" y="0">ect</tspan></text><text class="cls-5" transform="translate(956.9 205.25)">pic<tspan class="cls-48" x="29.4" y="0">t</tspan><tspan x="35.51" y="0">u</tspan><tspan class="cls-16" x="47.54" y="0">r</tspan><tspan class="cls-30" x="55.13" y="0">e</tspan></text><text class="cls-5" transform="translate(987.8 315.39)">aist</text><text class="cls-5" transform="translate(1024.95 162.95)"><tspan class="cls-47">g</tspan><tspan class="cls-9" x="12.25" y="0">e</tspan><tspan x="24.02" y="0">t</tspan></text><text class="cls-5" transform="translate(1113.92 164.88)">si<tspan class="cls-24" x="15.89" y="0">n</tspan><tspan class="cls-49" x="27.83" y="0">g</tspan><tspan x="40.09" y="0">er</tspan></text><text class="cls-50" transform="translate(1143.18 107.91)">t<tspan class="cls-51" x="6.27" y="0">r</tspan><tspan class="cls-19" x="13.86" y="0">e</tspan><tspan class="cls-26" x="25.58" y="0">a</tspan><tspan x="37.21" y="0">t</tspan><tspan class="cls-30" x="43.48" y="0">ment</tspan></text><text class="cls-5" transform="translate(1061.5 134.59)"><tspan class="cls-18">c</tspan><tspan x="11.85" y="0">ho</tspan><tspan class="cls-52" x="36.16" y="0">k</tspan><tspan x="47.08" y="0">e</tspan></text><text class="cls-5" transform="translate(1135.75 317.07)">h<tspan class="cls-49" x="12.03" y="0">a</tspan><tspan x="23.71" y="0">sh</tspan><tspan class="cls-53" x="46.58" y="0">t</tspan><tspan class="cls-13" x="52.83" y="0">a</tspan><tspan x="64.28" y="0">g</tspan></text><text class="cls-54" transform="translate(1169.28 267.54)">w<tspan class="cls-30" x="14.98" y="0">orl</tspan><tspan class="cls-55" x="40.07" y="0">d</tspan><tspan class="cls-22" x="52.77" y="0">w</tspan><tspan class="cls-8" x="67.95" y="0">ide</tspan></text><text class="cls-5" transform="translate(940.77 142.69)"><tspan class="cls-13">r</tspan><tspan class="cls-56" x="7.57" y="0">o</tspan><tspan x="19.8" y="0">w</tspan></text><text class="cls-5" transform="translate(1083.75 65.35)">f<tspan class="cls-13" x="5.92" y="0">r</tspan><tspan x="13.48" y="0">ont</tspan></text><text class="cls-5" transform="translate(997.6 85.15)"><tspan class="cls-19">t</tspan><tspan x="5.98" y="0">op</tspan></text><text class="cls-5" transform="translate(1190.17 182.34)">in<tspan class="cls-57" x="17.08" y="0">f</tspan><tspan x="23.08" y="0">luen</tspan><tspan class="cls-18" x="63.99" y="0">c</tspan><tspan class="cls-30" x="75.85" y="0">er</tspan></text></g></svg>