<svg id="Layer_1" data-name="Layer 1" xmlns="http://www.w3.org/2000/svg" viewBox="0 0 1889 1571"><defs><style>.cls-1,.cls-10,.cls-11,.cls-9{fill:none;}.cls-1{stroke:#16c677;}.cls-19,.cls-2,.cls-28,.cls-31,.cls-36,.cls-37,.cls-45,.cls-50,.cls-56{isolation:isolate;font-size:21.31px;font-family:NimbusSan-Reg, Nimbus Sans;}.cls-3,.cls-50{letter-spacing:0em;}.cls-4{letter-spacing:0.04em;}.cls-5{letter-spacing:-0.01em;}.cls-6{letter-spacing:0.02em;}.cls-19,.cls-7{letter-spacing:0em;}.cls-37,.cls-8{letter-spacing:0em;}.cls-9{stroke:#8929a9;}.cls-10{stroke:#11c574;}.cls-11{stroke:#fd8326;}.cls-12{letter-spacing:-0.01em;}.cls-13{letter-spacing:0em;}.cls-14{letter-spacing:0em;}.cls-15,.cls-45{letter-spacing:-0.01em;}.cls-16{letter-spacing:-0.01em;}.cls-17{letter-spacing:0em;}.cls-18{letter-spacing:-0.01em;}.cls-20{letter-spacing:0em;}.cls-21,.cls-31{letter-spacing:-0.02em;}.cls-22{letter-spacing:0.03em;}.cls-23{letter-spacing:0em;}.cls-24{letter-spacing:0em;}.cls-25{letter-spacing:0em;}.cls-26{letter-spacing:0.04em;}.cls-27{letter-spacing:0em;}.cls-28,.cls-34{letter-spacing:0em;}.cls-29{letter-spacing:0.03em;}.cls-30{letter-spacing:0.03em;}.cls-32{letter-spacing:0.01em;}.cls-33{letter-spacing:0em;}.cls-35{letter-spacing:0em;}.cls-36{letter-spacing:-0.01em;}.cls-38{letter-spacing:-0.01em;}.cls-39{letter-spacing:-0.01em;}.cls-40{letter-spacing:0.01em;}.cls-41{letter-spacing:-0.01em;}.cls-42{letter-spacing:-0.01em;}.cls-43{letter-spacing:0em;}.cls-44{letter-spacing:0.01em;}.cls-46{letter-spacing:0em;}.cls-47{letter-spacing:0em;}.cls-48{letter-spacing:0em;}.cls-49{letter-spacing:0.03em;}.cls-51{letter-spacing:0em;}.cls-52{letter-spacing:0.03em;}.cls-53{letter-spacing:-0.01em;}.cls-54{letter-spacing:0em;}.cls-55,.cls-56{letter-spacing:-0.01em;}.cls-57{letter-spacing:0em;}.cls-58{letter-spacing:0em;}</style></defs><g id="edges"><path class="cls-1" d="M1572.08,1300.2c30.42-37.87,132.85-49.06,170.72-18.64"/><path class="cls-1" d="M1572.08,1300.2c20.9,20.7,21.2,83.11.5,104"/><path class="cls-1" d="M1572.08,1300.2c53.32-3.71,138.86,70.71,142.57,124"/><path class="cls-1" d="M1572.08,1300.2c-48.83,46-191,41.64-236.95-7.19"/><path class="cls-1" d="M1572.08,1300.2c-123.88-35.26-256.82-274-221.55-397.87"/><path class="cls-1" d="M1572.08,1300.2c-4-28.64,33-77.56,61.67-81.54"/><path class="cls-1" d="M1572.08,1300.2c10.41,32.67-23,97.29-55.66,107.7"/><path class="cls-1" d="M1572.08,1300.2c33.24,9.14,69.39,72.72,60.25,106"/><path class="cls-1" d="M1572.08,1300.2c33.77,35.52,31.14,139.44-4.38,173.21"/><path class="cls-1" d="M1572.08,1300.2c50.09,19,96.77,122.58,77.79,172.67"/><path class="cls-1" d="M1572.08,1300.2c10.7-37.51,83-77.73,120.5-67"/><text class="cls-2" transform="translate(1648.77 1361.14)">n<tspan class="cls-3" x="11.49" y="0">e</tspan><tspan class="cls-4" x="22.72" y="0">w</tspan><tspan class="cls-5" x="37.87" y="0">y</tspan><tspan x="47.78" y="0">or</tspan><tspan class="cls-6" x="66.92" y="0">k</tspan><tspan class="cls-7" x="78.3" y="0">f</tspan><tspan class="cls-8" x="83.88" y="0">a</tspan><tspan x="95.03" y="0">shion</tspan><tspan class="cls-7" x="144.9" y="0">w</tspan><tspan x="159.2" y="0">eek</tspan></text><path class="cls-1" d="M1572.08,1300.2C1455.87,1197,1436.32,868,1539.49,751.74"/><path class="cls-1" d="M1572.08,1300.2c-185.61,24.36-500.56-217.51-524.92-403.12"/><path class="cls-1" d="M1572.08,1300.2c-72.76,45.27-249.8,4-295.08-68.7"/><path class="cls-1" d="M1572.08,1300.2c20.74-21,83.41-21.51,104.45-.78"/><path class="cls-1" d="M1572.08,1300.2c-55.41,22-171.55-28.06-193.57-83.46"/><path class="cls-1" d="M1572.08,1300.2c46.31-23.94,151.68,9.63,175.61,55.94"/><path class="cls-1" d="M1572.08,1300.2c-81.65,20.18-234.4-72-254.58-153.67"/><path class="cls-1" d="M1572.08,1300.2c-66.06,1.26-167-96-168.31-162"/><path class="cls-9" d="M1319.26,283.38c-9.27-45.87,45.63-128.57,91.49-137.84"/><path class="cls-9" d="M1319.26,283.38c-49.61-10.66-108-101.06-97.38-150.67"/><path class="cls-9" d="M1319.26,283.38c-24.7,24.12-97.94,23.24-122.06-1.46"/><path class="cls-9" d="M1319.26,283.38c29.75-11.1,91,16.88,102.1,46.63"/><path class="cls-9" d="M1319.26,283.38c68.32,177.16-94.94,545.38-272.1,613.7"/><path class="cls-9" d="M1319.26,283.38c-28.44,6.58-81-26.22-87.54-54.65"/><path class="cls-9" d="M1319.26,283.38c-11.25-27.57,13.21-85.79,40.77-97"/><path class="cls-9" d="M1319.26,283.38C1457,333,1589.12,614,1539.49,751.74"/><path class="cls-9" d="M1319.26,283.38c-44.23,14.85-132.85-29.21-147.71-73.44"/><path class="cls-9" d="M1319.26,283.38c-28.1-23.53-35-101-11.44-129.06"/><path class="cls-9" d="M1319.26,283.38c-30-9.52-60.86-68.88-51.34-98.94"/><path class="cls-9" d="M1319.26,283.38c25.9-28.16,107-31.55,135.16-5.65"/><path class="cls-9" d="M1319.26,283.38c9.86-26.74,64.75-52.07,91.49-42.21"/><path class="cls-9" d="M1319.26,283.38c-33.83-40.52-23.78-152,16.74-185.88"/><path class="cls-9" d="M1319.26,283.38c27.12,7.73,56.2,60,48.47,87.13"/><path class="cls-9" d="M1319.26,283.38c130,117.53,148.8,488.9,31.27,619"/><path class="cls-9" d="M1319.26,283.38c12.2-45,97.92-94.09,142.88-81.9"/><path class="cls-9" d="M1319.26,283.38c9.39,26-15.53,79.08-41.53,88.47"/><path class="cls-9" d="M1319.26,283.38c53.57,100.55-16.91,331.74-117.47,385.3"/><path class="cls-9" d="M1319.26,283.38c-8.36,31.24-67.77,65.57-99,57.21"/><path class="cls-10" d="M1137.1,1059.46c-50.47-14.49-104.43-111.92-89.94-162.38"/><path class="cls-10" d="M1137.1,1059.46c86.32,7.1,205.14,147.23,198,233.55"/><path class="cls-10" d="M1137.1,1059.46c13.39,18.69,5.44,66.82-13.26,80.21"/><path class="cls-10" d="M1137.1,1059.46c11.26-74.11,139.31-168.39,213.43-157.13"/><path class="cls-10" d="M1137.1,1059.46c13.8,30.79-11.68,97.68-42.47,111.48"/><path class="cls-10" d="M1137.1,1059.46c-13.74-17.48-8.13-64.31,9.36-78.05"/><path class="cls-10" d="M1137.1,1059.46c18.66,3.81,40.93,37.5,37.13,56.16"/><path class="cls-10" d="M1137.1,1059.46c53.49-18.67,161.74,33.57,180.4,87.07"/><path class="cls-10" d="M1137.1,1059.46c79.74-16.83,224.58,77.54,241.41,157.28"/><path class="cls-10" d="M1137.1,1059.46c-17.08,11.94-60.61,4.23-72.55-12.84"/><path class="cls-10" d="M1137.1,1059.46c-22.43-2.45-52.39-39.75-49.94-62.18"/><path class="cls-10" d="M1137.1,1059.46c69.08-37.59,229.08,9.64,266.67,78.72"/><path class="cls-10" d="M1137.1,1059.46c62.39,6.43,146.33,109.65,139.9,172"/><path class="cls-10" d="M1137.1,1059.46c-28.1,16.77-95.39-.22-112.16-28.32"/><path class="cls-10" d="M1137.1,1059.46c2.56-20.33,36.91-47,57.24-44.43"/><path class="cls-10" d="M1137.1,1059.46c-17.65,30.32-89.61,49.34-119.93,31.69"/><path class="cls-10" d="M1137.1,1059.46c-62.77,109.24-320.79,178.93-430,116.16"/><path class="cls-10" d="M1137.1,1059.46c-1.76,35.85-58.15,87-94,85.23"/><path class="cls-10" d="M1137.1,1059.46c-65.22-91.09-26.4-325.56,64.69-390.78"/><path class="cls-10" d="M1137.1,1059.46c-3.24,21.52-40.37,49-61.89,45.71"/><path class="cls-11" d="M255.34,1264.74c-29.17-5-65.35-56.37-60.3-85.54"/><path class="cls-11" d="M255.34,1264.74c72.53-108.17,343.57-161.64,451.74-89.12"/><path class="cls-11" d="M255.34,1264.74c-42.39-14.66-84-100.24-69.33-142.64"/><path class="cls-11" d="M255.34,1264.74c3.93,30.38-35.74,81.85-66.12,85.78"/><path class="cls-11" d="M255.34,1264.74c-15,29-81,50.16-110.08,35.17"/><path class="cls-11" d="M255.34,1264.74c-5.29,45.34-81.25,105.4-126.59,100.11"/><path class="cls-11" d="M255.34,1264.74c38.38-5.61,104.37,43.55,110,81.93"/><path class="cls-11" d="M255.34,1264.74c22.13,22.24,22,88.78-.28,110.91"/><path class="cls-11" d="M255.34,1264.74c12.19-29.08,74.11-54.42,103.19-42.23"/><path class="cls-11" d="M255.34,1264.74c40.63,21.4,69.47,114.45,48.07,155.08"/><path class="cls-11" d="M255.34,1264.74c28.33,5.54,62.51,56.33,57,84.66"/><path class="cls-11" d="M255.34,1264.74c-45.56,9-127.47-45.73-136.52-91.29"/><path class="cls-11" d="M255.34,1264.74c84.83-231.89,559.92-452.49,791.82-367.66"/><path class="cls-11" d="M255.34,1264.74c-28.73-31.87-24-122.77,7.86-151.5"/><path class="cls-11" d="M255.34,1264.74c-26.27,13.56-86-5.5-99.58-31.77"/><path class="cls-11" d="M255.34,1264.74c20.81,41.85-10.75,135.85-52.6,156.66"/><path class="cls-11" d="M255.34,1264.74c24.66-19.46,90.84-11.67,110.3,13"/><path class="cls-11" d="M255.34,1264.74c-15.66-23-4.66-81,18.33-96.62"/><path class="cls-11" d="M255.34,1264.74c-3.62-36.27,45.35-96.11,81.62-99.73"/><path class="cls-11" d="M255.34,1264.74c-34,32.49-133.66,30.27-166.15-3.7"/></g><text class="cls-2" transform="translate(1719.12 1284.45)">ma<tspan class="cls-12" x="27.64" y="0">r</tspan><tspan x="34.87" y="0">c</tspan></text><text class="cls-2" transform="translate(1541.77 1409.15)">ja<tspan class="cls-13" x="16.2" y="0">c</tspan><tspan x="27.51" y="0">o</tspan><tspan class="cls-14" x="39.24" y="0">b</tspan><tspan x="51.28" y="0">s</tspan></text><text class="cls-2" transform="translate(1680.3 1428.18)">run<tspan class="cls-15" x="30.39" y="0">w</tspan><tspan class="cls-16" x="44.63" y="0">a</tspan><tspan class="cls-17" x="55.48" y="0">y</tspan></text><text class="cls-2" transform="translate(1284.81 1297.95)">mil<tspan class="cls-18" x="26.15" y="0">e</tspan><tspan class="cls-5" x="37.13" y="0">y</tspan><tspan class="cls-15" x="47.04" y="0">c</tspan><tspan x="58.18" y="0">yrus</tspan></text><text class="cls-19" transform="translate(1316.16 906.27)">f<tspan class="cls-14" x="5.58" y="0">a</tspan><tspan class="cls-20" x="16.73" y="0">shion</tspan></text><text class="cls-2" transform="translate(1607.69 1222.54)">ma<tspan class="cls-21" x="27.64" y="0">k</tspan><tspan class="cls-17" x="38.06" y="0">e</tspan></text><text class="cls-2" transform="translate(1496.29 1412.84)"><tspan class="cls-5">y</tspan><tspan x="9.91" y="0">ork</tspan></text><text class="cls-2" transform="translate(1605.66 1410.04)">debut</text><text class="cls-2" transform="translate(1548.15 1476.3)">n<tspan class="cls-3" x="11.49" y="0">e</tspan><tspan x="22.72" y="0">w</tspan></text><text class="cls-2" transform="translate(1612.16 1477.87)">o<tspan class="cls-22" x="11.72" y="0">f</tspan><tspan class="cls-23" x="18.03" y="0">f</tspan><tspan x="23.76" y="0">icial</tspan><tspan class="cls-24" x="60.61" y="0">l</tspan><tspan class="cls-17" x="65.53" y="0">y</tspan></text><text class="cls-2" transform="translate(1648.15 1237.12)"><tspan class="cls-8">g</tspan><tspan x="11.7" y="0">o</tspan><tspan class="cls-25" x="23.42" y="0">r</tspan><tspan class="cls-8" x="30.77" y="0">g</tspan><tspan class="cls-17" x="42.47" y="0">eous</tspan></text><text class="cls-2" transform="translate(1519.95 755.62)">look</text><text class="cls-2" transform="translate(1022.28 900.96)">sh<tspan class="cls-3" x="21.84" y="0">o</tspan><tspan x="33.52" y="0">w</tspan></text><text class="cls-2" transform="translate(1254.49 1235.44)"><tspan class="cls-26">f</tspan><tspan x="6.39" y="0">w20</tspan></text><text class="cls-19" transform="translate(1651.66 1303.3)">w<tspan class="cls-17" x="14.3" y="0">eek</tspan></text><text class="cls-2" transform="translate(1364.89 1220.59)">intl</text><text class="cls-2" transform="translate(1292.64 1151.46)">mil<tspan class="cls-18" x="26.15" y="0">e</tspan><tspan class="cls-17" x="37.13" y="0">y</tspan></text><text class="cls-2" transform="translate(1390.15 1142.12)"><tspan class="cls-7">f</tspan><tspan x="5.58" y="0">all</tspan></text><text class="cls-2" transform="translate(1389.43 149.42)">ni<tspan class="cls-13" x="16.3" y="0">c</tspan><tspan class="cls-24" x="27.62" y="0">k</tspan><tspan x="38.6" y="0">i</tspan></text><text class="cls-2" transform="translate(1196.42 137.64)">min<tspan class="cls-27" x="32.82" y="0">a</tspan><tspan x="43.86" y="0">j</tspan></text><text class="cls-28" transform="translate(1167.57 285.8)">a<tspan class="cls-29" x="11.1" y="0">t</tspan><tspan class="cls-27" x="17.48" y="0">t</tspan><tspan class="cls-17" x="23.19" y="0">end</tspan></text><text class="cls-2" transform="translate(1398.25 334.86)">p<tspan class="cls-3" x="11.98" y="0">e</tspan><tspan class="cls-29" x="23.21" y="0">t</tspan><tspan class="cls-30" x="29.58" y="0">t</tspan><tspan x="36.06" y="0">y</tspan></text><text class="cls-2" transform="translate(1190.83 232.6)">husband</text><text class="cls-31" transform="translate(1322.11 190.21)">k<tspan class="cls-17" x="10.42" y="0">enn</tspan><tspan class="cls-3" x="44.67" y="0">e</tspan><tspan class="cls-32" x="55.9" y="0">t</tspan><tspan class="cls-17" x="61.89" y="0">h</tspan></text><text class="cls-2" transform="translate(1141.92 213.82)"><tspan class="cls-13">q</tspan><tspan x="12.02" y="0">ueen</tspan></text><text class="cls-2" transform="translate(1293 158.11)"><tspan class="cls-33">e</tspan><tspan class="cls-34" x="11.19" y="0">a</tspan><tspan x="22.29" y="0">t</tspan></text><text class="cls-2" transform="translate(1248.37 189.38)">la<tspan class="cls-35" x="15.94" y="0">d</tspan><tspan x="28.07" y="0">y</tspan></text><text class="cls-36" transform="translate(1439.02 281.61)">r<tspan class="cls-17" x="7.29" y="0">ap</tspan></text><text class="cls-37" transform="translate(1360.99 246.11)">g<tspan class="cls-17" x="11.7" y="0">entleman</tspan></text><text class="cls-2" transform="translate(1294.54 102.44)">yi<tspan class="cls-21" x="15" y="0">k</tspan><tspan class="cls-17" x="25.43" y="0">e</tspan><tspan class="cls-24" x="36.7" y="0">s</tspan><tspan x="47.16" y="0">p</tspan><tspan class="cls-16" x="59.14" y="0">a</tspan><tspan class="cls-17" x="69.99" y="0">y</tspan></text><text class="cls-2" transform="translate(1348.18 374.39)">h<tspan class="cls-3" x="11.49" y="0">o</tspan><tspan x="23.17" y="0">w</tspan></text><text class="cls-2" transform="translate(1430.74 205.36)"><tspan class="cls-38">v</tspan><tspan x="9.19" y="0">alider</tspan></text><text class="cls-2" transform="translate(1252.25 375.79)">dé<tspan class="cls-23" x="23.29" y="0">f</tspan><tspan x="29.03" y="0">ilé</tspan></text><text class="cls-2" transform="translate(1175.73 672.56)">d<tspan class="cls-39" x="12.02" y="0">r</tspan><tspan class="cls-17" x="19.27" y="0">e</tspan><tspan class="cls-40" x="30.54" y="0">s</tspan><tspan x="41.07" y="0">s</tspan></text><text class="cls-2" transform="translate(1203.07 343.48)"><tspan class="cls-41">z</tspan><tspan x="9.55" y="0">oo</tspan></text><text class="cls-2" transform="translate(1074.69 1144.61)">ma<tspan class="cls-42" x="27.64" y="0">r</tspan><tspan class="cls-43" x="34.87" y="0">c</tspan><tspan x="46.03" y="0">ja</tspan><tspan class="cls-13" x="62.23" y="0">c</tspan><tspan x="73.55" y="0">ob</tspan></text><text class="cls-2" transform="translate(1065.61 1174.82)">model</text><text class="cls-2" transform="translate(1100.84 986.41)"><tspan class="cls-5">n</tspan><tspan x="11.21" y="0">y</tspan><tspan class="cls-26" x="21.4" y="0">f</tspan><tspan x="27.79" y="0">w2020</tspan></text><text class="cls-2" transform="translate(1152.32 1120.55)">s<tspan class="cls-30" x="10.36" y="0">t</tspan><tspan class="cls-44" x="16.84" y="0">y</tspan><tspan x="27.15" y="0">le</tspan></text><text class="cls-2" transform="translate(1037.89 1050.49)">moda</text><text class="cls-2" transform="translate(1072.34 1002.13)"><tspan class="cls-8">g</tspan><tspan class="cls-3" x="11.7" y="0">e</tspan><tspan x="22.93" y="0">t</tspan></text><text class="cls-45" transform="translate(999.48 1035.09)">c<tspan class="cls-17" x="11.15" y="0">yrus</tspan></text><text class="cls-2" transform="translate(1149.92 1018.91)"><tspan class="cls-13">c</tspan><tspan x="11.32" y="0">ollec</tspan><tspan class="cls-32" x="55.22" y="0">t</tspan><tspan x="61.21" y="0">ion</tspan></text><text class="cls-2" transform="translate(982.81 1095.09)"><tspan class="cls-26">f</tspan><tspan x="6.39" y="0">w2020</tspan></text><text class="cls-2" transform="translate(690.49 1180.56)">just</text><text class="cls-2" transform="translate(1014.67 1148.56)"><tspan class="cls-44">w</tspan><tspan x="14.49" y="0">in</tspan><tspan class="cls-33" x="30.8" y="0">t</tspan><tspan x="36.51" y="0">er</tspan></text><text class="cls-2" transform="translate(1047.37 1109.05)"><tspan class="cls-13">c</tspan><tspan x="11.32" y="0">he</tspan><tspan class="cls-13" x="34.08" y="0">c</tspan><tspan x="45.39" y="0">k</tspan></text><text class="cls-2" transform="translate(148.26 1184.14)">ni<tspan class="cls-46" x="16.3" y="0">c</tspan><tspan class="cls-24" x="27.62" y="0">k</tspan><tspan x="38.6" y="0">imin</tspan><tspan class="cls-47" x="76.23" y="0">a</tspan><tspan x="87.27" y="0">j</tspan></text><text class="cls-2" transform="translate(174.16 1124.99)">on</text><text class="cls-2" transform="translate(163.15 1355.46)"><tspan class="cls-8">g</tspan><tspan class="cls-48" x="11.7" y="0">e</tspan><tspan class="cls-49" x="22.93" y="0">t</tspan><tspan class="cls-32" x="29.3" y="0">t</tspan><tspan x="35.29" y="0">in</tspan></text><text class="cls-50" transform="translate(120.97 1303.79)">o<tspan class="cls-32" x="11.68" y="0">t</tspan><tspan class="cls-51" x="17.67" y="0">her</tspan></text><text class="cls-2" transform="translate(93.19 1369.72)">happen</text><text class="cls-2" transform="translate(353.48 1351.52)"><tspan class="cls-32">t</tspan><tspan class="cls-52" x="5.99" y="0">r</tspan><tspan x="14.07" y="0">y</tspan></text><text class="cls-2" transform="translate(236.11 1380.58)">sl<tspan class="cls-53" x="15.17" y="0">a</tspan><tspan class="cls-51" x="26.02" y="0">y</tspan></text><text class="cls-2" transform="translate(318.26 1227.44)">n<tspan class="cls-54" x="11.49" y="0">a</tspan><tspan class="cls-13" x="22.59" y="0">t</tspan><tspan class="cls-51" x="28.43" y="0">u</tspan><tspan class="cls-15" x="39.92" y="0">r</tspan><tspan x="47.21" y="0">al</tspan><tspan class="cls-24" x="63.15" y="0">l</tspan><tspan x="68.07" y="0">y</tspan></text><text class="cls-2" transform="translate(279.7 1423.69)">need</text><text class="cls-2" transform="translate(289.21 1352.29)"><tspan class="cls-43">e</tspan><tspan class="cls-55" x="11.17" y="0">v</tspan><tspan x="20.44" y="0">en</tspan></text><text class="cls-56" transform="translate(99.88 1177.39)">w<tspan class="cls-5" x="14.24" y="0">a</tspan><tspan class="cls-51" x="25.08" y="0">y</tspan></text><text class="cls-2" transform="translate(222.32 1118.18)">designer</text><text class="cls-2" transform="translate(137.98 1236.85)">end</text><text class="cls-2" transform="translate(180.23 1425.25)"><tspan class="cls-32">t</tspan><tspan x="5.99" y="0">hink</tspan></text><text class="cls-37" transform="translate(341.94 1282.66)">g<tspan class="cls-57" x="11.7" y="0">ood</tspan></text><text class="cls-2" transform="translate(259.45 1173.05)">big</text><text class="cls-2" transform="translate(309.72 1170.01)"><tspan class="cls-58">f</tspan><tspan x="5.73" y="0">inal</tspan><tspan class="cls-24" x="37.98" y="0">l</tspan><tspan class="cls-51" x="42.9" y="0">y</tspan></text><text class="cls-2" transform="translate(67.86 1264.92)">darn</text></svg>