<svg id="Layer_1" data-name="Layer 1" xmlns="http://www.w3.org/2000/svg" viewBox="0 0 2288 1474"><defs><style>.cls-1,.cls-2,.cls-3,.cls-4{fill:none;}.cls-1{stroke:#fd8326;}.cls-2{stroke:#8929a9;}.cls-3{stroke:#fc2130;}.cls-4{stroke:#11c574;}.cls-44,.cls-46,.cls-5,.cls-53,.cls-57,.cls-58{isolation:isolate;font-size:22px;}.cls-46,.cls-5,.cls-57,.cls-58{font-family:NimbusSan-Reg, Nimbus Sans;}.cls-6{letter-spacing:0em;}.cls-7{letter-spacing:0em;}.cls-8{letter-spacing:0.03em;}.cls-9{letter-spacing:0.01em;}.cls-10,.cls-57{letter-spacing:0em;}.cls-11{letter-spacing:-0.01em;}.cls-12{letter-spacing:-0.01em;}.cls-13{letter-spacing:0em;}.cls-14{letter-spacing:0em;}.cls-15{letter-spacing:0em;}.cls-16{letter-spacing:-0.01em;}.cls-17{letter-spacing:0.01em;}.cls-18{letter-spacing:-0.01em;}.cls-19{letter-spacing:-0.01em;}.cls-20{letter-spacing:-0.01em;}.cls-21{letter-spacing:0.01em;}.cls-22{letter-spacing:-0.01em;}.cls-23,.cls-46{letter-spacing:0em;}.cls-24{letter-spacing:0em;}.cls-25{letter-spacing:0.04em;}.cls-26{letter-spacing:0em;}.cls-27{letter-spacing:-0.01em;}.cls-28{letter-spacing:0em;}.cls-29{letter-spacing:0em;}.cls-30{letter-spacing:0em;}.cls-31{letter-spacing:0em;}.cls-32{letter-spacing:0.01em;}.cls-33{letter-spacing:0em;}.cls-34{letter-spacing:-0.02em;}.cls-35{letter-spacing:0em;}.cls-36{letter-spacing:0em;}.cls-37{letter-spacing:-0.01em;}.cls-38{letter-spacing:-0.01em;}.cls-39{letter-spacing:0em;}.cls-40{letter-spacing:0.01em;}.cls-41{letter-spacing:0.03em;}.cls-42{letter-spacing:-0.02em;}.cls-43{letter-spacing:0.03em;}.cls-44{font-family:AdobeMyungjoStd-Medium-KSCpc-EUC-H, Adobe Myungjo Std;}.cls-45{letter-spacing:0em;}.cls-47{letter-spacing:0.03em;}.cls-48{letter-spacing:-0.01em;}.cls-49{letter-spacing:-0.02em;}.cls-50{letter-spacing:-0.02em;}.cls-51{letter-spacing:-0.01em;}.cls-52{letter-spacing:-0.02em;}.cls-53{font-family:ArialUnicodeMS, Arial Unicode MS;}.cls-54{letter-spacing:-0.01em;}.cls-55{letter-spacing:0em;}.cls-56{letter-spacing:-0.01em;}.cls-58{letter-spacing:0.01em;}.cls-59{letter-spacing:-0.03em;}</style></defs><g id="edges"><path class="cls-1" d="M1063.09,723.93c14.62-24.5,73.3-39.33,97.8-24.71"/><path class="cls-1" d="M1063.09,723.93c-9.64,21.74-56.71,39.87-78.45,30.23"/><path class="cls-1" d="M1063.09,723.93c-2.71,33.4-56.87,79.44-90.27,76.73"/><path class="cls-1" d="M1063.09,723.93c-21,21.46-84.81,22.06-106.26,1"/><path class="cls-1" d="M1063.09,723.93c21.76,13.58,34,66.58,20.45,88.34"/><path class="cls-1" d="M1063.09,723.93c-92.58.76-232.58-137-233.34-229.54"/><path class="cls-1" d="M1063.09,723.93c94.73-97.77,383.49-102.34,481.27-7.61"/><path class="cls-1" d="M1063.09,723.93c-22.27,10.07-70.79-8.23-80.86-30.51"/><path class="cls-1" d="M1063.09,723.93c2.85-35.27,60-83.91,95.29-81.07"/><path class="cls-1" d="M1063.09,723.93c7.87,23.91-16.2,71.57-40.11,79.44"/><path class="cls-1" d="M1063.09,723.93c-26-.89-63.66-41.22-62.77-67.22"/><path class="cls-1" d="M1063.09,723.93c29.9-2.51,78.53,38.56,81,68.46"/><path class="cls-1" d="M1063.09,723.93c37.27,14.61,71.27,92.43,56.66,129.7"/><path class="cls-1" d="M1063.09,723.93c26.92-16.31,91.77-.4,108.08,26.51"/><path class="cls-1" d="M1063.09,723.93c88.14-72,328.36-47.82,400.37,40.31"/><path class="cls-1" d="M1063.09,723.93c-8.18-23.8,15.25-71.78,39.06-80"/><path class="cls-1" d="M1063.09,723.93c-25.25-14.37-41.57-73.8-27.2-99"/><path class="cls-1" d="M1063.09,723.93c-20.31-29.88-6-105.19,23.93-125.51"/><path class="cls-1" d="M1063.09,723.93c21.57,31.14,7.21,110.19-23.93,131.76"/><path class="cls-2" d="M450.7,258c1.14-29.29,46.8-71.51,76.1-70.36"/><path class="cls-2" d="M450.7,258c-28.61.48-72.23-41.73-72.71-70.34"/><path class="cls-2" d="M450.7,258c80.21,98.53,52.74,366.66-45.79,446.87"/><path class="cls-2" d="M450.7,258c8.63,26.14-17.64,78.3-43.78,86.93"/><path class="cls-2" d="M450.7,258c20.35-30.76,97-46.38,127.8-26"/><path class="cls-2" d="M450.7,258C417.5,236,400.8,153.08,422.86,119.88"/><path class="cls-2" d="M450.7,258c-33.9-40.69-23.7-152.57,17-186.46"/><path class="cls-2" d="M450.7,258c65,137.12-43.13,440.33-180.24,505.35"/><path class="cls-2" d="M450.7,258c48.78,103.52-33.31,332-136.83,380.77"/><path class="cls-2" d="M450.7,258c-16.76-25-4.35-87.73,20.69-104.5"/><path class="cls-2" d="M450.7,258c96.63,130.34,46.06,470.79-84.28,567.41"/><path class="cls-2" d="M450.7,258c-48.07-12-102.24-102-90.28-150.07"/><path class="cls-2" d="M450.7,258c27.1-14.26,89.13,5,103.39,32.11"/><path class="cls-2" d="M450.7,258c27.84,4.42,63,52.81,58.55,80.65"/><path class="cls-2" d="M450.7,258C573.78,229.48,801.22,371.3,829.75,494.39"/><path class="cls-2" d="M450.7,258c-30,22.18-108.38,10.39-130.55-19.65"/><path class="cls-2" d="M450.7,258c-12.48-48.38,41.38-139.66,89.76-152.14"/><path class="cls-2" d="M450.7,258c8-47.42,91.21-106.49,138.63-98.46"/><path class="cls-2" d="M450.7,258c-12.92,27.38-73.37,49.05-100.74,36.13"/><path class="cls-2" d="M450.7,258c-45.7,9.71-128.82-44.28-138.53-90"/><path class="cls-3" d="M2013.51,754c-8.2,33.19-70.28,70.66-103.47,62.46"/><path class="cls-3" d="M2013.51,754c-18.56-23.72-10.82-87.15,12.9-105.71"/><path class="cls-3" d="M2013.51,754c-20.56,22.64-85.36,25.76-108,5.2"/><path class="cls-3" d="M2013.51,754c26.72,11.5,49.55,68.82,38,95.54"/><path class="cls-3" d="M2013.51,754c22.33-19.58,85.19-15.45,104.77,6.88"/><path class="cls-3" d="M2013.51,754c1.12-30,47.76-73.27,77.74-72.16"/><path class="cls-3" d="M2013.51,754c34.36-5.87,94.68,36.86,100.55,71.21"/><path class="cls-3" d="M2013.51,754c48.83,2.13,118.88,78.56,116.75,127.39"/><path class="cls-3" d="M2013.51,754c-108,112.05-438,118.18-550,10.21"/><path class="cls-3" d="M2013.51,754c40.18-26.51,140.22-6,166.74,34.16"/><path class="cls-3" d="M2013.51,754c-20.45-42.37,12.43-136.62,54.8-157.07"/><path class="cls-3" d="M2013.51,754c9.27,30-21.84,88.9-51.84,98.17"/><path class="cls-3" d="M2013.51,754c20.75-40,111.92-69,152-48.25"/><path class="cls-3" d="M2013.51,754c40,25.34,62,123.37,36.7,163.39"/><path class="cls-3" d="M2013.51,754c22.69,37.79,0,128.51-37.75,151.2"/><path class="cls-3" d="M2013.51,754c-32.8,8.57-94.87-27.78-103.44-60.59"/><path class="cls-3" d="M2013.51,754c-32.2-7.23-69.67-66.39-62.44-98.6"/><path class="cls-3" d="M2013.51,754c-101.37,86.29-382.86,63.67-469.15-37.71"/><path class="cls-3" d="M2013.51,754c1.62-49,77.5-120,126.47-118.38"/><path class="cls-3" d="M2013.51,754c-39.17-22.72-63.84-115.57-41.11-154.74"/><path class="cls-4" d="M255.51,1227.31c29.11,2.85,68.51,50.79,65.66,79.9"/><path class="cls-4" d="M255.51,1227.31c-18,42.35-108.57,78.84-150.92,60.82"/><path class="cls-4" d="M255.51,1227.31c-89.8-95.78-80.83-374.15,14.95-463.95"/><path class="cls-4" d="M255.51,1227.31c-15.84,23.49-74.84,35-98.32,19.12"/><path class="cls-4" d="M255.51,1227.31c23.3,22.12,25.09,90.25,3,113.55"/><path class="cls-4" d="M255.51,1227.31c-106-129.38-71-482.5,58.36-588.53"/><path class="cls-4" d="M255.51,1227.31c27.35-19.37,97.43-7.41,116.8,19.94"/><path class="cls-4" d="M255.51,1227.31c40.9,29.74,57.63,135.7,27.89,176.6"/><path class="cls-4" d="M255.51,1227.31c-58.2-102.56,8.35-343.69,110.91-401.89"/><path class="cls-4" d="M255.51,1227.31c23,42.44-6.14,140.61-48.58,163.62"/><path class="cls-4" d="M255.51,1227.31c3.84,31-36.86,83.21-67.84,87"/><path class="cls-4" d="M255.51,1227.31c-27-11.93-49.65-70.36-37.71-97.38"/><path class="cls-4" d="M255.51,1227.31c44.05-12.7,129.17,34.33,141.87,78.37"/><path class="cls-4" d="M255.51,1227.31c-74.61-134.36,15-447.82,149.4-522.43"/><path class="cls-4" d="M255.51,1227.31c47.86,8.81,106.43,93.81,97.62,141.67"/><path class="cls-4" d="M255.51,1227.31c-5.55-27.81,27.86-77.85,55.68-83.39"/><path class="cls-4" d="M255.51,1227.31c2.67,50.75-69.45,130.87-120.19,133.54"/><path class="cls-4" d="M255.51,1227.31c13.92-29.69,79.35-53.33,109-39.4"/><path class="cls-4" d="M255.51,1227.31c-35,26.41-127.17,13.48-153.57-21.54"/><path class="cls-4" d="M255.51,1227.31c-33.31,6.54-93.08-33.6-99.62-66.91"/></g><text class="cls-5" transform="translate(1135.39 705.66)">hadid</text><text class="cls-5" transform="translate(962.93 760.45)">bella</text><text class="cls-5" transform="translate(934.02 806.46)">morni<tspan class="cls-6" x="53.64" y="0">n</tspan><tspan x="65.41" y="0">g</tspan></text><text class="cls-5" transform="translate(939.73 730.69)">n<tspan class="cls-7" x="11.86" y="0">e</tspan><tspan x="23.45" y="0">w</tspan></text><text class="cls-5" transform="translate(1061.18 818.78)">s<tspan class="cls-8" x="10.69" y="0">t</tspan><tspan class="cls-9" x="17.38" y="0">y</tspan><tspan x="28.03" y="0">le</tspan></text><text class="cls-5" transform="translate(790.48 500.43)">dis<tspan class="cls-10" x="28.08" y="0">c</tspan><tspan class="cls-11" x="39.76" y="0">o</tspan><tspan class="cls-12" x="51.66" y="0">v</tspan><tspan x="61.23" y="0">er</tspan></text><text class="cls-5" transform="translate(1508.68 722.04)">mi<tspan class="cls-10" x="22.02" y="0">c</tspan><tspan class="cls-13" x="33.71" y="0">hael</tspan></text><text class="cls-5" transform="translate(948.81 699.11)"><tspan class="cls-14">f</tspan><tspan class="cls-15" x="5.76" y="0">a</tspan><tspan x="17.27" y="0">shion</tspan></text><text class="cls-5" transform="translate(1128.43 622.3)"><tspan class="cls-16">v</tspan><tspan class="cls-13" x="9.48" y="0">alen</tspan><tspan class="cls-17" x="49.44" y="0">t</tspan><tspan x="55.62" y="0">ine</tspan></text><text class="cls-5" transform="translate(1005.86 809.5)">d<tspan class="cls-18" x="12.41" y="0">a</tspan><tspan x="23.61" y="0">y</tspan></text><text class="cls-5" transform="translate(977.38 662.51)">eb<tspan class="cls-19" x="24.05" y="0">a</tspan><tspan x="35.25" y="0">y</tspan></text><text class="cls-5" transform="translate(1094.92 798.23)">ba<tspan class="cls-10" x="23.89" y="0">c</tspan><tspan class="cls-20" x="35.58" y="0">k</tspan><tspan x="46.51" y="0">s</tspan><tspan class="cls-21" x="57.21" y="0">t</tspan><tspan class="cls-22" x="63.37" y="0">a</tspan><tspan class="cls-23" x="74.65" y="0">g</tspan><tspan class="cls-24" x="86.73" y="0">e</tspan></text><text class="cls-5" transform="translate(1099.11 860.28)"><tspan class="cls-18">y</tspan><tspan x="10.23" y="0">ork</tspan></text><text class="cls-5" transform="translate(1137.44 770.51)">n<tspan class="cls-7" x="11.86" y="0">e</tspan><tspan class="cls-25" x="23.45" y="0">w</tspan><tspan class="cls-18" x="39.1" y="0">y</tspan><tspan x="49.33" y="0">ork</tspan></text><text class="cls-5" transform="translate(1438.05 770.08)">arr<tspan class="cls-26" x="26.8" y="0">i</tspan><tspan class="cls-12" x="31.88" y="0">v</tspan><tspan x="41.45" y="0">e</tspan></text><text class="cls-5" transform="translate(1062.58 649.58)"><tspan class="cls-10">c</tspan><tspan class="cls-13" x="11.68" y="0">ame</tspan><tspan class="cls-11" x="51.86" y="0">r</tspan><tspan x="59.32" y="0">on</tspan></text><text class="cls-5" transform="translate(1014.17 630.55)">d<tspan class="cls-22" x="12.41" y="0">o</tspan><tspan class="cls-27" x="24.31" y="0">v</tspan><tspan x="33.88" y="0">e</tspan></text><text class="cls-5" transform="translate(1041.26 603.81)">lo<tspan class="cls-28" x="17.07" y="0">s</tspan><tspan x="27.85" y="0">a</tspan><tspan class="cls-29" x="39.34" y="0">n</tspan><tspan class="cls-30" x="51.11" y="0">g</tspan><tspan x="63.19" y="0">ele</tspan></text><text class="cls-5" transform="translate(993.22 862.54)"><tspan class="cls-22">r</tspan><tspan x="7.46" y="0">o</tspan><tspan class="cls-31" x="19.56" y="0">c</tspan><tspan class="cls-12" x="31.24" y="0">k</tspan><tspan class="cls-24" x="42.33" y="0">abil</tspan><tspan class="cls-32" x="76.17" y="0">l</tspan><tspan class="cls-24" x="81.25" y="0">y</tspan></text><text class="cls-5" transform="translate(514.47 193.3)">am</text><text class="cls-5" transform="translate(364.81 193.82)">est</text><text class="cls-5" transform="translate(351.14 709.58)"><tspan class="cls-14">w</tspan><tspan class="cls-13" x="14.76" y="0">ednesd</tspan><tspan class="cls-19" x="85.41" y="0">a</tspan><tspan x="96.61" y="0">y</tspan></text><text class="cls-5" transform="translate(392.18 350.77)">l<tspan class="cls-26" x="4.97" y="0">i</tspan><tspan class="cls-12" x="10.05" y="0">v</tspan><tspan x="19.63" y="0">e</tspan></text><text class="cls-5" transform="translate(531.41 237.89)">up<tspan class="cls-10" x="24.22" y="0">c</tspan><tspan x="35.91" y="0">omi</tspan><tspan class="cls-29" x="70.03" y="0">n</tspan><tspan class="cls-13" x="81.8" y="0">g</tspan></text><text class="cls-5" transform="translate(395.96 125.6)"><tspan class="cls-12">w</tspan><tspan class="cls-33" x="14.7" y="0">a</tspan><tspan class="cls-29" x="26.16" y="0">t</tspan><tspan class="cls-10" x="32.06" y="0">c</tspan><tspan x="43.74" y="0">h</tspan></text><text class="cls-5" transform="translate(450.94 77.58)"><tspan class="cls-29">t</tspan><tspan class="cls-7" x="5.9" y="0">o</tspan><tspan class="cls-29" x="17.95" y="0">t</tspan><tspan x="23.85" y="0">e</tspan></text><text class="cls-5" transform="translate(251.64 769.67)">m<tspan class="cls-34" x="17.05" y="0">k</tspan><tspan class="cls-24" x="27.72" y="0">c</tspan></text><text class="cls-5" transform="translate(249.67 642.68)">mono<tspan class="cls-35" x="53.11" y="0">g</tspan><tspan class="cls-12" x="65.24" y="0">r</tspan><tspan x="72.76" y="0">amme</tspan></text><text class="cls-5" transform="translate(445.41 159.54)">en<tspan class="cls-17" x="23.5" y="0">t</tspan><tspan class="cls-36" x="29.68" y="0">i</tspan><tspan class="cls-37" x="34.65" y="0">r</tspan><tspan x="42.13" y="0">e</tspan></text><text class="cls-5" transform="translate(343.49 831.69)">s<tspan class="cls-29" x="10.69" y="0">t</tspan><tspan class="cls-24" x="16.59" y="0">o</tspan><tspan class="cls-38" x="28.69" y="0">r</tspan><tspan class="cls-24" x="36.17" y="0">e</tspan></text><text class="cls-5" transform="translate(334.95 114.02)">sou<tspan class="cls-17" x="34.65" y="0">t</tspan><tspan class="cls-13" x="40.84" y="0">h</tspan></text><text class="cls-5" transform="translate(517.68 295.2)">p<tspan class="cls-37" x="12.37" y="0">r</tspan><tspan class="cls-39" x="19.85" y="0">e</tspan><tspan class="cls-40" x="31.38" y="0">v</tspan><tspan x="41.21" y="0">i</tspan><tspan class="cls-7" x="46.18" y="0">e</tspan><tspan x="57.78" y="0">w</tspan></text><text class="cls-5" transform="translate(492.25 344.92)">noh</text><text class="cls-5" transform="translate(299.74 244.9)">bo<tspan class="cls-7" x="24.51" y="0">o</tspan><tspan x="36.57" y="0">t</tspan></text><text class="cls-5" transform="translate(512.98 111.57)">sn<tspan class="cls-29" x="22.55" y="0">e</tspan><tspan x="34.1" y="0">ak</tspan></text><text class="cls-5" transform="translate(560.35 165.55)">arl<tspan class="cls-7" x="24.11" y="0">e</tspan><tspan class="cls-41" x="35.71" y="0">t</tspan><tspan class="cls-29" x="42.29" y="0">t</tspan><tspan x="48.18" y="0">e</tspan></text><text class="cls-5" transform="translate(326.38 300.41)">peek</text><text class="cls-5" transform="translate(289.92 173.77)">mo<tspan class="cls-37" x="29.15" y="0">r</tspan><tspan x="36.63" y="0">e</tspan></text><text class="cls-5" transform="translate(1896.52 822.91)">j<tspan class="cls-42" x="5.24" y="0">o</tspan><tspan x="16.99" y="0">y</tspan></text><text class="cls-5" transform="translate(1982.6 653.2)"><tspan class="cls-43">r</tspan><tspan class="cls-29" x="8.34" y="0">v</tspan><tspan class="cls-13" x="17.95" y="0">sm</tspan><tspan class="cls-29" x="45.7" y="0">t</tspan><tspan class="cls-7" x="51.6" y="0">o</tspan><tspan x="63.65" y="0">wn</tspan></text><text class="cls-5" transform="translate(1885.28 765.77)">s<tspan class="cls-29" x="10.69" y="0">t</tspan><tspan class="cls-24" x="16.59" y="0">op</tspan></text><text class="cls-44" transform="translate(2031.66 863.52)">조이</text><text class="cls-5" transform="translate(2077.03 765.61)"><tspan class="cls-37">r</tspan><tspan x="7.48" y="0">e</tspan><tspan class="cls-26" x="19.12" y="0">d</tspan><tspan class="cls-12" x="31.64" y="0">v</tspan><tspan x="41.21" y="0">e</tspan><tspan class="cls-26" x="52.85" y="0">l</tspan><tspan class="cls-12" x="57.93" y="0">v</tspan><tspan class="cls-45" x="67.5" y="0">e</tspan><tspan x="79.1" y="0">t</tspan></text><text class="cls-44" transform="translate(2049.3 701.29)">레드벨벳</text><text class="cls-46" transform="translate(2090.62 831.93)">g<tspan class="cls-45" x="12.08" y="0">e</tspan><tspan class="cls-47" x="23.67" y="0">t</tspan><tspan class="cls-8" x="30.25" y="0">t</tspan><tspan class="cls-24" x="36.94" y="0">y</tspan></text><text class="cls-5" transform="translate(2101.95 886.8)">im<tspan class="cls-48" x="22.02" y="0">a</tspan><tspan class="cls-23" x="33.31" y="0">g</tspan><tspan x="45.39" y="0">e</tspan></text><text class="cls-5" transform="translate(2131.39 793.31)">bla<tspan class="cls-49" x="28.87" y="0">k</tspan><tspan x="39.63" y="0">el</tspan><tspan class="cls-26" x="56.24" y="0">i</tspan><tspan class="cls-12" x="61.32" y="0">v</tspan><tspan class="cls-24" x="70.89" y="0">e</tspan><tspan class="cls-32" x="82.53" y="0">l</tspan><tspan class="cls-24" x="87.61" y="0">y</tspan></text><text class="cls-5" transform="translate(2043.96 603.05)">bla<tspan class="cls-50" x="28.87" y="0">k</tspan><tspan x="39.63" y="0">e</tspan></text><text class="cls-5" transform="translate(1938.4 858)">l<tspan class="cls-26" x="4.97" y="0">i</tspan><tspan class="cls-12" x="10.05" y="0">v</tspan><tspan class="cls-24" x="19.63" y="0">e</tspan><tspan class="cls-32" x="31.26" y="0">l</tspan><tspan class="cls-24" x="36.35" y="0">y</tspan></text><text class="cls-5" transform="translate(2114.62 710.44)">i<tspan class="cls-51" x="4.97" y="0">m</tspan><tspan class="cls-19" x="21.76" y="0">y</tspan><tspan x="31.99" y="0">our_j</tspan><tspan class="cls-52" x="79.85" y="0">o</tspan><tspan x="91.6" y="0">y</tspan></text><text class="cls-5" transform="translate(2016.53 922.66)">im<tspan class="cls-48" x="22.02" y="0">a</tspan><tspan class="cls-23" x="33.31" y="0">g</tspan><tspan x="45.39" y="0">es</tspan></text><text class="cls-53" transform="translate(1943.83 902.17)">จอยใน</text><text class="cls-5" transform="translate(1942.72 662.16)">ig</text><text class="cls-5" transform="translate(2095.4 640.58)"><tspan class="cls-30">a</tspan><tspan class="cls-13" x="11.51" y="0">shbe</tspan><tspan class="cls-37" x="58.11" y="0">n</tspan><tspan class="cls-54" x="69.79" y="0">z</tspan><tspan x="79.65" y="0">o</tspan></text><text class="cls-5" transform="translate(1940.76 604.85)">i<tspan class="cls-51" x="4.97" y="0">m</tspan><tspan class="cls-19" x="21.76" y="0">y</tspan><tspan x="31.99" y="0">our</tspan></text><text class="cls-5" transform="translate(303.07 1313.66)">b<tspan class="cls-48" x="12.41" y="0">a</tspan><tspan x="23.7" y="0">g</tspan></text><text class="cls-5" transform="translate(87.71 1294.96)"><tspan class="cls-55">f</tspan><tspan x="5.92" y="0">i</tspan><tspan class="cls-10" x="10.89" y="0">r</tspan><tspan x="18.59" y="0">st</tspan></text><text class="cls-5" transform="translate(136.83 1252.53)"><tspan class="cls-56">w</tspan><tspan x="14.7" y="0">alk</tspan></text><text class="cls-5" transform="translate(234.8 1347.45)">shop</text><text class="cls-5" transform="translate(357.23 1253.41)">see</text><text class="cls-5" transform="translate(270.95 1410.73)">list</text><text class="cls-57" transform="translate(191.21 1397.92)">c<tspan class="cls-24" x="11.68" y="0">all</tspan></text><text class="cls-5" transform="translate(165.91 1321.27)">lo<tspan class="cls-10" x="17.07" y="0">c</tspan><tspan x="28.76" y="0">al</tspan></text><text class="cls-58" transform="translate(197.87 1136.17)">t<tspan class="cls-24" x="6.18" y="0">hen</tspan></text><text class="cls-5" transform="translate(379.22 1311.47)">l<tspan class="cls-48" x="4.97" y="0">o</tspan><tspan class="cls-12" x="16.88" y="0">v</tspan><tspan class="cls-24" x="26.45" y="0">e</tspan></text><text class="cls-57" transform="translate(328.08 1375.55)">c<tspan class="cls-24" x="11.68" y="0">hain</tspan></text><text class="cls-5" transform="translate(292.03 1150.03)"><tspan class="cls-21">t</tspan><tspan x="6.16" y="0">a</tspan><tspan class="cls-49" x="17.65" y="0">k</tspan><tspan x="28.4" y="0">e</tspan></text><text class="cls-5" transform="translate(107.73 1367.47)">o<tspan class="cls-43" x="12.1" y="0">r</tspan><tspan class="cls-40" x="20.44" y="0">v</tspan><tspan x="30.27" y="0">ille</tspan></text><text class="cls-5" transform="translate(340.95 1195.02)">pe<tspan class="cls-31" x="24" y="0">c</tspan><tspan x="35.69" y="0">k</tspan></text><text class="cls-5" transform="translate(75.83 1211.69)">s<tspan class="cls-21" x="10.69" y="0">t</tspan><tspan class="cls-48" x="16.85" y="0">a</tspan><tspan class="cls-23" x="28.14" y="0">g</tspan><tspan x="40.22" y="0">e</tspan></text><text class="cls-5" transform="translate(91.34 1166.65)">alla<tspan class="cls-10" x="32.92" y="0">cc</tspan><tspan x="56.28" y="0">e</tspan><tspan class="cls-21" x="67.92" y="0">s</tspan><tspan class="cls-26" x="78.79" y="0">s</tspan><tspan class="cls-59" x="89.59" y="0">k</tspan><tspan x="100.26" y="0">o</tspan><tspan class="cls-10" x="112.37" y="0">r</tspan><tspan x="120.07" y="0">s</tspan></text><text class="cls-53" transform="translate(1893.35 693.72)">ของ</text></svg>