<svg id="Layer_1" data-name="Layer 1" xmlns="http://www.w3.org/2000/svg" viewBox="0 0 1684 1603"><defs><style>.cls-1,.cls-2,.cls-3,.cls-4,.cls-5{fill:none;}.cls-1{stroke:#11c574;}.cls-2{stroke:#8929a9;}.cls-3{stroke:#fd8326;}.cls-4{stroke:#fc2130;}.cls-5{stroke:#fd7e87;}.cls-37,.cls-39,.cls-6{isolation:isolate;font-size:22.11px;}.cls-39,.cls-6{font-family:NimbusSan-Reg, Nimbus Sans;}.cls-7{letter-spacing:0.03em;}.cls-8{letter-spacing:0em;}.cls-9{letter-spacing:0em;}.cls-10,.cls-39{letter-spacing:0em;}.cls-11{letter-spacing:0em;}.cls-12{letter-spacing:0em;}.cls-13{letter-spacing:0em;}.cls-14{letter-spacing:0em;}.cls-15{letter-spacing:0.01em;}.cls-16{letter-spacing:0.01em;}.cls-17{letter-spacing:0.01em;}.cls-18{letter-spacing:0.03em;}.cls-19{letter-spacing:0.01em;}.cls-20{letter-spacing:-0.01em;}.cls-21{letter-spacing:0em;}.cls-22{letter-spacing:0.01em;}.cls-23{letter-spacing:0.03em;}.cls-24{letter-spacing:0em;}.cls-25{letter-spacing:0em;}.cls-26{letter-spacing:-0.02em;}.cls-27{letter-spacing:-0.01em;}.cls-28{letter-spacing:-0.01em;}.cls-29{letter-spacing:0.03em;}.cls-30{letter-spacing:-0.01em;}.cls-31{letter-spacing:0em;}.cls-32{letter-spacing:0em;}.cls-33{letter-spacing:0em;}.cls-34{letter-spacing:0em;}.cls-35{letter-spacing:0.01em;}.cls-36{letter-spacing:0em;}.cls-37{font-family:ArialUnicodeMS, Arial Unicode MS;}.cls-38{letter-spacing:-0.01em;}.cls-40{letter-spacing:0em;}.cls-41{letter-spacing:-0.02em;}.cls-42{letter-spacing:0em;}.cls-43{letter-spacing:0em;}.cls-44{letter-spacing:0em;}.cls-45{letter-spacing:-0.01em;}.cls-46{letter-spacing:0.03em;}.cls-47{letter-spacing:-0.01em;}.cls-48{letter-spacing:0.01em;}.cls-49{letter-spacing:0.01em;}.cls-50{letter-spacing:0em;}.cls-51{letter-spacing:0em;}.cls-52{letter-spacing:0.01em;}.cls-53{letter-spacing:-0.01em;}.cls-54{letter-spacing:-0.01em;}.cls-55{letter-spacing:0em;}.cls-56{letter-spacing:0.03em;}</style></defs><g id="edges"><path class="cls-1" d="M1418.93,827c-119,115.94-471.32,111.42-587.26-7.54"/><path class="cls-1" d="M1418.93,827c-25.45-37.09-8-130.9,29.12-156.34"/><path class="cls-1" d="M1418.93,827c-22.17,96-199.44,206.76-295.45,184.59"/><path class="cls-1" d="M1418.93,827c-130.36,8.27-338.29-174.85-346.56-305.21"/><path class="cls-1" d="M1418.93,827c8.87,85.24-105.67,226.42-190.91,235.29"/><path class="cls-1" d="M1418.93,827c-23.16,15.63-81.35,4.35-97-18.81"/><path class="cls-1" d="M1418.93,827c18.23-49.53,119.89-96.48,169.42-78.24"/><path class="cls-1" d="M1418.93,827c-4.42,116.62-186,284.93-302.61,280.52"/><path class="cls-1" d="M1418.93,827c47.94-10.32,135.32,46.11,145.64,94"/><path class="cls-1" d="M1418.93,827c-31.93-2.56-76-54.29-73.44-86.22"/><path class="cls-1" d="M1418.93,827c39.16-36.2,152.21-31.75,188.41,7.42"/><path class="cls-1" d="M1418.93,827c25.38-23.6,98.86-20.93,122.46,4.46"/><path class="cls-1" d="M1418.93,827c26.93,107.09-93.3,308.13-200.39,335.07"/><path class="cls-1" d="M1418.93,827c-27.62-18.74-40.93-88.26-22.19-115.87"/><path class="cls-1" d="M1418.93,827c32.88,10.26,66.81,75,56.56,107.85"/><path class="cls-1" d="M1418.93,827c-8.06-30.21,25.17-87.61,55.38-95.67"/><path class="cls-1" d="M1418.93,827c29.49-6.66,83.71,27.59,90.37,57.09"/><path class="cls-1" d="M1418.93,827c14.94,22,4.29,77.5-17.75,92.44"/><path class="cls-1" d="M1418.93,827c-5.11-51,63.75-135.21,114.77-140.32"/><path class="cls-1" d="M1418.93,827c9.45-30,68.67-60.88,98.69-51.43"/><path class="cls-2" d="M906.45,1343.75c-119.82-89.91-164.69-404.51-74.78-524.33"/><path class="cls-2" d="M906.45,1343.75c-9.24,28.69-66.14,57.87-94.84,48.63"/><path class="cls-2" d="M906.45,1343.75c24.92,17.67,35.79,81.55,18.11,106.47"/><path class="cls-2" d="M906.45,1343.75c-4.19,49.71-85,118-134.74,113.79"/><path class="cls-2" d="M906.45,1343.75c10.53,29.64-18.14,89.9-47.78,100.43"/><path class="cls-2" d="M906.45,1343.75c25.62-18,91-6.53,109,19.08"/><path class="cls-2" d="M906.45,1343.75C932.52,1245,1119.78,1136,1218.54,1162"/><path class="cls-2" d="M906.45,1343.75c43.59,25.1,71.31,128.13,46.21,171.72"/><path class="cls-2" d="M906.45,1343.75c33.07,41.73,20.07,153.91-21.65,187"/><path class="cls-2" d="M906.45,1343.75c-5.28-89.23,120.65-231,209.87-236.27"/><path class="cls-2" d="M906.45,1343.75c34.21-4.36,92.07,40.42,96.43,74.63"/><path class="cls-2" d="M906.45,1343.75c-23-109.85,107.18-309.17,217-332.2"/><path class="cls-2" d="M906.45,1343.75c8-120.61,201-289.51,321.57-281.5"/><path class="cls-2" d="M906.45,1343.75c16.23,49.44-33.6,148-83,164.19"/><path class="cls-2" d="M906.45,1343.75c47.84,5.07,112,84.43,106.93,132.27"/><path class="cls-2" d="M906.45,1343.75c-30,16-98.87-5-114.84-35"/><path class="cls-2" d="M906.45,1343.75c-32.81-1.51-79.75-53-78.24-85.79"/><path class="cls-2" d="M906.45,1343.75c-25,37.2-118.17,55.58-155.38,30.64"/><path class="cls-2" d="M906.45,1343.75c-25.15-17.34-36.86-81.07-19.52-106.22"/><path class="cls-2" d="M906.45,1343.75c-4.41-26.85,29.26-73.74,56.11-78.15"/><path class="cls-3" d="M687.48,263.45c140,82.35,226.55,415.94,144.19,556"/><path class="cls-3" d="M687.48,263.45c128.64-25.32,359.57,129.66,384.89,258.3"/><path class="cls-3" d="M687.48,263.45C683,233,722.1,180.56,752.59,176.12"/><path class="cls-3" d="M687.48,263.45c29.83-9.06,88.13,22.1,97.18,51.92"/><path class="cls-3" d="M687.48,263.45c-20.07-27-9.73-97.55,17.25-117.63"/><path class="cls-3" d="M687.48,263.45c13.44-34.51,85.35-66.1,119.86-52.66"/><path class="cls-3" d="M687.48,263.45c2.94-49.82,82.07-120.14,131.89-117.2"/><path class="cls-3" d="M687.48,263.45c26-24.86,102.29-23.13,127.14,2.87"/><path class="cls-3" d="M687.48,263.45c36.31,94.21-50.54,290-144.76,326.31"/><path class="cls-3" d="M687.48,263.45c14.61,77.68-80,216.11-157.68,230.72"/><path class="cls-3" d="M687.48,263.45c10.8,108.87-136.33,288.38-245.21,299.17"/><path class="cls-3" d="M687.48,263.45C672.93,346,527.34,447.89,444.83,433.34"/><path class="cls-3" d="M687.48,263.45c-17,108.24-204.78,245.15-313,228.19"/><path class="cls-3" d="M687.48,263.45c-48.2-13.41-100.4-105.81-87-154"/><path class="cls-3" d="M687.48,263.45C658.85,253,631.62,194.3,642.1,165.66"/><path class="cls-3" d="M687.48,263.45c-23.73,15.41-82.46,2.92-97.87-20.82"/><path class="cls-3" d="M687.48,263.45c-22.72-47.81,14.91-153.6,62.72-176.32"/><path class="cls-3" d="M687.48,263.45c-38.47,6.07-105.3-42.53-111.38-81"/><path class="cls-3" d="M687.48,263.45C646.17,228.85,636.1,115,670.7,73.67"/><path class="cls-3" d="M687.48,263.45c25.89,10.61,48.8,65.36,38.19,91.25"/><path class="cls-4" d="M274.71,779.47c-29.22,9.89-87.91-19.11-97.8-48.34"/><path class="cls-4" d="M274.71,779.47C266.89,831.17,177.6,897,125.9,889.18"/><path class="cls-4" d="M274.71,779.47c119.39-103.4,453.56-79.43,557,39.95"/><path class="cls-4" d="M274.71,779.47c-35.2-103.25,66.87-310.93,170.12-346.13"/><path class="cls-4" d="M274.71,779.47c-9.85-76.88,90.68-207,167.56-216.85"/><path class="cls-4" d="M274.71,779.47c15.66-91.55,176.47-205.37,268-189.71"/><path class="cls-4" d="M274.71,779.47c-46.4,17.75-142.63-25.22-160.38-71.62"/><path class="cls-4" d="M274.71,779.47c-27.88,27.71-111.27,27.46-139-.42"/><path class="cls-4" d="M274.71,779.47c31.89,3,75.21,55.36,72.19,87.25"/><path class="cls-4" d="M274.71,779.47c3.72,32.88-40,87.77-72.92,91.48"/><path class="cls-4" d="M274.71,779.47c19.45,19.66,19.12,78.31-.54,97.75"/><path class="cls-4" d="M274.71,779.47c-33.17,46.88-153.26,67.44-200.14,34.27"/><path class="cls-4" d="M274.71,779.47c-6-108.08,147-279.26,255.09-285.3"/><path class="cls-4" d="M274.71,779.47c-11.07,31.18-74.46,61.34-105.64,50.26"/><path class="cls-4" d="M274.71,779.47c19.77,43.37-15.64,138.07-59,157.83"/><path class="cls-4" d="M274.71,779.47C237.1,702,296.94,529.25,374.46,491.64"/><path class="cls-4" d="M274.71,779.47c33.37,27,43,117.44,16,150.81"/><path class="cls-4" d="M274.71,779.47c23.36-15.39,81.48-3.43,96.87,19.92"/><path class="cls-4" d="M274.71,779.47c-30.59-7.92-64.62-65.68-56.7-96.28"/><path class="cls-5" d="M274.71,779.47C513.92,766,893,1104.55,906.45,1343.75"/></g><g id="node-labels"><text class="cls-6" transform="translate(811.47 822.33)">m<tspan class="cls-7" x="17.13" y="0">f</tspan><tspan x="23.76" y="0">w</tspan></text><text class="cls-6" transform="translate(1412.38 673.61)"><tspan class="cls-8">f</tspan><tspan class="cls-9" x="5.79" y="0">a</tspan><tspan x="17.35" y="0">shion</tspan></text><text class="cls-6" transform="translate(1109.37 1014.49)"><tspan class="cls-8">f</tspan><tspan x="5.79" y="0">all</tspan></text><text class="cls-6" transform="translate(1046.59 524.69)">sh<tspan class="cls-10" x="22.66" y="0">o</tspan><tspan class="cls-11" x="34.77" y="0">w</tspan></text><text class="cls-6" transform="translate(1140.17 1065.19)">milan<tspan class="cls-8" x="50.58" y="0">f</tspan><tspan class="cls-9" x="56.37" y="0">a</tspan><tspan x="67.93" y="0">shion</tspan><tspan class="cls-8" x="119.66" y="0">w</tspan><tspan class="cls-12" x="134.5" y="0">eek</tspan></text><text class="cls-6" transform="translate(1299.2 812.15)">ici<tspan class="cls-13" x="21.69" y="0">n</tspan><tspan class="cls-12" x="33.51" y="0">g</tspan></text><text class="cls-6" transform="translate(1563.73 751.63)">bride</text><text class="cls-6" transform="translate(1070.26 1110.34)"><tspan class="cls-14">c</tspan><tspan x="11.74" y="0">ollec</tspan><tspan class="cls-15" x="57.28" y="0">t</tspan><tspan x="63.49" y="0">ion</tspan></text><text class="cls-6" transform="translate(1517.22 923.9)">o<tspan class="cls-9" x="12.16" y="0">b</tspan><tspan class="cls-11" x="24.65" y="0">se</tspan><tspan class="cls-16" x="47.09" y="0">s</tspan><tspan x="58.01" y="0">sed</tspan></text><text class="cls-6" transform="translate(1319.07 743.65)">milan</text><text class="cls-6" transform="translate(1587.02 836.25)">n<tspan class="cls-10" x="11.92" y="0">e</tspan><tspan x="23.57" y="0">w</tspan></text><text class="cls-6" transform="translate(1511.87 835.42)">l<tspan class="cls-17" x="5" y="0">u</tspan><tspan class="cls-11" x="17.07" y="0">xu</tspan><tspan class="cls-18" x="39.44" y="0">r</tspan><tspan x="47.82" y="0">y</tspan></text><text class="cls-6" transform="translate(1189.06 1164.89)"><tspan class="cls-19">w</tspan><tspan x="15.03" y="0">in</tspan><tspan class="cls-13" x="31.94" y="0">t</tspan><tspan x="37.87" y="0">er</tspan></text><text class="cls-6" transform="translate(1372.76 715.03)">shop</text><text class="cls-6" transform="translate(1436.76 936.67)"><tspan class="cls-20">v</tspan><tspan class="cls-12" x="9.62" y="0">e</tspan><tspan class="cls-14" x="21.31" y="0">r</tspan><tspan class="cls-21" x="29.05" y="0">s</tspan><tspan x="39.88" y="0">a</tspan><tspan class="cls-14" x="51.42" y="0">c</tspan><tspan x="63.16" y="0">e</tspan></text><text class="cls-6" transform="translate(1430.66 734.21)"><tspan class="cls-21">s</tspan><tspan class="cls-10" x="10.83" y="0">a</tspan><tspan class="cls-8" x="22.33" y="0">w</tspan><tspan x="37.16" y="0">e</tspan><tspan class="cls-10" x="48.86" y="0">e</tspan><tspan class="cls-22" x="60.51" y="0">t</tspan><tspan x="66.72" y="0">ie</tspan></text><text class="cls-6" transform="translate(1486.54 888.04)">s<tspan class="cls-23" x="10.74" y="0">t</tspan><tspan class="cls-19" x="17.46" y="0">y</tspan><tspan x="28.16" y="0">le</tspan></text><text class="cls-6" transform="translate(1369.84 923.39)">s<tspan class="cls-23" x="10.74" y="0">t</tspan><tspan class="cls-19" x="17.46" y="0">y</tspan><tspan x="28.16" y="0">li</tspan><tspan class="cls-13" x="38.16" y="0">n</tspan><tspan x="49.98" y="0">g</tspan></text><text class="cls-6" transform="translate(1513.39 689.56)">eli<tspan class="cls-13" x="21.69" y="0">t</tspan><tspan x="27.61" y="0">e</tspan></text><text class="cls-6" transform="translate(1493.62 778.51)"><tspan class="cls-24">f</tspan><tspan x="5.75" y="0">endi</tspan></text><text class="cls-6" transform="translate(788.32 1395.21)"><tspan class="cls-25">c</tspan><tspan x="11.74" y="0">a</tspan><tspan class="cls-26" x="23.28" y="0">k</tspan><tspan x="34.09" y="0">e</tspan></text><text class="cls-6" transform="translate(912.94 1453.04)">l<tspan class="cls-10" x="5" y="0">e</tspan><tspan x="16.65" y="0">t</tspan></text><text class="cls-6" transform="translate(747.82 1459.34)"><tspan class="cls-8">w</tspan><tspan class="cls-13" x="14.83" y="0">e</tspan><tspan x="26.44" y="0">ar</tspan></text><text class="cls-6" transform="translate(818.18 1447)"><tspan class="cls-27">v</tspan><tspan x="9.62" y="0">e</tspan><tspan class="cls-25" x="21.31" y="0">r</tspan><tspan class="cls-21" x="29.05" y="0">s</tspan><tspan x="39.88" y="0">aille</tspan></text><text class="cls-6" transform="translate(963.88 1365.57)">s<tspan class="cls-15" x="10.74" y="0">t</tspan><tspan class="cls-28" x="16.96" y="0">r</tspan><tspan x="24.47" y="0">e</tspan><tspan class="cls-10" x="36.17" y="0">e</tspan><tspan class="cls-29" x="47.82" y="0">t</tspan><tspan class="cls-8" x="54.54" y="0">w</tspan><tspan class="cls-13" x="69.37" y="0">e</tspan><tspan class="cls-11" x="80.98" y="0">ar</tspan></text><text class="cls-6" transform="translate(900.47 1519.38)"><tspan class="cls-20">k</tspan><tspan x="11.14" y="0">ai</tspan><tspan class="cls-30" x="27.68" y="0">a</tspan><tspan class="cls-31" x="39.02" y="0">g</tspan><tspan x="51.16" y="0">erber</tspan></text><text class="cls-6" transform="translate(869.48 1533.45)"><tspan class="cls-13">e</tspan><tspan class="cls-32" x="11.61" y="0">a</tspan><tspan x="23.12" y="0">t</tspan></text><text class="cls-6" transform="translate(966.05 1421.11)">au<tspan class="cls-33" x="23.46" y="0">t</tspan><tspan x="29.51" y="0">umn</tspan></text><text class="cls-6" transform="translate(795.82 1511.85)"><tspan class="cls-28">r</tspan><tspan class="cls-34" x="7.52" y="0">e</tspan><tspan x="19.12" y="0">a</tspan><tspan class="cls-35" x="30.66" y="0">d</tspan><tspan x="43.24" y="0">y</tspan></text><text class="cls-6" transform="translate(945.21 1478.91)"><tspan class="cls-8">f</tspan><tspan x="5.79" y="0">al</tspan><tspan class="cls-36" x="22.33" y="0">l</tspan><tspan class="cls-19" x="27.43" y="0">w</tspan><tspan x="42.47" y="0">in</tspan><tspan class="cls-13" x="59.38" y="0">t</tspan><tspan x="65.3" y="0">er2020</tspan></text><text class="cls-6" transform="translate(763.4 1312.65)">p<tspan class="cls-20" x="12.42" y="0">r</tspan><tspan x="19.98" y="0">ada</tspan></text><text class="cls-6" transform="translate(802.47 1261.9)">gu<tspan class="cls-25" x="24.03" y="0">c</tspan><tspan x="35.77" y="0">ci</tspan></text><text class="cls-6" transform="translate(711.83 1377.22)">mon<tspan class="cls-25" x="41.21" y="0">c</tspan><tspan x="52.95" y="0">ler</tspan></text><text class="cls-6" transform="translate(854.41 1241.47)"><tspan class="cls-31">g</tspan><tspan x="12.14" y="0">enius</tspan></text><text class="cls-37" transform="translate(929.44 1267.61)">การร</text><text class="cls-6" transform="translate(717.02 179.17)">run<tspan class="cls-27" x="31.52" y="0">w</tspan><tspan class="cls-38" x="46.29" y="0">a</tspan><tspan x="57.54" y="0">y</tspan></text><text class="cls-6" transform="translate(734.33 318.34)">bellahadid</text><text class="cls-39" transform="translate(678.38 148.83)">a<tspan class="cls-40" x="11.5" y="0">w20</tspan></text><text class="cls-6" transform="translate(780.37 213.77)">ma<tspan class="cls-41" x="28.67" y="0">k</tspan><tspan class="cls-42" x="39.48" y="0">e</tspan></text><text class="cls-6" transform="translate(776.41 149.15)">en<tspan class="cls-22" x="23.61" y="0">t</tspan><tspan class="cls-20" x="29.82" y="0">r</tspan><tspan x="37.38" y="0">an</tspan><tspan class="cls-14" x="60.84" y="0">c</tspan><tspan x="72.58" y="0">e</tspan></text><text class="cls-6" transform="translate(756.92 270.33)">supermodel</text><text class="cls-6" transform="translate(519.47 592.76)"><tspan class="cls-7">f</tspan><tspan x="6.63" y="0">w20</tspan></text><text class="cls-6" transform="translate(512.09 498.28)">m<tspan class="cls-7" x="17.13" y="0">f</tspan><tspan x="23.76" y="0">y</tspan></text><text class="cls-6" transform="translate(425.17 566.66)">gigi</text><text class="cls-6" transform="translate(417.89 436.29)">hadid</text><text class="cls-6" transform="translate(342.01 494.58)">milano</text><text class="cls-6" transform="translate(571.08 112.5)"><tspan class="cls-43">s</tspan><tspan class="cls-21" x="10.77" y="0">f</tspan><tspan class="cls-42" x="16.71" y="0">ila</tspan><tspan class="cls-28" x="38.24" y="0">r</tspan><tspan x="45.76" y="0">e</tspan></text><text class="cls-6" transform="translate(597.93 169.75)">gigihadid</text><text class="cls-6" transform="translate(567.59 245.61)"><tspan class="cls-20">w</tspan><tspan x="14.77" y="0">alk</tspan></text><text class="cls-6" transform="translate(682.71 91.23)">i<tspan class="cls-44" x="5" y="0">t</tspan><tspan x="11.08" y="0">sje</tspan><tspan class="cls-28" x="38.77" y="0">r</tspan><tspan x="46.29" y="0">e</tspan><tspan class="cls-45" x="57.99" y="0">m</tspan><tspan class="cls-20" x="74.85" y="0">y</tspan><tspan class="cls-40" x="85.29" y="0">s</tspan><tspan class="cls-25" x="96.03" y="0">c</tspan><tspan class="cls-10" x="107.77" y="0">o</tspan><tspan class="cls-46" x="119.89" y="0">t</tspan><tspan class="cls-42" x="126.5" y="0">t</tspan></text><text class="cls-6" transform="translate(563.9 185.42)">do</text><text class="cls-6" transform="translate(639.45 75.64)"><tspan class="cls-47">r</tspan><tspan x="7.49" y="0">omee</tspan></text><text class="cls-6" transform="translate(702.4 358.76)">s<tspan class="cls-48" x="10.74" y="0">t</tspan><tspan x="16.96" y="0">rijd</tspan></text><text class="cls-6" transform="translate(149.41 734.05)">marie</text><text class="cls-6" transform="translate(77.49 892.07)">an<tspan class="cls-13" x="23.46" y="0">t</tspan><tspan x="29.38" y="0">oin</tspan><tspan class="cls-10" x="58.45" y="0">e</tspan><tspan class="cls-46" x="70.1" y="0">t</tspan><tspan class="cls-13" x="76.71" y="0">t</tspan><tspan x="82.63" y="0">e</tspan></text><text class="cls-6" transform="translate(84.37 710.77)">denim</text><text class="cls-6" transform="translate(102.69 781.95)">hoodie</text><text class="cls-6" transform="translate(323.07 869.62)">bi<tspan class="cls-26" x="17.46" y="0">k</tspan><tspan class="cls-42" x="28.27" y="0">er</tspan></text><text class="cls-6" transform="translate(149.41 863.41)">ba<tspan class="cls-25" x="24.01" y="0">c</tspan><tspan class="cls-38" x="35.75" y="0">k</tspan><tspan x="46.73" y="0">s</tspan><tspan class="cls-49" x="57.48" y="0">t</tspan><tspan class="cls-47" x="63.67" y="0">a</tspan><tspan class="cls-43" x="75.01" y="0">g</tspan><tspan x="87.15" y="0">e</tspan></text><text class="cls-6" transform="translate(245.42 888.04)"><tspan class="cls-9">s</tspan><tspan class="cls-50" x="10.77" y="0">f</tspan><tspan x="16.71" y="0">il</tspan><tspan class="cls-51" x="26.71" y="0">a</tspan><tspan class="cls-52" x="38.22" y="0">t</tspan><tspan x="44.41" y="0">a</tspan></text><text class="cls-6" transform="translate(29.87 816.71)">m<tspan class="cls-7" x="17.13" y="0">f</tspan><tspan x="23.76" y="0">w2020</tspan></text><text class="cls-6" transform="translate(136.04 833.73)">je<tspan class="cls-53" x="16.96" y="0">r</tspan><tspan class="cls-42" x="24.47" y="0">e</tspan><tspan class="cls-54" x="36.17" y="0">m</tspan><tspan x="53.03" y="0">y</tspan></text><text class="cls-6" transform="translate(192.49 940.19)">bella</text><text class="cls-6" transform="translate(267.51 933.07)">s<tspan class="cls-25" x="10.74" y="0">c</tspan><tspan class="cls-55" x="22.48" y="0">o</tspan><tspan class="cls-56" x="34.6" y="0">t</tspan><tspan x="41.21" y="0">t</tspan></text><text class="cls-6" transform="translate(345.28 802.3)">milão</text><text class="cls-6" transform="translate(195.41 686.13)">i<tspan class="cls-52" x="5" y="0">t</tspan><tspan x="11.19" y="0">ália</tspan></text></g></svg>