<svg xmlns="http://www.w3.org/2000/svg" viewBox="0 0 1555 1141"><defs><style>.cls-1,.cls-2,.cls-3{fill:none;}.cls-1{stroke:#fd8326;}.cls-2{stroke:#fc2130;}.cls-3{stroke:#8929a9;}.cls-29,.cls-4,.cls-9{isolation:isolate;font-size:20px;font-family:NimbusSan-Reg, Nimbus Sans;}.cls-5{letter-spacing:0.04em;}.cls-6{letter-spacing:0em;}.cls-7{letter-spacing:0em;}.cls-8{letter-spacing:0em;}.cls-12,.cls-9{letter-spacing:0em;}.cls-10{letter-spacing:0.01em;}.cls-11{letter-spacing:0em;}.cls-13,.cls-29{letter-spacing:0em;}.cls-14{letter-spacing:0em;}.cls-15{letter-spacing:-0.01em;}.cls-16{letter-spacing:0em;}.cls-17{letter-spacing:0.01em;}.cls-18{letter-spacing:0em;}.cls-19{letter-spacing:-0.01em;}.cls-20{letter-spacing:0em;}.cls-21{letter-spacing:0em;}.cls-22{letter-spacing:0em;}.cls-23{letter-spacing:-0.01em;}.cls-24{letter-spacing:0em;}.cls-25{letter-spacing:-0.01em;}.cls-26{letter-spacing:-0.01em;}.cls-27{letter-spacing:0em;}.cls-28{letter-spacing:-0.01em;}.cls-30{letter-spacing:-0.01em;}.cls-31{letter-spacing:0em;}.cls-32{letter-spacing:0.01em;}.cls-33{letter-spacing:0em;}.cls-34{letter-spacing:-0.01em;}.cls-35{letter-spacing:0em;}.cls-36{letter-spacing:-0.01em;}.cls-37{letter-spacing:-0.01em;}.cls-38{letter-spacing:0em;}.cls-39{letter-spacing:-0.01em;}.cls-40{letter-spacing:-0.01em;}.cls-41{letter-spacing:-0.01em;}.cls-42{letter-spacing:0.01em;}.cls-43{letter-spacing:0.03em;}.cls-44{letter-spacing:0.01em;}.cls-45{letter-spacing:0.03em;}.cls-46{letter-spacing:0.01em;}</style></defs><g id="Layer_2" data-name="Layer 2"><g id="edges"><path class="cls-1" d="M1176.48,892c-99.78,10.11-264.63-124.41-274.74-224.19"/><path class="cls-1" d="M1176.48,892c-129.26,7.1-333.8-176.15-340.9-305.41"/><path class="cls-1" d="M1176.48,892C1072,883.34,928.39,713.66,937.07,609.22"/><path class="cls-1" d="M1176.48,892c29.29-20,103.25-6.13,123.27,23.15"/><path class="cls-1" d="M1176.48,892c-1.2-32.71,46.06-83.57,78.77-84.77"/><path class="cls-1" d="M1176.48,892c45.3-36.08,167.36-22.26,203.44,23"/><path class="cls-1" d="M1176.48,892c35,18.38,59.92,98.47,41.53,133.47"/><path class="cls-1" d="M1176.48,892c-29.77,6.41-84-28.62-90.47-58.39"/><path class="cls-1" d="M1176.48,892c-65.87-48.36-92.14-219.71-43.78-285.58"/><path class="cls-1" d="M1176.48,892c-17.66,29.71-88.71,47.8-118.42,30.14"/><path class="cls-1" d="M1176.48,892c17.79,29.78-.22,101.14-30,118.92"/><path class="cls-1" d="M1176.48,892c61.07,14.31,131.21,127.38,116.9,188.45"/><path class="cls-1" d="M1176.48,892c-117.1-18.71-264.7-222.42-246-339.52"/><path class="cls-1" d="M1176.48,892c46.45,39.24,57.27,167.79,18,214.24"/><path class="cls-1" d="M1176.48,892c59.81-14,170.48,54.8,184.45,114.62"/><path class="cls-1" d="M1176.48,892c19.7-39.52,108.52-69.25,148-49.56"/><path class="cls-1" d="M1176.48,892c-54.86-78.18-19.89-277.73,58.28-332.59"/><path class="cls-1" d="M1176.48,892c38.81-1.3,99,55,100.27,93.79"/><path class="cls-1" d="M1176.48,892c19.87,50.35-25.85,155.68-76.2,175.55"/><path class="cls-1" d="M1176.48,892c-3,43.13-72.15,103.34-115.28,100.36"/><path class="cls-2" d="M373.9,679.83c98.51-126.76,436.41-169.12,563.17-70.61"/><path class="cls-2" d="M373.9,679.83c73.69-111,350.7-166.91,461.68-93.22"/><path class="cls-2" d="M373.9,679.83C333.81,721.59,211.05,724.1,169.29,684"/><path class="cls-2" d="M373.9,679.83c103.17-108,419.87-115.17,527.84-12"/><path class="cls-2" d="M373.9,679.83c-34.84-3.2-82.3-60.26-79.1-95.1"/><path class="cls-2" d="M373.9,679.83c-18.42,56.76-131.2,114.28-188,95.86"/><path class="cls-2" d="M373.9,679.83c37.08,24.88,55.38,117.83,30.5,154.92"/><path class="cls-2" d="M373.9,679.83c-11.88,34.23-81,67.78-115.27,55.91"/><path class="cls-2" d="M373.9,679.83c-54.18,19.4-164.55-32.77-184-87"/><path class="cls-2" d="M373.9,679.83c-56.08-5.08-132.58-96.82-127.5-152.9"/><path class="cls-2" d="M373.9,679.83c-29.85,20.69-105.66,7-126.35-22.87"/><path class="cls-2" d="M373.9,679.83c27.28,49.52-6.08,164.73-55.61,192"/><path class="cls-2" d="M373.9,679.83c5,53.79-68.2,142-122,147"/><path class="cls-2" d="M373.9,679.83c-19.45-31.86-.85-108.81,31-128.26"/><path class="cls-2" d="M373.9,679.83C459.75,543,793.7,466.65,930.48,552.5"/><path class="cls-2" d="M373.9,679.83c1.45-34.28,55-83.52,89.32-82.07"/><path class="cls-2" d="M373.9,679.83c36,3.55,84.68,62.89,81.13,98.9"/><path class="cls-2" d="M373.9,679.83C389,710.2,366.08,778.4,335.7,793.5"/><path class="cls-2" d="M373.9,679.83c-40.19-26.42-60.85-126.33-34.44-166.52"/><path class="cls-2" d="M373.9,679.83c25.86-21.4,96.75-14.7,118.14,11.17"/><path class="cls-3" d="M1118.41,236.31c13.49,126.62-156.21,336.81-282.83,350.3"/><path class="cls-3" d="M1118.41,236.31c38.31,110.85-70.49,334.6-181.34,372.91"/><path class="cls-3" d="M1118.41,236.31c87.89,41.35,157.71,235.23,116.35,323.12"/><path class="cls-3" d="M1118.41,236.31c25.65,100.82-87.1,290.54-187.93,316.19"/><path class="cls-3" d="M1118.41,236.31c43,129.63-87,388.54-216.67,431.52"/><path class="cls-3" d="M1118.41,236.31c-34.58-24.42-49.81-112.92-25.39-147.49"/><path class="cls-3" d="M1118.41,236.31C1065.82,205.58,1033,80.61,1063.77,28"/><path class="cls-3" d="M1118.41,236.31c-17.24-35.86,10.69-115.51,46.56-132.75"/><path class="cls-3" d="M1118.41,236.31c-30.36-54.91,6.45-182.8,61.35-213.16"/><path class="cls-3" d="M1118.41,236.31c76.88,71.17,85.46,293.25,14.29,370.13"/><path class="cls-3" d="M1118.41,236.31c-4.09-61.75,82.41-160.48,144.16-164.57"/><path class="cls-3" d="M1118.41,236.31c32.72-2.84,86.06,42,88.89,74.73"/><path class="cls-3" d="M1118.41,236.31c-10.47,30.13-71.35,59.63-101.48,49.17"/><path class="cls-3" d="M1118.41,236.31c38.8-32.53,145.79-23.13,178.32,15.67"/><path class="cls-3" d="M1118.41,236.31c20.93-53.07,131.94-101.26,185-80.32"/><path class="cls-3" d="M1118.41,236.31c4-36.82,65.29-86,102.11-82"/><path class="cls-3" d="M1118.41,236.31c-34.07-3.34-80.16-59.45-76.82-93.52"/><path class="cls-3" d="M1118.41,236.31c-32.79,20.58-112.83,2.28-133.41-30.5"/><path class="cls-3" d="M1118.41,236.31c21.66-25.84,92.92-32.11,118.76-10.44"/><path class="cls-3" d="M1118.41,236.31c-53,2.44-136.26-73.46-138.69-126.5"/></g><g id="node-labels"><text class="cls-4" transform="translate(877.79 672.82)">m<tspan class="cls-5" x="15.5" y="0">f</tspan><tspan x="21.5" y="0">w</tspan></text><text class="cls-4" transform="translate(796.33 592.91)">gio<tspan class="cls-6" x="26.48" y="0">r</tspan><tspan class="cls-7" x="33.38" y="0">gio</tspan></text><text class="cls-4" transform="translate(894.9 614.3)"><tspan class="cls-6">f</tspan><tspan class="cls-8" x="5.24" y="0">a</tspan><tspan x="15.7" y="0">shion</tspan></text><text class="cls-4" transform="translate(1267.02 920.15)">moda</text><text class="cls-9" transform="translate(1200.7 812.24)">c<tspan class="cls-7" x="10.62" y="0">ollec</tspan><tspan class="cls-10" x="51.82" y="0">t</tspan><tspan class="cls-11" x="57.44" y="0">ion</tspan></text><text class="cls-4" transform="translate(1355.91 920.04)">look</text><text class="cls-4" transform="translate(1187.48 1030.46)">bla<tspan class="cls-12" x="26.24" y="0">c</tspan><tspan x="36.86" y="0">k</tspan></text><text class="cls-4" transform="translate(1048.21 838.7)">de<tspan class="cls-8" x="21.86" y="0">s</tspan><tspan class="cls-13" x="31.6" y="0">f</tspan><tspan x="36.98" y="0">ile</tspan></text><text class="cls-4" transform="translate(1028.71 611.52)">milan<tspan class="cls-14" x="45.76" y="0">f</tspan><tspan class="cls-8" x="51" y="0">a</tspan><tspan x="61.46" y="0">shion</tspan><tspan class="cls-6" x="108.26" y="0">w</tspan><tspan x="121.68" y="0">eek</tspan></text><text class="cls-4" transform="translate(951.88 928.44)">mond<tspan class="cls-15" x="48.56" y="0">a</tspan><tspan x="58.74" y="0">ym</tspan><tspan class="cls-16" x="83.8" y="0">o</tspan><tspan class="cls-17" x="94.76" y="0">t</tspan><tspan class="cls-18" x="100.38" y="0">i</tspan><tspan class="cls-19" x="105" y="0">v</tspan><tspan class="cls-20" x="113.62" y="0">a</tspan><tspan class="cls-10" x="124.04" y="0">t</tspan><tspan class="cls-11" x="129.66" y="0">ion</tspan></text><text class="cls-4" transform="translate(1115.22 1015.91)">l<tspan class="cls-20" x="4.52" y="0">a</tspan><tspan class="cls-21" x="14.94" y="0">t</tspan><tspan x="20.3" y="0">est</tspan></text><text class="cls-9" transform="translate(1261.39 1084.23)">c<tspan class="cls-7" x="10.62" y="0">ome</tspan></text><text class="cls-4" transform="translate(899.97 557.5)">sh<tspan class="cls-22" x="20.5" y="0">o</tspan><tspan class="cls-11" x="31.46" y="0">w</tspan></text><text class="cls-4" transform="translate(1137.78 1112.53)"><tspan class="cls-15">y</tspan><tspan x="9.3" y="0">es</tspan><tspan class="cls-21" x="29.6" y="0">t</tspan><tspan x="34.96" y="0">e</tspan><tspan class="cls-23" x="45.54" y="0">r</tspan><tspan x="52.4" y="0">d</tspan><tspan class="cls-15" x="63.68" y="0">a</tspan><tspan class="cls-11" x="73.86" y="0">y</tspan></text><text class="cls-4" transform="translate(1328.92 1012.91)"><tspan class="cls-24">t</tspan><tspan x="5.36" y="0">od</tspan><tspan class="cls-15" x="27.64" y="0">a</tspan><tspan class="cls-11" x="37.82" y="0">y</tspan></text><text class="cls-4" transform="translate(1301.25 847.45)">s<tspan class="cls-25" x="9.72" y="0">i</tspan><tspan class="cls-26" x="14.08" y="0">z</tspan><tspan class="cls-7" x="23.02" y="0">e</tspan></text><text class="cls-4" transform="translate(1187.5 565.66)">e<tspan class="cls-27" x="10.58" y="0">m</tspan><tspan x="26.1" y="0">porio</tspan></text><text class="cls-4" transform="translate(1248.38 992.08)">eb<tspan class="cls-28" x="21.86" y="0">a</tspan><tspan x="32.04" y="0">y</tspan></text><text class="cls-29" transform="translate(1079.94 1072.62)">s<tspan class="cls-15" x="9.8" y="0">a</tspan><tspan class="cls-11" x="19.98" y="0">y</tspan></text><text class="cls-9" transform="translate(1032.86 997.35)">c<tspan class="cls-7" x="10.62" y="0">olor</tspan></text><text class="cls-4" transform="translate(135.91 690.23)">p<tspan class="cls-30" x="11.24" y="0">r</tspan><tspan class="cls-31" x="18.08" y="0">ada</tspan></text><text class="cls-4" transform="translate(273.78 591.03)">d<tspan class="cls-15" x="11.28" y="0">a</tspan><tspan x="21.46" y="0">y</tspan></text><text class="cls-4" transform="translate(158.39 780.68)"><tspan class="cls-32">v</tspan><tspan x="8.94" y="0">irus</tspan></text><text class="cls-4" transform="translate(389.91 839.73)">be</text><text class="cls-4" transform="translate(244.15 740.81)"><tspan class="cls-27">g</tspan><tspan x="10.98" y="0">o</tspan></text><text class="cls-4" transform="translate(159.48 597.88)"><tspan class="cls-33">c</tspan><tspan x="10.62" y="0">lose</tspan></text><text class="cls-4" transform="translate(226.11 531.94)">l<tspan class="cls-27" x="4.52" y="0">a</tspan><tspan x="14.98" y="0">st</tspan></text><text class="cls-4" transform="translate(226.55 662.04)"><tspan class="cls-13">f</tspan><tspan x="5.38" y="0">i</tspan><tspan class="cls-12" x="9.9" y="0">r</tspan><tspan x="16.9" y="0">st</tspan></text><text class="cls-4" transform="translate(292.17 876.82)">door</text><text class="cls-4" transform="translate(221.45 831.78)"><tspan class="cls-33">c</tspan><tspan x="10.62" y="0">laim</tspan></text><text class="cls-4" transform="translate(380.23 556.57)">hold</text><text class="cls-4" transform="translate(427.63 604.07)">hap<tspan class="cls-34" x="32.46" y="0">p</tspan><tspan x="43.4" y="0">y</tspan></text><text class="cls-4" transform="translate(392.54 785.02)"><tspan class="cls-33">c</tspan><tspan x="10.62" y="0">on</tspan><tspan class="cls-18" x="32.4" y="0">s</tspan><tspan class="cls-35" x="42.22" y="0">pi</tspan><tspan class="cls-36" x="57.98" y="0">r</tspan><tspan class="cls-31" x="64.82" y="0">a</tspan><tspan class="cls-36" x="75.26" y="0">c</tspan><tspan x="85.72" y="0">y</tspan></text><text class="cls-4" transform="translate(278.29 797.27)">announ<tspan class="cls-33" x="64.56" y="0">c</tspan><tspan class="cls-31" x="75.18" y="0">e</tspan></text><text class="cls-4" transform="translate(279.91 518.32)">l<tspan class="cls-18" x="4.52" y="0">i</tspan><tspan class="cls-30" x="9.14" y="0">v</tspan><tspan x="17.84" y="0">es</tspan><tspan class="cls-10" x="38.14" y="0">t</tspan><tspan class="cls-37" x="43.76" y="0">r</tspan><tspan class="cls-38" x="50.56" y="0">e</tspan><tspan x="61.06" y="0">am</tspan></text><text class="cls-4" transform="translate(452.09 694.78)"><tspan class="cls-33">c</tspan><tspan x="10.62" y="0">o</tspan><tspan class="cls-39" x="21.62" y="0">r</tspan><tspan x="28.4" y="0">ona</tspan></text><text class="cls-4" transform="translate(1025.4 93.85)"><tspan class="cls-12">c</tspan><tspan class="cls-7" x="10.62" y="0">o</tspan><tspan class="cls-40" x="21.62" y="0">r</tspan><tspan x="28.4" y="0">on</tspan><tspan class="cls-41" x="50.18" y="0">a</tspan><tspan class="cls-42" x="60.5" y="0">v</tspan><tspan class="cls-11" x="69.44" y="0">irus</tspan></text><text class="cls-4" transform="translate(1032.52 33.07)">milan</text><text class="cls-4" transform="translate(1164.96 114.85)">s<tspan class="cls-43" x="9.72" y="0">t</tspan><tspan class="cls-32" x="15.8" y="0">y</tspan><tspan x="25.48" y="0">le</tspan></text><text class="cls-4" transform="translate(1156.51 29.49)">i<tspan class="cls-44" x="4.52" y="0">t</tspan><tspan class="cls-11" x="10.12" y="0">a</tspan><tspan class="cls-18" x="20.56" y="0">l</tspan><tspan class="cls-11" x="25.18" y="0">y</tspan></text><text class="cls-4" transform="translate(1241.49 78.16)">m<tspan class="cls-5" x="15.5" y="0">f</tspan><tspan x="21.5" y="0">y</tspan></text><text class="cls-4" transform="translate(1190.59 316.14)"><tspan class="cls-6">f</tspan><tspan x="5.24" y="0">all</tspan></text><text class="cls-4" transform="translate(992.95 290.5)">l<tspan class="cls-40" x="4.52" y="0">o</tspan><tspan class="cls-36" x="15.34" y="0">v</tspan><tspan x="24.04" y="0">e</tspan></text><text class="cls-4" transform="translate(1261.1 258.2)">e<tspan class="cls-27" x="10.58" y="0">m</tspan><tspan class="cls-16" x="26.1" y="0">p</tspan><tspan class="cls-45" x="37.3" y="0">t</tspan><tspan class="cls-11" x="43.38" y="0">y</tspan></text><text class="cls-4" transform="translate(1275.79 161.1)"><tspan class="cls-5">f</tspan><tspan x="6" y="0">w20</tspan></text><text class="cls-4" transform="translate(1181.24 160.66)">b<tspan class="cls-24" x="11.28" y="0">e</tspan><tspan x="21.78" y="0">au</tspan><tspan class="cls-43" x="43" y="0">t</tspan><tspan x="49.08" y="0">y</tspan></text><text class="cls-4" transform="translate(968.86 147.9)"><tspan class="cls-6">f</tspan><tspan class="cls-8" x="5.24" y="0">a</tspan><tspan x="15.7" y="0">shion</tspan><tspan class="cls-6" x="62.5" y="0">w</tspan><tspan x="75.92" y="0">eek</tspan></text><text class="cls-4" transform="translate(965.39 210.83)">l<tspan class="cls-46" x="4.52" y="0">i</tspan><tspan class="cls-36" x="9.14" y="0">v</tspan><tspan x="17.84" y="0">e</tspan></text><text class="cls-4" transform="translate(1195 230.98)">run<tspan class="cls-36" x="28.52" y="0">w</tspan><tspan class="cls-28" x="41.88" y="0">a</tspan><tspan x="52.06" y="0">y</tspan></text><text class="cls-4" transform="translate(939 114.85)"><tspan class="cls-10">t</tspan><tspan class="cls-11" x="5.62" y="0">h</tspan><tspan class="cls-24" x="16.4" y="0">e</tspan><tspan class="cls-20" x="26.9" y="0">a</tspan><tspan class="cls-24" x="37.32" y="0">t</tspan><tspan x="42.68" y="0">er</tspan></text></g></g></svg>