<svg id="Layer_1" data-name="Layer 1" xmlns="http://www.w3.org/2000/svg" viewBox="0 0 1555 1141"><defs><style>.cls-1,.cls-10,.cls-11,.cls-2,.cls-3,.cls-4,.cls-5,.cls-6,.cls-7,.cls-8,.cls-9{fill:none;}.cls-1{stroke:#26231f;}.cls-2{stroke:#fc620d;}.cls-3{stroke:#af80f9;}.cls-4{stroke:#12c4b2;}.cls-5{stroke:#695958;}.cls-6{stroke:#8724fb;}.cls-7{stroke:#11c574;}.cls-8{stroke:#fd8326;}.cls-9{stroke:#fc2130;}.cls-10{stroke:#606060;}.cls-11{stroke:#8929a9;}.cls-12,.cls-30,.cls-37,.cls-46,.cls-54,.cls-58,.cls-80,.cls-81,.cls-82,.cls-84,.cls-86{isolation:isolate;font-size:20px;}.cls-12,.cls-30,.cls-37,.cls-54,.cls-58,.cls-80,.cls-82,.cls-86{font-family:NimbusSan-Reg, Nimbus Sans;}.cls-13,.cls-54{letter-spacing:0em;}.cls-14,.cls-58{letter-spacing:0em;}.cls-15,.cls-86{letter-spacing:0em;}.cls-16{letter-spacing:0em;}.cls-17{letter-spacing:-0.01em;}.cls-18{letter-spacing:-0.01em;}.cls-19{letter-spacing:-0.01em;}.cls-20{letter-spacing:0.01em;}.cls-21{letter-spacing:0.01em;}.cls-22{letter-spacing:0em;}.cls-23{letter-spacing:0.01em;}.cls-24{letter-spacing:0em;}.cls-25{letter-spacing:-0.01em;}.cls-26{letter-spacing:0em;}.cls-27{letter-spacing:0em;}.cls-28,.cls-80{letter-spacing:0em;}.cls-29{letter-spacing:0em;}.cls-30,.cls-57{letter-spacing:0.04em;}.cls-31{letter-spacing:0em;}.cls-32{letter-spacing:0.04em;}.cls-33{letter-spacing:-0.01em;}.cls-34{letter-spacing:0.01em;}.cls-35{letter-spacing:0.03em;}.cls-36{letter-spacing:0.01em;}.cls-37,.cls-38{letter-spacing:-0.01em;}.cls-39{letter-spacing:0.03em;}.cls-40{letter-spacing:0em;}.cls-41,.cls-82{letter-spacing:0.01em;}.cls-42{letter-spacing:-0.01em;}.cls-43{letter-spacing:-0.01em;}.cls-44{letter-spacing:0.03em;}.cls-45{letter-spacing:0em;}.cls-46{font-family:ArialMT, Arial;}.cls-47{letter-spacing:0.03em;}.cls-48{letter-spacing:0em;}.cls-49{letter-spacing:0em;}.cls-50{letter-spacing:0em;}.cls-51{letter-spacing:-0.01em;}.cls-52{letter-spacing:0em;}.cls-53{letter-spacing:-0.02em;}.cls-55{letter-spacing:0em;}.cls-56{letter-spacing:0.03em;}.cls-59{letter-spacing:0em;}.cls-60{letter-spacing:-0.01em;}.cls-61{letter-spacing:-0.01em;}.cls-62{letter-spacing:0em;}.cls-63{letter-spacing:-0.01em;}.cls-64{letter-spacing:0em;}.cls-65{letter-spacing:-0.01em;}.cls-66{letter-spacing:0.03em;}.cls-67{letter-spacing:-0.01em;}.cls-68{letter-spacing:0.01em;}.cls-69{letter-spacing:0em;}.cls-70{letter-spacing:0em;}.cls-71{letter-spacing:-0.02em;}.cls-72{letter-spacing:0.03em;}.cls-73{letter-spacing:-0.01em;}.cls-74{letter-spacing:-0.01em;}.cls-75{letter-spacing:0.01em;}.cls-76{letter-spacing:0em;}.cls-77{letter-spacing:0.01em;}.cls-78{letter-spacing:0em;}.cls-79{letter-spacing:0.01em;}.cls-81{font-family:AdobeMyungjoStd-Medium-KSCpc-EUC-H, Adobe Myungjo Std;}.cls-83{letter-spacing:0.01em;}.cls-84{font-family:ArialUnicodeMS, Arial Unicode MS;}.cls-85{letter-spacing:0.03em;}</style></defs><path class="cls-1" d="M154.78,274.71c31.23-3.71,83.63,37.58,87.33,68.81"/><path class="cls-1" d="M154.78,274.71c11.53,1.67,26.32,21.47,24.65,33"/><path class="cls-1" d="M154.78,274.71c-13.69-8-22.23-40.51-14.24-54.2"/><path class="cls-1" d="M154.78,274.71c.12,11.08-16.3,27.88-27.38,28"/><path class="cls-1" d="M154.78,274.71c3.93-11.24,26.7-22.2,37.94-18.26"/><path class="cls-1" d="M154.78,274.71c-11.06-16.21-3.33-57.11,12.88-68.17"/><path class="cls-1" d="M154.78,274.71c-17.2,6.42-52.63-9.73-59.06-26.93"/><path class="cls-1" d="M154.78,274.71c10.73-6.92,37.2-1.2,44.12,9.52"/><path class="cls-1" d="M154.78,274.71c-1.61-17.53,22.28-46.23,39.81-47.84"/><path class="cls-1" d="M154.78,274.71c-4.71,18-38.75,37.88-56.73,33.17"/><path class="cls-1" d="M154.78,274.71c-13.7,15-56.68,16.82-71.63,3.12"/><path class="cls-1" d="M154.78,274.71c-20.24-2.33-47.1-36.17-44.78-56.41"/><path class="cls-1" d="M154.78,274.71c5.42,17.84-13.2,52.75-31,58.17"/><path class="cls-1" d="M154.78,274.71c-8,8.33-32.54,8.8-40.87.79"/><path class="cls-1" d="M154.78,274.71c66.94-33.12,217,17.6,250.17,84.55"/><path class="cls-1" d="M154.78,274.71c9.1,9.58,8.38,37.61-1.2,46.72"/><path class="cls-1" d="M154.78,274.71c43.61-5.33,117,52.09,122.36,95.7"/><path class="cls-2" d="M564.19,712.73c-18.34-17.85-19.07-72.13-1.23-90.47"/><path class="cls-2" d="M564.19,712.73c-11-3.25-22.5-24.55-19.25-35.51"/><path class="cls-2" d="M564.19,712.73C522,680.26,507.41,568.26,539.88,526.07"/><path class="cls-2" d="M564.19,712.73c-14.48,4.5-43-10.49-47.45-25"/><path class="cls-2" d="M564.19,712.73c-7,8.13-29.81,9.76-37.94,2.72"/><path class="cls-2" d="M564.19,712.73c-4.06,15.64-33.61,33-49.25,28.95"/><path class="cls-2" d="M564.19,712.73c9.71,6.22,14.95,30.11,8.74,39.82"/><path class="cls-2" d="M564.19,712.73c10-4.81,32.3,3,37.12,13"/><path class="cls-2" d="M564.19,712.73c16.67,2.77,37.51,31.93,34.74,48.6"/><path class="cls-2" d="M564.19,712.73c-19.32-43.22,16.53-137,59.75-156.35"/><path class="cls-2" d="M564.19,712.73c-13.5,14.23-55.1,15.3-69.33,1.79"/><path class="cls-2" d="M564.19,712.73c4.57,20.54-19.39,58.2-39.94,62.76"/><path class="cls-2" d="M564.19,712.73c12.17,14.44,8.74,54.35-5.7,66.51"/><path class="cls-2" d="M564.19,712.73c-6.92,23.35-52.34,48-75.68,41"/><path class="cls-3" d="M748.48,1038.37c-21-24.5-15.85-92.82,8.65-113.86"/><path class="cls-3" d="M748.48,1038.37c8.07-11.11,36.85-15.68,48-7.61"/><path class="cls-3" d="M748.48,1038.37c-.69-12,16.29-31.06,28.3-31.74"/><path class="cls-3" d="M748.48,1038.37c-10.89,8.9-40.58,5.92-49.49-5"/><path class="cls-3" d="M748.48,1038.37c-12.84,1-33.6-16.76-34.6-29.6"/><path class="cls-4" d="M404.06,454c4.27-11.4,27.77-22.09,39.16-17.82"/><path class="cls-4" d="M404.06,454c-10.95,5.68-35.92-2.22-41.6-13.17"/><path class="cls-4" d="M404.06,454c3.27,11.1-8.49,32.67-19.6,35.93"/><path class="cls-4" d="M404.06,454c-8.42-77.28,94.86-205.83,172.13-214.25"/><path class="cls-4" d="M404.06,454c-54.48,10.29-151.65-56-161.95-110.47"/><path class="cls-4" d="M404.06,454c-18.76-19.13-18.24-76,.89-94.73"/><path class="cls-4" d="M404.06,454C469.5,455.86,564.84,556.83,563,622.26"/><path class="cls-4" d="M404.06,454c-4.6,11.62-28.94,22.14-40.56,17.54"/><path class="cls-4" d="M404.06,454c10.9-5.23,35.09,3.29,40.31,14.19"/><path class="cls-4" d="M404.06,454c-14.73-1.57-34.47-26-32.91-40.75"/><path class="cls-4" d="M404.06,454c1.33,19.22-25.52,50-44.75,51.36"/><path class="cls-4" d="M404.06,454c11.61,3.09,24.39,25.14,21.3,36.75"/><path class="cls-4" d="M404.06,454c41.58-12.75,123.07,30.5,135.82,72.08"/><path class="cls-4" d="M404.06,454c-3.68-13.95,11.73-40.4,25.68-44.08"/><path class="cls-4" d="M404.06,454c11.59,11.75,11.33,46.77-.43,58.35"/><path class="cls-4" d="M404.06,454c-11.77,15.38-52.51,20.78-67.89,9"/><path class="cls-4" d="M404.06,454c-42.1,8.67-118.25-41.48-126.92-83.58"/><path class="cls-4" d="M404.06,454c-9-7.5-11.32-32.28-3.82-41.31"/><path class="cls-5" d="M722.88,122.58c-5-12,5.37-37.48,17.34-42.51"/><path class="cls-5" d="M722.88,122.58c113.49-30.88,330,93,360.9,206.53"/><path class="cls-5" d="M722.88,122.58c55.41,14,117.45,118.24,103.4,173.65"/><path class="cls-5" d="M722.88,122.58c4.67,10.78-4.49,34-15.28,38.63"/><path class="cls-5" d="M722.88,122.58c-8.35,6.87-31.18,4.64-38-3.71"/><path class="cls-5" d="M722.88,122.58c-16.18,1.15-42.16-21.39-43.31-37.57"/><path class="cls-5" d="M722.88,122.58c11.42,5.25,20.66,30.26,15.41,41.68"/><path class="cls-5" d="M722.88,122.58c12.29-3.31,35.67,10.17,39,22.45"/><path class="cls-5" d="M722.88,122.58c-10.46-19.2,2.64-63.69,21.84-74.15"/><path class="cls-5" d="M722.88,122.58C717,175.35,629,245.64,576.19,239.74"/><path class="cls-5" d="M722.88,122.58c-16.19,9.71-55,0-64.74-16.2"/><path class="cls-5" d="M722.88,122.58c10.87-11.73,44.76-13,56.49-2.15"/><path class="cls-5" d="M722.88,122.58c-4.16,13.89-31.23,28.48-45.12,24.32"/><path class="cls-5" d="M722.88,122.58c3.17-19,36.46-42.83,55.49-39.66"/><path class="cls-5" d="M722.88,122.58c2.93-10.61,23.23-22.12,33.84-19.19"/><path class="cls-5" d="M722.88,122.58c-21-6.36-43-47.44-36.69-68.47"/><path class="cls-6" d="M1111.39,124.85C1088.65,216.15,917.58,319,826.28,296.23"/><path class="cls-6" d="M1111.39,124.85c9.78-5.48,32.66,1,38.13,10.75"/><path class="cls-6" d="M1111.39,124.85c60.89,6.5,142.47,107.6,136,168.49"/><path class="cls-6" d="M1111.39,124.85c-11.32-.5-27.57-18.23-27.07-29.56"/><path class="cls-6" d="M1111.39,124.85c-6.87,9.54-31.5,13.53-41,6.66"/><path class="cls-6" d="M1111.39,124.85c-4.49-19.52,18-55.55,37.56-60"/><path class="cls-6" d="M1111.39,124.85c17.84-4.12,50.77,16.45,54.89,34.28"/><path class="cls-6" d="M1111.39,124.85c-10.78-8.8-13.75-38.18-5-49"/><path class="cls-6" d="M1111.39,124.85c7.44,10.09,3.46,36.4-6.64,43.83"/><path class="cls-6" d="M1111.39,124.85c-.68,107.32-162.69,267.27-270,266.58"/><path class="cls-6" d="M1111.39,124.85c9.16,58.2-64.41,159.24-122.62,168.39"/><path class="cls-6" d="M1111.39,124.85c12.45,3.43,26,27.25,22.53,39.7"/><path class="cls-6" d="M1111.39,124.85c-3.57-11.16,7.81-33.25,19-36.83"/><path class="cls-6" d="M1111.39,124.85c-18.92-4.21-41-38.9-36.8-57.83"/><path class="cls-6" d="M1111.39,124.85c0,13.83-20.7,34.6-34.53,34.62"/><path class="cls-6" d="M1111.39,124.85c5-20.29,42.9-43.25,63.19-38.26"/><path class="cls-6" d="M1111.39,124.85c-15.11,7.08-48.41-5-55.49-20.09"/><path class="cls-6" d="M1111.39,124.85c4.2-11.61,27.91-22.74,39.52-18.54"/><path class="cls-6" d="M1111.39,124.85c-14-16.59-10.23-62.56,6.36-76.61"/><path class="cls-1" d="M154.78,274.71c170.37-64.45,522.6,94.43,587.05,264.8"/><path class="cls-2" d="M564.19,712.73c15.58-66.83,139.2-143.71,206-128.13"/><path class="cls-2" d="M564.19,712.73c20.52-18.17,78.55-14.66,96.72,5.85"/><path class="cls-2" d="M564.19,712.73c11.36-29.09,72-55.69,101.1-44.34"/><path class="cls-2" d="M564.19,712.73c51.83-36.26,184-12.91,220.23,38.92"/><path class="cls-2" d="M564.19,712.73C563.91,670,627.63,605.38,670.4,605.09"/><path class="cls-3" d="M748.48,1038.37C662.07,943.27,675.12,671,770.23,584.6"/><path class="cls-3" d="M748.48,1038.37c-46-77.48,1.29-262.66,78.77-308.63"/><path class="cls-3" d="M749,1036.53c10.79-1.82,29.7,11.63,31.52,22.42"/><path class="cls-3" d="M748.48,1038.37C657.84,981,607.93,759,665.29,668.39"/><path class="cls-3" d="M745.88,1039.2c.07,19.9-29.67,49.85-49.57,49.93"/><path class="cls-3" d="M749,1036.53c9.54,6.68,13.83,31,7.15,40.55"/><path class="cls-3" d="M745.88,1039.2c5.28,13-6.33,40.45-19.34,45.73"/><path class="cls-3" d="M749,1036.53c-8.65,17.25-47.49,30.13-64.73,21.49"/><path class="cls-3" d="M745.88,1039.2c11.85,18.31,2.15,63.54-16.16,75.39"/><path class="cls-3" d="M745.88,1039.2c-2.52,10.71-22.36,23-33.07,20.48"/><path class="cls-3" d="M745.88,1039.2c17-8,54.44,5.48,62.44,22.46"/><path class="cls-3" d="M745.88,1039.2c17.58,10.62,28,52.93,17.38,70.51"/><path class="cls-4" d="M404.06,454c69.13-47.92,244.7-16.1,292.61,53"/><path class="cls-4" d="M404.06,454c95.13-9.37,251.87,119.27,261.23,214.4"/><path class="cls-5" d="M722.88,122.58c71.65,82.13,55.92,312.8-26.21,384.44"/><path class="cls-5" d="M722.88,122.58c101.87,82.93,130.28,360.15,47.35,462"/><path class="cls-7" d="M829.09,509.6c3.22,26.78-32.09,71.77-58.86,75"/><path class="cls-7" d="M829.09,509.6c-43.24-42.11-44.92-170.14-2.81-213.37"/><path class="cls-7" d="M829.09,509.6c9.3-5.55,31.6.08,37.16,9.39"/><path class="cls-7" d="M829.09,509.6c4.3-12.21,29.09-24.08,41.31-19.77"/><path class="cls-7" d="M829.09,509.6c-11.34-75.21,84.47-205,159.68-216.36"/><path class="cls-7" d="M829.09,509.6C817.62,533,765.26,551,741.83,539.51"/><path class="cls-7" d="M829.09,509.6c6.17,8.94,2,31.61-6.91,37.78"/><path class="cls-7" d="M829.09,509.6c-3.32-9.93,6.61-29.8,16.54-33.12"/><path class="cls-7" d="M829.09,509.6c11.79-14.84,51.74-19.42,66.58-7.63"/><path class="cls-7" d="M829.09,509.6c-11.8,13.67-50,16.48-63.67,4.69"/><path class="cls-7" d="M829.09,509.6c-.48-18.89,27.15-48,46-48.42"/><path class="cls-7" d="M829.09,509.6c43.66,44.4,42.56,176.48-1.84,220.14"/><path class="cls-7" d="M829.09,509.6c-11.13-6-18.89-31.58-12.93-42.71"/><path class="cls-7" d="M829.09,509.6c-12.64,50.84-107.86,108.13-158.69,95.49"/><path class="cls-7" d="M829.09,509.6c-3.38,9.83-23.19,19.51-33,16.13"/><path class="cls-7" d="M829.09,509.6c-1,64.52-99.28,159.79-163.8,158.79"/><path class="cls-7" d="M829.09,509.6c17.12-6.24,52.17,10.09,58.41,27.21"/><path class="cls-7" d="M829.09,509.6c-9.62-14.53-2.26-50.75,12.27-60.37"/><path class="cls-7" d="M829.09,509.6c-11.12,2.59-31.68-10.21-34.26-21.33"/><path class="cls-8" d="M1349.75,479.88c19.21-5.93,56.92,14,62.85,33.23"/><path class="cls-8" d="M1349.75,479.88c-5.53-10,1.14-33.22,11.12-38.74"/><path class="cls-8" d="M1349.75,479.88c10.08,5.15,17.47,28,12.32,38.09"/><path class="cls-8" d="M1349.75,479.88c18.18,3.3,40.5,35.53,37.2,53.71"/><path class="cls-8" d="M1349.75,479.88c-10.26-2.62-21.74-21.93-19.12-32.19"/><path class="cls-8" d="M1349.75,479.88c-31.31,58.11-165.44,98.33-223.56,67"/><path class="cls-8" d="M1349.75,479.88c-4.57,12.87-30.74,25.31-43.61,20.74"/><path class="cls-8" d="M1349.75,479.88c3.5,11.66-8.75,34.41-20.42,37.91"/><path class="cls-8" d="M1349.75,479.88c-2.4-17.67,20.51-47.78,38.18-50.17"/><path class="cls-8" d="M1349.75,479.88c4.66,54.45-70,143.12-124.48,147.78"/><path class="cls-8" d="M1349.75,479.88c-10.77,6.8-37.13.84-43.93-9.93"/><path class="cls-8" d="M1349.75,479.88c10.6-4.4,33.08,4.91,37.48,15.51"/><path class="cls-8" d="M1349.75,479.88c12.36,13.19,11.11,51.53-2.08,63.89"/><path class="cls-8" d="M1349.75,479.88c13.32-13.23,53.15-13.07,66.37.25"/><path class="cls-8" d="M1349.75,479.88c4-10.68,26.07-20.66,36.75-16.63"/><path class="cls-8" d="M1349.75,479.88c6.48-19.31,45.16-38.56,64.46-32.08"/><path class="cls-8" d="M1349.75,479.88c-13.29-12.34-14.73-50.78-2.39-64.07"/><path class="cls-8" d="M1349.75,479.88c-17.78-.73-43.36-28.48-42.63-46.26"/><path class="cls-8" d="M1349.75,479.88c-57.79-16.83-119.23-128.76-102.4-186.54"/><path class="cls-8" d="M1349.75,479.88c-83.35,23-242.93-67.42-266-150.77"/><path class="cls-9" d="M1054.42,766.73C930.93,786.34,716.28,630.51,696.67,507"/><path class="cls-9" d="M1054.42,766.73c-108,17.08-295.51-119.26-312.59-227.22"/><path class="cls-9" d="M1054.42,766.73c-93.27,20.42-263.78-88.86-284.19-182.13"/><path class="cls-9" d="M1054.42,766.73c-4.52-10.66,4.71-33.44,15.38-38"/><path class="cls-9" d="M1054.42,766.73c6.35-62,108.86-145.42,170.85-139.07"/><path class="cls-9" d="M1054.42,766.73c-57,51-219,41.94-270-15.08"/><path class="cls-9" d="M1054.42,766.73c-7.51,9.66-33.25,12.87-42.91,5.37"/><path class="cls-9" d="M1054.42,766.73c4.72-10.63,27.76-19.51,38.39-14.79"/><path class="cls-9" d="M1054.42,766.73c10.68-4,32.77,5.92,36.81,16.6"/><path class="cls-9" d="M1054.42,766.73c-12.11,2.1-33.42-12.93-35.51-25.05"/><path class="cls-9" d="M1054.42,766.73c17,10.82,26.21,52.5,15.4,69.47"/><path class="cls-9" d="M1054.42,766.73c11.1-15.33,50.75-21.68,66.08-10.58"/><path class="cls-9" d="M1054.42,766.73c16.28,1.55,38.38,28.29,36.83,44.57"/><path class="cls-9" d="M1054.42,766.73c.1,13-19.2,32.58-32.16,32.68"/><path class="cls-9" d="M1054.42,766.73c-.18-17.89,26.38-45,44.28-45.18"/><path class="cls-9" d="M1054.42,766.73c17.9-8.54,57.57,5.5,66.11,23.41"/><path class="cls-9" d="M1054.42,766.73c-12-6.54-20.15-34.33-13.6-46.31"/><path class="cls-9" d="M1054.42,766.73c8.25,14.73-1.45,49.21-16.18,57.46"/><path class="cls-9" d="M1054.42,766.73c24.12-.62,61.25,34.63,61.88,58.76"/><path class="cls-10" d="M773.15,669.9c-21.87,21.27-86.59,20.36-107.86-1.51"/><path class="cls-10" d="M773.15,669.9c-42-69.34-1.11-236.42,68.23-278.47"/><path class="cls-10" d="M773.15,669.9c-32.67-29.57-37.31-122.94-7.73-155.61"/><path class="cls-10" d="M773.15,669.9c-51.56,32.51-177.68,3.93-210.19-47.64"/><path class="cls-10" d="M773.15,669.9c22.79,1.15,55.25,37.06,54.1,59.84"/><path class="cls-10" d="M773.15,669.9c-12.71,32.19-80.06,61.4-112.24,48.68"/><path class="cls-10" d="M773.15,669.9c-32.34-19.81-51.13-98-31.32-130.39"/><path class="cls-10" d="M773.15,669.9c9.57-11.79,41.6-15.13,53.4-5.57"/><path class="cls-10" d="M773.15,669.9c1.31-12.78,22.44-30,35.23-28.71"/><path class="cls-10" d="M773.15,669.9c-7-8.23-5.28-31.15,3-38.2"/><path class="cls-10" d="M773.15,669.9c47.72,54.13,38.11,206.89-16,254.61"/><path class="cls-10" d="M773.15,669.9c46-95.2,257.83-169,353-123"/><path class="cls-10" d="M773.15,669.9c11.54-3.79,34.53,7.81,38.32,19.34"/><path class="cls-10" d="M773.15,669.9c9.84,5.86,15.81,29.41,10,39.24"/><path class="cls-10" d="M773.15,669.9c40.52,44.27,34.89,171.45-9.38,212"/><path class="cls-10" d="M773.15,669.9c18.61,14.1,25.36,63.15,11.27,81.75"/><path class="cls-10" d="M773.15,669.9c-47.87-17.28-93.76-115-76.48-162.88"/><path class="cls-10" d="M773.15,669.9c-17.64-16.47-19.4-67.65-2.92-85.3"/><path class="cls-10" d="M773.15,669.9c-10.4,4.23-32.34-5-36.57-15.44"/><path class="cls-11" d="M701.54,434.9C698.76,382.22,773.6,299,826.28,296.23"/><path class="cls-11" d="M701.54,434.9c-74.45,44.19-252.4-1.19-296.59-75.64"/><path class="cls-11" d="M701.54,434.9c-14.1,50.57-111.1,105.27-161.66,91.17"/><path class="cls-11" d="M701.54,434.9c29,12.86,53.16,75.63,40.29,104.61"/><path class="cls-11" d="M701.54,434.9c13.45,15.4,10.53,58.67-4.87,72.12"/><path class="cls-11" d="M701.54,434.9c1.3-18,30.22-43,48.2-41.7"/><path class="cls-11" d="M701.54,434.9c6-10,30-16,40-10"/><path class="cls-11" d="M701.54,434.9c-15.93-1.7-37.28-28.15-35.58-44.09"/><path class="cls-11" d="M701.54,434.9c9.77,4.22,18.11,25.2,13.89,35"/><path class="cls-11" d="M701.54,434.9c43.68,16.2,84.89,106,68.69,149.7"/><path class="cls-11" d="M701.54,434.9c19.28-36.66,103.18-62.74,139.84-43.47"/><path class="cls-11" d="M701.54,434.9c-9-6.45-12.74-29.58-6.3-38.54"/><path class="cls-11" d="M701.54,434.9c28.66,3.1,67,50.73,63.88,79.39"/><path class="cls-11" d="M701.54,434.9c-.93,11.43-19.46,27.17-30.89,26.24"/><path class="cls-11" d="M701.54,434.9c8.78,39.82-37.78,112.7-77.6,121.48"/><path class="cls-11" d="M701.54,434.9c-11.22,4.45-34.74-5.7-39.19-16.92"/><path class="cls-11" d="M701.54,434.9c-3.4-11.75,9.11-34.49,20.87-37.9"/><path class="cls-11" d="M701.54,434.9c-9.22,12.12-41.24,16.45-53.35,7.23"/><path class="cls-11" d="M701.54,434.9c11.59-4.27,35.38,6.72,39.65,18.32"/><path class="cls-11" d="M701.54,434.9c-13.35-13.28-13.46-53.22-.18-66.57"/><text class="cls-12" transform="translate(178.75 349.66)"><tspan class="cls-13">f</tspan><tspan class="cls-14" x="5.24" y="0">a</tspan><tspan x="15.7" y="0">shion</tspan><tspan class="cls-15" x="62.5" y="0">w</tspan><tspan class="cls-16" x="75.92" y="0">eek</tspan></text><text class="cls-12" transform="translate(161.2 312.72)">non</text><text class="cls-12" transform="translate(127.4 222.93)">donna</text><text class="cls-12" transform="translate(158.62 203.93)"><tspan class="cls-17">v</tspan><tspan x="8.7" y="0">e</tspan><tspan class="cls-18" x="19.28" y="0">r</tspan><tspan class="cls-16" x="26.06" y="0">o</tspan></text><text class="cls-12" transform="translate(63.93 312.72)"><tspan class="cls-19">f</tspan><tspan x="5.14" y="0">o</tspan><tspan class="cls-20" x="16.14" y="0">r</tspan><tspan class="cls-21" x="23.26" y="0">z</tspan><tspan x="32.56" y="0">a</tspan></text><text class="cls-12" transform="translate(202.13 262.19)"><tspan class="cls-22">f</tspan><tspan x="5.2" y="0">emminilità</tspan></text><text class="cls-12" transform="translate(70.28 244.79)">mai</text><text class="cls-12" transform="translate(153.4 289.97)">s<tspan class="cls-23" x="9.72" y="0">t</tspan><tspan x="15.32" y="0">an</tspan><tspan class="cls-24" x="36.54" y="0">c</tspan><tspan x="47.16" y="0">a</tspan><tspan class="cls-25" x="57.6" y="0">r</tspan><tspan class="cls-26" x="64.4" y="0">e</tspan></text><text class="cls-12" transform="translate(202.13 230.16)">se<tspan class="cls-24" x="20.3" y="0">c</tspan><tspan x="30.92" y="0">ondo</tspan></text><text class="cls-12" transform="translate(88 215.89)"><tspan class="cls-27">f</tspan><tspan x="5.38" y="0">ilm</tspan></text><text class="cls-12" transform="translate(77.05 353.34)"><tspan class="cls-28">c</tspan><tspan x="10.62" y="0">li</tspan><tspan class="cls-28" x="19.66" y="0">c</tspan><tspan class="cls-16" x="30.28" y="0">hé</tspan></text><text class="cls-12" transform="translate(70.28 282.45)">giorn<tspan class="cls-29" x="44.22" y="0">a</tspan><tspan class="cls-23" x="54.64" y="0">t</tspan><tspan class="cls-16" x="60.24" y="0">a</tspan></text><text class="cls-12" transform="translate(375.98 365.17)">milan</text><text class="cls-30" transform="translate(717.93 545.97)">f<tspan class="cls-16" x="6" y="0">w20</tspan></text><text class="cls-12" transform="translate(114.59 330.79)">n<tspan class="cls-31" x="10.78" y="0">e</tspan><tspan class="cls-32" x="21.32" y="0">w</tspan><tspan class="cls-33" x="35.54" y="0">y</tspan><tspan x="44.84" y="0">ork</tspan></text><text class="cls-12" transform="translate(252.77 376.58)"><tspan class="cls-34">t</tspan><tspan x="5.62" y="0">ime</tspan></text><text class="cls-12" transform="translate(749.5 591.2)">m<tspan class="cls-35" x="15.5" y="0">f</tspan><tspan class="cls-26" x="21.5" y="0">w</tspan></text><text class="cls-12" transform="translate(635.08 726.09)">lali<tspan class="cls-27" x="24" y="0">s</tspan><tspan x="33.8" y="0">a</tspan></text><text class="cls-12" transform="translate(647.63 675.61)">li<tspan class="cls-27" x="9.04" y="0">s</tspan><tspan class="cls-16" x="18.84" y="0">a</tspan></text><text class="cls-12" transform="translate(516.48 630.37)">bla<tspan class="cls-24" x="26.24" y="0">c</tspan><tspan class="cls-36" x="36.86" y="0">k</tspan><tspan x="47.16" y="0">pink</tspan></text><text class="cls-37" transform="translate(534.68 675.61)">y<tspan class="cls-16" x="9.34" y="0">g</tspan></text><text class="cls-12" transform="translate(474.53 533.81)"><tspan class="cls-38">y</tspan><tspan class="cls-14" x="9.34" y="0">g</tspan><tspan x="20.32" y="0">o</tspan><tspan class="cls-39" x="31.32" y="0">f</tspan><tspan class="cls-27" x="37.24" y="0">f</tspan><tspan x="42.62" y="0">icialblink</tspan></text><text class="cls-12" transform="translate(490.07 695.31)"><tspan class="cls-34">t</tspan><tspan class="cls-25" x="5.62" y="0">r</tspan><tspan x="12.42" y="0">end</tspan></text><text class="cls-12" transform="translate(402.29 716.31)">be<tspan class="cls-17" x="21.86" y="0">nv</tspan><tspan class="cls-16" x="41.22" y="0">enu</tspan><tspan class="cls-23" x="73.36" y="0">t</tspan><tspan x="78.96" y="0">alali</tspan><tspan class="cls-27" x="113.4" y="0">s</tspan><tspan class="cls-16" x="123.2" y="0">a</tspan></text><text class="cls-12" transform="translate(486.65 742.28)">i<tspan class="cls-23" x="4.52" y="0">t</tspan><tspan x="10.12" y="0">a</tspan><tspan class="cls-40" x="20.56" y="0">l</tspan><tspan x="25.18" y="0">y</tspan></text><text class="cls-12" transform="translate(536.33 758.17)"><tspan class="cls-15">w</tspan><tspan x="13.42" y="0">orl</tspan><tspan class="cls-40" x="35.9" y="0">d</tspan><tspan class="cls-41" x="47.28" y="0">w</tspan><tspan class="cls-16" x="60.88" y="0">ide</tspan></text><text class="cls-12" transform="translate(583.97 733.41)">s<tspan class="cls-34" x="9.72" y="0">t</tspan><tspan x="15.34" y="0">ill</tspan></text><text class="cls-12" transform="translate(766.36 758.17)">see</text><text class="cls-12" transform="translate(581.69 775.49)"><tspan class="cls-42">e</tspan><tspan class="cls-43" x="10.48" y="0">v</tspan><tspan x="19.18" y="0">er</tspan></text><text class="cls-12" transform="translate(598.84 562.96)">most</text><text class="cls-12" transform="translate(478.24 784.59)">j<tspan class="cls-33" x="4.76" y="0">a</tspan><tspan class="cls-21" x="14.94" y="0">y</tspan><tspan x="24.62" y="0">lim1</tspan></text><text class="cls-12" transform="translate(629.19 613)"><tspan class="cls-28">c</tspan><tspan x="10.62" y="0">elebri</tspan><tspan class="cls-44" x="59.06" y="0">t</tspan><tspan x="65.14" y="0">y</tspan></text><text class="cls-12" transform="translate(518.91 800.2)">philippines</text><text class="cls-12" transform="translate(451.73 768.19)"><tspan class="cls-34">t</tspan><tspan x="5.62" y="0">hai</tspan></text><text class="cls-12" transform="translate(719.97 890.18)">m<tspan class="cls-35" x="15.5" y="0">f</tspan><tspan x="21.5" y="0">w2020</tspan></text><text class="cls-12" transform="translate(782.56 737.05)">lali<tspan class="cls-27" x="24" y="0">s</tspan><tspan class="cls-31" x="33.8" y="0">a</tspan><tspan class="cls-13" x="44.2" y="0">w</tspan><tspan class="cls-45" x="57.62" y="0">e</tspan><tspan x="68.12" y="0">a</tspan><tspan class="cls-28" x="78.56" y="0">r</tspan><tspan x="85.56" y="0">s</tspan></text><text class="cls-46" transform="translate(758.79 1070.54)">برادا</text><text class="cls-12" transform="translate(735.09 933)">li<tspan class="cls-27" x="9.04" y="0">s</tspan><tspan class="cls-47" x="18.84" y="0">a</tspan><tspan x="29.88" y="0">x</tspan></text><text class="cls-46" transform="translate(678.91 1098.28)">قبل</text><text class="cls-46" transform="translate(774.1 1039.55)">اثناء</text><text class="cls-46" transform="translate(733.53 1088.76)">بلاك</text><text class="cls-46" transform="translate(752.71 1015.96)">ميلان</text><text class="cls-46" transform="translate(663.83 1038.41)">بينك</text><text class="cls-46" transform="translate(703.82 1121.11)">عرض</text><text class="cls-12" transform="translate(678.91 1067.41)"><tspan class="cls-25">r</tspan><tspan class="cls-45" x="6.8" y="0">e</tspan><tspan x="17.3" y="0">a</tspan><tspan class="cls-40" x="27.74" y="0">d</tspan><tspan x="39.12" y="0">y</tspan></text><text class="cls-12" transform="translate(688.05 1011.4)"><tspan class="cls-15">w</tspan><tspan class="cls-48" x="13.42" y="0">e</tspan><tspan x="23.92" y="0">ar</tspan></text><text class="cls-12" transform="translate(800.5 1077.08)">ph<tspan class="cls-31" x="22.02" y="0">o</tspan><tspan class="cls-45" x="32.98" y="0">t</tspan><tspan x="38.34" y="0">o</tspan><tspan class="cls-49" x="49.34" y="0">g</tspan><tspan class="cls-17" x="60.36" y="0">r</tspan><tspan class="cls-50" x="67.2" y="0">ap</tspan><tspan class="cls-51" x="88.88" y="0">h</tspan><tspan class="cls-50" x="99.38" y="0">y</tspan></text><text class="cls-12" transform="translate(758.79 1118.45)"><tspan class="cls-13">f</tspan><tspan class="cls-14" x="5.24" y="0">a</tspan><tspan x="15.7" y="0">shion</tspan><tspan class="cls-13" x="62.5" y="0">w</tspan><tspan x="75.92" y="0">eek2020</tspan></text><text class="cls-12" transform="translate(404.11 435.21)">app<tspan class="cls-45" x="32.92" y="0">e</tspan><tspan x="43.42" y="0">a</tspan><tspan class="cls-17" x="53.86" y="0">r</tspan><tspan x="60.7" y="0">an</tspan><tspan class="cls-52" x="81.92" y="0">c</tspan><tspan class="cls-16" x="92.54" y="0">e</tspan></text><text class="cls-12" transform="translate(332.79 447.25)">ma<tspan class="cls-53" x="25.94" y="0">k</tspan><tspan class="cls-16" x="35.72" y="0">e</tspan></text><text class="cls-54" transform="translate(366.14 496.66)">f<tspan class="cls-16" x="5.24" y="0">an</tspan></text><text class="cls-12" transform="translate(556.21 244.79)"><tspan class="cls-27">f</tspan><tspan x="5.38" y="0">i</tspan><tspan class="cls-28" x="9.9" y="0">r</tspan><tspan x="16.9" y="0">st</tspan></text><text class="cls-12" transform="translate(670.13 513.3)">sh<tspan class="cls-55" x="20.5" y="0">o</tspan><tspan x="31.46" y="0">w</tspan></text><text class="cls-12" transform="translate(332.12 479.11)">public</text><text class="cls-12" transform="translate(402.29 474.64)">member</text><text class="cls-12" transform="translate(339.12 512.15)">suit</text><text class="cls-12" transform="translate(385.54 497.35)"><tspan class="cls-28">c</tspan><tspan x="10.62" y="0">hinese</tspan></text><text class="cls-12" transform="translate(404.11 409.91)">lali<tspan class="cls-27" x="24" y="0">s</tspan><tspan class="cls-56" x="33.8" y="0">a</tspan><tspan class="cls-16" x="44.84" y="0">x</tspan><tspan class="cls-57" x="54.3" y="0">f</tspan><tspan x="60.3" y="0">w</tspan></text><text class="cls-58" transform="translate(368.42 520.15)">g<tspan class="cls-26" x="10.98" y="0">olden</tspan></text><text class="cls-12" transform="translate(277.14 465.95)"><tspan class="cls-13">f</tspan><tspan class="cls-14" x="5.24" y="0">a</tspan><tspan x="15.7" y="0">scin</tspan><tspan class="cls-29" x="51.3" y="0">a</tspan><tspan class="cls-59" x="61.72" y="0">t</tspan><tspan x="67.08" y="0">e</tspan></text><text class="cls-12" transform="translate(313.92 409.91)"><tspan class="cls-28">c</tspan><tspan x="10.62" y="0">o</tspan><tspan class="cls-45" x="21.62" y="0">n</tspan><tspan class="cls-49" x="32.32" y="0">g</tspan><tspan class="cls-17" x="43.34" y="0">r</tspan><tspan class="cls-29" x="50.18" y="0">a</tspan><tspan x="60.6" y="0">t</tspan></text><text class="cls-12" transform="translate(727.57 76.09)"><tspan class="cls-60">v</tspan><tspan x="8.62" y="0">ogue</tspan></text><text class="cls-12" transform="translate(1049.7 333.88)">run<tspan class="cls-17" x="28.52" y="0">w</tspan><tspan class="cls-61" x="41.88" y="0">a</tspan><tspan x="52.06" y="0">y</tspan></text><text class="cls-12" transform="translate(790.72 301.21)"><tspan class="cls-13">f</tspan><tspan class="cls-62" x="5.24" y="0">a</tspan><tspan x="15.7" y="0">shion</tspan></text><text class="cls-12" transform="translate(684.83 171.01)">d<tspan class="cls-33" x="11.28" y="0">a</tspan><tspan x="21.46" y="0">y</tspan></text><text class="cls-12" transform="translate(629.19 126.93)">hap<tspan class="cls-63" x="32.46" y="0">p</tspan><tspan x="43.4" y="0">y</tspan></text><text class="cls-12" transform="translate(678.91 80.07)"><tspan class="cls-14">g</tspan><tspan x="10.98" y="0">o</tspan></text><text class="cls-12" transform="translate(718.6 180.13)">armani</text><text class="cls-12" transform="translate(749.5 157.36)">l<tspan class="cls-14" x="4.52" y="0">a</tspan><tspan x="14.98" y="0">st</tspan></text><text class="cls-12" transform="translate(744.72 48.43)">be</text><text class="cls-12" transform="translate(591.76 102.93)"><tspan class="cls-24">c</tspan><tspan x="10.62" y="0">on</tspan><tspan class="cls-40" x="32.4" y="0">s</tspan><tspan class="cls-26" x="42.22" y="0">pi</tspan><tspan class="cls-17" x="57.98" y="0">r</tspan><tspan class="cls-16" x="64.82" y="0">a</tspan><tspan class="cls-17" x="75.26" y="0">c</tspan><tspan x="85.72" y="0">y</tspan></text><text class="cls-12" transform="translate(757.37 124.45)">hold</text><text class="cls-12" transform="translate(643.5 152.27)">gio<tspan class="cls-15" x="26.48" y="0">r</tspan><tspan x="33.38" y="0">gio</tspan></text><text class="cls-12" transform="translate(782.56 88.15)">announ<tspan class="cls-28" x="64.56" y="0">c</tspan><tspan class="cls-64" x="75.18" y="0">e</tspan></text><text class="cls-12" transform="translate(722.24 106.37)"><tspan class="cls-24">c</tspan><tspan x="10.62" y="0">o</tspan><tspan class="cls-65" x="21.62" y="0">r</tspan><tspan x="28.4" y="0">ona</tspan></text><text class="cls-12" transform="translate(629.19 57.91)">l<tspan class="cls-40" x="4.52" y="0">i</tspan><tspan class="cls-43" x="9.14" y="0">v</tspan><tspan class="cls-16" x="17.84" y="0">es</tspan><tspan class="cls-34" x="38.14" y="0">t</tspan><tspan class="cls-25" x="43.76" y="0">r</tspan><tspan class="cls-48" x="50.56" y="0">e</tspan><tspan x="61.06" y="0">am</tspan></text><text class="cls-12" transform="translate(848.87 526.12)">gigi</text><text class="cls-12" transform="translate(843.6 495.74)">hadid</text><text class="cls-12" transform="translate(966.45 298.94)">s<tspan class="cls-66" x="9.72" y="0">t</tspan><tspan class="cls-41" x="15.8" y="0">y</tspan><tspan x="25.48" y="0">le</tspan></text><text class="cls-12" transform="translate(789.93 558.24)">milano</text><text class="cls-12" transform="translate(773.83 472.36)">ba<tspan class="cls-28" x="21.72" y="0">c</tspan><tspan class="cls-67" x="32.34" y="0">k</tspan><tspan x="42.28" y="0">s</tspan><tspan class="cls-68" x="52" y="0">t</tspan><tspan class="cls-18" x="57.6" y="0">a</tspan><tspan class="cls-14" x="67.86" y="0">g</tspan><tspan x="78.84" y="0">e</tspan></text><text class="cls-12" transform="translate(891.83 515.65)">m<tspan class="cls-57" x="15.5" y="0">f</tspan><tspan x="21.5" y="0">y</tspan></text><text class="cls-12" transform="translate(734.57 520.5)">lali<tspan class="cls-27" x="24" y="0">s</tspan><tspan class="cls-56" x="33.8" y="0">a</tspan><tspan x="44.84" y="0">x</tspan></text><text class="cls-12" transform="translate(881.47 465.95)">name</text><text class="cls-12" transform="translate(771.46 539.51)"><tspan class="cls-34">t</tspan><tspan x="5.62" y="0">he</tspan><tspan class="cls-25" x="26.98" y="0">r</tspan><tspan class="cls-64" x="33.78" y="0">e</tspan></text><text class="cls-58" transform="translate(887.5 556.38)">s<tspan class="cls-27" x="9.74" y="0">f</tspan><tspan class="cls-50" x="15.12" y="0">il</tspan><tspan class="cls-69" x="24.16" y="0">a</tspan><tspan class="cls-20" x="34.58" y="0">t</tspan><tspan class="cls-50" x="40.18" y="0">a</tspan></text><text class="cls-12" transform="translate(814.1 448.12)">sn<tspan class="cls-70" x="20.5" y="0">e</tspan><tspan class="cls-50" x="31" y="0">a</tspan><tspan class="cls-71" x="41.44" y="0">k</tspan><tspan x="51.22" y="0">er</tspan></text><text class="cls-12" transform="translate(760 494.29)">simons</text><text class="cls-12" transform="translate(1356.75 520.5)"><tspan class="cls-14">g</tspan><tspan class="cls-31" x="10.98" y="0">e</tspan><tspan class="cls-72" x="21.52" y="0">t</tspan><tspan class="cls-66" x="27.5" y="0">t</tspan><tspan x="33.58" y="0">yim</tspan><tspan class="cls-73" x="63.16" y="0">a</tspan><tspan class="cls-14" x="73.42" y="0">g</tspan><tspan class="cls-64" x="84.4" y="0">e</tspan></text><text class="cls-12" transform="translate(1339.84 447.07)">ni<tspan class="cls-49" x="15.3" y="0">g</tspan><tspan x="26.32" y="0">h</tspan><tspan class="cls-66" x="37.1" y="0">t</tspan><tspan class="cls-74" x="43.18" y="0">w</tspan><tspan x="56.54" y="0">alk</tspan></text><text class="cls-12" transform="translate(1314.02 529.25)">miu</text><text class="cls-12" transform="translate(1360.74 538.95)">m<tspan class="cls-18" x="15.5" y="0">o</tspan><tspan class="cls-75" x="26.32" y="0">v</tspan><tspan x="35.26" y="0">ie</tspan></text><text class="cls-12" transform="translate(1294.51 448.12)"><tspan class="cls-33">n</tspan><tspan class="cls-50" x="10.52" y="0">y</tspan><tspan class="cls-57" x="20.08" y="0">f</tspan><tspan x="26.08" y="0">w</tspan></text><text class="cls-12" transform="translate(1107.36 551.76)">n<tspan class="cls-31" x="10.78" y="0">e</tspan><tspan class="cls-50" x="21.32" y="0">w</tspan></text><text class="cls-12" transform="translate(1273.58 505.92)">miumiu</text><text class="cls-12" transform="translate(1381.17 423.82)"><tspan class="cls-33">y</tspan><tspan x="9.3" y="0">ork</tspan></text><text class="cls-12" transform="translate(1190.68 633.79)">miu<tspan class="cls-76" x="30.8" y="0">c</tspan><tspan x="41.42" y="0">cia</tspan></text><text class="cls-12" transform="translate(1273.19 475.08)">cinema</text><text class="cls-12" transform="translate(1359.19 501.58)"><tspan class="cls-75">v</tspan><tspan class="cls-50" x="8.94" y="0">ill</tspan><tspan class="cls-18" x="22.5" y="0">a</tspan><tspan class="cls-14" x="32.76" y="0">g</tspan><tspan x="43.74" y="0">e</tspan></text><text class="cls-12" transform="translate(1324.99 553.77)"><tspan class="cls-45">e</tspan><tspan class="cls-62" x="10.5" y="0">a</tspan><tspan x="20.96" y="0">st</tspan></text><text class="cls-12" transform="translate(1395.86 485.15)"><tspan class="cls-20">t</tspan><tspan x="5.6" y="0">ales</tspan></text><text class="cls-12" transform="translate(1343.74 469.33)"><tspan class="cls-22">f</tspan><tspan x="5.2" y="0">eminini</tspan><tspan class="cls-44" x="66.4" y="0">t</tspan><tspan class="cls-50" x="72.48" y="0">y</tspan></text><text class="cls-12" transform="translate(1331.89 420.58)">sho</text><text class="cls-12" transform="translate(1282.06 429.67)">ph<tspan class="cls-31" x="22.02" y="0">o</tspan><tspan class="cls-45" x="32.98" y="0">t</tspan><tspan x="38.34" y="0">o</tspan></text><text class="cls-12" transform="translate(1234.67 297.65)"><tspan class="cls-13">f</tspan><tspan x="5.24" y="0">all</tspan></text><text class="cls-12" transform="translate(1077.28 737.05)"><tspan class="cls-13">w</tspan><tspan x="13.42" y="0">omens</tspan><tspan class="cls-13" x="71" y="0">w</tspan><tspan class="cls-45" x="84.42" y="0">e</tspan><tspan x="94.92" y="0">ar</tspan></text><text class="cls-12" transform="translate(995.92 779.35)">l<tspan class="cls-77" x="4.52" y="0">i</tspan><tspan class="cls-17" x="9.14" y="0">v</tspan><tspan x="17.84" y="0">e</tspan></text><text class="cls-12" transform="translate(1077.28 760.01)"><tspan class="cls-45">t</tspan><tspan x="5.36" y="0">od</tspan><tspan class="cls-33" x="27.64" y="0">a</tspan><tspan class="cls-50" x="37.82" y="0">y</tspan></text><text class="cls-12" transform="translate(1077.28 790.53)">pm</text><text class="cls-12" transform="translate(978.65 749.81)"><tspan class="cls-34">t</tspan><tspan class="cls-50" x="5.62" y="0">hu</tspan><tspan class="cls-28" x="27.18" y="0">r</tspan><tspan x="34.18" y="0">sd</tspan><tspan class="cls-33" x="55.18" y="0">a</tspan><tspan class="cls-50" x="65.36" y="0">y</tspan></text><text class="cls-12" transform="translate(1042.33 851.41)"><tspan class="cls-66">t</tspan><tspan class="cls-41" x="6.08" y="0">w</tspan><tspan x="19.68" y="0">i</tspan><tspan class="cls-72" x="24.2" y="0">t</tspan><tspan class="cls-78" x="30.18" y="0">t</tspan><tspan x="35.54" y="0">er</tspan></text><text class="cls-12" transform="translate(1124.9 771.49)">20<tspan class="cls-79" x="22.4" y="0">t</tspan><tspan x="28.02" y="0">h</tspan></text><text class="cls-80" transform="translate(1072.64 818.57)">c<tspan class="cls-64" x="10.62" y="0">est</tspan></text><text class="cls-80" transform="translate(969.45 804.43)">c<tspan class="cls-64" x="10.62" y="0">ome</tspan></text><text class="cls-12" transform="translate(1054.42 714.52)">miumiuo<tspan class="cls-39" x="72.6" y="0">f</tspan><tspan class="cls-27" x="78.52" y="0">f</tspan><tspan class="cls-50" x="83.9" y="0">icial</tspan></text><text class="cls-12" transform="translate(1098.53 798.31)">paris</text><text class="cls-12" transform="translate(1017.81 721.56)">s<tspan class="cls-28" x="9.72" y="0">t</tspan><tspan class="cls-50" x="15.2" y="0">un</tspan></text><text class="cls-12" transform="translate(995.92 836.21)">s<tspan class="cls-78" x="9.72" y="0">t</tspan><tspan class="cls-64" x="15.08" y="0">orm</tspan></text><text class="cls-12" transform="translate(1105.74 832.88)">b<tspan class="cls-49" x="11.28" y="0">t</tspan><tspan x="16.78" y="0">s</tspan></text><text class="cls-12" transform="translate(756.16 396.91)">milan<tspan class="cls-13" x="45.76" y="0">f</tspan><tspan class="cls-62" x="51" y="0">a</tspan><tspan x="61.46" y="0">shion</tspan><tspan class="cls-13" x="108.26" y="0">w</tspan><tspan x="121.68" y="0">eek</tspan></text><text class="cls-81" transform="translate(809.77 672.05)">리사</text><text class="cls-81" transform="translate(775.63 648.81)">블랙핑크</text><text class="cls-12" transform="translate(755.47 638.55)">look</text><text class="cls-12" transform="translate(782.91 696.35)"><tspan class="cls-28">c</tspan><tspan x="10.62" y="0">he</tspan><tspan class="cls-28" x="31.98" y="0">c</tspan><tspan class="cls-64" x="42.6" y="0">k</tspan></text><text class="cls-12" transform="translate(737.98 716.41)">li<tspan class="cls-27" x="9.04" y="0">s</tspan><tspan class="cls-31" x="18.84" y="0">a</tspan><tspan class="cls-13" x="29.24" y="0">w</tspan><tspan class="cls-45" x="42.66" y="0">e</tspan><tspan x="53.16" y="0">a</tspan><tspan class="cls-28" x="63.6" y="0">r</tspan><tspan x="70.6" y="0">s</tspan></text><text class="cls-12" transform="translate(704.03 661.49)">almost</text><text class="cls-12" transform="translate(1124.9 140.18)">gu<tspan class="cls-28" x="21.74" y="0">c</tspan><tspan x="32.36" y="0">ci</tspan></text><text class="cls-12" transform="translate(1015.02 126.93)"><tspan class="cls-17">v</tspan><tspan class="cls-64" x="8.7" y="0">e</tspan><tspan class="cls-28" x="19.28" y="0">r</tspan><tspan class="cls-27" x="26.28" y="0">s</tspan><tspan class="cls-50" x="36.08" y="0">a</tspan><tspan class="cls-76" x="46.52" y="0">c</tspan><tspan x="57.14" y="0">e</tspan></text><text class="cls-12" transform="translate(1147.19 60.28)"><tspan class="cls-28">c</tspan><tspan x="10.62" y="0">hanel</tspan></text><text class="cls-82" transform="translate(1153.6 166.62)">w<tspan class="cls-50" x="13.6" y="0">in</tspan><tspan class="cls-78" x="28.9" y="0">t</tspan><tspan class="cls-64" x="34.26" y="0">er</tspan></text><text class="cls-12" transform="translate(1086.98 180.13)">dior</text><text class="cls-12" transform="translate(1112.59 91.33)">pop</text><text class="cls-12" transform="translate(1045.34 67.02)">model</text><text class="cls-12" transform="translate(995.92 163.31)"><tspan class="cls-13">f</tspan><tspan x="5.24" y="0">al</tspan><tspan class="cls-40" x="20.2" y="0">l</tspan><tspan class="cls-83" x="24.82" y="0">w</tspan><tspan x="38.42" y="0">in</tspan><tspan class="cls-78" x="53.72" y="0">t</tspan><tspan x="59.08" y="0">er2020</tspan></text><text class="cls-12" transform="translate(1183.14 92.1)">loui<tspan class="cls-45" x="30.82" y="0">s</tspan><tspan class="cls-41" x="40.46" y="0">v</tspan><tspan x="49.4" y="0">ui</tspan><tspan class="cls-72" x="64.7" y="0">t</tspan><tspan class="cls-45" x="70.68" y="0">t</tspan><tspan x="76.04" y="0">on</tspan></text><text class="cls-12" transform="translate(1017.81 102.62)">mon<tspan class="cls-28" x="37.28" y="0">c</tspan><tspan x="47.9" y="0">ler</tspan></text><text class="cls-84" transform="translate(1135.07 108.86)">นน</text><text class="cls-84" transform="translate(1093.71 50.65)">ชาร</text><text class="cls-12" transform="translate(715.75 429.67)">mo<tspan class="cls-25" x="26.5" y="0">r</tspan><tspan x="33.3" y="0">e</tspan></text><text class="cls-12" transform="translate(595.61 396.5)">lali<tspan class="cls-27" x="24" y="0">s</tspan><tspan x="33.8" y="0">amanoban</tspan></text><text class="cls-12" transform="translate(706.37 479.11)">on</text><text class="cls-12" transform="translate(692.95 412.68)">s<tspan class="cls-85" x="9.72" y="0">t</tspan><tspan class="cls-21" x="15.8" y="0">y</tspan><tspan x="25.48" y="0">lish</tspan></text><text class="cls-86" transform="translate(620.71 472.36)">w<tspan class="cls-26" x="13.42" y="0">oman</tspan></text><text class="cls-12" transform="translate(631.96 423.82)">c<tspan class="cls-65" x="10.58" y="0">r</tspan><tspan class="cls-31" x="17.36" y="0">o</tspan><tspan x="28.32" y="0">wd</tspan></text><text class="cls-12" transform="translate(623.03 448.12)">send</text><text class="cls-84" transform="translate(667.6 373.05)">มจนล</text></svg>