<svg id="Layer_1" data-name="Layer 1" xmlns="http://www.w3.org/2000/svg" viewBox="0 0 1132 1014"><defs><style>.cls-1,.cls-2,.cls-3{fill:none;}.cls-1{stroke:#fd8326;}.cls-2{stroke:#fc2130;}.cls-3{stroke:#8929a9;}.cls-31,.cls-4,.cls-40{isolation:isolate;font-size:22.18px;font-family:NimbusSan-Reg, Nimbus Sans;}.cls-5{letter-spacing:0.03em;}.cls-6{letter-spacing:0em;}.cls-7{letter-spacing:0em;}.cls-40,.cls-8{letter-spacing:0em;}.cls-9{letter-spacing:0em;}.cls-10{letter-spacing:0em;}.cls-11{letter-spacing:0.01em;}.cls-12{letter-spacing:0em;}.cls-13{letter-spacing:0em;}.cls-14{letter-spacing:-0.01em;}.cls-15{letter-spacing:0em;}.cls-16{letter-spacing:0.01em;}.cls-17{letter-spacing:0em;}.cls-18{letter-spacing:-0.01em;}.cls-19{letter-spacing:0em;}.cls-20{letter-spacing:0em;}.cls-21{letter-spacing:0em;}.cls-22{letter-spacing:0em;}.cls-23{letter-spacing:-0.01em;}.cls-24{letter-spacing:-0.01em;}.cls-25{letter-spacing:-0.01em;}.cls-26{letter-spacing:0em;}.cls-27{letter-spacing:0.01em;}.cls-28{letter-spacing:0em;}.cls-29{letter-spacing:0em;}.cls-30{letter-spacing:0em;}.cls-31{letter-spacing:0em;}.cls-32{letter-spacing:-0.01em;}.cls-33{letter-spacing:0em;}.cls-34{letter-spacing:0.01em;}.cls-35{letter-spacing:-0.01em;}.cls-36{letter-spacing:-0.01em;}.cls-37{letter-spacing:0.01em;}.cls-38{letter-spacing:0.03em;}.cls-39{letter-spacing:0.01em;}.cls-41{letter-spacing:-0.01em;}.cls-42{letter-spacing:0em;}.cls-43{letter-spacing:-0.01em;}.cls-44{letter-spacing:0em;}</style></defs><g id="edges"><path class="cls-1" d="M906.27,784.33c-84.57,8.56-224.29-105.45-232.86-190"/><path class="cls-1" d="M906.27,784.33c-109.56,6-282.92-149.3-288.94-258.86"/><path class="cls-1" d="M906.27,784.33C817.75,777,696,633.16,703.35,544.64"/><path class="cls-1" d="M906.27,784.33c24.82-17,87.51-5.2,104.48,19.62"/><path class="cls-1" d="M906.27,784.33c-1-27.73,39-70.83,66.76-71.85"/><path class="cls-1" d="M906.27,784.33c38.39-30.59,141.85-18.87,172.43,19.52"/><path class="cls-1" d="M906.27,784.33c29.67,15.58,50.79,83.45,35.2,113.12"/><path class="cls-1" d="M906.27,784.33C881,789.76,835,760.07,829.59,734.84"/><path class="cls-1" d="M906.27,784.33c-55.83-41-78.09-186.22-37.1-242.05"/><path class="cls-1" d="M906.27,784.33c-15,25.18-75.19,40.51-100.37,25.54"/><path class="cls-1" d="M906.27,784.33c15.08,25.24-.18,85.72-25.43,100.79"/><path class="cls-1" d="M906.27,784.33c51.76,12.12,111.21,108,99.09,159.73"/><path class="cls-1" d="M906.27,784.33C807,768.47,681.92,595.81,697.77,496.56"/><path class="cls-1" d="M906.27,784.33c39.37,33.26,48.54,142.21,15.28,181.58"/><path class="cls-1" d="M906.27,784.33c50.7-11.84,144.5,46.45,156.33,97.14"/><path class="cls-1" d="M906.27,784.33c16.7-33.5,92-58.7,125.48-42"/><path class="cls-1" d="M906.27,784.33c-46.5-66.26-16.86-235.4,49.4-281.9"/><path class="cls-1" d="M906.27,784.33c32.9-1.1,83.89,46.59,85,79.49"/><path class="cls-1" d="M906.27,784.33c16.84,42.67-21.91,131.95-64.58,148.79"/><path class="cls-1" d="M906.27,784.33c-2.53,36.55-61.15,87.59-97.71,85.06"/><path class="cls-2" d="M226,604.48c83.5-107.44,369.9-143.34,477.33-59.84"/><path class="cls-2" d="M226,604.48c62.46-94.07,297.25-141.47,391.31-79"/><path class="cls-2" d="M226,604.48C192.05,639.87,88,642,52.6,608"/><path class="cls-2" d="M226,604.48C313.47,513,581.9,506.86,673.41,594.31"/><path class="cls-2" d="M226,604.48c-29.53-2.71-69.75-51.08-67-80.6"/><path class="cls-2" d="M226,604.48c-15.61,48.11-111.2,96.86-159.31,81.25"/><path class="cls-2" d="M226,604.48c31.43,21.09,46.94,99.87,25.85,131.3"/><path class="cls-2" d="M226,604.48c-10.06,29-68.68,57.45-97.7,47.39"/><path class="cls-2" d="M226,604.48c-45.92,16.44-139.47-27.77-155.91-73.7"/><path class="cls-2" d="M226,604.48C178.49,600.17,113.65,522.42,118,474.89"/><path class="cls-2" d="M226,604.48c-25.29,17.54-89.55,5.91-107.09-19.38"/><path class="cls-2" d="M226,604.48c23.12,42-5.15,139.62-47.13,162.74"/><path class="cls-2" d="M226,604.48c4.23,45.59-57.8,120.33-103.4,124.56"/><path class="cls-2" d="M226,604.48c-16.48-27-.72-92.23,26.28-108.71"/><path class="cls-2" d="M226,604.48c72.77-115.94,355.82-180.69,471.75-107.92"/><path class="cls-2" d="M226,604.48c1.23-29.05,46.66-70.79,75.71-69.56"/><path class="cls-2" d="M226,604.48c30.52,3,71.78,53.31,68.77,83.82"/><path class="cls-2" d="M226,604.48c12.8,25.74-6.63,83.55-32.37,96.34"/><path class="cls-2" d="M226,604.48C192,582.09,174.45,497.41,196.84,463.34"/><path class="cls-2" d="M226,604.48c21.92-18.14,82-12.46,100.14,9.46"/><path class="cls-3" d="M857.05,228.56C868.49,335.89,724.66,514,617.33,525.47"/><path class="cls-3" d="M857.05,228.56c32.47,94-59.74,283.6-153.7,316.08"/><path class="cls-3" d="M857.05,228.56c74.5,35.05,133.67,199.38,98.62,273.87"/><path class="cls-3" d="M857.05,228.56c21.74,85.46-73.83,246.25-159.28,268"/><path class="cls-3" d="M857.05,228.56c36.42,109.88-73.76,329.32-183.64,365.75"/><path class="cls-3" d="M857.05,228.56c-29.31-20.7-42.22-95.7-21.52-125"/><path class="cls-3" d="M857.05,228.56c-44.57-26-72.35-132-46.31-176.53"/><path class="cls-3" d="M857.05,228.56c-14.61-30.39,9.07-97.9,39.46-112.51"/><path class="cls-3" d="M857.05,228.56c-25.73-46.53,5.47-154.93,52-180.66"/><path class="cls-3" d="M857.05,228.56c65.17,60.32,72.44,248.55,12.12,313.72"/><path class="cls-3" d="M857.05,228.56c-3.46-52.33,69.85-136,122.18-139.48"/><path class="cls-3" d="M857.05,228.56c27.74-2.4,72.94,35.6,75.35,63.34"/><path class="cls-3" d="M857.05,228.56c-8.87,25.54-60.47,50.54-86,41.68"/><path class="cls-3" d="M857.05,228.56C889.93,201,980.62,209,1008.19,241.85"/><path class="cls-3" d="M857.05,228.56c17.75-45,111.84-85.82,156.81-68.07"/><path class="cls-3" d="M857.05,228.56c3.41-31.21,55.34-72.9,86.55-69.48"/><path class="cls-3" d="M857.05,228.56c-28.88-2.83-67.94-50.39-65.11-79.26"/><path class="cls-3" d="M857.05,228.56C829.26,246,761.42,230.49,744,202.71"/><path class="cls-3" d="M857.05,228.56c18.36-21.9,78.76-27.21,100.66-8.85"/><path class="cls-3" d="M857.05,228.56C812.1,230.63,741.57,166.3,739.5,121.35"/></g><g id="node-labels"><text class="cls-4" transform="translate(653.11 598.54)">m<tspan class="cls-5" x="17.19" y="0">f</tspan><tspan x="23.85" y="0">w</tspan></text><text class="cls-4" transform="translate(584.07 530.81)">gio<tspan class="cls-6" x="29.37" y="0">r</tspan><tspan class="cls-7" x="37.02" y="0">gio</tspan></text><text class="cls-4" transform="translate(667.61 548.94)"><tspan class="cls-8">f</tspan><tspan class="cls-9" x="5.81" y="0">a</tspan><tspan x="17.41" y="0">shion</tspan></text><text class="cls-4" transform="translate(983.01 808.17)">moda</text><text class="cls-4" transform="translate(926.8 716.71)"><tspan class="cls-10">c</tspan><tspan x="11.78" y="0">ollec</tspan><tspan class="cls-11" x="57.47" y="0">t</tspan><tspan class="cls-7" x="63.71" y="0">ion</tspan></text><text class="cls-4" transform="translate(1058.36 808.07)">look</text><text class="cls-4" transform="translate(915.59 901.66)">bla<tspan class="cls-10" x="29.1" y="0">c</tspan><tspan class="cls-7" x="40.88" y="0">k</tspan></text><text class="cls-4" transform="translate(797.55 739.13)">de<tspan class="cls-12" x="24.25" y="0">s</tspan><tspan class="cls-13" x="35.05" y="0">f</tspan><tspan x="41.01" y="0">ile</tspan></text><text class="cls-4" transform="translate(781.02 546.59)">milan<tspan class="cls-6" x="50.75" y="0">f</tspan><tspan class="cls-12" x="56.56" y="0">a</tspan><tspan x="68.17" y="0">shion</tspan><tspan class="cls-6" x="120.07" y="0">w</tspan><tspan x="134.96" y="0">eek</tspan></text><text class="cls-4" transform="translate(715.91 815.19)">mond<tspan class="cls-14" x="53.86" y="0">a</tspan><tspan x="65.15" y="0">ym</tspan><tspan class="cls-15" x="92.94" y="0">o</tspan><tspan class="cls-16" x="105.1" y="0">t</tspan><tspan class="cls-17" x="111.33" y="0">i</tspan><tspan class="cls-18" x="116.46" y="0">v</tspan><tspan class="cls-19" x="126.02" y="0">a</tspan><tspan class="cls-16" x="137.57" y="0">t</tspan><tspan x="143.81" y="0">ion</tspan></text><text class="cls-4" transform="translate(854.35 889.34)">l<tspan class="cls-19" x="5.01" y="0">a</tspan><tspan class="cls-20" x="16.57" y="0">t</tspan><tspan x="22.51" y="0">est</tspan></text><text class="cls-4" transform="translate(978.24 947.24)"><tspan class="cls-10">c</tspan><tspan x="11.78" y="0">ome</tspan></text><text class="cls-4" transform="translate(671.91 500.8)">sh<tspan class="cls-21" x="22.74" y="0">o</tspan><tspan x="34.89" y="0">w</tspan></text><text class="cls-4" transform="translate(873.47 971.23)"><tspan class="cls-14">y</tspan><tspan x="10.32" y="0">es</tspan><tspan class="cls-20" x="32.83" y="0">t</tspan><tspan x="38.77" y="0">e</tspan><tspan class="cls-22" x="50.51" y="0">r</tspan><tspan x="58.12" y="0">d</tspan><tspan class="cls-14" x="70.63" y="0">a</tspan><tspan class="cls-7" x="81.92" y="0">y</tspan></text><text class="cls-4" transform="translate(1035.47 886.79)"><tspan class="cls-20">t</tspan><tspan x="5.94" y="0">od</tspan><tspan class="cls-14" x="30.66" y="0">a</tspan><tspan x="41.95" y="0">y</tspan></text><text class="cls-4" transform="translate(1012.03 746.55)">s<tspan class="cls-23" x="10.78" y="0">i</tspan><tspan class="cls-24" x="15.62" y="0">z</tspan><tspan x="25.53" y="0">e</tspan></text><text class="cls-4" transform="translate(915.61 507.71)">e<tspan class="cls-9" x="11.73" y="0">m</tspan><tspan x="28.95" y="0">porio</tspan></text><text class="cls-4" transform="translate(967.21 869.14)">eb<tspan class="cls-14" x="24.25" y="0">a</tspan><tspan x="35.54" y="0">y</tspan></text><text class="cls-4" transform="translate(824.44 937.4)"><tspan class="cls-13">s</tspan><tspan class="cls-14" x="10.87" y="0">a</tspan><tspan x="22.16" y="0">y</tspan></text><text class="cls-4" transform="translate(784.54 873.61)"><tspan class="cls-10">c</tspan><tspan x="11.78" y="0">olor</tspan></text><text class="cls-4" transform="translate(24.31 613.3)">p<tspan class="cls-25" x="12.47" y="0">r</tspan><tspan x="20.05" y="0">ada</tspan></text><text class="cls-4" transform="translate(141.16 529.22)">d<tspan class="cls-14" x="12.51" y="0">a</tspan><tspan class="cls-26" x="23.8" y="0">y</tspan></text><text class="cls-4" transform="translate(43.36 689.96)"><tspan class="cls-27">v</tspan><tspan x="9.92" y="0">irus</tspan></text><text class="cls-4" transform="translate(239.59 740.01)">be</text><text class="cls-4" transform="translate(116.05 656.17)"><tspan class="cls-28">g</tspan><tspan x="12.18" y="0">o</tspan></text><text class="cls-4" transform="translate(44.29 535.02)"><tspan class="cls-29">c</tspan><tspan x="11.78" y="0">lose</tspan></text><text class="cls-4" transform="translate(100.76 479.13)">l<tspan class="cls-28" x="5.01" y="0">a</tspan><tspan class="cls-30" x="16.61" y="0">st</tspan></text><text class="cls-31" transform="translate(101.13 589.4)">f<tspan class="cls-26" x="5.97" y="0">i</tspan><tspan class="cls-29" x="10.98" y="0">r</tspan><tspan class="cls-30" x="18.74" y="0">st</tspan></text><text class="cls-4" transform="translate(156.76 771.45)">door</text><text class="cls-4" transform="translate(96.81 733.27)"><tspan class="cls-29">c</tspan><tspan x="11.78" y="0">laim</tspan></text><text class="cls-4" transform="translate(231.39 500.01)">hold</text><text class="cls-4" transform="translate(271.56 540.26)">hap<tspan class="cls-32" x="36" y="0">p</tspan><tspan class="cls-26" x="48.14" y="0">y</tspan></text><text class="cls-4" transform="translate(241.83 693.64)"><tspan class="cls-29">c</tspan><tspan x="11.78" y="0">on</tspan><tspan class="cls-17" x="35.94" y="0">s</tspan><tspan x="46.83" y="0">pi</tspan><tspan class="cls-25" x="64.31" y="0">r</tspan><tspan x="71.89" y="0">a</tspan><tspan class="cls-25" x="83.47" y="0">c</tspan><tspan x="95.07" y="0">y</tspan></text><text class="cls-4" transform="translate(144.99 704.02)">announ<tspan class="cls-29" x="71.6" y="0">c</tspan><tspan x="83.38" y="0">e</tspan></text><text class="cls-4" transform="translate(146.36 467.59)">l<tspan class="cls-33" x="5.01" y="0">i</tspan><tspan class="cls-25" x="10.14" y="0">v</tspan><tspan x="19.79" y="0">es</tspan><tspan class="cls-34" x="42.3" y="0">t</tspan><tspan class="cls-35" x="48.53" y="0">r</tspan><tspan class="cls-20" x="56.08" y="0">e</tspan><tspan x="67.72" y="0">am</tspan></text><text class="cls-4" transform="translate(292.3 617.15)"><tspan class="cls-29">c</tspan><tspan x="11.78" y="0">o</tspan><tspan class="cls-36" x="23.98" y="0">r</tspan><tspan x="31.5" y="0">ona</tspan></text><text class="cls-4" transform="translate(778.22 107.82)"><tspan class="cls-10">c</tspan><tspan x="11.78" y="0">o</tspan><tspan class="cls-36" x="23.98" y="0">r</tspan><tspan x="31.5" y="0">on</tspan><tspan class="cls-25" x="55.66" y="0">a</tspan><tspan class="cls-37" x="67.1" y="0">v</tspan><tspan class="cls-7" x="77.02" y="0">irus</tspan></text><text class="cls-4" transform="translate(784.26 56.3)">milan</text><text class="cls-4" transform="translate(896.51 125.61)">s<tspan class="cls-38" x="10.78" y="0">t</tspan><tspan class="cls-37" x="17.52" y="0">y</tspan><tspan x="28.26" y="0">le</tspan></text><text class="cls-4" transform="translate(889.34 53.27)">i<tspan class="cls-39" x="5.01" y="0">t</tspan><tspan x="11.22" y="0">a</tspan><tspan class="cls-17" x="22.8" y="0">l</tspan><tspan x="27.93" y="0">y</tspan></text><text class="cls-4" transform="translate(961.38 94.52)">m<tspan class="cls-5" x="17.19" y="0">f</tspan><tspan x="23.85" y="0">y</tspan></text><text class="cls-40" transform="translate(918.23 296.22)">f<tspan class="cls-7" x="5.81" y="0">all</tspan></text><text class="cls-4" transform="translate(750.72 274.49)">l<tspan class="cls-41" x="5.01" y="0">o</tspan><tspan class="cls-25" x="17.01" y="0">v</tspan><tspan x="26.66" y="0">e</tspan></text><text class="cls-4" transform="translate(977.99 247.12)">e<tspan class="cls-9" x="11.73" y="0">m</tspan><tspan class="cls-21" x="28.95" y="0">p</tspan><tspan class="cls-38" x="41.37" y="0">t</tspan><tspan class="cls-7" x="48.11" y="0">y</tspan></text><text class="cls-4" transform="translate(990.44 164.82)"><tspan class="cls-5">f</tspan><tspan x="6.65" y="0">w20</tspan></text><text class="cls-4" transform="translate(910.31 164.44)">b<tspan class="cls-20" x="12.51" y="0">e</tspan><tspan x="24.16" y="0">au</tspan><tspan class="cls-38" x="47.69" y="0">t</tspan><tspan x="54.43" y="0">y</tspan></text><text class="cls-4" transform="translate(730.3 153.63)"><tspan class="cls-8">f</tspan><tspan class="cls-9" x="5.81" y="0">a</tspan><tspan x="17.41" y="0">shion</tspan><tspan class="cls-6" x="69.32" y="0">w</tspan><tspan x="84.2" y="0">eek</tspan></text><text class="cls-4" transform="translate(727.36 206.97)">l<tspan class="cls-42" x="5.01" y="0">i</tspan><tspan class="cls-25" x="10.14" y="0">v</tspan><tspan x="19.79" y="0">e</tspan></text><text class="cls-4" transform="translate(921.96 224.05)">run<tspan class="cls-43" x="31.63" y="0">w</tspan><tspan class="cls-14" x="46.45" y="0">a</tspan><tspan x="57.74" y="0">y</tspan></text><text class="cls-4" transform="translate(704.99 125.61)"><tspan class="cls-16">t</tspan><tspan x="6.23" y="0">h</tspan><tspan class="cls-44" x="18.19" y="0">e</tspan><tspan class="cls-19" x="29.83" y="0">a</tspan><tspan class="cls-20" x="41.39" y="0">t</tspan><tspan x="47.34" y="0">er</tspan></text></g></svg>