<svg id="Layer_1" data-name="Layer 1" xmlns="http://www.w3.org/2000/svg" viewBox="0 0 2424 2034"><defs><style>.cls-1,.cls-2,.cls-3,.cls-4,.cls-5,.cls-6{fill:none;}.cls-1{stroke:#fc2130;}.cls-2{stroke:#8929a9;}.cls-3{stroke:#5dd8a0;}.cls-4{stroke:#11c574;}.cls-5{stroke:#8724fb;}.cls-6{stroke:#fd8326;}.cls-18,.cls-44,.cls-53,.cls-56,.cls-61,.cls-63,.cls-7{isolation:isolate;font-size:22.04px;}.cls-44,.cls-53,.cls-56,.cls-61,.cls-63,.cls-7{font-family:NimbusSan-Reg, Nimbus Sans;}.cls-8{letter-spacing:0em;}.cls-9{letter-spacing:0em;}.cls-10{letter-spacing:0em;}.cls-11{letter-spacing:0.01em;}.cls-12{letter-spacing:-0.01em;}.cls-13,.cls-44{letter-spacing:0em;}.cls-14{letter-spacing:0em;}.cls-15{letter-spacing:0.01em;}.cls-16{letter-spacing:0em;}.cls-17{letter-spacing:0.01em;}.cls-18{font-family:AdobeMyungjoStd-Medium-KSCpc-EUC-H, Adobe Myungjo Std;}.cls-19{letter-spacing:0em;}.cls-20{letter-spacing:0em;}.cls-21,.cls-61{letter-spacing:0em;}.cls-22{letter-spacing:-0.02em;}.cls-23,.cls-56{letter-spacing:-0.01em;}.cls-24{letter-spacing:0.01em;}.cls-25{letter-spacing:0.03em;}.cls-26{letter-spacing:0.03em;}.cls-27{letter-spacing:0.03em;}.cls-28{letter-spacing:0.01em;}.cls-29,.cls-63{letter-spacing:0em;}.cls-30{letter-spacing:0em;}.cls-31{letter-spacing:0.01em;}.cls-32{letter-spacing:0em;}.cls-33{letter-spacing:0em;}.cls-34{letter-spacing:-0.01em;}.cls-35{letter-spacing:0.01em;}.cls-36{letter-spacing:0em;}.cls-37,.cls-53{letter-spacing:-0.01em;}.cls-38{letter-spacing:-0.01em;}.cls-39{letter-spacing:0em;}.cls-40{letter-spacing:-0.01em;}.cls-41{letter-spacing:0em;}.cls-42{letter-spacing:-0.01em;}.cls-43{letter-spacing:-0.02em;}.cls-45{letter-spacing:0em;}.cls-46{letter-spacing:0em;}.cls-47{letter-spacing:0em;}.cls-48{letter-spacing:0.03em;}.cls-49{letter-spacing:0em;}.cls-50{letter-spacing:0em;}.cls-51{letter-spacing:0em;}.cls-52{letter-spacing:-0.01em;}.cls-54{letter-spacing:-0.01em;}.cls-55{letter-spacing:0em;}.cls-57{letter-spacing:-0.01em;}.cls-58{letter-spacing:-0.01em;}.cls-59{letter-spacing:0.01em;}.cls-60{letter-spacing:-0.01em;}.cls-62{letter-spacing:0em;}.cls-64{letter-spacing:0em;}.cls-65{letter-spacing:0.01em;}.cls-66{letter-spacing:0em;}.cls-67{letter-spacing:0em;}</style></defs><g id="edges"><path class="cls-1" d="M1433.36,278.08c3.52,26-30.24,70.34-56.27,73.86"/><path class="cls-1" d="M1433.36,278.08c30.89-34,128.28-38.76,162.32-7.87"/><path class="cls-1" d="M1433.36,278.08C1327.89,429.58,942.45,498.63,791,393.16"/><path class="cls-1" d="M1433.36,278.08c-33.51-40.54-23-151.62,17.59-185.13"/><path class="cls-1" d="M1433.36,278.08c-13.17-51.87,44.88-149.42,96.75-162.58"/><path class="cls-1" d="M1433.36,278.08c-22.06,18.53-82.93,13.23-101.45-8.82"/><path class="cls-1" d="M1433.36,278.08c-2.7-31.81,41-83.55,72.78-86.24"/><path class="cls-1" d="M1433.36,278.08c10.12-52.7,104.36-116.56,157.07-106.43"/><path class="cls-1" d="M1433.36,278.08c95.69,199.92-60.66,643.33-260.58,739"/><path class="cls-1" d="M1433.36,278.08c-34.47,5.26-94.06-38.56-99.31-73"/><path class="cls-1" d="M1433.36,278.08c-91.54,120.86-410.14,164.85-531,73.31"/><path class="cls-1" d="M1433.36,278.08c28,4.58,63.08,53.43,58.5,81.42"/><path class="cls-1" d="M1433.36,278.08c179.21,72.35,339.5,449.7,267.14,628.91"/><path class="cls-1" d="M1433.36,278.08c92.06,109.56,65.82,412-43.74,504.08"/><path class="cls-1" d="M1433.36,278.08c13.4-29.78,78.19-54.33,108-40.93"/><path class="cls-1" d="M1433.36,278.08c58.4,124-40,397.63-164,456"/><path class="cls-1" d="M1433.36,278.08c-20.18-25.75-11.83-94.64,13.92-114.82"/><path class="cls-1" d="M1433.36,278.08c-27-10.66-51.56-67.17-40.9-94.19"/><path class="cls-1" d="M1433.36,278.08c-44.71-18.22-84.44-112.62-66.21-157.33"/><path class="cls-1" d="M1433.36,278.08c30.45-13.28,96,12.47,109.33,42.92"/><path class="cls-2" d="M1377.64,1070.08c-51.57,30.38-174.48-1.41-204.86-53"/><path class="cls-2" d="M1377.64,1070.08c31.95-97.19,225.67-195,322.86-163.09"/><path class="cls-3" d="M1377.64,1070.08c20.71-41.1,113.43-71.67,154.53-51"/><path class="cls-2" d="M1377.64,1070.08c34.13,77.23-30.51,244.26-107.73,278.39"/><path class="cls-2" d="M1377.64,1070.08c-8.1,23.31-55.23,46.12-78.54,38"/><path class="cls-2" d="M1377.64,1070.08c124.15-53.94,391.3,51.36,445.25,175.51"/><path class="cls-2" d="M1377.64,1070.08c4,22.88-24.32,63.18-47.2,67.17"/><path class="cls-2" d="M1377.64,1070.08c-1.71-23.82,31.46-62.11,55.29-63.82"/><path class="cls-2" d="M1377.64,1070.08c26.17-18.23,92.79-6.32,111,19.85"/><path class="cls-2" d="M1377.64,1070.08c-13.23-21.44-.91-73.47,20.54-86.7"/><path class="cls-2" d="M1377.64,1070.08c-55.19-60-48-232.73,12-287.92"/><path class="cls-2" d="M1377.64,1070.08c14.09-15.95,59.16-18.76,75.12-4.67"/><path class="cls-2" d="M1377.64,1070.08c-18.34,12.86-65.13,4.65-78-13.69"/><path class="cls-2" d="M1377.64,1070.08c26.18-2.48,69.17,33.08,71.65,59.26"/><path class="cls-2" d="M1377.64,1070.08c-21.23-11.64-35.6-60.95-24-82.18"/><path class="cls-2" d="M1377.64,1070.08c25.2,9.46,48.81,61.43,39.36,86.63"/><path class="cls-2" d="M1377.64,1070.08c60.81,85.4,23.93,304.71-61.47,365.52"/><path class="cls-2" d="M1377.64,1070.08c-24.35.62-61.79-35-62.4-59.34"/><path class="cls-2" d="M1377.64,1070.08c16.38,18.77,12.79,71.49-6,87.87"/><path class="cls-2" d="M1377.64,1070.08c42.17,106.37-54.13,329.18-160.5,371.35"/><path class="cls-4" d="M2160.79,1440.51C1962,1425.86,1685.86,1105.75,1700.5,907"/><path class="cls-4" d="M2160.79,1440.51c-282.29,112.92-875.09-141.13-988-423.41"/><path class="cls-4" d="M2160.79,1440.51c29.18,9.77,58.31,68.2,48.54,97.39"/><path class="cls-4" d="M2160.79,1440.51c33.27-7.55,94.51,31,102.07,64.29"/><path class="cls-4" d="M2160.79,1440.51c-35.51,119.09-267.39,244.46-386.48,209"/><path class="cls-4" d="M2160.79,1440.51c-106.57,28.6-309.31-88.35-337.9-194.92"/><path class="cls-4" d="M2160.79,1440.51c42.8-27.9,148.87-5.54,176.77,37.26"/><path class="cls-4" d="M2160.79,1440.51c7.91-47.57,91.15-107,138.72-99.13"/><path class="cls-4" d="M2160.79,1440.51c-285.91,22.57-748.61-372.45-771.17-658.35"/><path class="cls-4" d="M2160.79,1440.51c-21.37-18.54-25.59-78.41-7-99.77"/><path class="cls-4" d="M2160.79,1440.51c-11.22-32.86,21.25-99,54.1-110.18"/><path class="cls-4" d="M2160.79,1440.51c30.55-43.11,141.06-61.94,184.17-31.38"/><path class="cls-4" d="M2160.79,1440.51c50.43,11.53,108.79,104.48,97.26,154.92"/><path class="cls-4" d="M2160.79,1440.51c53.66-9.1,147.81,57.75,156.91,111.41"/><path class="cls-4" d="M2160.79,1440.51c34.1,29.33,41.27,124.48,11.95,158.58"/><path class="cls-4" d="M2160.79,1440.51c13.87,27.74-6.93,90.17-34.67,104"/><path class="cls-4" d="M2160.79,1440.51c21.54-21.38,85.93-21.12,107.31.42"/><path class="cls-4" d="M2160.79,1440.51c-7.56,25.85-57.66,53.3-83.51,45.75"/><path class="cls-4" d="M2160.79,1440.51c6.23-29.4,59.68-64.15,89.08-57.91"/><path class="cls-4" d="M2160.79,1440.51c-47.76,149-342.94,300.94-492,253.19"/><path class="cls-5" d="M314.78,575.92c-13.85,27-75.06,46.59-102,32.74"/><path class="cls-5" d="M314.78,575.92C387.39,413.5,739.94,278.78,902.36,351.39"/><path class="cls-5" d="M314.78,575.92C373.47,444.13,659.17,334.48,791,393.16"/><path class="cls-5" d="M314.78,575.92c-32.71,37.8-138.46,45.43-176.26,12.72"/><path class="cls-5" d="M314.78,575.92c-28,14-91-7.11-105-35.15"/><path class="cls-5" d="M314.78,575.92c7.53,27.93-23.09,81.12-51,88.64"/><path class="cls-5" d="M314.78,575.92c-48.47-1.67-118.68-76.89-117-125.36"/><path class="cls-5" d="M314.78,575.92c-19.22-24.08-11.92-89,12.16-108.25"/><path class="cls-5" d="M314.78,575.92c-29.7-4.61-67.35-56.07-62.74-85.78"/><path class="cls-5" d="M314.78,575.92c259.84-83.36,774.64,181.34,858,441.18"/><path class="cls-5" d="M314.78,575.92c19.46-21.2,80.45-23.81,101.65-4.35"/><path class="cls-5" d="M314.78,575.92c28.65,16.81,46.4,85,29.6,113.63"/><path class="cls-5" d="M314.78,575.92c30.61-1,78,43.52,78.92,74.13"/><path class="cls-5" d="M314.78,575.92C267.46,598.24,163,560.73,140.67,513.41"/><path class="cls-5" d="M314.78,575.92c23.77,36.39,4.84,126.64-31.55,150.41"/><path class="cls-5" d="M314.78,575.92C571,402.2,1215.9,525.94,1389.62,782.16"/><path class="cls-5" d="M314.78,575.92c-2.46-31.44,41-82.29,72.44-84.76"/><path class="cls-5" d="M314.78,575.92c4.62,48.67-61.47,128.6-110.15,133.22"/><path class="cls-5" d="M314.78,575.92c-37-24.18-56.14-115.91-32-152.87"/><path class="cls-5" d="M314.78,575.92c-15,50.15-112.64,102.93-162.79,88"/><path class="cls-6" d="M1189.81,1749.9c-150-143.16-160.18-582.83-17-732.8"/><path class="cls-6" d="M1189.81,1749.9c32.3,33.15,31,131.31-2.14,163.61"/><path class="cls-6" d="M1189.81,1749.9c-187.25-219.07-139.53-828.53,79.53-1015.78"/><path class="cls-6" d="M1189.81,1749.9c-56.23-67.16-39.83-252.24,27.33-308.47"/><path class="cls-6" d="M1189.81,1749.9c-27.82,15.17-92.33-3.8-107.51-31.62"/><path class="cls-6" d="M1189.81,1749.9c-8.67,29-65.16,59.47-94.15,50.8"/><path class="cls-6" d="M1189.81,1749.9c84.56-107,372-140.76,479-56.2"/><path class="cls-6" d="M1189.81,1749.9c-37.59-88.13,38.23-276.71,126.36-314.3"/><path class="cls-6" d="M1189.81,1749.9c22.88-16.39,81.78-6.65,98.17,16.23"/><path class="cls-6" d="M1189.81,1749.9c34.27-1.18,87.44,48.47,88.61,82.74"/><path class="cls-6" d="M1189.81,1749.9c-17.43,47.4-114.67,92.35-162.07,74.92"/><path class="cls-6" d="M1189.81,1749.9c9.86,32.23-23.7,95.37-55.94,105.23"/><path class="cls-6" d="M1189.81,1749.9c-30.9,32-125.25,33.65-157.24,2.75"/><path class="cls-6" d="M1189.81,1749.9c3.27,53.38-71.9,138.37-125.29,141.64"/><path class="cls-6" d="M1189.81,1749.9c24.63,51.78-16.11,166.39-67.89,191"/><path class="cls-6" d="M1189.81,1749.9c45.35,16.94,88,110.39,71,155.75"/><path class="cls-6" d="M1189.81,1749.9c-64.26-96.31-16.2-337.16,80.1-401.43"/><path class="cls-6" d="M1189.81,1749.9c96.81-137,447.51-197.25,584.5-100.43"/><path class="cls-6" d="M1189.81,1749.9c-27.61-3.44-63.86-50-60.42-77.61"/><path class="cls-6" d="M1189.81,1749.9c24.22,16.34,36,77.19,19.67,101.41"/></g><g id="node-labels"><text class="cls-7" transform="translate(1289.51 356.02)">milan<tspan class="cls-8" x="50.42" y="0">f</tspan><tspan class="cls-9" x="56.19" y="0">a</tspan><tspan x="67.72" y="0">shion</tspan><tspan class="cls-10" x="119.28" y="0">w</tspan><tspan x="134.06" y="0">eek</tspan></text><text class="cls-7" transform="translate(1587.1 274.22)">iu</text><text class="cls-7" transform="translate(776.87 397.17)">i<tspan class="cls-11" x="4.98" y="0">u</tspan><tspan x="17.01" y="0">x</tspan></text><text class="cls-7" transform="translate(1438.69 96.96)">do</text><text class="cls-7" transform="translate(1492.13 120.6)">le<tspan class="cls-12" x="16.64" y="0">e</tspan><tspan x="28.14" y="0">jieun</tspan></text><text class="cls-7" transform="translate(1320.89 274.43)"><tspan class="cls-13">f</tspan><tspan class="cls-14" x="5.93" y="0">l</tspan><tspan x="11.02" y="0">y</tspan></text><text class="cls-7" transform="translate(1487.16 195.84)"><tspan class="cls-15">k</tspan><tspan class="cls-16" x="11.35" y="0">i</tspan><tspan class="cls-17" x="16.33" y="0">s</tspan><tspan x="27.21" y="0">s</tspan></text><text class="cls-18" transform="translate(1565.63 176.46)">이지은</text><text class="cls-7" transform="translate(1137.25 1021.18)"><tspan class="cls-19">f</tspan><tspan class="cls-20" x="5.77" y="0">a</tspan><tspan x="17.3" y="0">shion</tspan></text><text class="cls-7" transform="translate(1294.85 209.06)">sn<tspan class="cls-21" x="22.59" y="0">e</tspan><tspan class="cls-16" x="34.16" y="0">a</tspan><tspan class="cls-22" x="45.66" y="0">k</tspan><tspan class="cls-16" x="56.43" y="0">er</tspan></text><text class="cls-7" transform="translate(883.98 356.49)">b<tspan class="cls-23" x="12.43" y="0">a</tspan><tspan x="23.73" y="0">g</tspan></text><text class="cls-7" transform="translate(1462.47 364.6)">l<tspan class="cls-24" x="4.98" y="0">u</tspan><tspan x="17.01" y="0">xu</tspan><tspan class="cls-25" x="39.31" y="0">r</tspan><tspan x="47.66" y="0">y</tspan></text><text class="cls-7" transform="translate(1680.31 911)">m<tspan class="cls-26" x="17.08" y="0">f</tspan><tspan class="cls-16" x="23.69" y="0">w</tspan></text><text class="cls-7" transform="translate(1366.96 787.26)">s<tspan class="cls-27" x="10.71" y="0">t</tspan><tspan class="cls-28" x="17.41" y="0">y</tspan><tspan x="28.07" y="0">le</tspan></text><text class="cls-7" transform="translate(1506.41 241.16)"><tspan class="cls-29">c</tspan><tspan class="cls-16" x="11.7" y="0">l</tspan><tspan class="cls-30" x="16.68" y="0">o</tspan><tspan class="cls-31" x="28.76" y="0">t</tspan><tspan x="34.95" y="0">hes</tspan></text><text class="cls-7" transform="translate(1245.45 738.12)">shoe</text><text class="cls-7" transform="translate(1419.72 167.28)">pu<tspan class="cls-32" x="24.26" y="0">r</tspan><tspan x="31.97" y="0">se</tspan></text><text class="cls-7" transform="translate(1368.57 188.93)">shop</text><text class="cls-7" transform="translate(1322.42 125.85)">shoppi<tspan class="cls-21" x="64.45" y="0">n</tspan><tspan x="76.24" y="0">g</tspan></text><text class="cls-7" transform="translate(1516.35 326.04)">pie<tspan class="cls-33" x="29.02" y="0">c</tspan><tspan x="40.72" y="0">e</tspan></text><text class="cls-7" transform="translate(1513.8 1023.13)">dior</text><text class="cls-7" transform="translate(1237.44 1352.48)"><tspan class="cls-29">c</tspan><tspan x="11.7" y="0">hanel</tspan></text><text class="cls-7" transform="translate(1275.21 1112.18)"><tspan class="cls-34">f</tspan><tspan x="5.73" y="0">endi</tspan></text><text class="cls-7" transform="translate(1797.17 1249.6)">sh<tspan class="cls-30" x="22.59" y="0">o</tspan><tspan class="cls-16" x="34.66" y="0">w</tspan></text><text class="cls-7" transform="translate(1277.77 1141.32)"><tspan class="cls-10">f</tspan><tspan class="cls-9" x="5.77" y="0">a</tspan><tspan x="17.3" y="0">shionis</tspan><tspan class="cls-35" x="84.55" y="0">t</tspan><tspan x="90.72" y="0">a</tspan></text><text class="cls-7" transform="translate(1412.09 1011.36)"><tspan class="cls-36">g</tspan><tspan x="12.1" y="0">old</tspan></text><text class="cls-7" transform="translate(1445.18 1095.03)">g<tspan class="cls-14" x="12.08" y="0">i</tspan><tspan class="cls-37" x="17.17" y="0">v</tspan><tspan x="26.75" y="0">en</tspan><tspan class="cls-33" x="50.29" y="0">c</tspan><tspan class="cls-38" x="61.99" y="0">h</tspan><tspan x="73.55" y="0">y</tspan></text><text class="cls-7" transform="translate(1384.71 988.48)"><tspan class="cls-37">y</tspan><tspan x="10.4" y="0">sl</tspan></text><text class="cls-7" transform="translate(1430.71 1069.42)">rhoa</text><text class="cls-7" transform="translate(1289.25 1061.49)">kjl</text><text class="cls-7" transform="translate(1407.04 1133.26)"><tspan class="cls-39">e</tspan><tspan class="cls-31" x="11.61" y="0">t</tspan><tspan x="17.8" y="0">rus</tspan><tspan class="cls-29" x="48.06" y="0">c</tspan><tspan x="59.76" y="0">an</tspan></text><text class="cls-7" transform="translate(1309.59 991.98)"><tspan class="cls-29">c</tspan><tspan class="cls-16" x="11.7" y="0">ali</tspan><tspan class="cls-40" x="33.16" y="0">f</tspan><tspan x="38.83" y="0">ornia</tspan></text><text class="cls-7" transform="translate(1388.82 1160.72)">rhobh</text><text class="cls-7" transform="translate(1280.64 1440.7)"><tspan class="cls-28">v</tspan><tspan x="9.85" y="0">in</tspan><tspan class="cls-17" x="26.71" y="0">t</tspan><tspan class="cls-23" x="32.88" y="0">a</tspan><tspan class="cls-9" x="44.18" y="0">g</tspan><tspan x="56.28" y="0">e</tspan></text><text class="cls-7" transform="translate(1274.21 1014.75)"><tspan class="cls-28">v</tspan><tspan x="9.85" y="0">ic</tspan><tspan class="cls-41" x="26.49" y="0">t</tspan><tspan x="32.39" y="0">orian</tspan></text><text class="cls-7" transform="translate(1313.46 1161.96)">donna<tspan class="cls-42" x="59.8" y="0">k</tspan><tspan x="70.91" y="0">a</tspan><tspan class="cls-37" x="82.41" y="0">r</tspan><tspan class="cls-16" x="89.95" y="0">an</tspan></text><text class="cls-7" transform="translate(1174.88 1446.53)">designer</text><text class="cls-7" transform="translate(2186.06 1541.97)"><tspan class="cls-26">f</tspan><tspan x="6.61" y="0">w20</tspan></text><text class="cls-7" transform="translate(2223.66 1508.81)"><tspan class="cls-31">t</tspan><tspan x="6.19" y="0">heri</tspan><tspan class="cls-29" x="42.37" y="0">t</tspan><tspan x="48.41" y="0">ual</tspan></text><text class="cls-7" transform="translate(1738.79 1652.45)"><tspan class="cls-10">w</tspan><tspan x="14.79" y="0">oman</tspan></text><text class="cls-7" transform="translate(2323.48 1481.85)"><tspan class="cls-10">f</tspan><tspan x="5.77" y="0">all</tspan></text><text class="cls-7" transform="translate(2264.59 1345.38)">a<tspan class="cls-43" x="11.5" y="0">k</tspan><tspan class="cls-16" x="22.28" y="0">elldn</tspan></text><text class="cls-7" transform="translate(2127.42 1344.75)">milan</text><text class="cls-44" transform="translate(2188.55 1334.41)">f<tspan class="cls-16" x="5.93" y="0">inale</tspan></text><text class="cls-7" transform="translate(2327.21 1414.3)">m<tspan class="cls-26" x="17.08" y="0">f</tspan><tspan x="23.69" y="0">y</tspan></text><text class="cls-7" transform="translate(2209.67 1600.53)">ins<tspan class="cls-17" x="27.57" y="0">t</tspan><tspan class="cls-23" x="33.74" y="0">a</tspan><tspan class="cls-45" x="45.04" y="0">g</tspan><tspan class="cls-37" x="57.18" y="0">r</tspan><tspan x="64.72" y="0">am</tspan></text><text class="cls-7" transform="translate(2297.49 1555.93)">look</text><text class="cls-7" transform="translate(2134.96 1603.17)">o<tspan class="cls-25" x="12.12" y="0">f</tspan><tspan class="cls-26" x="18.64" y="0">f</tspan><tspan x="25.25" y="0">whi</tspan><tspan class="cls-21" x="56.96" y="0">t</tspan><tspan x="62.87" y="0">e</tspan></text><text class="cls-7" transform="translate(2088.77 1549.5)"><tspan class="cls-31">t</tspan><tspan class="cls-37" x="6.19" y="0">r</tspan><tspan x="13.73" y="0">aps</tspan><tspan class="cls-17" x="48.32" y="0">t</tspan><tspan x="54.49" y="0">ar</tspan></text><text class="cls-7" transform="translate(2209.3 1445.01)">ins<tspan class="cls-17" x="27.57" y="0">t</tspan><tspan class="cls-16" x="33.74" y="0">a</tspan><tspan class="cls-8" x="45.24" y="0">f</tspan><tspan class="cls-46" x="51.01" y="0">a</tspan><tspan class="cls-47" x="62.54" y="0">shion</tspan></text><text class="cls-7" transform="translate(2016.03 1490.33)"><tspan class="cls-10">f</tspan><tspan class="cls-9" x="5.77" y="0">a</tspan><tspan x="17.3" y="0">shion</tspan><tspan class="cls-10" x="68.86" y="0">w</tspan><tspan class="cls-16" x="83.65" y="0">eek</tspan></text><text class="cls-7" transform="translate(2217.4 1387.7)">design</text><text class="cls-7" transform="translate(1613.7 1697.71)">loui<tspan class="cls-21" x="33.96" y="0">s</tspan><tspan class="cls-28" x="44.58" y="0">v</tspan><tspan x="54.43" y="0">ui</tspan><tspan class="cls-48" x="71.29" y="0">t</tspan><tspan class="cls-21" x="77.87" y="0">t</tspan><tspan class="cls-47" x="83.78" y="0">on</tspan></text><text class="cls-7" transform="translate(179.08 612.66)">l<tspan class="cls-21" x="4.98" y="0">e</tspan><tspan class="cls-49" x="16.55" y="0">a</tspan><tspan class="cls-31" x="28.03" y="0">t</tspan><tspan x="34.22" y="0">her</tspan></text><text class="cls-7" transform="translate(66.24 593.81)"><tspan class="cls-19">f</tspan><tspan class="cls-20" x="5.77" y="0">a</tspan><tspan x="17.3" y="0">shionblog</tspan><tspan class="cls-9" x="110.46" y="0">g</tspan><tspan x="122.56" y="0">er</tspan></text><text class="cls-7" transform="translate(184.03 544.78)">bla<tspan class="cls-50" x="28.91" y="0">c</tspan><tspan class="cls-51" x="40.61" y="0">k</tspan></text><text class="cls-7" transform="translate(247.84 668.57)"><tspan class="cls-52">r</tspan><tspan x="7.49" y="0">ed</tspan></text><text class="cls-53" transform="translate(154.28 454.57)">a<tspan class="cls-54" x="11.37" y="0">v</tspan><tspan class="cls-55" x="20.87" y="0">ailable</tspan></text><text class="cls-7" transform="translate(284.68 471.68)">shoulder</text><text class="cls-7" transform="translate(228.16 494.15)"><tspan class="cls-29">c</tspan><tspan x="11.7" y="0">olor</tspan></text><text class="cls-7" transform="translate(387.03 575.58)">online</text><text class="cls-7" transform="translate(311.91 693.55)"><tspan class="cls-13">s</tspan><tspan x="10.8" y="0">andal</tspan></text><text class="cls-56" transform="translate(366.15 655.15)">s<tspan class="cls-28" x="10.51" y="0">y</tspan><tspan class="cls-15" x="21.18" y="0">l</tspan><tspan class="cls-28" x="26.27" y="0">v</tspan><tspan class="cls-55" x="36.12" y="0">ie</tspan></text><text class="cls-7" transform="translate(114.33 517.33)"><tspan class="cls-57">e</tspan><tspan class="cls-58" x="11.35" y="0">x</tspan><tspan x="21.64" y="0">act</tspan></text><text class="cls-7" transform="translate(243.43 731.43)">pl<tspan class="cls-49" x="17.36" y="0">a</tspan><tspan x="28.84" y="0">t</tspan><tspan class="cls-52" x="34.84" y="0">f</tspan><tspan x="40.5" y="0">orm</tspan></text><text class="cls-7" transform="translate(359.04 496.2)">p<tspan class="cls-58" x="12.38" y="0">r</tspan><tspan x="19.92" y="0">ada</tspan></text><text class="cls-7" transform="translate(189.32 714.15)"><tspan class="cls-9">g</tspan><tspan class="cls-39" x="12.1" y="0">e</tspan><tspan x="23.71" y="0">t</tspan></text><text class="cls-7" transform="translate(262.61 426.03)">n<tspan class="cls-39" x="11.88" y="0">o</tspan><tspan x="23.95" y="0">w</tspan></text><text class="cls-7" transform="translate(122.6 667.89)"><tspan class="cls-59">w</tspan><tspan x="14.98" y="0">in</tspan><tspan class="cls-21" x="31.84" y="0">t</tspan><tspan x="37.75" y="0">er</tspan></text><text class="cls-7" transform="translate(1158.89 1918.61)">ja<tspan class="cls-29" x="16.75" y="0">c</tspan><tspan class="cls-43" x="28.45" y="0">k</tspan><tspan class="cls-39" x="39.22" y="0">e</tspan><tspan class="cls-51" x="50.84" y="0">t</tspan></text><text class="cls-7" transform="translate(1039.41 1723.38)">handb<tspan class="cls-60" x="60.11" y="0">a</tspan><tspan x="71.42" y="0">g</tspan></text><text class="cls-7" transform="translate(1059.53 1804.71)">c<tspan class="cls-23" x="11.66" y="0">r</tspan><tspan x="19.13" y="0">o</tspan><tspan class="cls-29" x="31.25" y="0">c</tspan><tspan class="cls-55" x="42.95" y="0">h</tspan><tspan class="cls-39" x="54.82" y="0">e</tspan><tspan class="cls-51" x="66.44" y="0">t</tspan></text><text class="cls-7" transform="translate(1262.87 1770.14)"><tspan class="cls-31">t</tspan><tspan class="cls-40" x="6.19" y="0">r</tspan><tspan x="13.68" y="0">end</tspan></text><text class="cls-61" transform="translate(1263.11 1837.59)">t<tspan class="cls-47" x="5.91" y="0">op</tspan></text><text class="cls-7" transform="translate(1007.53 1829.84)"><tspan class="cls-39">e</tspan><tspan class="cls-62" x="11.61" y="0">t</tspan><tspan class="cls-23" x="17.67" y="0">s</tspan><tspan x="28.18" y="0">y</tspan></text><text class="cls-63" transform="translate(1095.9 1860.23)">c<tspan class="cls-55" x="11.7" y="0">l</tspan><tspan class="cls-64" x="16.68" y="0">o</tspan><tspan class="cls-65" x="28.76" y="0">t</tspan><tspan class="cls-55" x="34.95" y="0">hi</tspan><tspan class="cls-21" x="51.81" y="0">n</tspan><tspan class="cls-51" x="63.59" y="0">g</tspan></text><text class="cls-7" transform="translate(1005.62 1755.63)">mens</text><text class="cls-7" transform="translate(1036.34 1895.55)">b<tspan class="cls-58" x="12.43" y="0">r</tspan><tspan x="19.96" y="0">and</tspan></text><text class="cls-7" transform="translate(1085.18 1944.92)">hermes</text><text class="cls-7" transform="translate(1240 1909.57)"><tspan class="cls-29">c</tspan><tspan x="11.7" y="0">o</tspan><tspan class="cls-66" x="23.82" y="0">a</tspan><tspan class="cls-47" x="35.3" y="0">t</tspan></text><text class="cls-7" transform="translate(1086.52 1677.39)">ai<tspan class="cls-67" x="16.48" y="0">r</tspan><tspan x="24.04" y="0">jo</tspan><tspan class="cls-67" x="41.4" y="0">r</tspan><tspan x="48.96" y="0">dan</tspan></text><text class="cls-7" transform="translate(1173.96 1855.32)">auc<tspan class="cls-65" x="35.04" y="0">t</tspan><tspan x="41.23" y="0">ion</tspan></text></g></svg>