<svg id="Layer_1" data-name="Layer 1" xmlns="http://www.w3.org/2000/svg" viewBox="0 0 1474 2288"><defs><style>.cls-1,.cls-2,.cls-3,.cls-4{fill:none;}.cls-1{stroke:#fd8326;}.cls-2{stroke:#8929a9;}.cls-3{stroke:#fc2130;}.cls-4{stroke:#11c574;}.cls-44,.cls-46,.cls-5,.cls-53,.cls-57,.cls-58{isolation:isolate;font-size:22px;}.cls-46,.cls-5,.cls-57,.cls-58{font-family:NimbusSan-Reg, Nimbus Sans;}.cls-6{letter-spacing:0em;}.cls-7{letter-spacing:0em;}.cls-8{letter-spacing:0.03em;}.cls-9{letter-spacing:0.01em;}.cls-10,.cls-57{letter-spacing:0em;}.cls-11{letter-spacing:-0.01em;}.cls-12{letter-spacing:-0.01em;}.cls-13{letter-spacing:0em;}.cls-14{letter-spacing:0em;}.cls-15{letter-spacing:0em;}.cls-16{letter-spacing:-0.01em;}.cls-17{letter-spacing:0.01em;}.cls-18{letter-spacing:-0.01em;}.cls-19{letter-spacing:-0.01em;}.cls-20{letter-spacing:-0.01em;}.cls-21{letter-spacing:0.01em;}.cls-22{letter-spacing:-0.01em;}.cls-23,.cls-46{letter-spacing:0em;}.cls-24{letter-spacing:0em;}.cls-25{letter-spacing:0.04em;}.cls-26{letter-spacing:0em;}.cls-27{letter-spacing:-0.01em;}.cls-28{letter-spacing:0em;}.cls-29{letter-spacing:0em;}.cls-30{letter-spacing:0em;}.cls-31{letter-spacing:0em;}.cls-32{letter-spacing:0.01em;}.cls-33{letter-spacing:0em;}.cls-34{letter-spacing:-0.02em;}.cls-35{letter-spacing:0em;}.cls-36{letter-spacing:0em;}.cls-37{letter-spacing:-0.01em;}.cls-38{letter-spacing:-0.01em;}.cls-39{letter-spacing:0em;}.cls-40{letter-spacing:0.01em;}.cls-41{letter-spacing:0.03em;}.cls-42{letter-spacing:-0.02em;}.cls-43{letter-spacing:0.03em;}.cls-44{font-family:AdobeMyungjoStd-Medium-KSCpc-EUC-H, Adobe Myungjo Std;}.cls-45{letter-spacing:0em;}.cls-47{letter-spacing:0.03em;}.cls-48{letter-spacing:-0.01em;}.cls-49{letter-spacing:-0.02em;}.cls-50{letter-spacing:-0.02em;}.cls-51{letter-spacing:-0.01em;}.cls-52{letter-spacing:-0.02em;}.cls-53{font-family:ArialUnicodeMS, Arial Unicode MS;}.cls-54{letter-spacing:-0.01em;}.cls-55{letter-spacing:0em;}.cls-56{letter-spacing:-0.01em;}.cls-58{letter-spacing:0.01em;}.cls-59{letter-spacing:-0.03em;}</style></defs><g id="edges"><path class="cls-1" d="M722.52,1220.53c-24.5-14.61-39.33-73.29-24.71-97.79"/><path class="cls-1" d="M722.52,1220.53c21.74,9.65,39.87,56.72,30.23,78.45"/><path class="cls-1" d="M722.52,1220.53c33.4,2.71,79.44,56.87,76.73,90.27"/><path class="cls-1" d="M722.52,1220.53c21.45,21.06,22.06,84.81,1,106.27"/><path class="cls-1" d="M722.52,1220.53c13.58-21.75,66.58-34,88.33-20.45"/><path class="cls-1" d="M722.52,1220.53c.76,92.58-137,232.59-229.55,233.34"/><path class="cls-1" d="M722.52,1220.53C624.75,1125.8,620.18,837,714.91,739.27"/><path class="cls-1" d="M722.52,1220.53c10.07,22.28-8.24,70.79-30.51,80.86"/><path class="cls-1" d="M722.52,1220.53c-35.27-2.84-83.91-60-81.07-95.29"/><path class="cls-1" d="M722.52,1220.53c23.91-7.86,71.57,16.21,79.43,40.11"/><path class="cls-1" d="M722.52,1220.53c-.89,26-41.22,63.66-67.22,62.77"/><path class="cls-1" d="M722.52,1220.53c-2.52-29.9,38.55-78.52,68.45-81"/><path class="cls-1" d="M722.52,1220.53c14.61-37.27,92.43-71.27,129.7-56.66"/><path class="cls-1" d="M722.52,1220.53c-16.31-26.91-.41-91.76,26.51-108.07"/><path class="cls-1" d="M722.52,1220.53c-72-88.13-47.83-328.35,40.31-400.37"/><path class="cls-1" d="M722.52,1220.53c-23.8,8.19-71.78-15.25-80-39"/><path class="cls-1" d="M722.52,1220.53c-14.37,25.26-73.8,41.58-99.06,27.21"/><path class="cls-1" d="M722.52,1220.53c-29.89,20.32-105.19,6-125.51-23.92"/><path class="cls-1" d="M722.52,1220.53c31.14-21.56,110.19-7.2,131.75,23.93"/><path class="cls-2" d="M256.6,1832.93c-29.29-1.15-71.51-46.81-70.37-76.1"/><path class="cls-2" d="M256.6,1832.93c.47,28.61-41.73,72.23-70.34,72.7"/><path class="cls-2" d="M256.6,1832.93c98.53-80.22,366.65-52.74,446.87,45.79"/><path class="cls-2" d="M256.6,1832.93c26.14-8.63,78.3,17.64,86.93,43.78"/><path class="cls-2" d="M256.6,1832.93c-30.77-20.36-46.39-97-26-127.81"/><path class="cls-2" d="M256.6,1832.93c-22.06,33.19-104.94,49.89-138.13,27.84"/><path class="cls-2" d="M256.6,1832.93c-40.69,33.89-152.57,23.69-186.47-17"/><path class="cls-2" d="M256.6,1832.93c137.12-65,440.32,43.12,505.34,180.24"/><path class="cls-2" d="M256.6,1832.93c103.52-48.79,332,33.31,380.76,136.83"/><path class="cls-2" d="M256.6,1832.93c-25,16.76-87.74,4.34-104.5-20.69"/><path class="cls-2" d="M256.6,1832.93c130.34-96.63,470.78-46.07,567.41,84.27"/><path class="cls-2" d="M256.6,1832.93c-12,48.07-102,102.23-150.07,90.28"/><path class="cls-2" d="M256.6,1832.93c-14.26-27.1,5-89.14,32.1-103.39"/><path class="cls-2" d="M256.6,1832.93c4.42-27.84,52.81-63,80.65-58.55"/><path class="cls-2" d="M256.6,1832.93C228.06,1709.84,369.89,1482.41,493,1453.87"/><path class="cls-2" d="M256.6,1832.93c22.18,30,10.38,108.37-19.66,130.55"/><path class="cls-2" d="M256.6,1832.93c-48.38,12.47-139.67-41.38-152.14-89.77"/><path class="cls-2" d="M256.6,1832.93c-47.42-8-106.5-91.22-98.46-138.64"/><path class="cls-2" d="M256.6,1832.93c27.37,12.92,49,73.36,36.13,100.74"/><path class="cls-2" d="M256.6,1832.93c9.71,45.7-44.28,128.82-90,138.53"/><path class="cls-3" d="M752.62,270.11c33.18,8.2,70.66,70.29,62.45,103.47"/><path class="cls-3" d="M752.62,270.11c-23.73,18.56-87.15,10.82-105.71-12.9"/><path class="cls-3" d="M752.62,270.11c22.64,20.56,25.76,85.36,5.2,108"/><path class="cls-3" d="M752.62,270.11c11.49-26.71,68.82-49.54,95.53-38"/><path class="cls-3" d="M752.62,270.11c-19.58-22.33-15.45-85.19,6.88-104.77"/><path class="cls-3" d="M752.62,270.11c-30-1.11-73.28-47.76-72.16-77.74"/><path class="cls-3" d="M752.62,270.11c-5.87-34.35,36.85-94.68,71.2-100.55"/><path class="cls-3" d="M752.62,270.11c2.12-48.83,78.56-118.87,127.38-116.75"/><path class="cls-3" d="M752.62,270.11c112,108,118.18,438,10.21,550.05"/><path class="cls-3" d="M752.62,270.11c-26.52-40.18-6-140.22,34.16-166.73"/><path class="cls-3" d="M752.62,270.11C710.24,290.57,616,257.69,595.54,215.32"/><path class="cls-3" d="M752.62,270.11c30-9.26,88.9,21.84,98.16,51.85"/><path class="cls-3" d="M752.62,270.11c-40-20.74-69-111.91-48.25-152"/><path class="cls-3" d="M752.62,270.11c25.34-40,123.37-62,163.39-36.7"/><path class="cls-3" d="M752.62,270.11c37.79-22.69,128.51,0,151.2,37.76"/><path class="cls-3" d="M752.62,270.11C761.19,302.92,724.83,365,692,373.56"/><path class="cls-3" d="M752.62,270.11c-7.24,32.21-66.4,69.68-98.61,62.44"/><path class="cls-3" d="M752.62,270.11C838.91,371.48,816.28,653,714.91,739.27"/><path class="cls-3" d="M752.62,270.11c-49-1.62-120-77.5-118.38-126.47"/><path class="cls-3" d="M752.62,270.11C729.89,309.28,637.05,334,597.88,311.23"/><path class="cls-4" d="M1225.9,2028.12c2.84-29.11,50.78-68.51,79.89-65.67"/><path class="cls-4" d="M1225.9,2028.12c42.34,18,78.83,108.57,60.81,150.91"/><path class="cls-4" d="M1225.9,2028.12c-95.78,89.8-374.15,80.83-464-14.95"/><path class="cls-4" d="M1225.9,2028.12c23.49,15.84,35,74.83,19.12,98.32"/><path class="cls-4" d="M1225.9,2028.12c22.11-23.31,90.24-25.09,113.55-3"/><path class="cls-4" d="M1225.9,2028.12c-129.38,106-482.5,71-588.54-58.36"/><path class="cls-4" d="M1225.9,2028.12c-19.37-27.35-7.41-97.43,19.94-116.8"/><path class="cls-4" d="M1225.9,2028.12c29.74-40.9,135.7-57.64,176.6-27.89"/><path class="cls-4" d="M1225.9,2028.12c-102.56,58.19-343.69-8.36-401.89-110.92"/><path class="cls-4" d="M1225.9,2028.12c42.44-23,140.61,6.14,163.62,48.58"/><path class="cls-4" d="M1225.9,2028.12c31-3.84,83.2,36.86,87,67.83"/><path class="cls-4" d="M1225.9,2028.12c-11.94,27-70.36,49.64-97.38,37.71"/><path class="cls-4" d="M1225.9,2028.12c-12.7-44,34.32-129.17,78.37-141.87"/><path class="cls-4" d="M1225.9,2028.12c-134.37,74.6-447.83-15-522.43-149.4"/><path class="cls-4" d="M1225.9,2028.12c8.81-47.86,93.81-106.43,141.67-97.62"/><path class="cls-4" d="M1225.9,2028.12c-27.82,5.54-77.85-27.87-83.4-55.68"/><path class="cls-4" d="M1225.9,2028.12c50.74-2.67,130.87,69.44,133.54,120.19"/><path class="cls-4" d="M1225.9,2028.12c-29.69-13.93-53.33-79.35-39.41-109"/><path class="cls-4" d="M1225.9,2028.12c26.4,35,13.48,127.16-21.54,153.57"/><path class="cls-4" d="M1225.9,2028.12c6.54,33.3-33.6,93.08-66.91,99.62"/></g><text class="cls-5" transform="translate(671.26 1128.09)">hadid</text><text class="cls-5" transform="translate(729.88 1304.38)">bella</text><text class="cls-5" transform="translate(759.9 1317.29)">morni<tspan class="cls-6" x="53.64" y="0">n</tspan><tspan x="65.41" y="0">g</tspan></text><text class="cls-5" transform="translate(703.71 1331.18)">n<tspan class="cls-7" x="11.86" y="0">e</tspan><tspan x="23.45" y="0">w</tspan></text><text class="cls-5" transform="translate(788.63 1206.55)">s<tspan class="cls-8" x="10.69" y="0">t</tspan><tspan class="cls-9" x="17.38" y="0">y</tspan><tspan x="28.03" y="0">le</tspan></text><text class="cls-5" transform="translate(452.33 1459.3)">dis<tspan class="cls-10" x="28.08" y="0">c</tspan><tspan class="cls-11" x="39.76" y="0">o</tspan><tspan class="cls-12" x="51.66" y="0">v</tspan><tspan x="61.23" y="0">er</tspan></text><text class="cls-5" transform="translate(677.37 744.53)">mi<tspan class="cls-10" x="22.02" y="0">c</tspan><tspan class="cls-13" x="33.71" y="0">hael</tspan></text><text class="cls-5" transform="translate(656.9 1306.85)"><tspan class="cls-14">f</tspan><tspan class="cls-15" x="5.76" y="0">a</tspan><tspan x="17.27" y="0">shion</tspan></text><text class="cls-5" transform="translate(572.42 1119.57)"><tspan class="cls-16">v</tspan><tspan class="cls-13" x="9.48" y="0">alen</tspan><tspan class="cls-17" x="49.44" y="0">t</tspan><tspan x="55.62" y="0">ine</tspan></text><text class="cls-5" transform="translate(784.61 1267.12)">d<tspan class="cls-18" x="12.41" y="0">a</tspan><tspan x="23.61" y="0">y</tspan></text><text class="cls-5" transform="translate(631.8 1289.78)">eb<tspan class="cls-19" x="24.05" y="0">a</tspan><tspan x="35.25" y="0">y</tspan></text><text class="cls-5" transform="translate(741.21 1145.94)">ba<tspan class="cls-10" x="23.89" y="0">c</tspan><tspan class="cls-20" x="35.58" y="0">k</tspan><tspan x="46.51" y="0">s</tspan><tspan class="cls-21" x="57.21" y="0">t</tspan><tspan class="cls-22" x="63.37" y="0">a</tspan><tspan class="cls-23" x="74.65" y="0">g</tspan><tspan class="cls-24" x="86.73" y="0">e</tspan></text><text class="cls-5" transform="translate(831.84 1170.33)"><tspan class="cls-18">y</tspan><tspan x="10.23" y="0">ork</tspan></text><text class="cls-5" transform="translate(722.52 1112.46)">n<tspan class="cls-7" x="11.86" y="0">e</tspan><tspan class="cls-25" x="23.45" y="0">w</tspan><tspan class="cls-18" x="39.1" y="0">y</tspan><tspan x="49.33" y="0">ork</tspan></text><text class="cls-5" transform="translate(735.7 825.45)">arr<tspan class="cls-26" x="26.8" y="0">i</tspan><tspan class="cls-12" x="31.88" y="0">v</tspan><tspan x="41.45" y="0">e</tspan></text><text class="cls-5" transform="translate(600.11 1185.82)"><tspan class="cls-10">c</tspan><tspan class="cls-13" x="11.68" y="0">ame</tspan><tspan class="cls-11" x="51.86" y="0">r</tspan><tspan x="59.32" y="0">on</tspan></text><text class="cls-5" transform="translate(599.96 1253.12)">d<tspan class="cls-22" x="12.41" y="0">o</tspan><tspan class="cls-27" x="24.31" y="0">v</tspan><tspan x="33.88" y="0">e</tspan></text><text class="cls-5" transform="translate(550.25 1203.07)">lo<tspan class="cls-28" x="17.07" y="0">s</tspan><tspan x="27.85" y="0">a</tspan><tspan class="cls-29" x="39.34" y="0">n</tspan><tspan class="cls-30" x="51.11" y="0">g</tspan><tspan x="63.19" y="0">ele</tspan></text><text class="cls-5" transform="translate(808.82 1250.94)"><tspan class="cls-22">r</tspan><tspan x="7.46" y="0">o</tspan><tspan class="cls-31" x="19.56" y="0">c</tspan><tspan class="cls-12" x="31.24" y="0">k</tspan><tspan class="cls-24" x="42.33" y="0">abil</tspan><tspan class="cls-32" x="76.17" y="0">l</tspan><tspan class="cls-24" x="81.25" y="0">y</tspan></text><text class="cls-5" transform="translate(171.2 1761.31)">am</text><text class="cls-5" transform="translate(171.83 1911.08)">est</text><text class="cls-5" transform="translate(648.18 1885.34)"><tspan class="cls-14">w</tspan><tspan class="cls-13" x="14.76" y="0">ednesd</tspan><tspan class="cls-19" x="85.41" y="0">a</tspan><tspan x="96.61" y="0">y</tspan></text><text class="cls-5" transform="translate(327.31 1882.24)">l<tspan class="cls-26" x="4.97" y="0">i</tspan><tspan class="cls-12" x="10.05" y="0">v</tspan><tspan x="19.63" y="0">e</tspan></text><text class="cls-5" transform="translate(183.13 1711.7)">up<tspan class="cls-10" x="24.22" y="0">c</tspan><tspan x="35.91" y="0">omi</tspan><tspan class="cls-29" x="70.03" y="0">n</tspan><tspan class="cls-13" x="81.8" y="0">g</tspan></text><text class="cls-5" transform="translate(89.96 1866.29)"><tspan class="cls-12">w</tspan><tspan class="cls-33" x="14.7" y="0">a</tspan><tspan class="cls-29" x="26.16" y="0">t</tspan><tspan class="cls-10" x="32.06" y="0">c</tspan><tspan x="43.74" y="0">h</tspan></text><text class="cls-5" transform="translate(52.01 1821.36)"><tspan class="cls-29">t</tspan><tspan class="cls-7" x="5.9" y="0">o</tspan><tspan class="cls-29" x="17.95" y="0">t</tspan><tspan x="23.85" y="0">e</tspan></text><text class="cls-5" transform="translate(742.16 2018.73)">m<tspan class="cls-34" x="17.05" y="0">k</tspan><tspan class="cls-24" x="27.72" y="0">c</tspan></text><text class="cls-5" transform="translate(569.85 1975.38)">mono<tspan class="cls-35" x="53.11" y="0">g</tspan><tspan class="cls-12" x="65.24" y="0">r</tspan><tspan x="72.76" y="0">amme</tspan></text><text class="cls-5" transform="translate(124.82 1817.75)">en<tspan class="cls-17" x="23.5" y="0">t</tspan><tspan class="cls-36" x="29.68" y="0">i</tspan><tspan class="cls-37" x="34.65" y="0">r</tspan><tspan x="42.13" y="0">e</tspan></text><text class="cls-5" transform="translate(799.95 1922.65)">s<tspan class="cls-29" x="10.69" y="0">t</tspan><tspan class="cls-24" x="16.59" y="0">o</tspan><tspan class="cls-38" x="28.69" y="0">r</tspan><tspan class="cls-24" x="36.17" y="0">e</tspan></text><text class="cls-5" transform="translate(79.84 1928.74)">sou<tspan class="cls-17" x="34.65" y="0">t</tspan><tspan class="cls-13" x="40.84" y="0">h</tspan></text><text class="cls-5" transform="translate(251.07 1736.06)">p<tspan class="cls-37" x="12.37" y="0">r</tspan><tspan class="cls-39" x="19.85" y="0">e</tspan><tspan class="cls-40" x="31.38" y="0">v</tspan><tspan x="41.21" y="0">i</tspan><tspan class="cls-7" x="46.18" y="0">e</tspan><tspan x="57.78" y="0">w</tspan></text><text class="cls-5" transform="translate(319.17 1779.88)">noh</text><text class="cls-5" transform="translate(215.79 1969.03)">bo<tspan class="cls-7" x="24.51" y="0">o</tspan><tspan x="36.57" y="0">t</tspan></text><text class="cls-5" transform="translate(75.33 1748.66)">sn<tspan class="cls-29" x="22.55" y="0">e</tspan><tspan x="34.1" y="0">ak</tspan></text><text class="cls-5" transform="translate(127.8 1699.78)">arl<tspan class="cls-7" x="24.11" y="0">e</tspan><tspan class="cls-41" x="35.71" y="0">t</tspan><tspan class="cls-29" x="42.29" y="0">t</tspan><tspan x="48.18" y="0">e</tspan></text><text class="cls-5" transform="translate(269.14 1940.24)">peek</text><text class="cls-5" transform="translate(141.8 1975.99)">mo<tspan class="cls-37" x="29.15" y="0">r</tspan><tspan x="36.63" y="0">e</tspan></text><text class="cls-5" transform="translate(801.4 379.86)">j<tspan class="cls-42" x="5.24" y="0">o</tspan><tspan x="16.99" y="0">y</tspan></text><text class="cls-5" transform="translate(600.19 262.27)"><tspan class="cls-43">r</tspan><tspan class="cls-29" x="8.34" y="0">v</tspan><tspan class="cls-13" x="17.95" y="0">sm</tspan><tspan class="cls-29" x="45.7" y="0">t</tspan><tspan class="cls-7" x="51.6" y="0">o</tspan><tspan x="63.65" y="0">wn</tspan></text><text class="cls-5" transform="translate(737.41 384.24)">s<tspan class="cls-29" x="10.69" y="0">t</tspan><tspan class="cls-24" x="16.59" y="0">op</tspan></text><text class="cls-44" transform="translate(832.05 238.02)">조이</text><text class="cls-5" transform="translate(715.24 170.47)"><tspan class="cls-37">r</tspan><tspan x="7.48" y="0">e</tspan><tspan class="cls-26" x="19.12" y="0">d</tspan><tspan class="cls-12" x="31.64" y="0">v</tspan><tspan x="41.21" y="0">e</tspan><tspan class="cls-26" x="52.85" y="0">l</tspan><tspan class="cls-12" x="57.93" y="0">v</tspan><tspan class="cls-45" x="67.5" y="0">e</tspan><tspan x="79.1" y="0">t</tspan></text><text class="cls-44" transform="translate(647.82 198.37)">레드벨벳</text><text class="cls-46" transform="translate(800.37 175.7)">g<tspan class="cls-45" x="12.08" y="0">e</tspan><tspan class="cls-47" x="23.67" y="0">t</tspan><tspan class="cls-8" x="30.25" y="0">t</tspan><tspan class="cls-24" x="36.94" y="0">y</tspan></text><text class="cls-5" transform="translate(850.45 159.58)">im<tspan class="cls-48" x="22.02" y="0">a</tspan><tspan class="cls-23" x="33.31" y="0">g</tspan><tspan x="45.39" y="0">e</tspan></text><text class="cls-5" transform="translate(736.42 109.59)">bla<tspan class="cls-49" x="28.87" y="0">k</tspan><tspan x="39.63" y="0">el</tspan><tspan class="cls-26" x="56.24" y="0">i</tspan><tspan class="cls-12" x="61.32" y="0">v</tspan><tspan class="cls-24" x="70.89" y="0">e</tspan><tspan class="cls-32" x="82.53" y="0">l</tspan><tspan class="cls-24" x="87.61" y="0">y</tspan></text><text class="cls-5" transform="translate(569.59 220.46)">bla<tspan class="cls-50" x="28.87" y="0">k</tspan><tspan x="39.63" y="0">e</tspan></text><text class="cls-5" transform="translate(826.74 328.22)">l<tspan class="cls-26" x="4.97" y="0">i</tspan><tspan class="cls-12" x="10.05" y="0">v</tspan><tspan class="cls-24" x="19.63" y="0">e</tspan><tspan class="cls-32" x="31.26" y="0">l</tspan><tspan class="cls-24" x="36.35" y="0">y</tspan></text><text class="cls-5" transform="translate(651.55 124.37)">i<tspan class="cls-51" x="4.97" y="0">m</tspan><tspan class="cls-19" x="21.76" y="0">y</tspan><tspan x="31.99" y="0">our_j</tspan><tspan class="cls-52" x="79.85" y="0">o</tspan><tspan x="91.6" y="0">y</tspan></text><text class="cls-5" transform="translate(880.96 239.65)">im<tspan class="cls-48" x="22.02" y="0">a</tspan><tspan class="cls-23" x="33.31" y="0">g</tspan><tspan x="45.39" y="0">es</tspan></text><text class="cls-53" transform="translate(862.98 314.27)">จอยใน</text><text class="cls-5" transform="translate(645.81 338.82)">ig</text><text class="cls-5" transform="translate(586.88 148.77)"><tspan class="cls-30">a</tspan><tspan class="cls-13" x="11.51" y="0">shbe</tspan><tspan class="cls-37" x="58.11" y="0">n</tspan><tspan class="cls-54" x="69.79" y="0">z</tspan><tspan x="79.65" y="0">o</tspan></text><text class="cls-5" transform="translate(565.21 317.49)">i<tspan class="cls-51" x="4.97" y="0">m</tspan><tspan class="cls-19" x="21.76" y="0">y</tspan><tspan x="31.99" y="0">our</tspan></text><text class="cls-5" transform="translate(1287.95 1969.09)">b<tspan class="cls-48" x="12.41" y="0">a</tspan><tspan x="23.7" y="0">g</tspan></text><text class="cls-5" transform="translate(1269.5 2184.7)"><tspan class="cls-55">f</tspan><tspan x="5.92" y="0">i</tspan><tspan class="cls-10" x="10.89" y="0">r</tspan><tspan x="18.59" y="0">st</tspan></text><text class="cls-5" transform="translate(1223.5 2132.03)"><tspan class="cls-56">w</tspan><tspan x="14.7" y="0">alk</tspan></text><text class="cls-5" transform="translate(1316.11 2031.74)">shop</text><text class="cls-5" transform="translate(1228.59 1915.83)">see</text><text class="cls-5" transform="translate(1389.58 2005.78)">list</text><text class="cls-57" transform="translate(1373.54 2082.27)">c<tspan class="cls-24" x="11.68" y="0">all</tspan></text><text class="cls-5" transform="translate(1290.83 2101.53)">lo<tspan class="cls-10" x="17.07" y="0">c</tspan><tspan x="28.76" y="0">al</tspan></text><text class="cls-58" transform="translate(1107.57 2071.4)">t<tspan class="cls-24" x="6.18" y="0">hen</tspan></text><text class="cls-5" transform="translate(1284.6 1891.78)">l<tspan class="cls-48" x="4.97" y="0">o</tspan><tspan class="cls-12" x="16.88" y="0">v</tspan><tspan class="cls-24" x="26.45" y="0">e</tspan></text><text class="cls-57" transform="translate(1341.79 1936.04)">c<tspan class="cls-24" x="11.68" y="0">hain</tspan></text><text class="cls-5" transform="translate(1122.18 1977.99)"><tspan class="cls-21">t</tspan><tspan x="6.16" y="0">a</tspan><tspan class="cls-49" x="17.65" y="0">k</tspan><tspan x="28.4" y="0">e</tspan></text><text class="cls-5" transform="translate(1331.23 2153.9)">o<tspan class="cls-43" x="12.1" y="0">r</tspan><tspan class="cls-40" x="20.44" y="0">v</tspan><tspan x="30.27" y="0">ille</tspan></text><text class="cls-5" transform="translate(1163.73 1925.64)">pe<tspan class="cls-31" x="24" y="0">c</tspan><tspan x="35.69" y="0">k</tspan></text><text class="cls-5" transform="translate(1177.93 2188.29)">s<tspan class="cls-21" x="10.69" y="0">t</tspan><tspan class="cls-48" x="16.85" y="0">a</tspan><tspan class="cls-23" x="28.14" y="0">g</tspan><tspan x="40.22" y="0">e</tspan></text><text class="cls-5" transform="translate(1093.44 2133.33)">alla<tspan class="cls-10" x="32.92" y="0">cc</tspan><tspan x="56.28" y="0">e</tspan><tspan class="cls-21" x="67.92" y="0">s</tspan><tspan class="cls-26" x="78.79" y="0">s</tspan><tspan class="cls-59" x="89.59" y="0">k</tspan><tspan x="100.26" y="0">o</tspan><tspan class="cls-10" x="112.37" y="0">r</tspan><tspan x="120.07" y="0">s</tspan></text><text class="cls-53" transform="translate(667.64 377.86)">ของ</text></svg>