<svg id="Layer_1" data-name="Layer 1" xmlns="http://www.w3.org/2000/svg" viewBox="0 0 1544 1239"><defs><style>.cls-1,.cls-10,.cls-11,.cls-2,.cls-3,.cls-4,.cls-5,.cls-6,.cls-7,.cls-8,.cls-9{fill:none;}.cls-1{stroke:#26231f;}.cls-2{stroke:#fc620d;}.cls-3{stroke:#af80f9;}.cls-4{stroke:#12c4b2;}.cls-5{stroke:#695958;}.cls-6{stroke:#8724fb;}.cls-7{stroke:#11c574;}.cls-8{stroke:#fd8326;}.cls-9{stroke:#fc2130;}.cls-10{stroke:#606060;}.cls-11{stroke:#8929a9;}.cls-12,.cls-16,.cls-24,.cls-31,.cls-50,.cls-63,.cls-79,.cls-81{isolation:isolate;font-size:22.18px;}.cls-12,.cls-16,.cls-24,.cls-31,.cls-63{font-family:NimbusSan-Reg, Nimbus Sans;}.cls-12,.cls-42{letter-spacing:0em;}.cls-13{letter-spacing:0em;}.cls-14{letter-spacing:0em;}.cls-15{letter-spacing:0em;}.cls-17{letter-spacing:-0.01em;}.cls-18{letter-spacing:-0.01em;}.cls-19{letter-spacing:-0.01em;}.cls-20{letter-spacing:0.01em;}.cls-21{letter-spacing:0.01em;}.cls-22{letter-spacing:0em;}.cls-23,.cls-63{letter-spacing:0em;}.cls-24,.cls-40{letter-spacing:0em;}.cls-25{letter-spacing:0em;}.cls-26{letter-spacing:0.01em;}.cls-27{letter-spacing:0.03em;}.cls-28{letter-spacing:0em;}.cls-29{letter-spacing:0.04em;}.cls-30{letter-spacing:-0.01em;}.cls-31,.cls-44{letter-spacing:0.01em;}.cls-32{letter-spacing:0.03em;}.cls-33{letter-spacing:0em;}.cls-34{letter-spacing:0em;}.cls-35{letter-spacing:0em;}.cls-36{letter-spacing:-0.01em;}.cls-37{letter-spacing:-0.01em;}.cls-38{letter-spacing:0em;}.cls-39{letter-spacing:0.03em;}.cls-41{letter-spacing:0.01em;}.cls-43{letter-spacing:0em;}.cls-45{letter-spacing:0.01em;}.cls-46{letter-spacing:0.03em;}.cls-47{letter-spacing:0em;}.cls-48{letter-spacing:0em;}.cls-49{letter-spacing:0em;}.cls-50{font-family:ArialMT, Arial;}.cls-51{letter-spacing:0.03em;}.cls-52{letter-spacing:0em;}.cls-53{letter-spacing:0em;}.cls-54{letter-spacing:0em;}.cls-55{letter-spacing:-0.01em;}.cls-56{letter-spacing:0em;}.cls-57{letter-spacing:-0.01em;}.cls-58{letter-spacing:0em;}.cls-59{letter-spacing:0em;}.cls-60{letter-spacing:-0.01em;}.cls-61{letter-spacing:-0.02em;}.cls-62{letter-spacing:0em;}.cls-64{letter-spacing:-0.01em;}.cls-65{letter-spacing:-0.01em;}.cls-66{letter-spacing:-0.01em;}.cls-67{letter-spacing:-0.01em;}.cls-68{letter-spacing:0em;}.cls-69{letter-spacing:-0.01em;}.cls-70{letter-spacing:0.03em;}.cls-71{letter-spacing:-0.01em;}.cls-72{letter-spacing:0em;}.cls-73{letter-spacing:0.03em;}.cls-74{letter-spacing:0.01em;}.cls-75{letter-spacing:0em;}.cls-76{letter-spacing:-0.01em;}.cls-77{letter-spacing:0.03em;}.cls-78{letter-spacing:0em;}.cls-79{font-family:AdobeMyungjoStd-Medium-KSCpc-EUC-H, Adobe Myungjo Std;}.cls-80{letter-spacing:0em;}.cls-81{font-family:ArialUnicodeMS, Arial Unicode MS;}.cls-82{letter-spacing:0.03em;}.cls-83{letter-spacing:-0.01em;}</style></defs><path class="cls-1" d="M140.82,295.41c32.79-3.89,87.8,39.45,91.69,72.23"/><path class="cls-1" d="M140.82,295.41c12.11,1.75,27.64,22.54,25.88,34.65"/><path class="cls-1" d="M140.82,295.41c-14.37-8.39-23.34-42.53-14.95-56.9"/><path class="cls-1" d="M140.82,295.41c.13,11.62-17.11,29.26-28.74,29.4"/><path class="cls-1" d="M140.82,295.41c4.13-11.81,28-23.31,39.84-19.18"/><path class="cls-1" d="M140.82,295.41c-11.61-17-3.5-60,13.52-71.57"/><path class="cls-1" d="M140.82,295.41c-18,6.74-55.25-10.22-62-28.27"/><path class="cls-1" d="M140.82,295.41c11.26-7.27,39.06-1.27,46.32,10"/><path class="cls-1" d="M140.82,295.41c-1.68-18.41,23.39-48.54,41.8-50.23"/><path class="cls-1" d="M140.82,295.41c-4.94,18.87-40.67,39.77-59.55,34.83"/><path class="cls-1" d="M140.82,295.41c-14.38,15.69-59.5,17.65-75.19,3.27"/><path class="cls-1" d="M140.82,295.41c-21.24-2.45-49.45-38-47-59.22"/><path class="cls-1" d="M140.82,295.41c5.7,18.73-13.86,55.37-32.59,61.07"/><path class="cls-1" d="M140.82,295.41c-8.41,8.74-34.15,9.24-42.9.83"/><path class="cls-1" d="M140.82,295.41c70.28-34.78,227.86,18.48,262.64,88.76"/><path class="cls-1" d="M140.82,295.41c9.56,10.06,8.8,39.48-1.26,49"/><path class="cls-1" d="M140.82,295.41c45.79-5.6,122.86,54.68,128.46,100.47"/><path class="cls-2" d="M570.65,755.26c-19.26-18.74-20-75.73-1.3-95"/><path class="cls-2" d="M570.65,755.26c-11.5-3.41-23.63-25.78-20.22-37.28"/><path class="cls-2" d="M570.65,755.26c-44.3-34.09-59.62-151.67-25.53-196"/><path class="cls-2" d="M570.65,755.26c-15.21,4.72-45.1-11-49.82-26.22"/><path class="cls-2" d="M570.65,755.26c-7.4,8.54-31.31,10.25-39.84,2.85"/><path class="cls-2" d="M570.65,755.26c-4.27,16.42-35.29,34.66-51.71,30.4"/><path class="cls-2" d="M570.65,755.26c10.19,6.53,15.69,31.61,9.16,41.8"/><path class="cls-2" d="M570.65,755.26c10.53-5,33.9,3.16,39,13.69"/><path class="cls-2" d="M570.65,755.26c17.49,2.91,39.37,33.53,36.46,51"/><path class="cls-2" d="M570.65,755.26C550.36,709.89,588,611.4,633.37,591.11"/><path class="cls-2" d="M570.65,755.26c-14.19,14.93-57.86,16.06-72.79,1.88"/><path class="cls-2" d="M570.65,755.26c4.79,21.56-20.37,61.1-41.94,65.89"/><path class="cls-2" d="M570.65,755.26c12.76,15.16,9.17,57.06-6,69.83"/><path class="cls-2" d="M570.65,755.26c-7.28,24.51-54.95,50.36-79.46,43.09"/><path class="cls-3" d="M764.11,1097.13c-22.09-25.72-16.64-97.45,9.09-119.54"/><path class="cls-3" d="M764.11,1097.13c8.48-11.67,38.7-16.46,50.37-8"/><path class="cls-3" d="M764.11,1097.13c-.72-12.61,17.11-32.6,29.72-33.33"/><path class="cls-3" d="M764.11,1097.13c-11.43,9.35-42.6,6.22-52-5.22"/><path class="cls-3" d="M764.11,1097.13c-13.48,1-35.27-17.6-36.32-31.08"/><path class="cls-4" d="M402.53,483.62c4.49-12,29.15-23.18,41.11-18.7"/><path class="cls-4" d="M402.53,483.62c-11.5,6-37.71-2.32-43.68-13.82"/><path class="cls-4" d="M402.53,483.62c3.43,11.66-8.92,34.3-20.58,37.73"/><path class="cls-4" d="M402.53,483.62c-8.84-81.13,99.59-216.08,180.71-224.93"/><path class="cls-4" d="M402.53,483.62c-57.2,10.81-159.21-58.78-170-116"/><path class="cls-4" d="M402.53,483.62c-19.7-20.08-19.15-79.75.93-99.45"/><path class="cls-4" d="M402.53,483.62c68.7,2,168.79,108,166.82,176.66"/><path class="cls-4" d="M402.53,483.62C397.7,495.82,372.15,506.87,360,502"/><path class="cls-4" d="M402.53,483.62c11.45-5.48,36.83,3.46,42.32,14.9"/><path class="cls-4" d="M402.53,483.62C387.07,482,366.34,456.31,368,440.84"/><path class="cls-4" d="M402.53,483.62c1.39,20.18-26.8,52.54-47,53.93"/><path class="cls-4" d="M402.53,483.62c12.19,3.24,25.61,26.4,22.36,38.58"/><path class="cls-4" d="M402.53,483.62c43.66-13.38,129.21,32,142.59,75.67"/><path class="cls-4" d="M402.53,483.62c-3.86-14.65,12.31-42.41,27-46.27"/><path class="cls-4" d="M402.53,483.62c12.17,12.34,11.89,49.1-.45,61.26"/><path class="cls-4" d="M402.53,483.62c-12.36,16.14-55.13,21.82-71.28,9.45"/><path class="cls-4" d="M402.53,483.62c-44.2,9.1-124.15-43.54-133.25-87.74"/><path class="cls-4" d="M402.53,483.62c-9.47-7.87-11.88-33.89-4-43.36"/><path class="cls-5" d="M737.24,135.69c-5.29-12.56,5.64-39.34,18.2-44.63"/><path class="cls-5" d="M737.24,135.69c119.14-32.41,346.47,97.69,378.88,216.83"/><path class="cls-5" d="M737.24,135.69C795.41,150.44,860.55,259.82,845.8,318"/><path class="cls-5" d="M737.24,135.69c4.9,11.32-4.72,35.66-16,40.56"/><path class="cls-5" d="M737.24,135.69c-8.77,7.21-32.73,4.88-39.94-3.89"/><path class="cls-5" d="M737.24,135.69c-17,1.21-44.26-22.46-45.47-39.44"/><path class="cls-5" d="M737.24,135.69c12,5.52,21.69,31.78,16.18,43.77"/><path class="cls-5" d="M737.24,135.69c12.9-3.47,37.45,10.68,40.92,23.58"/><path class="cls-5" d="M737.24,135.69c-11-20.15,2.78-66.86,22.93-77.84"/><path class="cls-5" d="M737.24,135.69c-6.2,55.4-98.6,129.2-154,123"/><path class="cls-5" d="M737.24,135.69c-17,10.19-57.78,0-68-17"/><path class="cls-5" d="M737.24,135.69c11.41-12.31,47-13.66,59.31-2.25"/><path class="cls-5" d="M737.24,135.69c-4.37,14.58-32.79,29.91-47.37,25.54"/><path class="cls-5" d="M737.24,135.69c3.32-20,38.28-45,58.26-41.64"/><path class="cls-5" d="M737.24,135.69c3.08-11.13,24.39-23.21,35.52-20.14"/><path class="cls-5" d="M737.24,135.69c-22.08-6.67-45.19-49.8-38.52-71.88"/><path class="cls-6" d="M1145.12,138.08C1121.24,233.92,941.64,341.88,845.8,318"/><path class="cls-6" d="M1145.12,138.08c10.26-5.75,34.28,1,40,11.28"/><path class="cls-6" d="M1145.12,138.08C1209,144.91,1294.68,251,1287.85,315"/><path class="cls-6" d="M1145.12,138.08c-11.89-.52-28.95-19.14-28.43-31"/><path class="cls-6" d="M1145.12,138.08c-7.22,10-33.07,14.21-43.09,7"/><path class="cls-6" d="M1145.12,138.08c-4.72-20.5,18.94-58.32,39.43-63"/><path class="cls-6" d="M1145.12,138.08c18.72-4.33,53.29,17.26,57.62,36"/><path class="cls-6" d="M1145.12,138.08c-11.32-9.24-14.45-40.08-5.21-51.4"/><path class="cls-6" d="M1145.12,138.08c7.81,10.59,3.62,38.21-7,46"/><path class="cls-6" d="M1145.12,138.08C1144.4,250.74,974.32,418.67,861.65,418"/><path class="cls-6" d="M1145.12,138.08c9.61,61.1-67.63,167.17-128.73,176.78"/><path class="cls-6" d="M1145.12,138.08c13.06,3.6,27.25,28.61,23.65,41.67"/><path class="cls-6" d="M1145.12,138.08c-3.75-11.72,8.19-34.91,19.9-38.66"/><path class="cls-6" d="M1145.12,138.08c-19.87-4.42-43-40.85-38.64-60.72"/><path class="cls-6" d="M1145.12,138.08c0,14.52-21.74,36.33-36.26,36.34"/><path class="cls-6" d="M1145.12,138.08c5.23-21.3,45-45.4,66.33-40.17"/><path class="cls-6" d="M1145.12,138.08c-15.87,7.43-50.83-5.22-58.27-21.09"/><path class="cls-6" d="M1145.12,138.08c4.4-12.19,29.3-23.87,41.49-19.47"/><path class="cls-6" d="M1145.12,138.08c-14.75-17.42-10.75-65.68,6.67-80.43"/><path class="cls-1" d="M140.82,295.41c178.86-67.67,548.65,99.13,616.32,278"/><path class="cls-2" d="M570.65,755.26C587,685.1,716.78,604.39,786.94,620.74"/><path class="cls-2" d="M570.65,755.26c21.53-19.08,82.45-15.39,101.53,6.14"/><path class="cls-2" d="M570.65,755.26c11.91-30.54,75.59-58.47,106.13-46.55"/><path class="cls-2" d="M570.65,755.26c54.41-38.07,193.13-13.55,231.19,40.86"/><path class="cls-2" d="M570.65,755.26c-.31-44.9,66.59-112.7,111.49-113"/><path class="cls-3" d="M764.11,1097.13c-90.71-99.84-77-385.68,22.83-476.39"/><path class="cls-3" d="M764.11,1097.13c-48.26-81.34,1.36-275.75,82.7-324"/><path class="cls-3" d="M764.62,1095.2c11.33-1.91,31.18,12.21,33.09,23.53"/><path class="cls-3" d="M764.11,1097.13C669,1036.91,616.56,803.86,676.78,708.71"/><path class="cls-3" d="M761.38,1098c.08,20.89-31.14,52.34-52,52.42"/><path class="cls-3" d="M764.62,1095.2c10,7,14.52,32.55,7.51,42.57"/><path class="cls-3" d="M761.38,1098c5.55,13.66-6.64,42.47-20.3,48"/><path class="cls-3" d="M764.62,1095.2c-9.08,18.1-49.86,31.64-68,22.55"/><path class="cls-3" d="M761.38,1098c12.44,19.22,2.27,66.71-17,79.15"/><path class="cls-3" d="M761.38,1098c-2.64,11.24-23.47,24.14-34.71,21.5"/><path class="cls-3" d="M761.38,1098c17.83-8.39,57.16,5.76,65.55,23.59"/><path class="cls-3" d="M761.38,1098c18.46,11.15,29.41,55.57,18.26,74"/><path class="cls-4" d="M402.53,483.62c72.58-50.3,256.89-16.9,307.2,55.68"/><path class="cls-4" d="M402.53,483.62C502.4,473.79,667,608.84,676.78,708.71"/><path class="cls-5" d="M737.24,135.69C812.46,221.92,796,464.08,709.73,539.3"/><path class="cls-5" d="M737.24,135.69c107,87.07,136.77,378.1,49.7,485.05"/><path class="cls-7" d="M848.74,542c3.39,28.11-33.69,75.35-61.8,78.73"/><path class="cls-7" d="M848.74,542c-45.39-44.21-47.16-178.62-2.94-224"/><path class="cls-7" d="M848.74,542c9.77-5.83,33.18.08,39,9.85"/><path class="cls-7" d="M848.74,542c4.52-12.83,30.55-25.29,43.38-20.77"/><path class="cls-7" d="M848.74,542c-11.9-79,88.69-215.25,167.65-227.15"/><path class="cls-7" d="M848.74,542c-12,24.6-67,43.44-91.6,31.4"/><path class="cls-7" d="M848.74,542c6.48,9.38,2.13,33.18-7.25,39.66"/><path class="cls-7" d="M848.74,542c-3.48-10.43,6.94-31.29,17.37-34.78"/><path class="cls-7" d="M848.74,542c12.38-15.59,54.32-20.4,69.91-8"/><path class="cls-7" d="M848.74,542c-12.38,14.35-52.49,17.3-66.84,4.92"/><path class="cls-7" d="M848.74,542c-.5-19.84,28.51-50.34,48.35-50.84"/><path class="cls-7" d="M848.74,542c45.84,46.61,44.68,185.27-1.93,231.11"/><path class="cls-7" d="M848.74,542c-11.68-6.25-19.83-33.16-13.57-44.84"/><path class="cls-7" d="M848.74,542c-13.27,53.37-113.23,113.52-166.6,100.24"/><path class="cls-7" d="M848.74,542c-3.55,10.32-24.34,20.47-34.66,16.93"/><path class="cls-7" d="M848.74,542c-1,67.73-104.23,167.75-172,166.7"/><path class="cls-7" d="M848.74,542c18-6.55,54.77,10.58,61.32,28.56"/><path class="cls-7" d="M848.74,542c-10.1-15.25-2.37-53.29,12.89-63.39"/><path class="cls-7" d="M848.74,542c-11.67,2.71-33.25-10.73-36-22.4"/><path class="cls-8" d="M1395.35,510.8c20.18-6.22,59.76,14.71,66,34.89"/><path class="cls-8" d="M1395.35,510.8c-5.8-10.47,1.21-34.87,11.67-40.67"/><path class="cls-8" d="M1395.35,510.8c10.59,5.41,18.35,29.4,12.94,40"/><path class="cls-8" d="M1395.35,510.8c19.09,3.47,42.52,37.3,39.05,56.39"/><path class="cls-8" d="M1395.35,510.8c-10.77-2.74-22.81-23-20.07-33.79"/><path class="cls-8" d="M1395.35,510.8c-32.86,61-173.68,103.23-234.7,70.36"/><path class="cls-8" d="M1395.35,510.8c-4.8,13.51-32.26,26.58-45.77,21.78"/><path class="cls-8" d="M1395.35,510.8c3.68,12.25-9.18,36.13-21.43,39.8"/><path class="cls-8" d="M1395.35,510.8c-2.51-18.55,21.54-50.15,40.09-52.67"/><path class="cls-8" d="M1395.35,510.8c4.9,57.17-73.51,150.26-130.68,155.15"/><path class="cls-8" d="M1395.35,510.8c-11.3,7.14-39,.89-46.11-10.42"/><path class="cls-8" d="M1395.35,510.8c11.13-4.61,34.74,5.16,39.35,16.28"/><path class="cls-8" d="M1395.35,510.8c13,13.85,11.67,54.1-2.18,67.08"/><path class="cls-8" d="M1395.35,510.8c14-13.88,55.8-13.72,69.69.27"/><path class="cls-8" d="M1395.35,510.8c4.23-11.21,27.37-21.68,38.58-17.46"/><path class="cls-8" d="M1395.35,510.8c6.8-20.27,47.41-40.48,67.68-33.67"/><path class="cls-8" d="M1395.35,510.8c-13.95-12.95-15.46-53.3-2.51-67.26"/><path class="cls-8" d="M1395.35,510.8c-18.66-.76-45.51-29.9-44.75-48.56"/><path class="cls-8" d="M1395.35,510.8c-60.67-17.67-125.16-135.17-107.5-195.84"/><path class="cls-8" d="M1395.35,510.8c-87.5,24.19-255-70.78-279.23-158.28"/><path class="cls-9" d="M1085.3,812c-129.64,20.59-355-143-375.57-272.65"/><path class="cls-9" d="M1085.3,812C972,829.88,775.06,686.75,757.14,573.41"/><path class="cls-9" d="M1085.3,812c-97.91,21.43-276.93-93.29-298.36-191.21"/><path class="cls-9" d="M1085.3,812c-4.74-11.2,5-35.11,16.15-39.85"/><path class="cls-9" d="M1085.3,812c6.68-65.07,114.3-152.67,179.37-146"/><path class="cls-9" d="M1085.3,812c-59.86,53.53-229.93,44-283.46-15.83"/><path class="cls-9" d="M1085.3,812c-7.88,10.14-34.91,13.52-45,5.63"/><path class="cls-9" d="M1085.3,812c5-11.16,29.14-20.48,40.31-15.53"/><path class="cls-9" d="M1085.3,812c11.22-4.24,34.41,6.21,38.65,17.43"/><path class="cls-9" d="M1085.3,812c-12.71,2.2-35.08-13.58-37.28-26.29"/><path class="cls-9" d="M1085.3,812c17.82,11.36,27.52,55.12,16.17,72.94"/><path class="cls-9" d="M1085.3,812c11.65-16.09,53.28-22.76,69.38-11.11"/><path class="cls-9" d="M1085.3,812c17.09,1.63,40.29,29.7,38.67,46.79"/><path class="cls-9" d="M1085.3,812c.11,13.62-20.15,34.2-33.76,34.31"/><path class="cls-9" d="M1085.3,812c-.19-18.78,27.7-47.24,46.49-47.43"/><path class="cls-9" d="M1085.3,812c18.8-9,60.44,5.78,69.41,24.58"/><path class="cls-9" d="M1085.3,812c-12.58-6.86-21.15-36-14.28-48.62"/><path class="cls-9" d="M1085.3,812c8.67,15.47-1.52,51.66-17,60.33"/><path class="cls-9" d="M1085.3,812c25.33-.65,64.31,36.36,65,61.69"/><path class="cls-10" d="M790,710.3c-23,22.33-90.91,21.37-113.24-1.59"/><path class="cls-10" d="M790,710.3c-44.14-72.8-1.17-248.21,71.63-292.35"/><path class="cls-10" d="M790,710.3c-34.3-31-39.17-129.08-8.12-163.37"/><path class="cls-10" d="M790,710.3c-54.14,34.13-186.54,4.12-220.67-50"/><path class="cls-10" d="M790,710.3c23.92,1.2,58,38.9,56.79,62.82"/><path class="cls-10" d="M790,710.3c-13.35,33.79-84,64.45-117.84,51.1"/><path class="cls-10" d="M790,710.3c-33.95-20.8-53.68-102.94-32.88-136.89"/><path class="cls-10" d="M790,710.3c10-12.38,43.67-15.89,56.05-5.85"/><path class="cls-10" d="M790,710.3c1.37-13.43,23.55-31.51,37-30.15"/><path class="cls-10" d="M790,710.3c-7.4-8.64-5.54-32.7,3.1-40.1"/><path class="cls-10" d="M790,710.3c50.1,56.82,40,217.2-16.82,267.29"/><path class="cls-10" d="M790,710.3c48.3-100,270.68-177.44,370.63-129.14"/><path class="cls-10" d="M790,710.3c12.11-4,36.24,8.19,40.23,20.29"/><path class="cls-10" d="M790,710.3c10.33,6.15,16.59,30.87,10.44,41.2"/><path class="cls-10" d="M790,710.3c42.53,46.47,36.62,180-9.85,222.52"/><path class="cls-10" d="M790,710.3c19.53,14.8,26.62,66.29,11.82,85.82"/><path class="cls-10" d="M790,710.3c-50.26-18.14-98.44-120.74-80.29-171"/><path class="cls-10" d="M790,710.3c-18.53-17.3-20.37-71-3.08-89.56"/><path class="cls-10" d="M790,710.3c-10.92,4.44-34-5.29-38.4-16.21"/><path class="cls-11" d="M714.84,463.58c-2.93-55.31,75.65-142.66,131-145.58"/><path class="cls-11" d="M714.84,463.58c-78.16,46.39-265-1.25-311.38-79.41"/><path class="cls-11" d="M714.84,463.58C700,516.67,598.2,574.09,545.12,559.29"/><path class="cls-11" d="M714.84,463.58c30.42,13.51,55.8,79.4,42.3,109.83"/><path class="cls-11" d="M714.84,463.58c14.12,16.17,11,61.6-5.11,75.72"/><path class="cls-11" d="M714.84,463.58c1.36-18.87,31.72-45.14,50.6-43.77"/><path class="cls-11" d="M714.84,463.58c6.3-10.51,31.52-16.81,42-10.51"/><path class="cls-11" d="M714.84,463.58c-16.73-1.78-39.14-29.56-37.36-46.29"/><path class="cls-11" d="M714.84,463.58c10.26,4.43,19,26.46,14.58,36.71"/><path class="cls-11" d="M714.84,463.58c45.85,17,89.12,111.31,72.1,157.16"/><path class="cls-11" d="M714.84,463.58c20.23-38.49,108.32-65.87,146.81-45.63"/><path class="cls-11" d="M714.84,463.58c-9.42-6.77-13.38-31.05-6.61-40.46"/><path class="cls-11" d="M714.84,463.58c30.08,3.26,70.32,53.26,67.06,83.35"/><path class="cls-11" d="M714.84,463.58c-1,12-20.44,28.53-32.43,27.55"/><path class="cls-11" d="M714.84,463.58c9.21,41.8-39.67,118.32-81.47,127.53"/><path class="cls-11" d="M714.84,463.58c-11.78,4.68-36.47-6-41.15-17.76"/><path class="cls-11" d="M714.84,463.58c-3.58-12.34,9.57-36.21,21.9-39.79"/><path class="cls-11" d="M714.84,463.58c-9.69,12.72-43.3,17.27-56,7.59"/><path class="cls-11" d="M714.84,463.58c12.17-4.48,37.14,7.06,41.62,19.23"/><path class="cls-11" d="M714.84,463.58c-14-13.94-14.13-55.87-.19-69.89"/><text class="cls-12" transform="translate(165.99 374.1)">f<tspan class="cls-13" x="5.81" y="0">a</tspan><tspan class="cls-14" x="17.41" y="0">shion</tspan><tspan x="69.3" y="0">w</tspan><tspan class="cls-15" x="84.18" y="0">eek</tspan></text><text class="cls-16" transform="translate(147.57 335.31)">non</text><text class="cls-16" transform="translate(112.08 241.05)">donna</text><text class="cls-16" transform="translate(144.86 221.1)"><tspan class="cls-17">v</tspan><tspan x="9.65" y="0">e</tspan><tspan class="cls-18" x="21.38" y="0">r</tspan><tspan x="28.89" y="0">o</tspan></text><text class="cls-16" transform="translate(45.44 335.31)"><tspan class="cls-19">f</tspan><tspan x="5.7" y="0">o</tspan><tspan class="cls-20" x="17.9" y="0">r</tspan><tspan class="cls-21" x="25.79" y="0">z</tspan><tspan class="cls-15" x="36.1" y="0">a</tspan></text><text class="cls-16" transform="translate(190.54 282.26)"><tspan class="cls-22">f</tspan><tspan x="5.77" y="0">emminilità</tspan></text><text class="cls-16" transform="translate(52.11 264)">mai</text><text class="cls-16" transform="translate(139.38 311.43)">s<tspan class="cls-20" x="10.78" y="0">t</tspan><tspan class="cls-15" x="16.99" y="0">an</tspan><tspan class="cls-23" x="40.51" y="0">c</tspan><tspan class="cls-15" x="52.29" y="0">a</tspan><tspan class="cls-19" x="63.86" y="0">r</tspan><tspan x="71.4" y="0">e</tspan></text><text class="cls-16" transform="translate(190.54 248.63)">se<tspan class="cls-23" x="22.51" y="0">c</tspan><tspan x="34.28" y="0">ondo</tspan></text><text class="cls-24" transform="translate(70.72 233.66)">f<tspan class="cls-14" x="5.97" y="0">ilm</tspan></text><text class="cls-16" transform="translate(59.22 377.96)"><tspan class="cls-23">c</tspan><tspan x="11.77" y="0">li</tspan><tspan class="cls-23" x="21.8" y="0">c</tspan><tspan class="cls-15" x="33.57" y="0">hé</tspan></text><text class="cls-16" transform="translate(52.11 303.54)">giorn<tspan class="cls-25" x="49.03" y="0">a</tspan><tspan class="cls-26" x="60.58" y="0">t</tspan><tspan x="66.79" y="0">a</tspan></text><text class="cls-16" transform="translate(373.05 390.38)">milan</text><text class="cls-16" transform="translate(732.05 580.18)"><tspan class="cls-27">f</tspan><tspan x="6.65" y="0">w20</tspan></text><text class="cls-16" transform="translate(98.63 354.29)">n<tspan class="cls-28" x="11.95" y="0">e</tspan><tspan class="cls-29" x="23.64" y="0">w</tspan><tspan class="cls-30" x="39.41" y="0">y</tspan><tspan x="49.72" y="0">ork</tspan></text><text class="cls-31" transform="translate(243.69 402.36)">t<tspan class="cls-14" x="6.23" y="0">ime</tspan></text><text class="cls-16" transform="translate(765.19 627.67)">m<tspan class="cls-32" x="17.19" y="0">f</tspan><tspan x="23.84" y="0">w</tspan></text><text class="cls-16" transform="translate(645.06 769.28)">lali<tspan class="cls-33" x="26.61" y="0">s</tspan><tspan x="37.48" y="0">a</tspan></text><text class="cls-16" transform="translate(658.24 716.29)">li<tspan class="cls-33" x="10.02" y="0">s</tspan><tspan x="20.89" y="0">a</tspan></text><text class="cls-16" transform="translate(520.56 668.8)">bla<tspan class="cls-34" x="29.09" y="0">c</tspan><tspan class="cls-35" x="40.87" y="0">k</tspan><tspan x="52.29" y="0">pink</tspan></text><text class="cls-16" transform="translate(539.66 716.29)"><tspan class="cls-36">y</tspan><tspan x="10.36" y="0">g</tspan></text><text class="cls-16" transform="translate(476.51 567.42)"><tspan class="cls-37">y</tspan><tspan class="cls-38" x="10.36" y="0">g</tspan><tspan x="22.53" y="0">o</tspan><tspan class="cls-39" x="34.73" y="0">f</tspan><tspan class="cls-40" x="41.29" y="0">f</tspan><tspan x="47.26" y="0">icialblink</tspan></text><text class="cls-16" transform="translate(492.82 736.97)"><tspan class="cls-41">t</tspan><tspan class="cls-19" x="6.23" y="0">r</tspan><tspan x="13.77" y="0">end</tspan></text><text class="cls-16" transform="translate(400.67 759.02)">be<tspan class="cls-17" x="24.24" y="0">nv</tspan><tspan class="cls-15" x="45.7" y="0">enu</tspan><tspan class="cls-20" x="81.34" y="0">t</tspan><tspan class="cls-15" x="87.55" y="0">alali</tspan><tspan class="cls-40" x="125.73" y="0">s</tspan><tspan x="136.6" y="0">a</tspan></text><text class="cls-16" transform="translate(489.24 786.28)">i<tspan class="cls-20" x="5.01" y="0">t</tspan><tspan class="cls-15" x="11.22" y="0">a</tspan><tspan class="cls-35" x="22.8" y="0">l</tspan><tspan class="cls-15" x="27.92" y="0">y</tspan></text><text class="cls-16" transform="translate(541.39 802.96)"><tspan class="cls-42">w</tspan><tspan x="14.88" y="0">orl</tspan><tspan class="cls-43" x="39.8" y="0">d</tspan><tspan class="cls-21" x="52.42" y="0">w</tspan><tspan x="67.5" y="0">ide</tspan></text><text class="cls-16" transform="translate(591.41 776.97)">s<tspan class="cls-44" x="10.78" y="0">t</tspan><tspan x="17.01" y="0">ill</tspan></text><text class="cls-16" transform="translate(782.89 802.96)">see</text><text class="cls-16" transform="translate(589.01 821.15)"><tspan class="cls-22">e</tspan><tspan class="cls-17" x="11.62" y="0">v</tspan><tspan x="21.27" y="0">er</tspan></text><text class="cls-16" transform="translate(607.02 598.02)">most</text><text class="cls-16" transform="translate(480.4 830.7)">j<tspan class="cls-30" x="5.28" y="0">a</tspan><tspan class="cls-45" x="16.56" y="0">y</tspan><tspan x="27.3" y="0">lim1</tspan></text><text class="cls-16" transform="translate(638.88 650.56)"><tspan class="cls-23">c</tspan><tspan class="cls-15" x="11.77" y="0">elebri</tspan><tspan class="cls-46" x="65.48" y="0">t</tspan><tspan x="72.22" y="0">y</tspan></text><text class="cls-16" transform="translate(523.1 847.09)">philippines</text><text class="cls-16" transform="translate(452.58 813.48)"><tspan class="cls-44">t</tspan><tspan x="6.23" y="0">hai</tspan></text><text class="cls-16" transform="translate(734.19 941.55)">m<tspan class="cls-27" x="17.19" y="0">f</tspan><tspan class="cls-14" x="23.84" y="0">w2020</tspan></text><text class="cls-16" transform="translate(799.89 780.79)">lali<tspan class="cls-40" x="26.61" y="0">s</tspan><tspan class="cls-47" x="37.48" y="0">a</tspan><tspan class="cls-42" x="49.01" y="0">w</tspan><tspan class="cls-48" x="63.89" y="0">e</tspan><tspan x="75.53" y="0">a</tspan><tspan class="cls-34" x="87.1" y="0">r</tspan><tspan class="cls-49" x="94.87" y="0">s</tspan></text><text class="cls-50" transform="translate(774.94 1130.91)">برادا</text><text class="cls-16" transform="translate(750.06 986.51)">li<tspan class="cls-33" x="10.02" y="0">s</tspan><tspan class="cls-51" x="20.89" y="0">a</tspan><tspan class="cls-49" x="33.13" y="0">x</tspan></text><text class="cls-50" transform="translate(691.07 1160.03)">قبل</text><text class="cls-50" transform="translate(791.01 1098.36)">اثناء</text><text class="cls-50" transform="translate(748.42 1150.03)">بلاك</text><text class="cls-50" transform="translate(768.55 1073.6)">ميلان</text><text class="cls-50" transform="translate(675.25 1097.18)">بينك</text><text class="cls-50" transform="translate(717.23 1183.99)">عرض</text><text class="cls-16" transform="translate(691.07 1127.62)"><tspan class="cls-19">r</tspan><tspan class="cls-52" x="7.54" y="0">e</tspan><tspan x="19.18" y="0">a</tspan><tspan class="cls-43" x="30.76" y="0">d</tspan><tspan class="cls-15" x="43.37" y="0">y</tspan></text><text class="cls-16" transform="translate(700.68 1068.82)"><tspan class="cls-42">w</tspan><tspan class="cls-52" x="14.88" y="0">e</tspan><tspan x="26.52" y="0">ar</tspan></text><text class="cls-16" transform="translate(818.73 1137.77)">ph<tspan class="cls-28" x="24.42" y="0">o</tspan><tspan class="cls-53" x="36.57" y="0">t</tspan><tspan x="42.51" y="0">o</tspan><tspan class="cls-54" x="54.71" y="0">g</tspan><tspan class="cls-55" x="66.92" y="0">r</tspan><tspan class="cls-56" x="74.51" y="0">ap</tspan><tspan class="cls-57" x="98.55" y="0">h</tspan><tspan x="110.19" y="0">y</tspan></text><text class="cls-16" transform="translate(774.94 1181.2)"><tspan class="cls-42">f</tspan><tspan class="cls-58" x="5.81" y="0">a</tspan><tspan x="17.41" y="0">shion</tspan><tspan class="cls-59" x="69.3" y="0">w</tspan><tspan x="84.18" y="0">eek2020</tspan></text><text class="cls-16" transform="translate(402.58 463.91)">app<tspan class="cls-52" x="36.5" y="0">e</tspan><tspan class="cls-15" x="48.14" y="0">a</tspan><tspan class="cls-60" x="59.72" y="0">r</tspan><tspan class="cls-15" x="67.3" y="0">an</tspan><tspan class="cls-23" x="90.83" y="0">c</tspan><tspan class="cls-15" x="102.6" y="0">e</tspan></text><text class="cls-16" transform="translate(327.71 476.55)">ma<tspan class="cls-61" x="28.76" y="0">k</tspan><tspan class="cls-15" x="39.6" y="0">e</tspan></text><text class="cls-12" transform="translate(362.71 528.41)">f<tspan class="cls-15" x="5.81" y="0">an</tspan></text><text class="cls-24" transform="translate(562.27 264)">f<tspan class="cls-14" x="5.97" y="0">i</tspan><tspan class="cls-34" x="10.98" y="0">r</tspan><tspan class="cls-14" x="18.74" y="0">st</tspan></text><text class="cls-16" transform="translate(681.86 545.89)">sh<tspan class="cls-62" x="22.73" y="0">o</tspan><tspan x="34.88" y="0">w</tspan></text><text class="cls-16" transform="translate(327.01 510)">public</text><text class="cls-16" transform="translate(400.67 505.3)">member</text><text class="cls-16" transform="translate(334.36 544.68)">suit</text><text class="cls-63" transform="translate(383.09 529.14)">c<tspan class="cls-15" x="11.77" y="0">hinese</tspan></text><text class="cls-16" transform="translate(402.58 437.35)">lali<tspan class="cls-33" x="26.61" y="0">s</tspan><tspan class="cls-51" x="37.48" y="0">a</tspan><tspan x="49.72" y="0">x</tspan><tspan class="cls-27" x="60.21" y="0">f</tspan><tspan x="66.86" y="0">w</tspan></text><text class="cls-16" transform="translate(365.11 553.08)"><tspan class="cls-38">g</tspan><tspan x="12.17" y="0">olden</tspan></text><text class="cls-12" transform="translate(269.28 496.18)">f<tspan class="cls-13" x="5.81" y="0">a</tspan><tspan class="cls-14" x="17.41" y="0">scin</tspan><tspan class="cls-25" x="56.88" y="0">a</tspan><tspan class="cls-53" x="68.43" y="0">t</tspan><tspan class="cls-15" x="74.38" y="0">e</tspan></text><text class="cls-16" transform="translate(307.9 437.35)"><tspan class="cls-23">c</tspan><tspan x="11.77" y="0">o</tspan><tspan class="cls-52" x="23.97" y="0">n</tspan><tspan class="cls-54" x="35.83" y="0">g</tspan><tspan class="cls-17" x="48.05" y="0">r</tspan><tspan class="cls-25" x="55.64" y="0">a</tspan><tspan class="cls-15" x="67.19" y="0">t</tspan></text><text class="cls-16" transform="translate(742.17 86.89)"><tspan class="cls-64">v</tspan><tspan x="9.56" y="0">ogue</tspan></text><text class="cls-16" transform="translate(1080.35 357.52)">run<tspan class="cls-55" x="31.62" y="0">w</tspan><tspan class="cls-65" x="46.43" y="0">a</tspan><tspan x="57.72" y="0">y</tspan></text><text class="cls-16" transform="translate(808.47 323.23)"><tspan class="cls-42">f</tspan><tspan class="cls-58" x="5.81" y="0">a</tspan><tspan x="17.41" y="0">shion</tspan></text><text class="cls-16" transform="translate(697.3 186.54)">d<tspan class="cls-30" x="12.51" y="0">a</tspan><tspan x="23.79" y="0">y</tspan></text><text class="cls-16" transform="translate(638.88 140.26)">hap<tspan class="cls-66" x="35.99" y="0">p</tspan><tspan class="cls-15" x="48.12" y="0">y</tspan></text><text class="cls-16" transform="translate(691.07 91.06)"><tspan class="cls-38">g</tspan><tspan x="12.17" y="0">o</tspan></text><text class="cls-16" transform="translate(732.75 196.11)">armani</text><text class="cls-16" transform="translate(765.19 172.21)">l<tspan class="cls-13" x="5.01" y="0">a</tspan><tspan class="cls-49" x="16.61" y="0">st</tspan></text><text class="cls-16" transform="translate(760.17 57.85)">be</text><text class="cls-16" transform="translate(599.59 115.07)"><tspan class="cls-23">c</tspan><tspan x="11.77" y="0">on</tspan><tspan class="cls-35" x="35.92" y="0">s</tspan><tspan x="46.81" y="0">pi</tspan><tspan class="cls-17" x="64.29" y="0">r</tspan><tspan x="71.87" y="0">a</tspan><tspan class="cls-67" x="83.44" y="0">c</tspan><tspan x="95.04" y="0">y</tspan></text><text class="cls-16" transform="translate(773.45 137.65)">hold</text><text class="cls-16" transform="translate(653.91 166.87)">gio<tspan class="cls-68" x="29.36" y="0">r</tspan><tspan x="37.01" y="0">gio</tspan></text><text class="cls-16" transform="translate(799.89 99.55)">announ<tspan class="cls-34" x="71.58" y="0">c</tspan><tspan x="83.36" y="0">e</tspan></text><text class="cls-16" transform="translate(736.57 118.68)"><tspan class="cls-23">c</tspan><tspan x="11.77" y="0">o</tspan><tspan class="cls-18" x="23.97" y="0">r</tspan><tspan class="cls-15" x="31.49" y="0">ona</tspan></text><text class="cls-16" transform="translate(638.88 67.8)">l<tspan class="cls-35" x="5.01" y="0">i</tspan><tspan class="cls-17" x="10.13" y="0">v</tspan><tspan x="19.78" y="0">es</tspan><tspan class="cls-41" x="42.29" y="0">t</tspan><tspan class="cls-19" x="48.52" y="0">r</tspan><tspan class="cls-52" x="56.06" y="0">e</tspan><tspan x="67.7" y="0">am</tspan></text><text class="cls-16" transform="translate(869.51 559.35)">gigi</text><text class="cls-16" transform="translate(863.98 527.46)">hadid</text><text class="cls-16" transform="translate(992.95 320.84)">s<tspan class="cls-46" x="10.78" y="0">t</tspan><tspan class="cls-21" x="17.52" y="0">y</tspan><tspan x="28.25" y="0">le</tspan></text><text class="cls-16" transform="translate(807.64 593.06)">milano</text><text class="cls-16" transform="translate(790.73 502.91)">ba<tspan class="cls-34" x="24.08" y="0">c</tspan><tspan class="cls-69" x="35.86" y="0">k</tspan><tspan x="46.88" y="0">s</tspan><tspan class="cls-26" x="57.66" y="0">t</tspan><tspan class="cls-18" x="63.87" y="0">a</tspan><tspan class="cls-58" x="75.24" y="0">g</tspan><tspan x="87.42" y="0">e</tspan></text><text class="cls-16" transform="translate(914.62 548.36)">m<tspan class="cls-32" x="17.19" y="0">f</tspan><tspan class="cls-56" x="23.84" y="0">y</tspan></text><text class="cls-16" transform="translate(749.52 553.45)">lali<tspan class="cls-40" x="26.61" y="0">s</tspan><tspan class="cls-70" x="37.48" y="0">a</tspan><tspan x="49.72" y="0">x</tspan></text><text class="cls-16" transform="translate(903.73 496.18)">name</text><text class="cls-31" transform="translate(788.24 573.41)">t<tspan class="cls-56" x="6.23" y="0">he</tspan><tspan class="cls-71" x="29.91" y="0">r</tspan><tspan class="cls-56" x="37.45" y="0">e</tspan></text><text class="cls-16" transform="translate(910.06 591.11)"><tspan class="cls-58">s</tspan><tspan class="cls-40" x="10.8" y="0">f</tspan><tspan x="16.76" y="0">il</tspan><tspan class="cls-72" x="26.79" y="0">a</tspan><tspan class="cls-26" x="38.34" y="0">t</tspan><tspan x="44.55" y="0">a</tspan></text><text class="cls-16" transform="translate(833 477.46)">sn<tspan class="cls-53" x="22.73" y="0">e</tspan><tspan class="cls-56" x="34.37" y="0">a</tspan><tspan class="cls-61" x="45.95" y="0">k</tspan><tspan x="56.79" y="0">er</tspan></text><text class="cls-16" transform="translate(776.21 525.94)">simons</text><text class="cls-16" transform="translate(1402.71 553.45)"><tspan class="cls-58">g</tspan><tspan class="cls-28" x="12.17" y="0">e</tspan><tspan class="cls-73" x="23.86" y="0">t</tspan><tspan class="cls-46" x="30.49" y="0">t</tspan><tspan x="37.23" y="0">yim</tspan><tspan class="cls-18" x="70.03" y="0">a</tspan><tspan class="cls-58" x="81.41" y="0">g</tspan><tspan x="93.58" y="0">e</tspan></text><text class="cls-16" transform="translate(1384.95 476.36)">ni<tspan class="cls-54" x="16.96" y="0">g</tspan><tspan x="29.18" y="0">h</tspan><tspan class="cls-46" x="41.13" y="0">t</tspan><tspan class="cls-55" x="47.88" y="0">w</tspan><tspan class="cls-56" x="62.69" y="0">alk</tspan></text><text class="cls-16" transform="translate(1357.84 562.63)">miu</text><text class="cls-16" transform="translate(1406.89 572.82)">m<tspan class="cls-18" x="17.19" y="0">o</tspan><tspan class="cls-74" x="29.18" y="0">v</tspan><tspan class="cls-49" x="39.1" y="0">ie</tspan></text><text class="cls-16" transform="translate(1337.36 477.46)"><tspan class="cls-69">n</tspan><tspan class="cls-56" x="11.66" y="0">y</tspan><tspan class="cls-32" x="22.26" y="0">f</tspan><tspan x="28.92" y="0">w</tspan></text><text class="cls-16" transform="translate(1140.89 586.26)">n<tspan class="cls-28" x="11.95" y="0">e</tspan><tspan x="23.64" y="0">w</tspan></text><text class="cls-16" transform="translate(1315.38 538.14)">miumiu</text><text class="cls-16" transform="translate(1428.34 451.95)"><tspan class="cls-69">y</tspan><tspan x="10.31" y="0">ork</tspan></text><text class="cls-16" transform="translate(1228.36 672.39)">miu<tspan class="cls-75" x="34.15" y="0">c</tspan><tspan x="45.92" y="0">cia</tspan></text><text class="cls-16" transform="translate(1314.98 505.77)">cinema</text><text class="cls-16" transform="translate(1405.27 533.59)"><tspan class="cls-21">v</tspan><tspan x="9.91" y="0">ill</tspan><tspan class="cls-18" x="24.95" y="0">a</tspan><tspan class="cls-58" x="36.32" y="0">g</tspan><tspan x="48.5" y="0">e</tspan></text><text class="cls-16" transform="translate(1369.36 588.38)"><tspan class="cls-53">e</tspan><tspan class="cls-13" x="11.64" y="0">a</tspan><tspan x="23.24" y="0">st</tspan></text><text class="cls-16" transform="translate(1443.76 516.34)"><tspan class="cls-26">t</tspan><tspan x="6.21" y="0">ales</tspan></text><text class="cls-16" transform="translate(1389.05 499.73)"><tspan class="cls-76">f</tspan><tspan x="5.77" y="0">eminini</tspan><tspan class="cls-46" x="73.62" y="0">t</tspan><tspan x="80.36" y="0">y</tspan></text><text class="cls-16" transform="translate(1376.61 448.55)">sho</text><text class="cls-16" transform="translate(1324.29 458.09)">ph<tspan class="cls-28" x="24.42" y="0">o</tspan><tspan class="cls-53" x="36.57" y="0">t</tspan><tspan x="42.51" y="0">o</tspan></text><text class="cls-16" transform="translate(1274.54 319.49)"><tspan class="cls-42">f</tspan><tspan x="5.81" y="0">all</tspan></text><text class="cls-16" transform="translate(1109.3 780.79)"><tspan class="cls-42">w</tspan><tspan x="14.88" y="0">omens</tspan><tspan class="cls-42" x="78.72" y="0">w</tspan><tspan class="cls-53" x="93.6" y="0">e</tspan><tspan x="105.24" y="0">ar</tspan></text><text class="cls-16" transform="translate(1023.89 825.2)">l<tspan class="cls-35" x="5.01" y="0">i</tspan><tspan class="cls-17" x="10.13" y="0">v</tspan><tspan x="19.78" y="0">e</tspan></text><text class="cls-16" transform="translate(1109.3 804.9)"><tspan class="cls-53">t</tspan><tspan x="5.94" y="0">od</tspan><tspan class="cls-69" x="30.65" y="0">a</tspan><tspan x="41.93" y="0">y</tspan></text><text class="cls-16" transform="translate(1109.3 836.94)">pm</text><text class="cls-16" transform="translate(1005.76 794.19)"><tspan class="cls-44">t</tspan><tspan class="cls-56" x="6.23" y="0">hu</tspan><tspan class="cls-75" x="30.14" y="0">r</tspan><tspan x="37.9" y="0">sd</tspan><tspan class="cls-69" x="61.18" y="0">a</tspan><tspan class="cls-56" x="72.47" y="0">y</tspan></text><text class="cls-16" transform="translate(1072.62 900.85)"><tspan class="cls-46">t</tspan><tspan class="cls-21" x="6.74" y="0">w</tspan><tspan x="21.82" y="0">i</tspan><tspan class="cls-73" x="26.83" y="0">t</tspan><tspan class="cls-48" x="33.46" y="0">t</tspan><tspan x="39.41" y="0">er</tspan></text><text class="cls-16" transform="translate(1159.3 816.95)">20<tspan class="cls-44" x="24.84" y="0">t</tspan><tspan x="31.07" y="0">h</tspan></text><text class="cls-16" transform="translate(1104.43 866.37)"><tspan class="cls-34">c</tspan><tspan x="11.78" y="0">est</tspan></text><text class="cls-16" transform="translate(996.1 851.53)"><tspan class="cls-34">c</tspan><tspan x="11.78" y="0">ome</tspan></text><text class="cls-16" transform="translate(1085.3 757.14)">miumiuo<tspan class="cls-77" x="80.5" y="0">f</tspan><tspan class="cls-40" x="87.06" y="0">f</tspan><tspan x="93.03" y="0">icial</tspan></text><text class="cls-16" transform="translate(1131.61 845.11)">paris</text><text class="cls-16" transform="translate(1046.87 764.52)">s<tspan class="cls-75" x="10.78" y="0">t</tspan><tspan class="cls-56" x="16.85" y="0">un</tspan></text><text class="cls-16" transform="translate(1023.89 884.89)">s<tspan class="cls-53" x="10.78" y="0">t</tspan><tspan x="16.72" y="0">orm</tspan></text><text class="cls-16" transform="translate(1139.19 881.4)">b<tspan class="cls-54" x="12.51" y="0">t</tspan><tspan x="18.6" y="0">s</tspan></text><text class="cls-16" transform="translate(772.18 423.7)">milan<tspan class="cls-78" x="50.74" y="0">f</tspan><tspan class="cls-13" x="56.55" y="0">a</tspan><tspan x="68.14" y="0">shion</tspan><tspan class="cls-42" x="120.03" y="0">w</tspan><tspan x="134.91" y="0">eek</tspan></text><text class="cls-79" transform="translate(828.46 712.55)">리사</text><text class="cls-79" transform="translate(792.61 688.15)">블랙핑크</text><text class="cls-16" transform="translate(771.46 677.38)">look</text><text class="cls-16" transform="translate(800.26 738.06)"><tspan class="cls-34">c</tspan><tspan x="11.78" y="0">he</tspan><tspan class="cls-34" x="35.46" y="0">c</tspan><tspan x="47.23" y="0">k</tspan></text><text class="cls-16" transform="translate(753.09 759.12)">li<tspan class="cls-80" x="10.02" y="0">s</tspan><tspan class="cls-28" x="20.89" y="0">a</tspan><tspan class="cls-42" x="32.42" y="0">w</tspan><tspan class="cls-48" x="47.3" y="0">e</tspan><tspan x="58.94" y="0">a</tspan><tspan class="cls-75" x="70.52" y="0">r</tspan><tspan x="78.28" y="0">s</tspan></text><text class="cls-16" transform="translate(717.45 701.47)">almost</text><text class="cls-16" transform="translate(1159.3 154.17)">gu<tspan class="cls-75" x="24.1" y="0">c</tspan><tspan class="cls-56" x="35.88" y="0">ci</tspan></text><text class="cls-16" transform="translate(1043.94 140.26)"><tspan class="cls-17">v</tspan><tspan x="9.65" y="0">e</tspan><tspan class="cls-34" x="21.38" y="0">r</tspan><tspan class="cls-80" x="29.14" y="0">s</tspan><tspan x="40" y="0">a</tspan><tspan class="cls-34" x="51.58" y="0">c</tspan><tspan x="63.35" y="0">e</tspan></text><text class="cls-16" transform="translate(1182.7 70.29)"><tspan class="cls-34">c</tspan><tspan x="11.78" y="0">hanel</tspan></text><text class="cls-16" transform="translate(1189.42 181.93)"><tspan class="cls-21">w</tspan><tspan x="15.08" y="0">in</tspan><tspan class="cls-48" x="32.04" y="0">t</tspan><tspan x="37.99" y="0">er</tspan></text><text class="cls-16" transform="translate(1119.49 196.11)">dior</text><text class="cls-16" transform="translate(1146.37 102.89)">pop</text><text class="cls-16" transform="translate(1075.78 77.36)">model</text><text class="cls-16" transform="translate(1023.89 178.45)"><tspan class="cls-42">f</tspan><tspan x="5.81" y="0">al</tspan><tspan class="cls-35" x="22.4" y="0">l</tspan><tspan class="cls-21" x="27.52" y="0">w</tspan><tspan x="42.6" y="0">in</tspan><tspan class="cls-48" x="59.56" y="0">t</tspan><tspan x="65.51" y="0">er2020</tspan></text><text class="cls-16" transform="translate(1220.44 103.7)">loui<tspan class="cls-53" x="34.17" y="0">s</tspan><tspan class="cls-21" x="44.86" y="0">v</tspan><tspan x="54.77" y="0">ui</tspan><tspan class="cls-73" x="71.74" y="0">t</tspan><tspan class="cls-48" x="78.37" y="0">t</tspan><tspan x="84.31" y="0">on</tspan></text><text class="cls-16" transform="translate(1046.87 114.74)">mon<tspan class="cls-75" x="41.33" y="0">c</tspan><tspan x="53.11" y="0">ler</tspan></text><text class="cls-81" transform="translate(1169.97 121.29)">นน</text><text class="cls-81" transform="translate(1126.56 60.18)">ชาร</text><text class="cls-16" transform="translate(729.75 458.09)">mo<tspan class="cls-19" x="29.38" y="0">r</tspan><tspan class="cls-14" x="36.92" y="0">e</tspan></text><text class="cls-16" transform="translate(603.63 423.26)">lali<tspan class="cls-33" x="26.61" y="0">s</tspan><tspan x="37.48" y="0">amanoban</tspan></text><text class="cls-16" transform="translate(719.91 510)">on</text><text class="cls-16" transform="translate(705.82 440.26)">s<tspan class="cls-82" x="10.78" y="0">t</tspan><tspan class="cls-45" x="17.52" y="0">y</tspan><tspan x="28.25" y="0">lish</tspan></text><text class="cls-16" transform="translate(629.98 502.91)"><tspan class="cls-42">w</tspan><tspan x="14.88" y="0">oman</tspan></text><text class="cls-16" transform="translate(641.79 451.95)">c<tspan class="cls-83" x="11.73" y="0">r</tspan><tspan class="cls-62" x="19.25" y="0">o</tspan><tspan x="31.4" y="0">wd</tspan></text><text class="cls-16" transform="translate(632.41 477.46)">send</text><text class="cls-81" transform="translate(679.2 398.65)">มจนล</text></svg>