<svg xmlns="http://www.w3.org/2000/svg" viewBox="0 0 1555 1141"><defs><style>.cls-1,.cls-2,.cls-3,.cls-4{fill:none;}.cls-1{stroke:#8929a9;}.cls-2{stroke:#fc2130;}.cls-3{stroke:#fd8326;}.cls-4{stroke:#11c574;}.cls-10,.cls-17,.cls-35,.cls-5{isolation:isolate;font-size:20px;}.cls-10,.cls-17,.cls-5{font-family:NimbusSan-Reg, Nimbus Sans;}.cls-6{letter-spacing:-0.01em;}.cls-7{letter-spacing:0.04em;}.cls-8{letter-spacing:0em;}.cls-9{letter-spacing:0em;}.cls-10{letter-spacing:-0.01em;}.cls-11{letter-spacing:-0.01em;}.cls-12{letter-spacing:-0.01em;}.cls-13{letter-spacing:0em;}.cls-14{letter-spacing:-0.03em;}.cls-15{letter-spacing:-0.01em;}.cls-16{letter-spacing:-0.01em;}.cls-17,.cls-26{letter-spacing:0em;}.cls-18{letter-spacing:0em;}.cls-19{letter-spacing:0em;}.cls-20{letter-spacing:0em;}.cls-21{letter-spacing:0.03em;}.cls-22{letter-spacing:0.01em;}.cls-23{letter-spacing:0.03em;}.cls-24{letter-spacing:0em;}.cls-25{letter-spacing:0em;}.cls-27{letter-spacing:0em;}.cls-28{letter-spacing:0.03em;}.cls-29{letter-spacing:0.01em;}.cls-30{letter-spacing:0.01em;}.cls-31{letter-spacing:0em;}.cls-32{letter-spacing:0em;}.cls-33{letter-spacing:0.04em;}.cls-34{letter-spacing:0em;}.cls-35{font-family:ArialUnicodeMS, Arial Unicode MS;}.cls-36{letter-spacing:0.01em;}.cls-37{letter-spacing:-0.02em;}.cls-38{letter-spacing:0em;}.cls-39{letter-spacing:0.03em;}.cls-40{letter-spacing:0em;}.cls-41{letter-spacing:-0.01em;}.cls-42{letter-spacing:0.03em;}.cls-43{letter-spacing:0.01em;}.cls-44{letter-spacing:0.01em;}.cls-45{letter-spacing:0.01em;}.cls-46{letter-spacing:-0.02em;}.cls-47{letter-spacing:0em;}.cls-48{letter-spacing:0em;}</style></defs><g id="Layer_2" data-name="Layer 2"><g id="edges"><path class="cls-1" d="M1253.05,968.15c-71.6,33.14-228.72-24.55-261.86-96.15"/><path class="cls-1" d="M1253.05,968.15c-135.35-24-302.35-263-278.33-398.4"/><path class="cls-1" d="M1253.05,968.15c-113.2-12.09-264.87-200-252.78-313.22"/><path class="cls-1" d="M1253.05,968.15c-114.72,81.4-408.9,31.4-490.3-83.32"/><path class="cls-1" d="M1253.05,968.15c-107.07-81.49-145.43-364.32-64-471.39"/><path class="cls-1" d="M1253.05,968.15c36,26,50.94,118.9,25,154.87"/><path class="cls-1" d="M1253.05,968.15c31.54-26,117.85-17.69,143.85,13.84"/><path class="cls-1" d="M1253.05,968.15c26.45-2,69.2,34.54,71.26,61"/><path class="cls-1" d="M1253.05,968.15c1.1,30.54-43.07,78-73.61,79.09"/><path class="cls-1" d="M1253.05,968.15c12.77,21.45-.24,72.79-21.69,85.56"/><path class="cls-1" d="M1253.05,968.15c41.71-10.65,120.25,36,130.9,77.66"/><path class="cls-1" d="M1253.05,968.15c43.34,7.65,96.87,84.12,89.23,127.46"/><path class="cls-1" d="M1253.05,968.15c.56-26.24,40.75-64.76,67-64.2"/><path class="cls-1" d="M1253.05,968.15c-81.34-68.39-100.76-293-32.37-374.34"/><path class="cls-1" d="M1253.05,968.15c25,13.31,42.46,70.71,29.16,95.67"/><path class="cls-1" d="M1253.05,968.15c19.49,36.22-5.6,119.77-41.81,139.26"/><path class="cls-1" d="M1253.05,968.15c-13.62-17.73-7.45-64.77,10.28-78.4"/><path class="cls-1" d="M1253.05,968.15c18.73-15.87,70.62-11.58,86.49,7.15"/><path class="cls-1" d="M1253.05,968.15c-11.67,20.11-59.34,32.76-79.44,21.09"/><path class="cls-1" d="M1253.05,968.15c14.27-31.95,83.61-58.47,115.56-44.2"/><path class="cls-2" d="M334.42,789.14c5.52-108.87,177.1-263.88,286-258.36"/><path class="cls-2" d="M334.42,789.14c22.89-47.42,128.33-84.2,175.74-61.32"/><path class="cls-2" d="M334.42,789.14c29-30.77,118.64-33.4,149.41-4.4"/><path class="cls-2" d="M334.42,789.14c5.2-51.79,90.68-121.66,142.47-116.45"/><path class="cls-2" d="M334.42,789.14c-23.77,25.67-98,28.53-123.63,4.76"/><path class="cls-2" d="M334.42,789.14c104.8-66.53,361.8-9.12,428.33,95.69"/><path class="cls-2" d="M334.42,789.14c49.23-26.16,162.33,8.45,188.49,57.69"/><path class="cls-2" d="M334.42,789.14c48.78-48.21,194.25-47.34,242.45,1.44"/><path class="cls-2" d="M334.42,789.14c-40.38,20.13-131.16-10.23-151.3-50.61"/><path class="cls-2" d="M334.42,789.14c-7,25.45-55.66,53.15-81.11,46.16"/><path class="cls-2" d="M334.42,789.14c8.5,25.26-16.64,75.91-41.9,84.41"/><path class="cls-2" d="M334.42,789.14C355.9,815.2,349,886.51,323,908"/><path class="cls-2" d="M334.42,789.14c10.42,42.26-37.35,121.27-79.61,131.69"/><path class="cls-2" d="M334.42,789.14c-24.37,10.64-76.9-10-87.54-34.33"/><path class="cls-2" d="M334.42,789.14c-37.54.34-94.36-55.46-94.7-93"/><path class="cls-2" d="M334.42,789.14c-24.83,42.18-125.35,68.22-167.53,43.39"/><path class="cls-2" d="M334.42,789.14c-25.59-7.41-52.86-56.9-45.46-82.49"/><path class="cls-2" d="M334.42,789.14c15.23-129.86,232.86-301.81,362.71-286.58"/><path class="cls-2" d="M334.42,789.14c-6.31,42.86-80.07,97.7-122.94,91.4"/><path class="cls-2" d="M334.42,789.14c35-65.84,186.2-112.12,252-77.14"/><path class="cls-3" d="M751.52,690.31c-34.65,72.42-195.27,129.08-267.69,94.43"/><path class="cls-3" d="M751.52,690.31c-40.77,55.77-185.58,78.28-241.36,37.51"/><path class="cls-3" d="M751.52,690.31c41.15,36.66,47.89,153.37,11.23,194.52"/><path class="cls-3" d="M751.52,690.31c84.27-11.6,228.07,97.42,239.67,181.69"/><path class="cls-3" d="M751.52,690.31C772.05,621.56,906,549.23,974.72,569.75"/><path class="cls-3" d="M751.52,690.31c-58.13-5.68-136.82-101.4-131.14-159.53"/><path class="cls-3" d="M751.52,690.31c42.67-56.83,191.92-78.06,248.75-35.38"/><path class="cls-3" d="M751.52,690.31c13.85-11.64,52.08-8.34,63.73,5.51"/><path class="cls-3" d="M751.52,690.31c9.36,17.4-2.71,57.54-20.12,66.9"/><path class="cls-3" d="M751.52,690.31c-14.87,55-119.66,115.15-174.65,100.27"/><path class="cls-3" d="M751.52,690.31c-14.42,77-151.59,170.93-228.61,156.52"/><path class="cls-3" d="M751.52,690.31c19.93-.55,50.64,28.52,51.18,48.45"/><path class="cls-3" d="M751.52,690.31c18.15,10,30.35,52.27,20.33,70.43"/><path class="cls-3" d="M751.52,690.31c-58.45,51.4-223.23,40.83-274.63-17.62"/><path class="cls-3" d="M751.52,690.31c-.39-18.6,26.93-47.09,45.53-47.48"/><path class="cls-3" d="M751.52,690.31c-6.62,14.82-38.78,27.13-53.6,20.51"/><path class="cls-3" d="M751.52,690.31C722.85,727.66,623.81,740.68,586.46,712"/><path class="cls-3" d="M751.52,690.31c-17.93-2-41.86-31.85-39.88-49.78"/><path class="cls-3" d="M751.52,690.31C703.09,663.64,670.46,551,697.13,502.56"/><path class="cls-3" d="M751.52,690.31c-12.86-14.17-10.89-54.7,3.28-67.56"/><path class="cls-4" d="M1001.21,174.12c73.83,84.42,57.93,321.8-26.49,395.63"/><path class="cls-4" d="M1001.21,174.12c7.51-22.91,53.15-46,76.06-38.48"/><path class="cls-4" d="M1001.21,174.12c4.87,126.5-177.57,323.57-304.08,328.44"/><path class="cls-4" d="M1001.21,174.12c-4.84,147.49-233.33,361.49-380.83,356.66"/><path class="cls-4" d="M1001.21,174.12c102.11,26.95,214.84,220.53,187.89,322.64"/><path class="cls-4" d="M1001.21,174.12c96,96.35,95.41,384.83-.94,480.81"/><path class="cls-4" d="M1001.21,174.12C978.93,191.93,918.81,185.24,901,163"/><path class="cls-4" d="M1001.21,174.12c-25.51,5.95-72.71-23.37-78.67-48.88"/><path class="cls-4" d="M1001.21,174.12c-4.77,21.71-44.49,47.12-66.21,42.35"/><path class="cls-4" d="M1001.21,174.12c-24.29-9.21-46.9-59.45-37.69-83.73"/><path class="cls-4" d="M1001.21,174.12c-7-26,21.55-75.54,47.57-82.54"/><path class="cls-4" d="M1001.21,174.12c-8.66-42.73,42.44-119.8,85.16-128.46"/><path class="cls-4" d="M1001.21,174.12c-20.48-22.06-18.12-85.85,3.93-106.33"/><path class="cls-4" d="M1001.21,174.12c23.18-6.26,67.33,19.12,73.59,42.3"/><path class="cls-4" d="M1001.21,174.12c22.3-21.34,87.77-19.89,109.1,2.42"/><path class="cls-4" d="M1001.21,174.12c-40.65,1.28-103.55-57.78-104.83-98.43"/><path class="cls-4" d="M1001.21,174.12c-29.48-35.83-20-133.79,15.87-163.27"/><path class="cls-4" d="M1001.21,174.12c-41.57-17.42-77.8-105.89-60.39-147.46"/><path class="cls-4" d="M1001.21,174.12c11.47-38.53,86.46-79.11,125-67.64"/><path class="cls-4" d="M1001.21,174.12c127.83,40,259.52,291.86,219.47,419.69"/></g><g id="node-labels"><text class="cls-5" transform="translate(971.12 878.08)"><tspan class="cls-6">n</tspan><tspan x="10.52" y="0">y</tspan><tspan class="cls-7" x="20.08" y="0">f</tspan><tspan x="26.08" y="0">w</tspan></text><text class="cls-5" transform="translate(955.23 574.39)"><tspan class="cls-7">f</tspan><tspan x="6" y="0">w20</tspan></text><text class="cls-5" transform="translate(978.46 659.73)">sh<tspan class="cls-8" x="20.5" y="0">o</tspan><tspan class="cls-9" x="31.46" y="0">w</tspan></text><text class="cls-10" transform="translate(751.45 889.17)">n<tspan class="cls-9" x="10.52" y="0">y</tspan></text><text class="cls-5" transform="translate(1160.03 502.09)">run<tspan class="cls-11" x="28.52" y="0">w</tspan><tspan class="cls-6" x="41.88" y="0">a</tspan><tspan x="52.06" y="0">y</tspan></text><text class="cls-5" transform="translate(1257.45 1130.5)">jisoo</text><text class="cls-5" transform="translate(1378.07 988.8)"><tspan class="cls-12">r</tspan><tspan x="6.78" y="0">osé</tspan></text><text class="cls-5" transform="translate(1268.99 1035.73)"><tspan class="cls-13">k</tspan><tspan x="10.3" y="0">i</tspan><tspan class="cls-14" x="14.82" y="0">k</tspan><tspan x="24.52" y="0">om</tspan><tspan class="cls-15" x="51.02" y="0">i</tspan><tspan class="cls-16" x="55.38" y="0">z</tspan><tspan x="64.44" y="0">uha</tspan><tspan class="cls-11" x="96.44" y="0">r</tspan><tspan class="cls-9" x="103.28" y="0">a</tspan></text><text class="cls-17" transform="translate(1155.43 1053.25)">c<tspan class="cls-18" x="10.62" y="0">ount</tspan></text><text class="cls-5" transform="translate(1213.02 1060)">else</text><text class="cls-5" transform="translate(1355.17 1052.65)">minu<tspan class="cls-19" x="41.58" y="0">t</tspan><tspan class="cls-18" x="46.94" y="0">e</tspan></text><text class="cls-5" transform="translate(1328.05 1102.38)">pm</text><text class="cls-5" transform="translate(1311.58 910.26)"><tspan class="cls-20">e</tspan><tspan x="10.54" y="0">t</tspan></text><text class="cls-5" transform="translate(1196.4 599.35)"><tspan class="cls-21">t</tspan><tspan class="cls-22" x="6.08" y="0">w</tspan><tspan x="19.68" y="0">i</tspan><tspan class="cls-23" x="24.2" y="0">t</tspan><tspan class="cls-19" x="30.18" y="0">t</tspan><tspan x="35.54" y="0">er</tspan></text><text class="cls-5" transform="translate(1256.78 1070.32)"><tspan class="cls-16">w</tspan><tspan class="cls-24" x="13.36" y="0">a</tspan><tspan class="cls-25" x="23.78" y="0">t</tspan><tspan class="cls-26" x="29.14" y="0">c</tspan><tspan x="39.76" y="0">h</tspan></text><text class="cls-5" transform="translate(1175.84 1114.68)"><tspan class="cls-27">f</tspan><tspan x="5.2" y="0">ebrua</tspan><tspan class="cls-28" x="55.24" y="0">r</tspan><tspan x="62.82" y="0">y</tspan></text><text class="cls-5" transform="translate(1248.72 895.9)">l<tspan class="cls-29" x="4.52" y="0">i</tspan><tspan class="cls-11" x="9.14" y="0">v</tspan><tspan x="17.84" y="0">e</tspan></text><text class="cls-5" transform="translate(1306.35 982.78)"><tspan class="cls-26">t</tspan><tspan class="cls-9" x="5.48" y="0">uesd</tspan><tspan class="cls-6" x="47.84" y="0">a</tspan><tspan x="58.02" y="0">y</tspan></text><text class="cls-5" transform="translate(1155.07 995.21)">11<tspan class="cls-30" x="22.4" y="0">t</tspan><tspan x="28.02" y="0">h</tspan></text><text class="cls-5" transform="translate(1356.07 930.6)"><tspan class="cls-31">f</tspan><tspan x="5.24" y="0">all</tspan></text><text class="cls-5" transform="translate(581.1 534.89)">gqxpe<tspan class="cls-32" x="53.48" y="0">c</tspan><tspan class="cls-33" x="64.1" y="0">k</tspan><tspan class="cls-34" x="75.06" y="0">x</tspan></text><text class="cls-35" transform="translate(488.09 730.22)">กผล</text><text class="cls-35" transform="translate(468.39 788.1)">เป</text><text class="cls-35" transform="translate(448.09 676.62)">ตโชค</text><text class="cls-5" transform="translate(186.21 795.99)"><tspan class="cls-30">t</tspan><tspan x="5.62" y="0">hank</tspan></text><text class="cls-5" transform="translate(460.37 851.02)">pe<tspan class="cls-32" x="21.82" y="0">c</tspan><tspan class="cls-36" x="32.44" y="0">k</tspan><tspan x="42.74" y="0">pali</tspan><tspan class="cls-25" x="73.46" y="0">t</tspan><tspan class="cls-32" x="78.82" y="0">c</tspan><tspan x="89.44" y="0">ho</tspan><tspan class="cls-37" x="111.22" y="0">k</tspan><tspan x="121" y="0">e</tspan></text><text class="cls-5" transform="translate(517.18 795)">gqxpe<tspan class="cls-32" x="53.48" y="0">c</tspan><tspan class="cls-33" x="64.1" y="0">k</tspan><tspan class="cls-34" x="75.06" y="0">x</tspan><tspan class="cls-7" x="84.52" y="0">f</tspan><tspan x="90.52" y="0">w20</tspan></text><text class="cls-35" transform="translate(167.39 740.69)">ปล</text><text class="cls-35" transform="translate(230.44 838.65)">มใจ</text><text class="cls-35" transform="translate(269.57 877.1)">ในต</text><text class="cls-35" transform="translate(244.89 910.94)">านประธานมาก</text><text class="cls-35" transform="translate(238.51 922.59)">วท</text><text class="cls-5" transform="translate(235.26 756.12)">so</text><text class="cls-5" transform="translate(215.56 698.19)">mu<tspan class="cls-32" x="26.28" y="0">c</tspan><tspan x="36.9" y="0">h</tspan></text><text class="cls-5" transform="translate(143.12 834.52)">i<tspan class="cls-11" x="4.52" y="0">n</tspan><tspan class="cls-22" x="15.18" y="0">v</tspan><tspan x="24.12" y="0">i</tspan><tspan class="cls-25" x="28.64" y="0">t</tspan><tspan x="34" y="0">e</tspan></text><text class="cls-5" transform="translate(267.38 708.89)">h<tspan class="cls-11" x="10.78" y="0">av</tspan><tspan class="cls-38" x="29.8" y="0">e</tspan></text><text class="cls-5" transform="translate(660.63 506.86)">pe<tspan class="cls-32" x="21.82" y="0">c</tspan><tspan class="cls-36" x="32.44" y="0">k</tspan><tspan x="42.74" y="0">palit</tspan></text><text class="cls-5" transform="translate(191.7 882.83)"><tspan class="cls-11">v</tspan><tspan x="8.7" y="0">e</tspan><tspan class="cls-39" x="19.28" y="0">r</tspan><tspan x="26.86" y="0">y</tspan></text><text class="cls-5" transform="translate(555.63 715.42)"><tspan class="cls-31">f</tspan><tspan class="cls-40" x="5.24" y="0">a</tspan><tspan x="15.7" y="0">shion</tspan></text><text class="cls-35" transform="translate(793.78 701.04)">ตโช</text><text class="cls-5" transform="translate(710.84 762.04)">pe<tspan class="cls-32" x="21.82" y="0">c</tspan><tspan x="32.44" y="0">k</tspan></text><text class="cls-5" transform="translate(786.91 742.11)">see</text><text class="cls-5" transform="translate(753.88 764.86)">l<tspan class="cls-12" x="4.52" y="0">o</tspan><tspan class="cls-11" x="15.34" y="0">v</tspan><tspan x="24.04" y="0">e</tspan></text><text class="cls-5" transform="translate(769.36 646.86)"><tspan class="cls-30">t</tspan><tspan class="cls-9" x="5.62" y="0">han</tspan><tspan class="cls-41" x="37.62" y="0">k</tspan><tspan x="47.56" y="0">s</tspan></text><text class="cls-5" transform="translate(674.42 713.74)"><tspan class="cls-32">c</tspan><tspan x="10.62" y="0">ome</tspan></text><text class="cls-5" transform="translate(692 645.15)">s<tspan class="cls-42" x="9.72" y="0">t</tspan><tspan class="cls-43" x="15.8" y="0">y</tspan><tspan x="25.48" y="0">le</tspan></text><text class="cls-5" transform="translate(732.21 626.6)">when</text><text class="cls-5" transform="translate(1037.1 140.84)">ba<tspan class="cls-26" x="21.72" y="0">c</tspan><tspan class="cls-41" x="32.34" y="0">k</tspan><tspan class="cls-9" x="42.28" y="0">s</tspan><tspan class="cls-44" x="52" y="0">t</tspan><tspan class="cls-12" x="57.6" y="0">a</tspan><tspan class="cls-40" x="67.86" y="0">g</tspan><tspan x="78.84" y="0">e</tspan></text><text class="cls-5" transform="translate(874.23 167.55)">pe<tspan class="cls-23" x="21.82" y="0">r</tspan><tspan class="cls-27" x="29.32" y="0">f</tspan><tspan x="34.52" y="0">ect</tspan></text><text class="cls-5" transform="translate(896.47 129.79)">pic<tspan class="cls-26" x="26.34" y="0">t</tspan><tspan class="cls-9" x="31.82" y="0">u</tspan><tspan class="cls-15" x="42.6" y="0">r</tspan><tspan class="cls-18" x="49.4" y="0">e</tspan></text><text class="cls-5" transform="translate(921.87 220.35)">aist</text><text class="cls-5" transform="translate(952.42 95.01)"><tspan class="cls-40">g</tspan><tspan class="cls-20" x="10.98" y="0">e</tspan><tspan x="21.52" y="0">t</tspan></text><text class="cls-5" transform="translate(1025.57 96.6)">si<tspan class="cls-25" x="14.24" y="0">n</tspan><tspan class="cls-40" x="24.94" y="0">g</tspan><tspan x="35.92" y="0">er</tspan></text><text class="cls-5" transform="translate(1049.63 49.76)"><tspan class="cls-30">t</tspan><tspan class="cls-15" x="5.62" y="0">r</tspan><tspan class="cls-25" x="12.42" y="0">e</tspan><tspan class="cls-24" x="22.92" y="0">a</tspan><tspan class="cls-45" x="33.34" y="0">t</tspan><tspan x="38.96" y="0">ment</tspan></text><text class="cls-5" transform="translate(982.47 71.7)"><tspan class="cls-26">c</tspan><tspan x="10.62" y="0">ho</tspan><tspan class="cls-46" x="32.4" y="0">k</tspan><tspan class="cls-18" x="42.18" y="0">e</tspan></text><text class="cls-5" transform="translate(1043.51 221.73)">h<tspan class="cls-47" x="10.78" y="0">a</tspan><tspan x="21.24" y="0">sh</tspan><tspan class="cls-44" x="41.74" y="0">t</tspan><tspan class="cls-12" x="47.34" y="0">a</tspan><tspan x="57.6" y="0">g</tspan></text><text class="cls-5" transform="translate(1071.08 181.01)"><tspan class="cls-31">w</tspan><tspan x="13.42" y="0">orl</tspan><tspan class="cls-13" x="35.9" y="0">d</tspan><tspan class="cls-22" x="47.28" y="0">w</tspan><tspan class="cls-9" x="60.88" y="0">ide</tspan></text><text class="cls-5" transform="translate(883.2 78.36)"><tspan class="cls-12">r</tspan><tspan class="cls-20" x="6.78" y="0">o</tspan><tspan x="17.74" y="0">w</tspan></text><text class="cls-5" transform="translate(1000.76 14.77)">f<tspan class="cls-12" x="5.3" y="0">r</tspan><tspan x="12.08" y="0">ont</tspan></text><text class="cls-5" transform="translate(929.93 31.05)"><tspan class="cls-25">t</tspan><tspan x="5.36" y="0">op</tspan></text><text class="cls-5" transform="translate(1088.26 110.96)">in<tspan class="cls-48" x="15.3" y="0">f</tspan><tspan x="20.68" y="0">luen</tspan><tspan class="cls-26" x="57.34" y="0">c</tspan><tspan class="cls-18" x="67.96" y="0">er</tspan></text></g></g></svg>