<svg id="Layer_1" data-name="Layer 1" xmlns="http://www.w3.org/2000/svg" viewBox="0 0 1555 1141"><defs><style>.cls-1,.cls-2,.cls-3,.cls-4,.cls-5,.cls-6{fill:none;}.cls-1{stroke:#fc2130;}.cls-2{stroke:#8929a9;}.cls-3{stroke:#5dd8a0;}.cls-4{stroke:#11c574;}.cls-5{stroke:#8724fb;}.cls-6{stroke:#fd8326;}.cls-15,.cls-42,.cls-51,.cls-52,.cls-60,.cls-7{isolation:isolate;font-size:20px;}.cls-42,.cls-51,.cls-52,.cls-60,.cls-7{font-family:NimbusSan-Reg, Nimbus Sans;}.cls-8{letter-spacing:0em;}.cls-9{letter-spacing:0em;}.cls-10{letter-spacing:0.01em;}.cls-11{letter-spacing:-0.01em;}.cls-12{letter-spacing:0em;}.cls-13{letter-spacing:0em;}.cls-14{letter-spacing:0.01em;}.cls-15{font-family:AdobeMyungjoStd-Medium-KSCpc-EUC-H, Adobe Myungjo Std;}.cls-16{letter-spacing:0em;}.cls-17,.cls-60{letter-spacing:0em;}.cls-18{letter-spacing:0em;}.cls-19{letter-spacing:-0.02em;}.cls-20{letter-spacing:-0.01em;}.cls-21{letter-spacing:0.01em;}.cls-22{letter-spacing:0.03em;}.cls-23{letter-spacing:0.04em;}.cls-24{letter-spacing:0.03em;}.cls-25{letter-spacing:0.01em;}.cls-26{letter-spacing:0em;}.cls-27{letter-spacing:0em;}.cls-28{letter-spacing:0em;}.cls-29,.cls-42{letter-spacing:0.01em;}.cls-30{letter-spacing:0em;}.cls-31{letter-spacing:0em;}.cls-32{letter-spacing:0em;}.cls-33,.cls-52{letter-spacing:-0.01em;}.cls-34{letter-spacing:-0.01em;}.cls-35{letter-spacing:-0.01em;}.cls-36{letter-spacing:0em;}.cls-37{letter-spacing:-0.01em;}.cls-38{letter-spacing:0em;}.cls-39{letter-spacing:0.01em;}.cls-40{letter-spacing:-0.01em;}.cls-41{letter-spacing:-0.01em;}.cls-43{letter-spacing:-0.02em;}.cls-44{letter-spacing:0em;}.cls-45{letter-spacing:0.03em;}.cls-46{letter-spacing:0em;}.cls-47{letter-spacing:0.03em;}.cls-48{letter-spacing:0em;}.cls-49{letter-spacing:0em;}.cls-50{letter-spacing:0.01em;}.cls-51,.cls-59{letter-spacing:-0.01em;}.cls-53{letter-spacing:-0.01em;}.cls-54{letter-spacing:0em;}.cls-55{letter-spacing:0.01em;}.cls-56{letter-spacing:0.01em;}.cls-57{letter-spacing:-0.01em;}.cls-58{letter-spacing:0em;}.cls-61{letter-spacing:-0.01em;}</style></defs><g id="edges"><path class="cls-1" d="M919.37,126.94c2.06,15.22-17.69,41.15-32.92,43.21"/><path class="cls-1" d="M919.37,126.94c18.07-19.91,75-22.68,95-4.61"/><path class="cls-1" d="M919.37,126.94c-61.7,88.62-287.17,129-375.79,67.32"/><path class="cls-1" d="M919.37,126.94c-19.6-23.72-13.43-88.7,10.29-108.3"/><path class="cls-1" d="M919.37,126.94c-7.7-30.34,26.26-87.41,56.6-95.11"/><path class="cls-1" d="M919.37,126.94c-12.9,10.84-48.51,7.74-59.35-5.16"/><path class="cls-1" d="M919.37,126.94c-1.58-18.61,24-48.88,42.58-50.45"/><path class="cls-1" d="M919.37,126.94c5.92-30.83,61-68.19,91.88-62.26"/><path class="cls-1" d="M919.37,126.94c56,117-35.48,376.34-152.43,432.31"/><path class="cls-1" d="M919.37,126.94c-20.16,3.08-55-22.56-58.1-42.72"/><path class="cls-1" d="M919.37,126.94c-53.55,70.7-239.92,96.43-310.62,42.89"/><path class="cls-1" d="M919.37,126.94c16.37,2.68,36.9,31.26,34.22,47.63"/><path class="cls-1" d="M919.37,126.94C1024.2,169.26,1118,390,1075.65,494.84"/><path class="cls-1" d="M919.37,126.94c53.86,64.09,38.5,241-25.59,294.87"/><path class="cls-1" d="M919.37,126.94c7.84-17.42,45.74-31.79,63.16-23.94"/><path class="cls-1" d="M919.37,126.94c34.16,72.54-23.4,232.61-95.94,266.77"/><path class="cls-1" d="M919.37,126.94c-11.8-15.06-6.92-55.36,8.15-67.17"/><path class="cls-1" d="M919.37,126.94c-15.81-6.24-30.16-39.3-23.92-55.1"/><path class="cls-1" d="M919.37,126.94c-26.15-10.66-49.39-65.88-38.73-92"/><path class="cls-1" d="M919.37,126.94c17.81-7.77,56.19,7.29,64,25.11"/><path class="cls-2" d="M886.78,590.25c-30.17,17.77-102.07-.83-119.84-31"/><path class="cls-2" d="M886.78,590.25c18.69-56.86,132-114.1,188.87-95.41"/><path class="cls-3" d="M886.78,590.25c12.11-24,66.35-41.93,90.39-29.82"/><path class="cls-2" d="M886.78,590.25c20,45.17-17.85,142.88-63,162.85"/><path class="cls-2" d="M886.78,590.25c-4.75,13.63-32.31,27-45.95,22.24"/><path class="cls-2" d="M886.78,590.25c72.62-31.56,228.9,30,260.46,102.67"/><path class="cls-2" d="M886.78,590.25c2.33,13.38-14.23,37-27.61,39.29"/><path class="cls-2" d="M886.78,590.25c-1-13.94,18.4-36.34,32.34-37.34"/><path class="cls-2" d="M886.78,590.25c15.31-10.67,54.28-3.7,65,11.61"/><path class="cls-2" d="M886.78,590.25c-7.75-12.55-.54-43,12-50.72"/><path class="cls-2" d="M886.78,590.25c-32.29-35.09-28.09-136.15,7-168.44"/><path class="cls-2" d="M886.78,590.25c8.24-9.34,34.6-11,43.94-2.74"/><path class="cls-2" d="M886.78,590.25c-10.73,7.52-38.1,2.71-45.63-8"/><path class="cls-2" d="M886.78,590.25c15.31-1.45,40.46,19.34,41.91,34.66"/><path class="cls-2" d="M886.78,590.25c-12.42-6.81-20.83-35.66-14-48.08"/><path class="cls-2" d="M886.78,590.25c14.73,5.53,28.55,35.93,23,50.67"/><path class="cls-2" d="M886.78,590.25c35.57,50,14,178.25-36,213.82"/><path class="cls-2" d="M886.78,590.25c-14.25.36-36.15-20.47-36.51-34.72"/><path class="cls-2" d="M886.78,590.25c9.58,11,7.48,41.82-3.5,51.4"/><path class="cls-2" d="M886.78,590.25c24.66,62.22-31.67,192.56-93.89,217.23"/><path class="cls-4" d="M1344.9,806.94c-116.27-8.57-277.82-195.83-269.25-312.1"/><path class="cls-4" d="M1344.9,806.94C1179.77,873,833,724.38,766.94,559.25"/><path class="cls-4" d="M1344.9,806.94c17.07,5.72,34.11,39.9,28.4,57"/><path class="cls-4" d="M1344.9,806.94c19.46-4.42,55.29,18.15,59.71,37.61"/><path class="cls-4" d="M1344.9,806.94c-20.77,69.66-156.42,143-226.08,122.24"/><path class="cls-4" d="M1344.9,806.94c-62.34,16.73-180.94-51.68-197.66-114"/><path class="cls-4" d="M1344.9,806.94c25-16.32,87.09-3.24,103.41,21.8"/><path class="cls-4" d="M1344.9,806.94c4.63-27.83,53.32-62.62,81.15-58"/><path class="cls-4" d="M1344.9,806.94C1177.65,820.14,907,589.06,893.78,421.81"/><path class="cls-4" d="M1344.9,806.94c-12.49-10.85-15-45.87-4.12-58.36"/><path class="cls-4" d="M1344.9,806.94c-6.56-19.22,12.43-57.89,31.65-64.45"/><path class="cls-4" d="M1344.9,806.94c17.88-25.22,82.52-36.23,107.74-18.36"/><path class="cls-4" d="M1344.9,806.94c29.51,6.75,63.64,61.12,56.9,90.62"/><path class="cls-4" d="M1344.9,806.94c31.39-5.32,86.47,33.78,91.79,65.17"/><path class="cls-4" d="M1344.9,806.94c19.95,17.16,24.15,72.82,7,92.77"/><path class="cls-4" d="M1344.9,806.94c8.12,16.23-4.05,52.75-20.28,60.86"/><path class="cls-4" d="M1344.9,806.94c12.61-12.51,50.27-12.36,62.78.25"/><path class="cls-4" d="M1344.9,806.94c-4.42,15.12-33.73,31.18-48.85,26.76"/><path class="cls-4" d="M1344.9,806.94c3.65-17.2,34.92-37.52,52.11-33.88"/><path class="cls-4" d="M1344.9,806.94c-27.93,87.18-200.61,176-287.79,148.11"/><path class="cls-5" d="M265,301.17c-8.1,15.77-43.91,27.26-59.67,19.15"/><path class="cls-5" d="M265,301.17c42.48-95,248.71-173.82,343.73-131.34"/><path class="cls-5" d="M265,301.17c34.33-77.09,201.46-141.24,278.56-106.91"/><path class="cls-5" d="M265,301.17c-19.13,22.11-81,26.58-103.11,7.44"/><path class="cls-5" d="M265,301.17c-16.4,8.18-53.26-4.16-61.44-20.56"/><path class="cls-5" d="M265,301.17c4.41,16.34-13.5,47.45-29.84,51.85"/><path class="cls-5" d="M265,301.17c-28.35-1-69.42-45-68.45-73.33"/><path class="cls-5" d="M265,301.17c-11.24-14.09-7-52.08,7.12-63.32"/><path class="cls-5" d="M265,301.17c-17.37-2.69-39.4-32.8-36.7-50.18"/><path class="cls-5" d="M265,301.17C417,252.4,718.17,407.25,766.94,559.25"/><path class="cls-5" d="M265,301.17c11.39-12.4,47.07-13.93,59.47-2.54"/><path class="cls-5" d="M265,301.17c16.76,9.83,27.15,49.71,17.32,66.47"/><path class="cls-5" d="M265,301.17c17.91-.56,45.61,25.46,46.17,43.36"/><path class="cls-5" d="M265,301.17c-27.68,13.06-88.79-8.88-101.85-36.57"/><path class="cls-5" d="M265,301.17c13.91,21.29,2.84,74.08-18.45,88"/><path class="cls-5" d="M265,301.17C414.9,199.55,792.16,271.93,893.78,421.81"/><path class="cls-5" d="M265,301.17c-1.44-18.39,24-48.14,42.38-49.58"/><path class="cls-5" d="M265,301.17c2.7,28.47-36,75.23-64.43,77.93"/><path class="cls-5" d="M265,301.17c-21.62-14.15-32.84-67.8-18.69-89.43"/><path class="cls-5" d="M265,301.17c-8.75,29.34-65.89,60.21-95.22,51.46"/><path class="cls-6" d="M776.9,987.93c-87.73-83.75-93.7-340.95-10-428.68"/><path class="cls-6" d="M776.9,987.93c18.89,19.39,18.14,76.81-1.25,95.71"/><path class="cls-6" d="M776.9,987.93c-109.54-128.15-81.62-484.68,46.53-594.22"/><path class="cls-6" d="M776.9,987.93c-32.89-39.29-23.3-147.56,16-180.45"/><path class="cls-6" d="M776.9,987.93c-16.28,8.87-54-2.22-62.89-18.5"/><path class="cls-6" d="M776.9,987.93c-5.07,17-38.12,34.78-55.08,29.71"/><path class="cls-6" d="M776.9,987.93c49.47-62.62,217.59-82.35,280.21-32.88"/><path class="cls-6" d="M776.9,987.93c-22-51.56,22.36-161.87,73.92-183.86"/><path class="cls-6" d="M776.9,987.93c13.38-9.59,47.84-3.89,57.43,9.49"/><path class="cls-6" d="M776.9,987.93c20.05-.69,51.15,28.35,51.84,48.4"/><path class="cls-6" d="M776.9,987.93c-10.2,27.72-67.08,54-94.81,43.83"/><path class="cls-6" d="M776.9,987.93c-18.08,18.71-73.27,19.68-92,1.6"/><path class="cls-6" d="M776.9,987.93c1.91,31.23-42.06,80.94-73.29,82.86"/><path class="cls-6" d="M776.9,987.93c14.4,30.29-9.42,97.33-39.72,111.74"/><path class="cls-6" d="M776.9,987.93c26.53,9.91,51.46,64.58,41.54,91.11"/><path class="cls-6" d="M776.9,987.93c-37.59-56.34-9.48-197.24,46.86-234.83"/><path class="cls-6" d="M776.9,987.93c56.63-80.14,261.79-115.39,341.92-58.75"/><path class="cls-6" d="M776.9,987.93c-16.15-2-37.36-29.26-35.35-45.4"/><path class="cls-6" d="M776.9,987.93c14.17,9.56,21.07,45.15,11.51,59.32"/></g><text class="cls-7" transform="translate(835.22 172.53)">milan<tspan class="cls-8" x="45.76" y="0">f</tspan><tspan class="cls-9" x="51" y="0">a</tspan><tspan x="61.46" y="0">shion</tspan><tspan class="cls-8" x="108.26" y="0">w</tspan><tspan x="121.68" y="0">eek</tspan></text><text class="cls-7" transform="translate(1009.31 124.68)">iu</text><text class="cls-7" transform="translate(535.34 196.6)">i<tspan class="cls-10" x="4.52" y="0">u</tspan><tspan x="15.44" y="0">x</tspan></text><text class="cls-7" transform="translate(922.49 20.99)">do</text><text class="cls-7" transform="translate(953.75 34.81)">le<tspan class="cls-11" x="15.1" y="0">e</tspan><tspan x="25.54" y="0">jieun</tspan></text><text class="cls-7" transform="translate(853.58 124.8)"><tspan class="cls-12">f</tspan><tspan class="cls-13" x="5.38" y="0">l</tspan><tspan x="10" y="0">y</tspan></text><text class="cls-7" transform="translate(950.84 78.83)"><tspan class="cls-13">k</tspan><tspan x="10.3" y="0">i</tspan><tspan class="cls-14" x="14.82" y="0">s</tspan><tspan x="24.7" y="0">s</tspan></text><text class="cls-15" transform="translate(996.75 67.49)">이지은</text><text class="cls-7" transform="translate(746.15 561.64)"><tspan class="cls-8">f</tspan><tspan class="cls-16" x="5.24" y="0">a</tspan><tspan x="15.7" y="0">shion</tspan></text><text class="cls-7" transform="translate(838.34 86.57)">sn<tspan class="cls-17" x="20.5" y="0">e</tspan><tspan class="cls-18" x="31" y="0">a</tspan><tspan class="cls-19" x="41.44" y="0">k</tspan><tspan x="51.22" y="0">er</tspan></text><text class="cls-7" transform="translate(597.99 172.81)">b<tspan class="cls-20" x="11.28" y="0">a</tspan><tspan class="cls-18" x="21.54" y="0">g</tspan></text><text class="cls-7" transform="translate(936.4 188.38)">l<tspan class="cls-21" x="4.52" y="0">u</tspan><tspan x="15.44" y="0">xu</tspan><tspan class="cls-22" x="35.68" y="0">r</tspan><tspan x="43.26" y="0">y</tspan></text><text class="cls-7" transform="translate(1063.83 497.19)">m<tspan class="cls-23" x="15.5" y="0">f</tspan><tspan x="21.5" y="0">w</tspan></text><text class="cls-7" transform="translate(880.53 424.8)">s<tspan class="cls-24" x="9.72" y="0">t</tspan><tspan class="cls-25" x="15.8" y="0">y</tspan><tspan class="cls-26" x="25.48" y="0">le</tspan></text><text class="cls-7" transform="translate(962.1 105.34)"><tspan class="cls-27">c</tspan><tspan x="10.62" y="0">l</tspan><tspan class="cls-28" x="15.14" y="0">o</tspan><tspan class="cls-29" x="26.1" y="0">t</tspan><tspan class="cls-26" x="31.72" y="0">hes</tspan></text><text class="cls-7" transform="translate(809.45 396.06)">shoe</text><text class="cls-7" transform="translate(911.39 62.12)">pu<tspan class="cls-27" x="22.02" y="0">r</tspan><tspan x="29.02" y="0">se</tspan></text><text class="cls-7" transform="translate(881.47 74.79)">shop</text><text class="cls-7" transform="translate(854.47 37.89)">shoppi<tspan class="cls-17" x="58.5" y="0">n</tspan><tspan x="69.2" y="0">g</tspan></text><text class="cls-7" transform="translate(967.91 154.99)">pie<tspan class="cls-27" x="26.34" y="0">c</tspan><tspan class="cls-30" x="36.96" y="0">e</tspan></text><text class="cls-7" transform="translate(966.43 562.78)">dior</text><text class="cls-7" transform="translate(804.76 755.44)"><tspan class="cls-27">c</tspan><tspan x="10.62" y="0">hanel</tspan></text><text class="cls-7" transform="translate(826.86 614.87)"><tspan class="cls-31">f</tspan><tspan x="5.2" y="0">endi</tspan></text><text class="cls-7" transform="translate(1132.19 695.26)">sh<tspan class="cls-32" x="20.5" y="0">o</tspan><tspan class="cls-26" x="31.46" y="0">w</tspan></text><text class="cls-7" transform="translate(800.5 640.92)"><tspan class="cls-8">f</tspan><tspan class="cls-16" x="5.24" y="0">a</tspan><tspan x="15.7" y="0">shionis</tspan><tspan class="cls-14" x="76.74" y="0">t</tspan><tspan class="cls-26" x="82.34" y="0">a</tspan></text><text class="cls-7" transform="translate(906.93 555.9)"><tspan class="cls-16">g</tspan><tspan x="10.98" y="0">old</tspan></text><text class="cls-7" transform="translate(926.29 604.84)">g<tspan class="cls-13" x="10.96" y="0">i</tspan><tspan class="cls-33" x="15.58" y="0">v</tspan><tspan x="24.28" y="0">en</tspan><tspan class="cls-27" x="45.64" y="0">c</tspan><tspan class="cls-34" x="56.26" y="0">h</tspan><tspan x="66.76" y="0">y</tspan></text><text class="cls-7" transform="translate(890.91 542.51)"><tspan class="cls-35">y</tspan><tspan x="9.44" y="0">sl</tspan></text><text class="cls-7" transform="translate(917.82 589.85)">rhoa</text><text class="cls-7" transform="translate(835.07 585.22)">kjl</text><text class="cls-7" transform="translate(903.97 627.2)"><tspan class="cls-28">e</tspan><tspan class="cls-29" x="10.54" y="0">t</tspan><tspan x="16.16" y="0">rus</tspan><tspan class="cls-36" x="43.62" y="0">c</tspan><tspan class="cls-26" x="54.24" y="0">an</tspan></text><text class="cls-7" transform="translate(846.97 530.11)"><tspan class="cls-27">c</tspan><tspan x="10.62" y="0">ali</tspan><tspan class="cls-37" x="30.1" y="0">f</tspan><tspan class="cls-38" x="35.24" y="0">ornia</tspan></text><text class="cls-7" transform="translate(840.83 797.65)"><tspan class="cls-25">v</tspan><tspan x="8.94" y="0">in</tspan><tspan class="cls-39" x="24.24" y="0">t</tspan><tspan class="cls-40" x="29.84" y="0">a</tspan><tspan class="cls-16" x="40.1" y="0">g</tspan><tspan x="51.08" y="0">e</tspan></text><text class="cls-7" transform="translate(826.27 557.88)"><tspan class="cls-25">v</tspan><tspan x="8.94" y="0">ic</tspan><tspan class="cls-17" x="24.04" y="0">t</tspan><tspan x="29.4" y="0">orian</tspan></text><text class="cls-7" transform="translate(849.23 658.03)">donna<tspan class="cls-41" x="54.28" y="0">k</tspan><tspan class="cls-26" x="64.36" y="0">a</tspan><tspan class="cls-33" x="74.8" y="0">r</tspan><tspan x="81.64" y="0">an</tspan></text><text class="cls-7" transform="translate(768.16 810.46)">designer</text><text class="cls-7" transform="translate(1359.68 866.29)"><tspan class="cls-23">f</tspan><tspan x="6" y="0">w20</tspan></text><text class="cls-42" transform="translate(1381.68 846.89)">t<tspan class="cls-26" x="5.62" y="0">heri</tspan><tspan class="cls-27" x="38.46" y="0">t</tspan><tspan class="cls-26" x="43.94" y="0">ual</tspan></text><text class="cls-7" transform="translate(1098.04 930.92)"><tspan class="cls-8">w</tspan><tspan x="13.42" y="0">oman</tspan></text><text class="cls-7" transform="translate(1440.07 831.12)"><tspan class="cls-8">f</tspan><tspan x="5.24" y="0">all</tspan></text><text class="cls-7" transform="translate(1405.63 751.29)">a<tspan class="cls-43" x="10.44" y="0">k</tspan><tspan x="20.22" y="0">elldn</tspan></text><text class="cls-7" transform="translate(1325.38 750.92)">milan</text><text class="cls-7" transform="translate(1378.58 729.41)"><tspan class="cls-12">f</tspan><tspan x="5.38" y="0">inale</tspan></text><text class="cls-7" transform="translate(1442.25 791.61)">m<tspan class="cls-23" x="15.5" y="0">f</tspan><tspan x="21.5" y="0">y</tspan></text><text class="cls-7" transform="translate(1373.5 900.55)">ins<tspan class="cls-14" x="25.02" y="0">t</tspan><tspan class="cls-20" x="30.62" y="0">a</tspan><tspan class="cls-44" x="40.88" y="0">g</tspan><tspan class="cls-33" x="51.9" y="0">r</tspan><tspan class="cls-26" x="58.74" y="0">am</tspan></text><text class="cls-7" transform="translate(1424.87 874.46)">look</text><text class="cls-7" transform="translate(1310.49 911.03)">o<tspan class="cls-22" x="11" y="0">f</tspan><tspan class="cls-45" x="16.92" y="0">f</tspan><tspan class="cls-26" x="22.92" y="0">whi</tspan><tspan class="cls-17" x="51.7" y="0">t</tspan><tspan x="57.06" y="0">e</tspan></text><text class="cls-7" transform="translate(1286.83 878.89)"><tspan class="cls-29">t</tspan><tspan class="cls-33" x="5.62" y="0">r</tspan><tspan class="cls-26" x="12.46" y="0">aps</tspan><tspan class="cls-14" x="43.86" y="0">t</tspan><tspan x="49.46" y="0">ar</tspan></text><text class="cls-7" transform="translate(1373.28 809.57)">ins<tspan class="cls-14" x="25.02" y="0">t</tspan><tspan x="30.62" y="0">a</tspan><tspan class="cls-8" x="41.06" y="0">f</tspan><tspan class="cls-46" x="46.3" y="0">a</tspan><tspan x="56.76" y="0">shion</tspan></text><text class="cls-7" transform="translate(1260.22 836.09)"><tspan class="cls-8">f</tspan><tspan class="cls-46" x="5.24" y="0">a</tspan><tspan x="15.7" y="0">shion</tspan><tspan class="cls-8" x="62.5" y="0">w</tspan><tspan x="75.92" y="0">eek</tspan></text><text class="cls-7" transform="translate(1378.02 776.05)">design</text><text class="cls-7" transform="translate(1024.86 957.39)">loui<tspan class="cls-17" x="30.82" y="0">s</tspan><tspan class="cls-25" x="40.46" y="0">v</tspan><tspan x="49.4" y="0">ui</tspan><tspan class="cls-47" x="64.7" y="0">t</tspan><tspan class="cls-17" x="70.68" y="0">t</tspan><tspan x="76.04" y="0">on</tspan></text><text class="cls-7" transform="translate(176.5 330.89)">l<tspan class="cls-48" x="4.52" y="0">e</tspan><tspan class="cls-49" x="15.02" y="0">a</tspan><tspan class="cls-50" x="25.44" y="0">t</tspan><tspan x="31.06" y="0">her</tspan></text><text class="cls-7" transform="translate(119.63 311.63)"><tspan class="cls-8">f</tspan><tspan class="cls-16" x="5.24" y="0">a</tspan><tspan x="15.7" y="0">shionblog</tspan><tspan class="cls-16" x="100.26" y="0">g</tspan><tspan x="111.24" y="0">er</tspan></text><text class="cls-7" transform="translate(188.54 282.95)">bla<tspan class="cls-27" x="26.24" y="0">c</tspan><tspan class="cls-38" x="36.86" y="0">k</tspan></text><text class="cls-51" transform="translate(225.86 355.37)">r<tspan class="cls-38" x="6.8" y="0">ed</tspan></text><text class="cls-52" transform="translate(171.13 230.18)">a<tspan class="cls-53" x="10.32" y="0">v</tspan><tspan class="cls-18" x="18.94" y="0">ailable</tspan></text><text class="cls-7" transform="translate(247.41 240.19)">shoulder</text><text class="cls-7" transform="translate(214.35 253.34)"><tspan class="cls-54">c</tspan><tspan x="10.62" y="0">olor</tspan></text><text class="cls-7" transform="translate(307.28 300.97)">online</text><text class="cls-7" transform="translate(263.34 369.98)"><tspan class="cls-12">s</tspan><tspan x="9.8" y="0">andal</tspan></text><text class="cls-7" transform="translate(295.07 347.52)"><tspan class="cls-20">s</tspan><tspan class="cls-55" x="9.54" y="0">y</tspan><tspan class="cls-56" x="19.22" y="0">l</tspan><tspan class="cls-55" x="23.84" y="0">v</tspan><tspan x="32.78" y="0">ie</tspan></text><text class="cls-7" transform="translate(147.76 266.89)"><tspan class="cls-57">e</tspan><tspan class="cls-33" x="10.3" y="0">x</tspan><tspan x="19.64" y="0">act</tspan></text><text class="cls-7" transform="translate(223.29 392.14)">pl<tspan class="cls-49" x="15.76" y="0">a</tspan><tspan x="26.18" y="0">t</tspan><tspan class="cls-37" x="31.62" y="0">f</tspan><tspan x="36.76" y="0">orm</tspan></text><text class="cls-7" transform="translate(290.91 254.54)">p<tspan class="cls-33" x="11.24" y="0">r</tspan><tspan x="18.08" y="0">ada</tspan></text><text class="cls-7" transform="translate(191.63 382.03)"><tspan class="cls-16">g</tspan><tspan class="cls-58" x="10.98" y="0">e</tspan><tspan x="21.52" y="0">t</tspan></text><text class="cls-7" transform="translate(234.5 213.49)">n<tspan class="cls-28" x="10.78" y="0">o</tspan><tspan class="cls-18" x="21.74" y="0">w</tspan></text><text class="cls-7" transform="translate(152.6 354.97)"><tspan class="cls-55">w</tspan><tspan x="13.6" y="0">in</tspan><tspan class="cls-17" x="28.9" y="0">t</tspan><tspan x="34.26" y="0">er</tspan></text><text class="cls-7" transform="translate(758.81 1086.62)">ja<tspan class="cls-27" x="15.2" y="0">c</tspan><tspan class="cls-19" x="25.82" y="0">k</tspan><tspan class="cls-28" x="35.6" y="0">e</tspan><tspan x="46.14" y="0">t</tspan></text><text class="cls-7" transform="translate(688.92 972.41)">handb<tspan class="cls-40" x="54.56" y="0">a</tspan><tspan x="64.82" y="0">g</tspan></text><text class="cls-7" transform="translate(700.69 1019.99)">c<tspan class="cls-20" x="10.58" y="0">r</tspan><tspan x="17.36" y="0">o</tspan><tspan class="cls-54" x="28.36" y="0">c</tspan><tspan x="38.98" y="0">h</tspan><tspan class="cls-58" x="49.76" y="0">e</tspan><tspan class="cls-18" x="60.3" y="0">t</tspan></text><text class="cls-7" transform="translate(819.64 999.76)"><tspan class="cls-29">t</tspan><tspan class="cls-59" x="5.62" y="0">r</tspan><tspan x="12.42" y="0">end</tspan></text><text class="cls-60" transform="translate(819.78 1039.23)">t<tspan class="cls-18" x="5.36" y="0">op</tspan></text><text class="cls-7" transform="translate(670.27 1034.69)"><tspan class="cls-28">e</tspan><tspan class="cls-44" x="10.54" y="0">t</tspan><tspan class="cls-20" x="16.04" y="0">s</tspan><tspan x="25.58" y="0">y</tspan></text><text class="cls-7" transform="translate(669.15 991.28)">mens</text><text class="cls-7" transform="translate(687.12 1073.13)">b<tspan class="cls-33" x="11.28" y="0">r</tspan><tspan x="18.12" y="0">and</tspan></text><text class="cls-7" transform="translate(715.69 1102.01)">hermes</text><text class="cls-7" transform="translate(806.26 1081.33)"><tspan class="cls-27">c</tspan><tspan x="10.62" y="0">o</tspan><tspan class="cls-49" x="21.62" y="0">a</tspan><tspan class="cls-18" x="32.04" y="0">t</tspan></text><text class="cls-7" transform="translate(716.47 945.51)">ai<tspan class="cls-61" x="14.96" y="0">r</tspan><tspan x="21.82" y="0">jo</tspan><tspan class="cls-31" x="37.58" y="0">r</tspan><tspan x="44.44" y="0">dan</tspan></text><text class="cls-7" transform="translate(767.62 1049.59)">auc<tspan class="cls-29" x="31.8" y="0">t</tspan><tspan x="37.42" y="0">ion</tspan></text></svg>