<svg id="Layer_1" data-name="Layer 1" xmlns="http://www.w3.org/2000/svg" viewBox="0 0 1555 1141"><defs><style>.cls-1,.cls-10,.cls-11,.cls-12{fill:none;}.cls-1{stroke:#16c677;}.cls-2,.cls-28,.cls-32,.cls-43,.cls-44{isolation:isolate;font-size:20px;font-family:NimbusSan-Reg, Nimbus Sans;}.cls-3{letter-spacing:0em;}.cls-4{letter-spacing:0.04em;}.cls-5{letter-spacing:-0.01em;}.cls-6{letter-spacing:0em;}.cls-7{letter-spacing:0.02em;}.cls-8{letter-spacing:0em;}.cls-9{letter-spacing:0em;}.cls-10{stroke:#8929a9;}.cls-11{stroke:#11c574;}.cls-12{stroke:#fd8326;}.cls-13{letter-spacing:-0.01em;}.cls-14,.cls-43{letter-spacing:0em;}.cls-15{letter-spacing:0em;}.cls-16{letter-spacing:-0.01em;}.cls-17{letter-spacing:-0.01em;}.cls-18{letter-spacing:-0.01em;}.cls-19{letter-spacing:0em;}.cls-20,.cls-32{letter-spacing:-0.02em;}.cls-21{letter-spacing:0.03em;}.cls-22{letter-spacing:0em;}.cls-23{letter-spacing:0.01em;}.cls-24{letter-spacing:0em;}.cls-25{letter-spacing:0.04em;}.cls-26{letter-spacing:0em;}.cls-27{letter-spacing:0em;}.cls-28,.cls-34{letter-spacing:0em;}.cls-29{letter-spacing:0.03em;}.cls-30{letter-spacing:0em;}.cls-31{letter-spacing:0.03em;}.cls-33{letter-spacing:0.01em;}.cls-35{letter-spacing:0em;}.cls-36{letter-spacing:-0.01em;}.cls-37{letter-spacing:-0.01em;}.cls-38{letter-spacing:0.01em;}.cls-39{letter-spacing:-0.01em;}.cls-40{letter-spacing:0em;}.cls-41{letter-spacing:0.03em;}.cls-42,.cls-44{letter-spacing:0.01em;}.cls-45{letter-spacing:0.01em;}.cls-46{letter-spacing:0em;}.cls-47{letter-spacing:0.03em;}.cls-48{letter-spacing:0.01em;}.cls-49{letter-spacing:0.03em;}.cls-50{letter-spacing:0em;}.cls-51{letter-spacing:0em;}.cls-52{letter-spacing:-0.01em;}.cls-53{letter-spacing:-0.01em;}.cls-54{letter-spacing:0em;}</style></defs><g id="edges"><path class="cls-1" d="M1267.45,983.85c24.19-30.13,105.67-39,135.79-14.83"/><path class="cls-1" d="M1267.45,983.85c16.63,16.46,16.86,66.11.4,82.73"/><path class="cls-1" d="M1267.45,983.85c42.41-3,110.45,56.24,113.4,98.65"/><path class="cls-1" d="M1267.45,983.85c-38.84,36.55-151.92,33.12-188.47-5.72"/><path class="cls-1" d="M1267.45,983.85c-98.54-28.05-204.27-217.93-176.23-316.47"/><path class="cls-1" d="M1267.45,983.85c-3.16-22.78,26.27-61.7,49-64.86"/><path class="cls-1" d="M1267.45,983.85c8.28,26-18.29,77.38-44.27,85.66"/><path class="cls-1" d="M1267.45,983.85c26.44,7.27,55.19,57.84,47.92,84.28"/><path class="cls-1" d="M1267.45,983.85c26.86,28.25,24.77,110.91-3.48,137.77"/><path class="cls-1" d="M1267.45,983.85c39.85,15.09,77,97.5,61.88,137.34"/><path class="cls-1" d="M1267.45,983.85c8.51-29.84,66-61.83,95.85-53.32"/><text class="cls-2" transform="translate(1328.45 1032.32)">n<tspan class="cls-3" x="10.78" y="0">e</tspan><tspan class="cls-4" x="21.32" y="0">w</tspan><tspan class="cls-5" x="35.54" y="0">y</tspan><tspan class="cls-6" x="44.84" y="0">or</tspan><tspan class="cls-7" x="62.8" y="0">k</tspan><tspan class="cls-8" x="73.48" y="0">f</tspan><tspan class="cls-9" x="78.72" y="0">a</tspan><tspan x="89.18" y="0">shion</tspan><tspan class="cls-8" x="135.98" y="0">w</tspan><tspan x="149.4" y="0">eek</tspan></text><path class="cls-1" d="M1267.45,983.85c-92.43-82.07-108-343.82-25.92-436.25"/><path class="cls-1" d="M1267.45,983.85c-147.63,19.37-398.15-173-417.53-320.65"/><path class="cls-1" d="M1267.45,983.85c-57.87,36-198.7,3.22-234.71-54.65"/><path class="cls-1" d="M1267.45,983.85c16.49-16.74,66.34-17.11,83.08-.62"/><path class="cls-1" d="M1267.45,983.85c-44.07,17.51-136.45-22.32-154-66.39"/><path class="cls-1" d="M1267.45,983.85c36.84-19,120.65,7.65,139.69,44.49"/><path class="cls-1" d="M1267.45,983.85c-64.94,16-186.44-57.29-202.49-122.24"/><path class="cls-1" d="M1267.45,983.85c-52.55,1-132.87-76.33-133.87-128.87"/><path class="cls-10" d="M1066.36,175.06c-7.38-36.49,36.29-102.27,72.77-109.64"/><path class="cls-10" d="M1066.36,175.06c-39.46-8.48-85.94-80.39-77.46-119.85"/><path class="cls-10" d="M1066.36,175.06c-19.65,19.18-77.91,18.49-97.09-1.16"/><path class="cls-10" d="M1066.36,175.06c23.66-8.83,72.38,13.43,81.2,37.09"/><path class="cls-10" d="M1066.36,175.06C1120.7,316,990.84,608.86,849.92,663.2"/><path class="cls-10" d="M1066.36,175.06c-22.62,5.23-64.4-20.85-69.64-43.47"/><path class="cls-10" d="M1066.36,175.06c-9-21.93,10.5-68.24,32.43-77.19"/><path class="cls-10" d="M1066.36,175.06c109.54,39.47,214.65,263,175.17,372.54"/><path class="cls-10" d="M1066.36,175.06c-35.18,11.81-105.68-23.24-117.49-58.42"/><path class="cls-10" d="M1066.36,175.06c-22.35-18.71-27.82-80.31-9.11-102.66"/><path class="cls-10" d="M1066.36,175.06c-23.91-7.57-48.41-54.79-40.84-78.7"/><path class="cls-10" d="M1066.36,175.06c20.6-22.4,85.11-25.1,107.51-4.5"/><path class="cls-10" d="M1066.36,175.06c7.84-21.27,51.5-41.42,72.77-33.58"/><path class="cls-10" d="M1066.36,175.06c-26.91-32.24-18.92-120.94,13.31-147.85"/><path class="cls-10" d="M1066.36,175.06c21.57,6.15,44.7,47.73,38.55,69.3"/><path class="cls-10" d="M1066.36,175.06c103.43,93.49,118.35,388.88,24.86,492.32"/><path class="cls-10" d="M1066.36,175.06c9.7-35.76,77.88-74.84,113.64-65.14"/><path class="cls-10" d="M1066.36,175.06c7.46,20.68-12.36,62.9-33,70.36"/><path class="cls-10" d="M1066.36,175.06c42.6,80-13.46,263.87-93.44,306.47"/><path class="cls-10" d="M1066.36,175.06c-6.65,24.85-53.91,52.15-78.76,45.5"/><path class="cls-11" d="M921.46,792.36c-40.14-11.52-83.06-89-71.54-129.16"/><path class="cls-11" d="M921.46,792.36C990.12,798,1084.63,909.47,1079,978.13"/><path class="cls-11" d="M921.46,792.36c10.65,14.87,4.33,53.15-10.54,63.8"/><path class="cls-11" d="M921.46,792.36c9-59,110.81-133.94,169.76-125"/><path class="cls-11" d="M921.46,792.36c11,24.49-9.29,77.7-33.78,88.68"/><path class="cls-11" d="M921.46,792.36c-10.93-13.9-6.46-51.15,7.45-62.08"/><path class="cls-11" d="M921.46,792.36C936.3,795.39,954,822.19,951,837"/><path class="cls-11" d="M921.46,792.36c42.55-14.85,128.65,26.7,143.5,69.25"/><path class="cls-11" d="M921.46,792.36c63.43-13.38,178.64,61.68,192,125.1"/><path class="cls-11" d="M921.46,792.36c-13.58,9.5-48.21,3.37-57.7-10.22"/><path class="cls-11" d="M921.46,792.36c-17.83-1.94-41.67-31.62-39.72-49.46"/><path class="cls-11" d="M921.46,792.36c54.95-29.9,182.22,7.67,212.12,62.62"/><path class="cls-11" d="M921.46,792.36c49.63,5.11,116.39,87.22,111.28,136.84"/><path class="cls-11" d="M921.46,792.36c-22.34,13.34-75.87-.18-89.21-22.52"/><path class="cls-11" d="M921.46,792.36C923.5,776.19,950.82,755,967,757"/><path class="cls-11" d="M921.46,792.36c-14,24.12-71.27,39.24-95.39,25.2"/><path class="cls-11" d="M921.46,792.36c-49.93,86.89-255.15,142.33-342,92.4"/><path class="cls-11" d="M921.46,792.36c-1.39,28.51-46.25,69.19-74.77,67.79"/><path class="cls-11" d="M921.46,792.36c-51.87-72.46-21-259,51.46-310.83"/><path class="cls-11" d="M921.46,792.36c-2.57,17.12-32.11,38.94-49.22,36.36"/><path class="cls-12" d="M220.1,955.64c-23.2-4-52-44.84-48-68"/><path class="cls-12" d="M220.1,955.64c57.69-86,273.28-128.57,359.32-70.88"/><path class="cls-12" d="M220.1,955.64C186.38,944,153.29,875.91,165,842.19"/><path class="cls-12" d="M220.1,955.64c3.13,24.17-28.43,65.11-52.59,68.24"/><path class="cls-12" d="M220.1,955.64c-11.91,23.11-64.45,39.9-87.55,28"/><path class="cls-12" d="M220.1,955.64c-4.21,36.07-64.62,83.84-100.69,79.63"/><path class="cls-12" d="M220.1,955.64c30.53-4.46,83,34.64,87.48,65.17"/><path class="cls-12" d="M220.1,955.64c17.6,17.69,17.47,70.62-.22,88.22"/><path class="cls-12" d="M220.1,955.64c9.7-23.13,59-43.29,82.08-33.59"/><path class="cls-12" d="M220.1,955.64c32.32,17,55.26,91,38.23,123.35"/><path class="cls-12" d="M220.1,955.64c22.54,4.41,49.73,44.81,45.32,67.34"/><path class="cls-12" d="M220.1,955.64c-36.24,7.2-101.39-36.37-108.58-72.61"/><path class="cls-12" d="M220.1,955.64C287.58,771.19,665.47,595.73,849.92,663.2"/><path class="cls-12" d="M220.1,955.64c-22.85-25.35-19.1-97.65,6.25-120.5"/><path class="cls-12" d="M220.1,955.64c-20.89,10.79-68.42-4.37-79.21-25.27"/><path class="cls-12" d="M220.1,955.64c16.56,33.29-8.55,108.06-41.84,124.61"/><path class="cls-12" d="M220.1,955.64c19.62-15.48,72.26-9.28,87.74,10.33"/><path class="cls-12" d="M220.1,955.64c-12.45-18.28-3.7-64.39,14.58-76.85"/><path class="cls-12" d="M220.1,955.64c-2.88-28.85,36.07-76.44,64.92-79.32"/><path class="cls-12" d="M220.1,955.64c-27,25.85-106.31,24.08-132.16-2.94"/></g><text class="cls-2" transform="translate(1384.41 971.32)">ma<tspan class="cls-13" x="25.94" y="0">r</tspan><tspan x="32.72" y="0">c</tspan></text><text class="cls-2" transform="translate(1238.24 1082.08)">ja<tspan class="cls-14" x="15.2" y="0">c</tspan><tspan x="25.82" y="0">o</tspan><tspan class="cls-15" x="36.82" y="0">b</tspan><tspan x="48.12" y="0">s</tspan></text><text class="cls-2" transform="translate(1353.53 1085.64)">run<tspan class="cls-16" x="28.52" y="0">w</tspan><tspan class="cls-5" x="41.88" y="0">a</tspan><tspan x="52.06" y="0">y</tspan></text><text class="cls-2" transform="translate(1038.95 982.05)">mil<tspan class="cls-17" x="24.54" y="0">e</tspan><tspan class="cls-18" x="34.84" y="0">y</tspan><tspan class="cls-16" x="44.14" y="0">c</tspan><tspan class="cls-19" x="54.6" y="0">yrus</tspan></text><text class="cls-2" transform="translate(1063.89 670.51)"><tspan class="cls-8">f</tspan><tspan class="cls-9" x="5.24" y="0">a</tspan><tspan x="15.7" y="0">shion</tspan></text><text class="cls-2" transform="translate(1295.78 922.08)">ma<tspan class="cls-20" x="25.94" y="0">k</tspan><tspan x="35.72" y="0">e</tspan></text><text class="cls-2" transform="translate(1190.47 1073.44)"><tspan class="cls-18">y</tspan><tspan x="9.3" y="0">ork</tspan></text><text class="cls-2" transform="translate(1294.16 1071.22)">debut</text><text class="cls-2" transform="translate(1248.42 1123.92)">n<tspan class="cls-3" x="10.78" y="0">e</tspan><tspan class="cls-19" x="21.32" y="0">w</tspan></text><text class="cls-2" transform="translate(1299.33 1125.17)">o<tspan class="cls-21" x="11" y="0">f</tspan><tspan class="cls-22" x="16.92" y="0">f</tspan><tspan x="22.3" y="0">icial</tspan><tspan class="cls-23" x="56.88" y="0">l</tspan><tspan x="61.5" y="0">y</tspan></text><text class="cls-2" transform="translate(1327.96 933.67)"><tspan class="cls-15">g</tspan><tspan x="10.98" y="0">o</tspan><tspan class="cls-8" x="21.98" y="0">r</tspan><tspan class="cls-15" x="28.88" y="0">g</tspan><tspan class="cls-6" x="39.86" y="0">eous</tspan></text><text class="cls-2" transform="translate(1225.98 550.68)">look</text><text class="cls-2" transform="translate(830.13 666.28)">sh<tspan class="cls-24" x="20.5" y="0">o</tspan><tspan class="cls-19" x="31.46" y="0">w</tspan></text><text class="cls-2" transform="translate(1014.84 932.34)"><tspan class="cls-25">f</tspan><tspan x="6" y="0">w20</tspan></text><text class="cls-2" transform="translate(1330.75 986.31)"><tspan class="cls-8">w</tspan><tspan x="13.42" y="0">eek</tspan></text><text class="cls-2" transform="translate(1102.65 920.53)">intl</text><text class="cls-2" transform="translate(1045.18 865.54)">mil<tspan class="cls-17" x="24.54" y="0">e</tspan><tspan x="34.84" y="0">y</tspan></text><text class="cls-2" transform="translate(1122.74 858.11)"><tspan class="cls-8">f</tspan><tspan x="5.24" y="0">all</tspan></text><text class="cls-2" transform="translate(1122.17 68.5)">ni<tspan class="cls-14" x="15.3" y="0">c</tspan><tspan class="cls-26" x="25.92" y="0">k</tspan><tspan class="cls-19" x="36.22" y="0">i</tspan></text><text class="cls-2" transform="translate(968.64 59.14)">min<tspan class="cls-27" x="30.8" y="0">a</tspan><tspan x="41.16" y="0">j</tspan></text><text class="cls-28" transform="translate(945.7 176.98)">a<tspan class="cls-29" x="10.42" y="0">t</tspan><tspan class="cls-30" x="16.4" y="0">t</tspan><tspan class="cls-6" x="21.76" y="0">end</tspan></text><text class="cls-2" transform="translate(1129.19 216)">p<tspan class="cls-3" x="11.24" y="0">e</tspan><tspan class="cls-29" x="21.78" y="0">t</tspan><tspan class="cls-31" x="27.76" y="0">t</tspan><tspan class="cls-19" x="33.84" y="0">y</tspan></text><text class="cls-2" transform="translate(964.2 134.67)">husband</text><text class="cls-32" transform="translate(1068.62 100.95)">k<tspan class="cls-6" x="9.78" y="0">enn</tspan><tspan class="cls-3" x="41.92" y="0">e</tspan><tspan class="cls-33" x="52.46" y="0">t</tspan><tspan class="cls-19" x="58.08" y="0">h</tspan></text><text class="cls-2" transform="translate(925.3 119.73)"><tspan class="cls-14">q</tspan><tspan x="11.28" y="0">ueen</tspan></text><text class="cls-2" transform="translate(1045.47 75.42)"><tspan class="cls-27">e</tspan><tspan class="cls-34" x="10.5" y="0">a</tspan><tspan x="20.92" y="0">t</tspan></text><text class="cls-2" transform="translate(1009.97 100.29)">la<tspan class="cls-35" x="14.96" y="0">d</tspan><tspan x="26.34" y="0">y</tspan></text><text class="cls-2" transform="translate(1161.61 173.65)"><tspan class="cls-16">r</tspan><tspan x="6.84" y="0">ap</tspan></text><text class="cls-2" transform="translate(1099.54 145.41)"><tspan class="cls-15">g</tspan><tspan x="10.98" y="0">entleman</tspan></text><text class="cls-2" transform="translate(1046.69 31.14)">yi<tspan class="cls-20" x="14.08" y="0">k</tspan><tspan class="cls-6" x="23.86" y="0">e</tspan><tspan class="cls-23" x="34.44" y="0">s</tspan><tspan class="cls-6" x="44.26" y="0">p</tspan><tspan class="cls-5" x="55.5" y="0">a</tspan><tspan x="65.68" y="0">y</tspan></text><text class="cls-2" transform="translate(1089.36 247.45)">h<tspan class="cls-3" x="10.78" y="0">o</tspan><tspan class="cls-19" x="21.74" y="0">w</tspan></text><text class="cls-2" transform="translate(1155.03 113)"><tspan class="cls-36">v</tspan><tspan x="8.62" y="0">alider</tspan></text><text class="cls-2" transform="translate(1013.06 248.56)">dé<tspan class="cls-22" x="21.86" y="0">f</tspan><tspan class="cls-19" x="27.24" y="0">ilé</tspan></text><text class="cls-2" transform="translate(952.19 484.62)">d<tspan class="cls-37" x="11.28" y="0">r</tspan><tspan class="cls-6" x="18.08" y="0">e</tspan><tspan class="cls-38" x="28.66" y="0">s</tspan><tspan x="38.54" y="0">s</tspan></text><text class="cls-2" transform="translate(973.93 222.86)"><tspan class="cls-39">z</tspan><tspan x="8.96" y="0">oo</tspan></text><text class="cls-2" transform="translate(871.82 860.09)">ma<tspan class="cls-13" x="25.94" y="0">r</tspan><tspan class="cls-40" x="32.72" y="0">c</tspan><tspan x="43.2" y="0">ja</tspan><tspan class="cls-14" x="58.4" y="0">c</tspan><tspan class="cls-6" x="69.02" y="0">ob</tspan></text><text class="cls-2" transform="translate(864.6 884.12)">model</text><text class="cls-2" transform="translate(898.29 728.59)"><tspan class="cls-18">n</tspan><tspan class="cls-19" x="10.52" y="0">y</tspan><tspan class="cls-25" x="20.08" y="0">f</tspan><tspan x="26.08" y="0">w2020</tspan></text><text class="cls-2" transform="translate(933.57 840.96)">s<tspan class="cls-41" x="9.72" y="0">t</tspan><tspan class="cls-42" x="15.8" y="0">y</tspan><tspan x="25.48" y="0">le</tspan></text><text class="cls-2" transform="translate(842.55 785.23)">moda</text><text class="cls-2" transform="translate(867.12 743.93)"><tspan class="cls-15">g</tspan><tspan class="cls-3" x="10.98" y="0">e</tspan><tspan x="21.52" y="0">t</tspan></text><text class="cls-2" transform="translate(806.33 770.14)"><tspan class="cls-16">c</tspan><tspan x="10.46" y="0">yrus</tspan></text><text class="cls-43" transform="translate(931.66 760.11)">c<tspan class="cls-6" x="10.62" y="0">ollec</tspan><tspan class="cls-33" x="51.82" y="0">t</tspan><tspan class="cls-19" x="57.44" y="0">ion</tspan></text><text class="cls-2" transform="translate(790.23 815.03)"><tspan class="cls-25">f</tspan><tspan x="6" y="0">w2020</tspan></text><text class="cls-2" transform="translate(566.23 888.68)">just</text><text class="cls-44" transform="translate(809.91 866.07)">w<tspan class="cls-19" x="13.6" y="0">in</tspan><tspan class="cls-30" x="28.9" y="0">t</tspan><tspan class="cls-6" x="34.26" y="0">er</tspan></text><text class="cls-2" transform="translate(850.09 831.81)"><tspan class="cls-14">c</tspan><tspan x="10.62" y="0">he</tspan><tspan class="cls-14" x="31.98" y="0">c</tspan><tspan class="cls-6" x="42.6" y="0">k</tspan></text><text class="cls-2" transform="translate(134.93 891.53)">ni<tspan class="cls-14" x="15.3" y="0">c</tspan><tspan class="cls-45" x="25.92" y="0">k</tspan><tspan x="36.22" y="0">imin</tspan><tspan class="cls-27" x="71.54" y="0">a</tspan><tspan x="81.9" y="0">j</tspan></text><text class="cls-2" transform="translate(155.53 844.48)">on</text><text class="cls-2" transform="translate(146.77 1027.8)"><tspan class="cls-15">g</tspan><tspan class="cls-46" x="10.98" y="0">e</tspan><tspan class="cls-47" x="21.52" y="0">t</tspan><tspan class="cls-33" x="27.5" y="0">t</tspan><tspan x="33.12" y="0">in</tspan></text><text class="cls-2" transform="translate(113.23 986.7)"><tspan class="cls-46">o</tspan><tspan class="cls-48" x="10.96" y="0">t</tspan><tspan x="16.58" y="0">her</tspan></text><text class="cls-2" transform="translate(91.13 1039.14)">happen</text><text class="cls-2" transform="translate(298.17 1024.67)"><tspan class="cls-33">t</tspan><tspan class="cls-49" x="5.62" y="0">r</tspan><tspan x="13.2" y="0">y</tspan></text><text class="cls-2" transform="translate(204.81 1047.78)">sl<tspan class="cls-18" x="14.24" y="0">a</tspan><tspan x="24.42" y="0">y</tspan></text><text class="cls-2" transform="translate(270.15 925.98)">n<tspan class="cls-50" x="10.78" y="0">a</tspan><tspan class="cls-51" x="21.2" y="0">t</tspan><tspan x="26.68" y="0">u</tspan><tspan class="cls-16" x="37.46" y="0">r</tspan><tspan x="44.3" y="0">al</tspan><tspan class="cls-35" x="59.26" y="0">l</tspan><tspan x="63.88" y="0">y</tspan></text><text class="cls-2" transform="translate(239.48 1082.08)">need</text><text class="cls-2" transform="translate(247.04 1025.28)"><tspan class="cls-52">e</tspan><tspan class="cls-53" x="10.48" y="0">v</tspan><tspan x="19.18" y="0">en</tspan></text><text class="cls-2" transform="translate(96.44 886.17)"><tspan class="cls-16">w</tspan><tspan class="cls-18" x="13.36" y="0">a</tspan><tspan x="23.54" y="0">y</tspan></text><text class="cls-2" transform="translate(193.84 839.07)">designer</text><text class="cls-2" transform="translate(126.75 933.46)">end</text><text class="cls-2" transform="translate(160.36 1083.31)"><tspan class="cls-33">t</tspan><tspan x="5.62" y="0">hink</tspan></text><text class="cls-2" transform="translate(288.98 969.9)"><tspan class="cls-15">g</tspan><tspan x="10.98" y="0">ood</tspan></text><text class="cls-2" transform="translate(223.37 882.71)">big</text><text class="cls-2" transform="translate(263.35 880.29)"><tspan class="cls-22">f</tspan><tspan x="5.38" y="0">inal</tspan><tspan class="cls-45" x="35.64" y="0">l</tspan><tspan class="cls-54" x="40.26" y="0">y</tspan></text><text class="cls-2" transform="translate(70.98 955.78)">darn</text></svg>