<svg xmlns="http://www.w3.org/2000/svg" viewBox="0 0 1555 1141"><defs><style>.cls-1,.cls-2,.cls-3,.cls-4{fill:none;}.cls-1{stroke:#fd8326;}.cls-2{stroke:#8929a9;}.cls-3{stroke:#fc2130;}.cls-4{stroke:#11c574;}.cls-33,.cls-44,.cls-5,.cls-51,.cls-53{isolation:isolate;font-size:20px;}.cls-33,.cls-5,.cls-53{font-family:NimbusSan-Reg, Nimbus Sans;}.cls-6{letter-spacing:0em;}.cls-7{letter-spacing:0em;}.cls-8{letter-spacing:0em;}.cls-9{letter-spacing:0.03em;}.cls-10{letter-spacing:0.01em;}.cls-11{letter-spacing:0em;}.cls-12{letter-spacing:-0.01em;}.cls-13{letter-spacing:-0.01em;}.cls-14{letter-spacing:0em;}.cls-15{letter-spacing:0em;}.cls-16{letter-spacing:-0.01em;}.cls-17,.cls-53{letter-spacing:0.01em;}.cls-18{letter-spacing:-0.01em;}.cls-19{letter-spacing:-0.01em;}.cls-20{letter-spacing:0.01em;}.cls-21{letter-spacing:0em;}.cls-22{letter-spacing:-0.01em;}.cls-23{letter-spacing:0.04em;}.cls-24{letter-spacing:0em;}.cls-25{letter-spacing:0.01em;}.cls-26{letter-spacing:-0.01em;}.cls-27{letter-spacing:-0.01em;}.cls-28{letter-spacing:0em;}.cls-29{letter-spacing:0em;}.cls-30,.cls-33{letter-spacing:0em;}.cls-31{letter-spacing:-0.01em;}.cls-32{letter-spacing:0em;}.cls-34{letter-spacing:-0.03em;}.cls-35{letter-spacing:0em;}.cls-36{letter-spacing:0.01em;}.cls-37{letter-spacing:-0.01em;}.cls-38{letter-spacing:-0.01em;}.cls-39{letter-spacing:0em;}.cls-40{letter-spacing:0em;}.cls-41{letter-spacing:0.03em;}.cls-42{letter-spacing:-0.02em;}.cls-43{letter-spacing:0.03em;}.cls-44{font-family:AdobeMyungjoStd-Medium-KSCpc-EUC-H, Adobe Myungjo Std;}.cls-45{letter-spacing:0em;}.cls-46{letter-spacing:0.03em;}.cls-47{letter-spacing:-0.01em;}.cls-48{letter-spacing:-0.02em;}.cls-49{letter-spacing:-0.01em;}.cls-50{letter-spacing:-0.02em;}.cls-51{font-family:ArialUnicodeMS, Arial Unicode MS;}.cls-52{letter-spacing:-0.01em;}.cls-54{letter-spacing:0.03em;}</style></defs><g id="Layer_2" data-name="Layer 2"><g id="edges"><path class="cls-1" d="M725.87,570.35c10.15-17,50.92-27.33,68-17.17"/><path class="cls-1" d="M725.87,570.35c-6.71,15.1-39.41,27.7-54.51,21"/><path class="cls-1" d="M725.87,570.35c-1.89,23.21-39.52,55.2-62.72,53.31"/><path class="cls-1" d="M725.87,570.35c-14.63,14.91-58.93,15.33-73.84.7"/><path class="cls-1" d="M725.87,570.35c15.11,9.44,23.64,46.26,14.2,61.38"/><path class="cls-1" d="M725.87,570.35c-64.33.53-161.6-95.16-162.13-159.49"/><path class="cls-1" d="M725.87,570.35c65.82-67.93,266.45-71.1,334.38-5.29"/><path class="cls-1" d="M725.87,570.35c-15.48,7-49.19-5.72-56.18-21.2"/><path class="cls-1" d="M725.87,570.35c2-24.5,41.7-58.3,66.2-56.33"/><path class="cls-1" d="M725.87,570.35c-18.07-.62-44.23-28.64-43.62-46.7"/><path class="cls-1" d="M725.87,570.35c20.77-1.75,54.55,26.79,56.3,47.56"/><path class="cls-1" d="M725.87,570.35c25.89,10.15,49.51,64.22,39.36,90.12"/><path class="cls-1" d="M725.87,570.35c18.7-11.33,63.75-.28,75.09,18.42"/><path class="cls-1" d="M725.87,570.35c61.23-50,228.14-33.23,278.17,28"/><path class="cls-1" d="M725.87,570.35c-5.69-16.54,10.59-49.87,27.13-55.56"/><path class="cls-1" d="M725.87,570.35c-17.55-10-28.89-51.28-18.9-68.82"/><path class="cls-1" d="M725.87,570.35c-14.12-20.76-4.15-73.09,16.62-87.2"/><path class="cls-1" d="M725.87,570.35c15,21.64,5,76.56-16.63,91.54"/><path class="cls-2" d="M300.37,246.63c.8-20.36,32.52-49.69,52.88-48.89"/><path class="cls-2" d="M300.37,246.63c-19.88.33-50.19-29-50.51-48.88"/><path class="cls-2" d="M300.37,246.63c55.74,68.46,36.65,254.75-31.81,310.48"/><path class="cls-2" d="M300.37,246.63c6,18.16-12.25,54.4-30.42,60.4"/><path class="cls-2" d="M300.37,246.63c14.14-21.38,67.42-32.23,88.8-18.09"/><path class="cls-2" d="M300.37,246.63c-23.06-15.33-34.67-72.91-19.34-96"/><path class="cls-2" d="M300.37,246.63c-23.55-28.28-16.46-106,11.81-129.56"/><path class="cls-2" d="M300.37,246.63c45.18,95.27-30,305.94-125.23,351.11"/><path class="cls-2" d="M300.37,246.63c33.9,71.92-23.14,230.66-95.07,264.55"/><path class="cls-2" d="M300.37,246.63c-11.64-17.4-3-61,14.38-72.61"/><path class="cls-2" d="M300.37,246.63c67.14,90.56,32,327.1-58.55,394.24"/><path class="cls-2" d="M300.37,246.63c-33.4-8.31-71-70.87-62.72-104.27"/><path class="cls-2" d="M300.37,246.63c18.83-9.91,61.93,3.47,71.84,22.3"/><path class="cls-2" d="M300.37,246.63c19.34,3.07,43.75,36.69,40.68,56"/><path class="cls-2" d="M300.37,246.63c85.52-19.83,243.54,78.71,263.37,164.23"/><path class="cls-2" d="M300.37,246.63C279.5,262,225.07,253.84,209.66,233"/><path class="cls-2" d="M300.37,246.63c-8.67-33.62,28.75-97,62.37-105.71"/><path class="cls-2" d="M300.37,246.63c5.58-32.95,63.38-74,96.33-68.41"/><path class="cls-2" d="M300.37,246.63c-9,19-51,34.08-70,25.1"/><path class="cls-2" d="M300.37,246.63c-31.75,6.74-89.5-30.77-96.25-62.52"/><path class="cls-3" d="M1386.22,591.26c-5.7,23.06-48.83,49.1-71.89,43.4"/><path class="cls-3" d="M1386.22,591.26c-12.89-16.48-7.52-60.55,9-73.45"/><path class="cls-3" d="M1386.22,591.26c-14.28,15.73-59.31,17.9-75,3.62"/><path class="cls-3" d="M1386.22,591.26c18.56,8,34.43,47.82,26.44,66.38"/><path class="cls-3" d="M1386.22,591.26c15.52-13.6,59.19-10.73,72.8,4.78"/><path class="cls-3" d="M1386.22,591.26c23.87-4.08,65.79,25.61,69.86,49.48"/><path class="cls-3" d="M1386.22,591.26c33.93,1.48,82.6,54.59,81.12,88.51"/><path class="cls-3" d="M1386.22,591.26c-75,77.86-304.32,82.11-382.18,7.1"/><path class="cls-3" d="M1386.22,591.26c27.92-18.42,97.43-4.18,115.85,23.74"/><path class="cls-3" d="M1386.22,591.26c-14.21-29.44,8.63-94.92,38.07-109.13"/><path class="cls-3" d="M1386.22,591.26c6.44,20.85-15.17,61.77-36,68.21"/><path class="cls-3" d="M1386.22,591.26c14.41-27.82,77.76-47.93,105.58-33.52"/><path class="cls-3" d="M1386.22,591.26c27.81,17.61,43.11,85.72,25.5,113.53"/><path class="cls-3" d="M1386.22,591.26c15.77,26.26,0,89.29-26.23,105.06"/><path class="cls-3" d="M1386.22,591.26c-22.79,6-65.92-19.3-71.87-42.1"/><path class="cls-3" d="M1386.22,591.26c-22.38-5-48.41-46.13-43.38-68.51"/><path class="cls-3" d="M1386.22,591.26c-70.43,60-266,44.24-326-26.2"/><path class="cls-3" d="M1386.22,591.26c1.13-34,53.85-83.37,87.87-82.25"/><path class="cls-3" d="M1386.22,591.26c-27.21-15.79-44.35-80.29-28.57-107.51"/><path class="cls-4" d="M164.75,920.1c20.23,2,47.6,35.29,45.63,55.51"/><path class="cls-4" d="M164.75,920.1c-12.52,29.42-75.43,54.77-104.85,42.25"/><path class="cls-4" d="M164.75,920.1c-62.39-66.55-56.16-260,10.39-322.36"/><path class="cls-4" d="M164.75,920.1c-11,16.32-52,24.29-68.31,13.29"/><path class="cls-4" d="M164.75,920.1c16.19,15.37,17.43,62.7,2.07,78.89"/><path class="cls-4" d="M164.75,920.1c-73.67-89.89-49.34-335.24,40.55-408.92"/><path class="cls-4" d="M164.75,920.1c19-13.46,67.7-5.15,81.16,13.85"/><path class="cls-4" d="M164.75,920.1c28.42,20.67,40.05,94.29,19.38,122.7"/><path class="cls-4" d="M164.75,920.1c-40.43-71.26,5.81-238.8,77.07-279.23"/><path class="cls-4" d="M164.75,920.1c16,29.49-4.26,97.7-33.75,113.68"/><path class="cls-4" d="M164.75,920.1c2.67,21.52-25.61,57.81-47.13,60.48"/><path class="cls-4" d="M164.75,920.1c-18.77-8.29-34.49-48.89-26.2-67.66"/><path class="cls-4" d="M164.75,920.1c30.61-8.82,89.75,23.85,98.57,54.45"/><path class="cls-4" d="M164.75,920.1c-51.83-93.36,10.45-311.15,103.81-363"/><path class="cls-4" d="M164.75,920.1c33.25,6.12,73.95,65.18,67.83,98.43"/><path class="cls-4" d="M164.75,920.1c-3.85-19.33,19.36-54.09,38.69-57.94"/><path class="cls-4" d="M164.75,920.1c1.86,35.26-48.25,90.93-83.51,92.78"/><path class="cls-4" d="M164.75,920.1c9.68-20.63,55.14-37.06,75.77-27.38"/><path class="cls-4" d="M164.75,920.1c-24.33,18.35-88.35,9.37-106.7-15"/><path class="cls-4" d="M164.75,920.1c-23.14,4.55-64.67-23.35-69.21-46.49"/></g><text class="cls-5" transform="translate(776.1 557.65)">hadid</text><text class="cls-5" transform="translate(656.27 595.73)">bella</text><text class="cls-5" transform="translate(636.18 627.69)">morni<tspan class="cls-6" x="48.76" y="0">n</tspan><tspan x="59.46" y="0">g</tspan></text><text class="cls-5" transform="translate(640.15 575.05)">n<tspan class="cls-7" x="10.78" y="0">e</tspan><tspan class="cls-8" x="21.32" y="0">w</tspan></text><text class="cls-5" transform="translate(724.53 636.25)">s<tspan class="cls-9" x="9.72" y="0">t</tspan><tspan class="cls-10" x="15.8" y="0">y</tspan><tspan x="25.48" y="0">le</tspan></text><text class="cls-5" transform="translate(536.45 415.06)">dis<tspan class="cls-11" x="25.52" y="0">c</tspan><tspan class="cls-12" x="36.14" y="0">o</tspan><tspan class="cls-13" x="46.96" y="0">v</tspan><tspan x="55.66" y="0">er</tspan></text><text class="cls-5" transform="translate(1035.46 569.03)">mi<tspan class="cls-11" x="20.02" y="0">c</tspan><tspan x="30.64" y="0">hael</tspan></text><text class="cls-5" transform="translate(646.46 553.11)"><tspan class="cls-14">f</tspan><tspan class="cls-15" x="5.24" y="0">a</tspan><tspan x="15.7" y="0">shion</tspan></text><text class="cls-5" transform="translate(771.26 499.74)"><tspan class="cls-16">v</tspan><tspan x="8.62" y="0">alen</tspan><tspan class="cls-17" x="44.94" y="0">t</tspan><tspan class="cls-8" x="50.56" y="0">ine</tspan></text><text class="cls-5" transform="translate(666.31 527.68)">eb<tspan class="cls-18" x="21.86" y="0">a</tspan><tspan x="32.04" y="0">y</tspan></text><text class="cls-5" transform="translate(747.98 621.97)">ba<tspan class="cls-11" x="21.72" y="0">c</tspan><tspan class="cls-19" x="32.34" y="0">k</tspan><tspan class="cls-8" x="42.28" y="0">s</tspan><tspan class="cls-20" x="52" y="0">t</tspan><tspan class="cls-12" x="57.6" y="0">a</tspan><tspan class="cls-21" x="67.86" y="0">g</tspan><tspan x="78.84" y="0">e</tspan></text><text class="cls-5" transform="translate(750.89 665.09)"><tspan class="cls-22">y</tspan><tspan x="9.3" y="0">ork</tspan></text><text class="cls-5" transform="translate(777.52 602.71)">n<tspan class="cls-7" x="10.78" y="0">e</tspan><tspan class="cls-23" x="21.32" y="0">w</tspan><tspan class="cls-18" x="35.54" y="0">y</tspan><tspan class="cls-24" x="44.84" y="0">ork</tspan></text><text class="cls-5" transform="translate(986.39 602.42)">arr<tspan class="cls-25" x="24.36" y="0">i</tspan><tspan class="cls-13" x="28.98" y="0">v</tspan><tspan x="37.68" y="0">e</tspan></text><text class="cls-5" transform="translate(725.51 518.69)"><tspan class="cls-11">c</tspan><tspan x="10.62" y="0">ame</tspan><tspan class="cls-26" x="47.14" y="0">r</tspan><tspan x="53.92" y="0">on</tspan></text><text class="cls-5" transform="translate(691.87 505.47)">d<tspan class="cls-26" x="11.28" y="0">o</tspan><tspan class="cls-27" x="22.1" y="0">v</tspan><tspan x="30.8" y="0">e</tspan></text><text class="cls-5" transform="translate(710.69 486.89)">lo<tspan class="cls-28" x="15.52" y="0">s</tspan><tspan x="25.32" y="0">a</tspan><tspan class="cls-6" x="35.76" y="0">n</tspan><tspan class="cls-21" x="46.46" y="0">g</tspan><tspan x="57.44" y="0">ele</tspan></text><text class="cls-5" transform="translate(677.32 666.66)"><tspan class="cls-12">r</tspan><tspan x="6.78" y="0">o</tspan><tspan class="cls-29" x="17.78" y="0">c</tspan><tspan class="cls-27" x="28.4" y="0">k</tspan><tspan x="38.48" y="0">abil</tspan><tspan class="cls-25" x="69.24" y="0">l</tspan><tspan x="73.86" y="0">y</tspan></text><text class="cls-5" transform="translate(344.68 201.67)">am</text><text class="cls-5" transform="translate(240.7 202.03)">est</text><text class="cls-5" transform="translate(231.2 560.38)"><tspan class="cls-14">w</tspan><tspan x="13.42" y="0">ednesd</tspan><tspan class="cls-18" x="77.64" y="0">a</tspan><tspan x="87.82" y="0">y</tspan></text><text class="cls-5" transform="translate(259.71 311.08)">l<tspan class="cls-25" x="4.52" y="0">i</tspan><tspan class="cls-27" x="9.14" y="0">v</tspan><tspan x="17.84" y="0">e</tspan></text><text class="cls-5" transform="translate(356.45 232.65)">up<tspan class="cls-11" x="22.02" y="0">c</tspan><tspan x="32.64" y="0">omi</tspan><tspan class="cls-30" x="63.66" y="0">n</tspan><tspan x="74.36" y="0">g</tspan></text><text class="cls-5" transform="translate(262.34 154.62)"><tspan class="cls-31">w</tspan><tspan class="cls-32" x="13.36" y="0">a</tspan><tspan class="cls-30" x="23.78" y="0">t</tspan><tspan class="cls-11" x="29.14" y="0">c</tspan><tspan x="39.76" y="0">h</tspan></text><text class="cls-33" transform="translate(300.54 121.27)">t<tspan class="cls-7" x="5.36" y="0">o</tspan><tspan class="cls-6" x="16.32" y="0">t</tspan><tspan class="cls-24" x="21.68" y="0">e</tspan></text><text class="cls-5" transform="translate(162.06 602.13)">m<tspan class="cls-34" x="15.5" y="0">k</tspan><tspan class="cls-24" x="25.2" y="0">c</tspan></text><text class="cls-5" transform="translate(160.7 513.89)">mono<tspan class="cls-35" x="48.28" y="0">g</tspan><tspan class="cls-27" x="59.3" y="0">r</tspan><tspan x="66.14" y="0">amme</tspan></text><text class="cls-5" transform="translate(296.7 178.21)">en<tspan class="cls-36" x="21.36" y="0">t</tspan><tspan x="26.98" y="0">i</tspan><tspan class="cls-37" x="31.5" y="0">r</tspan><tspan x="38.3" y="0">e</tspan></text><text class="cls-5" transform="translate(225.88 645.22)">s<tspan class="cls-6" x="9.72" y="0">t</tspan><tspan class="cls-24" x="15.08" y="0">o</tspan><tspan class="cls-37" x="26.08" y="0">r</tspan><tspan x="32.88" y="0">e</tspan></text><text class="cls-5" transform="translate(219.95 146.58)">sou<tspan class="cls-36" x="31.5" y="0">t</tspan><tspan x="37.12" y="0">h</tspan></text><text class="cls-5" transform="translate(346.91 272.47)">p<tspan class="cls-37" x="11.24" y="0">r</tspan><tspan class="cls-38" x="18.04" y="0">e</tspan><tspan class="cls-10" x="28.52" y="0">v</tspan><tspan x="37.46" y="0">i</tspan><tspan class="cls-7" x="41.98" y="0">e</tspan><tspan x="52.52" y="0">w</tspan></text><text class="cls-5" transform="translate(329.24 307.01)">noh</text><text class="cls-5" transform="translate(195.49 237.52)">bo<tspan class="cls-7" x="22.28" y="0">o</tspan><tspan x="33.24" y="0">t</tspan></text><text class="cls-5" transform="translate(343.65 144.88)">sn<tspan class="cls-39" x="20.5" y="0">e</tspan><tspan class="cls-8" x="31" y="0">ak</tspan></text><text class="cls-5" transform="translate(376.56 182.38)">arl<tspan class="cls-40" x="21.92" y="0">e</tspan><tspan class="cls-41" x="32.46" y="0">t</tspan><tspan class="cls-30" x="38.44" y="0">t</tspan><tspan x="43.8" y="0">e</tspan></text><text class="cls-5" transform="translate(213.99 276.09)">peek</text><text class="cls-5" transform="translate(188.66 188.09)">mo<tspan class="cls-37" x="26.5" y="0">r</tspan><tspan x="33.3" y="0">e</tspan></text><text class="cls-5" transform="translate(1304.93 639.12)">j<tspan class="cls-42" x="4.76" y="0">o</tspan><tspan class="cls-8" x="15.44" y="0">y</tspan></text><text class="cls-5" transform="translate(1364.74 521.2)"><tspan class="cls-43">r</tspan><tspan class="cls-39" x="7.58" y="0">v</tspan><tspan x="16.32" y="0">sm</tspan><tspan class="cls-6" x="41.54" y="0">t</tspan><tspan class="cls-7" x="46.9" y="0">o</tspan><tspan x="57.86" y="0">wn</tspan></text><text class="cls-5" transform="translate(1297.13 599.42)">s<tspan class="cls-6" x="9.72" y="0">t</tspan><tspan class="cls-24" x="15.08" y="0">op</tspan></text><text class="cls-44" transform="translate(1398.83 667.34)">조이</text><text class="cls-5" transform="translate(1430.35 599.31)"><tspan class="cls-37">r</tspan><tspan x="6.8" y="0">e</tspan><tspan class="cls-45" x="17.38" y="0">d</tspan><tspan class="cls-13" x="28.76" y="0">v</tspan><tspan x="37.46" y="0">e</tspan><tspan class="cls-25" x="48.04" y="0">l</tspan><tspan class="cls-27" x="52.66" y="0">v</tspan><tspan class="cls-40" x="61.36" y="0">e</tspan><tspan class="cls-8" x="71.9" y="0">t</tspan></text><text class="cls-5" transform="translate(1439.79 645.39)"><tspan class="cls-21">g</tspan><tspan class="cls-7" x="10.98" y="0">e</tspan><tspan class="cls-46" x="21.52" y="0">t</tspan><tspan class="cls-9" x="27.5" y="0">t</tspan><tspan x="33.58" y="0">y</tspan></text><text class="cls-5" transform="translate(1447.67 683.51)">im<tspan class="cls-47" x="20.02" y="0">a</tspan><tspan class="cls-21" x="30.28" y="0">g</tspan><tspan class="cls-24" x="41.26" y="0">e</tspan></text><text class="cls-5" transform="translate(1468.12 618.56)">bla<tspan class="cls-48" x="26.24" y="0">k</tspan><tspan x="36.02" y="0">el</tspan><tspan class="cls-25" x="51.12" y="0">i</tspan><tspan class="cls-27" x="55.74" y="0">v</tspan><tspan class="cls-24" x="64.44" y="0">e</tspan><tspan class="cls-25" x="75.02" y="0">l</tspan><tspan x="79.64" y="0">y</tspan></text><text class="cls-5" transform="translate(1407.37 486.36)">bla<tspan class="cls-48" x="26.24" y="0">k</tspan><tspan x="36.02" y="0">e</tspan></text><text class="cls-5" transform="translate(1334.03 663.5)">l<tspan class="cls-25" x="4.52" y="0">i</tspan><tspan class="cls-27" x="9.14" y="0">v</tspan><tspan x="17.84" y="0">e</tspan><tspan class="cls-45" x="28.42" y="0">l</tspan><tspan class="cls-8" x="33.04" y="0">y</tspan></text><text class="cls-5" transform="translate(1456.47 560.97)">i<tspan class="cls-49" x="4.52" y="0">m</tspan><tspan class="cls-22" x="19.78" y="0">y</tspan><tspan x="29.08" y="0">our_j</tspan><tspan class="cls-50" x="72.58" y="0">o</tspan><tspan x="83.26" y="0">y</tspan></text><text class="cls-5" transform="translate(1388.32 708.42)">im<tspan class="cls-47" x="20.02" y="0">a</tspan><tspan class="cls-21" x="30.28" y="0">g</tspan><tspan class="cls-24" x="41.26" y="0">es</tspan></text><text class="cls-51" transform="translate(1337.81 694.19)">จอยใน</text><text class="cls-5" transform="translate(1337.03 527.43)">ig</text><text class="cls-5" transform="translate(1443.12 512.44)"><tspan class="cls-15">a</tspan><tspan x="10.46" y="0">shbe</tspan><tspan class="cls-37" x="52.82" y="0">n</tspan><tspan class="cls-52" x="63.44" y="0">z</tspan><tspan class="cls-24" x="72.4" y="0">o</tspan></text><text class="cls-5" transform="translate(1335.67 487.61)">i<tspan class="cls-49" x="4.52" y="0">m</tspan><tspan class="cls-22" x="19.78" y="0">y</tspan><tspan x="29.08" y="0">our</tspan></text><text class="cls-5" transform="translate(197.8 980.09)">b<tspan class="cls-12" x="11.28" y="0">a</tspan><tspan x="21.54" y="0">g</tspan></text><text class="cls-5" transform="translate(48.17 967.1)"><tspan class="cls-28">f</tspan><tspan x="5.38" y="0">i</tspan><tspan class="cls-11" x="9.9" y="0">r</tspan><tspan x="16.9" y="0">st</tspan></text><text class="cls-5" transform="translate(82.3 937.62)"><tspan class="cls-31">w</tspan><tspan x="13.36" y="0">alk</tspan></text><text class="cls-5" transform="translate(150.36 1003.57)">shop</text><text class="cls-5" transform="translate(235.43 938.23)">see</text><text class="cls-5" transform="translate(175.48 1047.54)">list</text><text class="cls-5" transform="translate(120.08 1038.64)"><tspan class="cls-11">c</tspan><tspan x="10.62" y="0">all</tspan></text><text class="cls-5" transform="translate(102.5 985.39)">lo<tspan class="cls-11" x="15.52" y="0">c</tspan><tspan x="26.14" y="0">al</tspan></text><text class="cls-53" transform="translate(124.71 856.78)">t<tspan class="cls-8" x="5.62" y="0">hen</tspan></text><text class="cls-5" transform="translate(250.71 978.58)">l<tspan class="cls-12" x="4.52" y="0">o</tspan><tspan class="cls-27" x="15.34" y="0">v</tspan><tspan x="24.04" y="0">e</tspan></text><text class="cls-5" transform="translate(215.18 1023.1)"><tspan class="cls-11">c</tspan><tspan x="10.62" y="0">hain</tspan></text><text class="cls-5" transform="translate(190.13 866.41)"><tspan class="cls-20">t</tspan><tspan x="5.6" y="0">a</tspan><tspan class="cls-48" x="16.04" y="0">k</tspan><tspan x="25.82" y="0">e</tspan></text><text class="cls-5" transform="translate(62.08 1017.49)">o<tspan class="cls-54" x="11" y="0">r</tspan><tspan class="cls-10" x="18.58" y="0">v</tspan><tspan x="27.52" y="0">ille</tspan></text><text class="cls-5" transform="translate(224.12 897.67)">pe<tspan class="cls-11" x="21.82" y="0">c</tspan><tspan x="32.44" y="0">k</tspan></text><text class="cls-5" transform="translate(39.91 909.25)">s<tspan class="cls-20" x="9.72" y="0">t</tspan><tspan class="cls-12" x="15.32" y="0">a</tspan><tspan class="cls-15" x="25.58" y="0">g</tspan><tspan class="cls-24" x="36.56" y="0">e</tspan></text><text class="cls-5" transform="translate(50.69 877.95)">alla<tspan class="cls-29" x="29.92" y="0">cc</tspan><tspan x="51.16" y="0">e</tspan><tspan class="cls-20" x="61.74" y="0">s</tspan><tspan class="cls-45" x="71.62" y="0">s</tspan><tspan class="cls-34" x="81.44" y="0">k</tspan><tspan class="cls-24" x="91.14" y="0">o</tspan><tspan class="cls-11" x="102.14" y="0">r</tspan><tspan x="109.14" y="0">s</tspan></text><text class="cls-51" transform="translate(1302.73 549.36)">ของ</text></g></svg>