<svg xmlns="http://www.w3.org/2000/svg" viewBox="0 0 1555 1141"><defs><style>.cls-1,.cls-2,.cls-3,.cls-4,.cls-5{fill:none;}.cls-1{stroke:#11c574;}.cls-2{stroke:#8929a9;}.cls-3{stroke:#fd8326;}.cls-4{stroke:#fc2130;}.cls-5{stroke:#fd7e87;}.cls-14,.cls-22,.cls-40,.cls-42,.cls-6{isolation:isolate;font-size:20px;}.cls-14,.cls-22,.cls-42,.cls-6{font-family:NimbusSan-Reg, Nimbus Sans;}.cls-7{letter-spacing:0.04em;}.cls-8{letter-spacing:0em;}.cls-9{letter-spacing:0em;}.cls-10{letter-spacing:0em;}.cls-11{letter-spacing:0em;}.cls-12{letter-spacing:0em;}.cls-13{letter-spacing:0em;}.cls-14,.cls-32{letter-spacing:0em;}.cls-15{letter-spacing:0em;}.cls-16{letter-spacing:0.01em;}.cls-17{letter-spacing:0em;}.cls-18{letter-spacing:0.01em;}.cls-19,.cls-42{letter-spacing:0em;}.cls-20{letter-spacing:0.01em;}.cls-21{letter-spacing:0.03em;}.cls-22,.cls-30{letter-spacing:0.01em;}.cls-23{letter-spacing:0em;}.cls-24{letter-spacing:-0.01em;}.cls-25{letter-spacing:0em;}.cls-26{letter-spacing:0em;}.cls-27{letter-spacing:0em;}.cls-28{letter-spacing:0.01em;}.cls-29{letter-spacing:0.03em;}.cls-31{letter-spacing:0em;}.cls-33{letter-spacing:-0.02em;}.cls-34{letter-spacing:-0.01em;}.cls-35{letter-spacing:-0.01em;}.cls-36{letter-spacing:0em;}.cls-37{letter-spacing:-0.01em;}.cls-38{letter-spacing:0em;}.cls-39{letter-spacing:0.01em;}.cls-40{font-family:ArialUnicodeMS, Arial Unicode MS;}.cls-41{letter-spacing:-0.01em;}.cls-43{letter-spacing:-0.01em;}.cls-44{letter-spacing:0em;}.cls-45{letter-spacing:-0.01em;}.cls-46{letter-spacing:0.03em;}.cls-47{letter-spacing:-0.01em;}.cls-48{letter-spacing:0.01em;}.cls-49{letter-spacing:0em;}</style></defs><g id="Layer_2" data-name="Layer 2"><g id="edges"><path class="cls-1" d="M1216.68,596.34c-90.39,88.1-358.13,84.66-446.23-5.73"/><path class="cls-1" d="M1216.68,596.34c-19.33-28.19-6.06-99.47,22.13-118.8"/><path class="cls-1" d="M1216.68,596.34c-16.84,72.95-151.54,157.11-224.5,140.26"/><path class="cls-1" d="M1216.68,596.34c-99,6.28-257.05-132.87-263.33-231.92"/><path class="cls-1" d="M1216.68,596.34c6.75,64.77-80.29,172-145.06,178.79"/><path class="cls-1" d="M1216.68,596.34c-17.6,11.88-61.81,3.3-73.69-14.3"/><path class="cls-1" d="M1216.68,596.34c13.86-37.64,91.1-73.31,128.74-59.46"/><path class="cls-1" d="M1216.68,596.34c-3.35,88.62-141.32,216.51-229.93,213.15"/><path class="cls-1" d="M1216.68,596.34c36.43-7.85,102.83,35,110.67,71.46"/><path class="cls-1" d="M1216.68,596.34c-24.26-2-57.74-41.25-55.8-65.52"/><path class="cls-1" d="M1216.68,596.34c29.76-27.51,115.66-24.13,143.17,5.63"/><path class="cls-1" d="M1216.68,596.34c19.29-17.94,75.13-15.9,93.06,3.39"/><path class="cls-1" d="M1216.68,596.34c20.47,81.37-70.89,234.14-152.26,254.6"/><path class="cls-1" d="M1216.68,596.34c-21-14.24-31.09-67.07-16.86-88.05"/><path class="cls-1" d="M1216.68,596.34c25,7.79,50.77,57,43,81.95"/><path class="cls-1" d="M1216.68,596.34c-6.12-23,19.13-66.57,42.09-72.7"/><path class="cls-1" d="M1216.68,596.34c22.41-5.06,63.62,21,68.67,43.38"/><path class="cls-1" d="M1216.68,596.34c11.35,16.74,3.27,58.89-13.48,70.24"/><path class="cls-1" d="M1216.68,596.34c-3.88-38.77,48.45-102.75,87.22-106.63"/><path class="cls-1" d="M1216.68,596.34c7.19-22.82,52.18-46.26,75-39.08"/><path class="cls-2" d="M827.27,989c-91-68.32-125.14-307.37-56.82-398.42"/><path class="cls-2" d="M827.27,989c-7,21.8-50.26,44-72.07,37"/><path class="cls-2" d="M827.27,989c-3.18,37.77-64.61,89.65-102.38,86.47"/><path class="cls-2" d="M827.27,989c8,22.52-13.79,68.31-36.31,76.31"/><path class="cls-2" d="M827.27,989c19.46-13.67,69.16-5,82.83,14.5"/><path class="cls-2" d="M827.27,989c19.81-75,162.1-157.9,237.15-138.09"/><path class="cls-2" d="M827.27,989c33.12,19.07,54.19,97.36,35.11,130.48"/><path class="cls-2" d="M827.27,989c25.12,31.7,15.25,117-16.45,142.08"/><path class="cls-2" d="M827.27,989c-4-67.8,91.67-175.52,159.48-179.54"/><path class="cls-2" d="M827.27,989c26-3.31,70,30.71,73.27,56.71"/><path class="cls-2" d="M827.27,989c-17.5-83.47,81.44-234.93,164.91-252.43"/><path class="cls-2" d="M827.27,989c6.09-91.65,152.7-220,244.35-213.9"/><path class="cls-2" d="M827.27,989c12.33,37.57-25.53,112.43-63.1,124.76"/><path class="cls-2" d="M827.27,989c36.35,3.85,85.1,64.16,81.25,100.51"/><path class="cls-2" d="M827.27,989c-22.77,12.14-75.13-3.8-87.26-26.57"/><path class="cls-2" d="M827.27,989c-24.93-1.15-60.6-40.26-59.45-65.19"/><path class="cls-2" d="M827.27,989c-19,28.27-89.8,42.24-118.07,23.28"/><path class="cls-2" d="M827.27,989c-19.11-13.18-28-61.61-14.83-80.72"/><path class="cls-2" d="M827.27,989c-3.35-20.41,22.23-56,42.64-59.39"/><path class="cls-3" d="M660.88,168.14C767.29,230.72,833,484.2,770.45,590.61"/><path class="cls-3" d="M660.88,168.14c97.75-19.23,273.23,98.53,292.47,196.28"/><path class="cls-3" d="M660.88,168.14c-3.37-23.16,26.31-63,49.47-66.36"/><path class="cls-3" d="M660.88,168.14c22.66-6.88,67,16.8,73.85,39.46"/><path class="cls-3" d="M660.88,168.14C645.63,147.65,653.49,94,674,78.76"/><path class="cls-3" d="M660.88,168.14c10.22-26.22,64.86-50.22,91.08-40"/><path class="cls-3" d="M660.88,168.14c2.24-37.85,62.36-91.28,100.22-89"/><path class="cls-3" d="M660.88,168.14c19.76-18.88,77.73-17.57,96.61,2.19"/><path class="cls-3" d="M660.88,168.14c27.59,71.59-38.41,220.36-110,248"/><path class="cls-3" d="M660.88,168.14c11.1,59-60.79,164.22-119.82,175.32"/><path class="cls-3" d="M660.88,168.14c8.2,82.73-103.59,219.14-186.33,227.34"/><path class="cls-3" d="M660.88,168.14c-11,62.7-121.69,140.16-184.38,129.1"/><path class="cls-3" d="M660.88,168.14C648,250.39,505.28,354.43,423,341.54"/><path class="cls-3" d="M660.88,168.14c-36.62-10.18-76.29-80.4-66.11-117"/><path class="cls-3" d="M660.88,168.14c-21.75-8-42.45-52.54-34.48-74.3"/><path class="cls-3" d="M660.88,168.14c-18,11.71-62.66,2.22-74.37-15.81"/><path class="cls-3" d="M660.88,168.14c-17.26-36.32,11.33-116.71,47.66-134"/><path class="cls-3" d="M660.88,168.14c-29.23,4.62-80-32.32-84.63-61.55"/><path class="cls-3" d="M660.88,168.14c-31.39-26.29-39-112.81-12.75-144.2"/><path class="cls-3" d="M660.88,168.14c19.68,8.07,37.08,49.67,29,69.34"/><path class="cls-4" d="M347.23,560.25c-22.21,7.52-66.8-14.52-74.32-36.73"/><path class="cls-4" d="M347.23,560.25c-5.94,39.29-73.79,89.31-113.08,83.36"/><path class="cls-4" d="M347.23,560.25C438,481.68,691.88,499.9,770.45,590.61"/><path class="cls-4" d="M347.23,560.25C320.48,481.79,398,324,476.5,297.24"/><path class="cls-4" d="M347.23,560.25c-7.49-58.42,68.9-157.28,127.32-164.77"/><path class="cls-4" d="M347.23,560.25c11.9-69.56,134.09-156.06,203.65-144.16"/><path class="cls-4" d="M347.23,560.25C312,573.74,238.85,541.09,225.36,505.83"/><path class="cls-4" d="M347.23,560.25c-21.18,21.06-84.55,20.86-105.6-.32"/><path class="cls-4" d="M347.23,560.25c24.23,2.29,57.15,42.07,54.86,66.3"/><path class="cls-4" d="M347.23,560.25c2.82,25-30.42,66.69-55.41,69.51"/><path class="cls-4" d="M347.23,560.25c14.78,14.94,14.53,59.51-.41,74.28"/><path class="cls-4" d="M347.23,560.25c-25.2,35.62-116.45,51.25-152.08,26"/><path class="cls-4" d="M347.23,560.25c-4.59-82.12,111.71-212.2,193.83-216.79"/><path class="cls-4" d="M347.23,560.25c-8.41,23.69-56.58,46.61-80.27,38.19"/><path class="cls-4" d="M347.23,560.25c15,33-11.88,104.91-44.84,119.93"/><path class="cls-4" d="M347.23,560.25c-28.58-58.9,16.89-190.13,75.79-218.71"/><path class="cls-4" d="M347.23,560.25c25.36,20.49,32.65,89.24,12.17,114.59"/><path class="cls-4" d="M347.23,560.25c17.75-11.69,61.91-2.61,73.61,15.14"/><path class="cls-4" d="M347.23,560.25c-23.25-6-49.1-49.91-43.08-73.16"/><path class="cls-5" d="M347.23,560.25C529,550,817,807.27,827.27,989"/></g><text class="cls-6" transform="translate(765.18 592.82)">m<tspan class="cls-7" x="15.5" y="0">f</tspan><tspan x="21.5" y="0">w</tspan></text><text class="cls-6" transform="translate(1221.79 479.81)"><tspan class="cls-8">f</tspan><tspan class="cls-9" x="5.24" y="0">a</tspan><tspan x="15.7" y="0">shion</tspan></text><text class="cls-6" transform="translate(991.55 738.84)"><tspan class="cls-8">f</tspan><tspan x="5.24" y="0">all</tspan></text><text class="cls-6" transform="translate(943.84 366.65)">sh<tspan class="cls-10" x="20.5" y="0">o</tspan><tspan class="cls-11" x="31.46" y="0">w</tspan></text><text class="cls-6" transform="translate(1014.95 777.36)">milan<tspan class="cls-12" x="45.76" y="0">f</tspan><tspan class="cls-9" x="51" y="0">a</tspan><tspan x="61.46" y="0">shion</tspan><tspan class="cls-8" x="108.26" y="0">w</tspan><tspan x="121.68" y="0">eek</tspan></text><text class="cls-6" transform="translate(1135.8 585.08)">ici<tspan class="cls-13" x="19.62" y="0">n</tspan><tspan x="30.32" y="0">g</tspan></text><text class="cls-6" transform="translate(1336.8 539.1)">bride</text><text class="cls-14" transform="translate(961.83 811.67)">c<tspan class="cls-15" x="10.62" y="0">ollec</tspan><tspan class="cls-16" x="51.82" y="0">t</tspan><tspan class="cls-11" x="57.44" y="0">ion</tspan></text><text class="cls-6" transform="translate(1301.46 670)">o<tspan class="cls-17" x="11" y="0">b</tspan><tspan x="22.3" y="0">se</tspan><tspan class="cls-18" x="42.6" y="0">s</tspan><tspan class="cls-11" x="52.48" y="0">sed</tspan></text><text class="cls-6" transform="translate(1150.89 533.04)">milan</text><text class="cls-6" transform="translate(1354.5 603.4)">n<tspan class="cls-19" x="10.78" y="0">e</tspan><tspan class="cls-11" x="21.32" y="0">w</tspan></text><text class="cls-6" transform="translate(1297.4 602.76)">l<tspan class="cls-20" x="4.52" y="0">u</tspan><tspan x="15.44" y="0">xu</tspan><tspan class="cls-21" x="35.68" y="0">r</tspan><tspan x="43.26" y="0">y</tspan></text><text class="cls-22" transform="translate(1052.1 853.11)">w<tspan class="cls-11" x="13.6" y="0">in</tspan><tspan class="cls-23" x="28.9" y="0">t</tspan><tspan class="cls-15" x="34.26" y="0">er</tspan></text><text class="cls-6" transform="translate(1191.69 511.29)">shop</text><text class="cls-6" transform="translate(1240.32 679.7)"><tspan class="cls-24">v</tspan><tspan x="8.7" y="0">e</tspan><tspan class="cls-25" x="19.28" y="0">r</tspan><tspan class="cls-26" x="26.28" y="0">s</tspan><tspan class="cls-11" x="36.08" y="0">a</tspan><tspan class="cls-25" x="46.52" y="0">c</tspan><tspan x="57.14" y="0">e</tspan></text><text class="cls-6" transform="translate(1235.68 525.86)"><tspan class="cls-26">s</tspan><tspan class="cls-19" x="9.8" y="0">a</tspan><tspan class="cls-27" x="20.2" y="0">w</tspan><tspan class="cls-15" x="33.62" y="0">e</tspan><tspan class="cls-19" x="44.2" y="0">e</tspan><tspan class="cls-28" x="54.74" y="0">t</tspan><tspan x="60.36" y="0">ie</tspan></text><text class="cls-6" transform="translate(1278.15 642.75)">s<tspan class="cls-29" x="9.72" y="0">t</tspan><tspan class="cls-30" x="15.8" y="0">y</tspan><tspan x="25.48" y="0">le</tspan></text><text class="cls-6" transform="translate(1169.11 672.82)">s<tspan class="cls-29" x="9.72" y="0">t</tspan><tspan class="cls-30" x="15.8" y="0">y</tspan><tspan x="25.48" y="0">li</tspan><tspan class="cls-13" x="34.52" y="0">n</tspan><tspan x="45.22" y="0">g</tspan></text><text class="cls-6" transform="translate(1298.55 491.93)">eli<tspan class="cls-13" x="19.62" y="0">t</tspan><tspan x="24.98" y="0">e</tspan></text><text class="cls-6" transform="translate(1283.53 559.52)"><tspan class="cls-31">f</tspan><tspan x="5.2" y="0">endi</tspan></text><text class="cls-6" transform="translate(747.6 1028.13)"><tspan class="cls-32">c</tspan><tspan x="10.62" y="0">a</tspan><tspan class="cls-33" x="21.06" y="0">k</tspan><tspan class="cls-15" x="30.84" y="0">e</tspan></text><text class="cls-6" transform="translate(716.82 1076.86)"><tspan class="cls-8">w</tspan><tspan class="cls-13" x="13.42" y="0">e</tspan><tspan x="23.92" y="0">ar</tspan></text><text class="cls-6" transform="translate(770.28 1067.48)"><tspan class="cls-24">v</tspan><tspan x="8.7" y="0">e</tspan><tspan class="cls-25" x="19.28" y="0">r</tspan><tspan class="cls-26" x="26.28" y="0">s</tspan><tspan class="cls-11" x="36.08" y="0">aille</tspan></text><text class="cls-6" transform="translate(881 1005.61)">s<tspan class="cls-16" x="9.72" y="0">t</tspan><tspan class="cls-34" x="15.34" y="0">r</tspan><tspan class="cls-15" x="22.14" y="0">e</tspan><tspan class="cls-19" x="32.72" y="0">e</tspan><tspan class="cls-29" x="43.26" y="0">t</tspan><tspan class="cls-8" x="49.34" y="0">w</tspan><tspan class="cls-13" x="62.76" y="0">e</tspan><tspan x="73.26" y="0">ar</tspan></text><text class="cls-6" transform="translate(832.81 1122.48)"><tspan class="cls-24">k</tspan><tspan x="10.08" y="0">ai</tspan><tspan class="cls-35" x="25.04" y="0">a</tspan><tspan class="cls-17" x="35.3" y="0">g</tspan><tspan x="46.28" y="0">erber</tspan></text><text class="cls-6" transform="translate(809.27 1133.18)"><tspan class="cls-13">e</tspan><tspan class="cls-36" x="10.5" y="0">a</tspan><tspan x="20.92" y="0">t</tspan></text><text class="cls-6" transform="translate(882.64 1047.82)">au<tspan class="cls-32" x="21.22" y="0">t</tspan><tspan x="26.7" y="0">umn</tspan></text><text class="cls-6" transform="translate(753.29 1116.76)"><tspan class="cls-37">r</tspan><tspan class="cls-13" x="6.8" y="0">e</tspan><tspan x="17.3" y="0">a</tspan><tspan class="cls-38" x="27.74" y="0">d</tspan><tspan class="cls-11" x="39.12" y="0">y</tspan></text><text class="cls-6" transform="translate(866.81 1091.73)"><tspan class="cls-8">f</tspan><tspan x="5.24" y="0">al</tspan><tspan class="cls-38" x="20.2" y="0">l</tspan><tspan class="cls-39" x="24.82" y="0">w</tspan><tspan x="38.42" y="0">in</tspan><tspan class="cls-23" x="53.72" y="0">t</tspan><tspan x="59.08" y="0">er2020</tspan></text><text class="cls-6" transform="translate(728.66 965.4)">p<tspan class="cls-24" x="11.24" y="0">r</tspan><tspan x="18.08" y="0">ada</tspan></text><text class="cls-6" transform="translate(758.34 926.83)">gu<tspan class="cls-32" x="21.74" y="0">c</tspan><tspan x="32.36" y="0">ci</tspan></text><text class="cls-6" transform="translate(689.47 1014.46)">mon<tspan class="cls-32" x="37.28" y="0">c</tspan><tspan x="47.9" y="0">ler</tspan></text><text class="cls-6" transform="translate(797.81 911.31)"><tspan class="cls-17">g</tspan><tspan x="10.98" y="0">enius</tspan></text><text class="cls-40" transform="translate(854.83 931.17)">การร</text><text class="cls-6" transform="translate(693.42 104.1)">run<tspan class="cls-24" x="28.52" y="0">w</tspan><tspan class="cls-41" x="41.88" y="0">a</tspan><tspan x="52.06" y="0">y</tspan></text><text class="cls-6" transform="translate(706.57 209.85)">bellahadid</text><text class="cls-42" transform="translate(664.05 81.05)">a<tspan class="cls-11" x="10.4" y="0">w20</tspan></text><text class="cls-6" transform="translate(741.55 130.39)">ma<tspan class="cls-33" x="25.94" y="0">k</tspan><tspan x="35.72" y="0">e</tspan></text><text class="cls-6" transform="translate(738.54 81.29)">en<tspan class="cls-28" x="21.36" y="0">t</tspan><tspan class="cls-24" x="26.98" y="0">r</tspan><tspan x="33.82" y="0">an</tspan><tspan class="cls-32" x="55.04" y="0">c</tspan><tspan x="65.66" y="0">e</tspan></text><text class="cls-6" transform="translate(723.73 173.37)">supermodel</text><text class="cls-6" transform="translate(543.3 418.37)"><tspan class="cls-7">f</tspan><tspan x="6" y="0">w20</tspan></text><text class="cls-6" transform="translate(537.69 346.58)">m<tspan class="cls-7" x="15.5" y="0">f</tspan><tspan x="21.5" y="0">y</tspan></text><text class="cls-6" transform="translate(471.65 398.54)">gigi</text><text class="cls-6" transform="translate(466.11 299.48)">hadid</text><text class="cls-6" transform="translate(408.46 343.77)">milano</text><text class="cls-6" transform="translate(582.52 53.44)"><tspan class="cls-17">s</tspan><tspan class="cls-26" x="9.74" y="0">f</tspan><tspan class="cls-11" x="15.12" y="0">ila</tspan><tspan class="cls-37" x="34.6" y="0">r</tspan><tspan x="41.4" y="0">e</tspan></text><text class="cls-6" transform="translate(602.92 96.94)">gigihadid</text><text class="cls-6" transform="translate(579.86 154.59)"><tspan class="cls-43">w</tspan><tspan x="13.36" y="0">alk</tspan></text><text class="cls-6" transform="translate(689.47 41.47)">i<tspan class="cls-44" x="4.52" y="0">t</tspan><tspan x="10.02" y="0">sje</tspan><tspan class="cls-37" x="35.08" y="0">r</tspan><tspan x="41.88" y="0">e</tspan><tspan class="cls-45" x="52.46" y="0">m</tspan><tspan class="cls-43" x="67.72" y="0">y</tspan><tspan x="77.16" y="0">s</tspan><tspan class="cls-25" x="86.88" y="0">c</tspan><tspan class="cls-19" x="97.5" y="0">o</tspan><tspan class="cls-46" x="108.46" y="0">t</tspan><tspan class="cls-11" x="114.44" y="0">t</tspan></text><text class="cls-6" transform="translate(577.06 108.85)">do</text><text class="cls-6" transform="translate(634.47 25.43)"><tspan class="cls-35">r</tspan><tspan x="6.78" y="0">omee</tspan></text><text class="cls-6" transform="translate(682.31 240.56)">s<tspan class="cls-28" x="9.72" y="0">t</tspan><tspan class="cls-15" x="15.34" y="0">rijd</tspan></text><text class="cls-6" transform="translate(262.11 525.73)">marie</text><text class="cls-6" transform="translate(207.46 645.81)">an<tspan class="cls-13" x="21.22" y="0">t</tspan><tspan x="26.58" y="0">oin</tspan><tspan class="cls-19" x="52.88" y="0">e</tspan><tspan class="cls-46" x="63.42" y="0">t</tspan><tspan class="cls-13" x="69.4" y="0">t</tspan><tspan x="74.76" y="0">e</tspan></text><text class="cls-6" transform="translate(212.68 508.05)">denim</text><text class="cls-6" transform="translate(226.6 562.14)">hoodie</text><text class="cls-6" transform="translate(394.06 628.75)">bi<tspan class="cls-33" x="15.8" y="0">k</tspan><tspan x="25.58" y="0">er</tspan></text><text class="cls-6" transform="translate(262.11 624.03)">ba<tspan class="cls-32" x="21.72" y="0">c</tspan><tspan class="cls-47" x="32.34" y="0">k</tspan><tspan class="cls-11" x="42.28" y="0">s</tspan><tspan class="cls-48" x="52" y="0">t</tspan><tspan class="cls-35" x="57.6" y="0">a</tspan><tspan class="cls-17" x="67.86" y="0">g</tspan><tspan x="78.84" y="0">e</tspan></text><text class="cls-6" transform="translate(335.06 642.75)"><tspan class="cls-17">s</tspan><tspan class="cls-49" x="9.74" y="0">f</tspan><tspan x="15.12" y="0">il</tspan><tspan class="cls-36" x="24.16" y="0">a</tspan><tspan class="cls-48" x="34.58" y="0">t</tspan><tspan class="cls-11" x="40.18" y="0">a</tspan></text><text class="cls-6" transform="translate(171.27 588.55)">m<tspan class="cls-7" x="15.5" y="0">f</tspan><tspan x="21.5" y="0">w2020</tspan></text><text class="cls-6" transform="translate(251.95 601.48)">je<tspan class="cls-37" x="15.34" y="0">r</tspan><tspan x="22.14" y="0">e</tspan><tspan class="cls-45" x="32.72" y="0">m</tspan><tspan x="47.98" y="0">y</tspan></text><text class="cls-6" transform="translate(294.84 682.38)">bella</text><text class="cls-6" transform="translate(351.84 676.97)">s<tspan class="cls-32" x="9.72" y="0">c</tspan><tspan class="cls-19" x="20.34" y="0">o</tspan><tspan class="cls-46" x="31.3" y="0">t</tspan><tspan x="37.28" y="0">t</tspan></text><text class="cls-6" transform="translate(410.94 577.6)">milão</text><text class="cls-6" transform="translate(297.06 489.33)">i<tspan class="cls-48" x="4.52" y="0">t</tspan><tspan class="cls-11" x="10.12" y="0">ália</tspan></text></g></svg>