<svg id="Layer_1" data-name="Layer 1" xmlns="http://www.w3.org/2000/svg" viewBox="0 0 1555 1141"><defs><style>.cls-1,.cls-2,.cls-3,.cls-4{fill:none;}.cls-1{stroke:#11c574;}.cls-2{stroke:#8929a9;}.cls-3{stroke:#fc2130;}.cls-4{stroke:#fd8326;}.cls-16,.cls-49,.cls-5,.cls-50,.cls-55,.cls-56,.cls-57{isolation:isolate;font-size:20px;}.cls-49,.cls-5,.cls-50,.cls-55,.cls-56,.cls-57{font-family:NimbusSan-Reg, Nimbus Sans;}.cls-57,.cls-6{letter-spacing:0.01em;}.cls-7{letter-spacing:0em;}.cls-8{letter-spacing:0.03em;}.cls-49,.cls-9{letter-spacing:0em;}.cls-10{letter-spacing:-0.01em;}.cls-11{letter-spacing:0.03em;}.cls-12{letter-spacing:0em;}.cls-13{letter-spacing:-0.01em;}.cls-14{letter-spacing:0.04em;}.cls-15{letter-spacing:0em;}.cls-16{font-family:AdobeMyungjoStd-Medium-KSCpc-EUC-H, Adobe Myungjo Std;}.cls-17{letter-spacing:0.01em;}.cls-18{letter-spacing:-0.02em;}.cls-19{letter-spacing:0.03em;}.cls-20{letter-spacing:0em;}.cls-21{letter-spacing:0em;}.cls-22{letter-spacing:-0.01em;}.cls-23{letter-spacing:0em;}.cls-24{letter-spacing:0em;}.cls-25{letter-spacing:0em;}.cls-26{letter-spacing:0.03em;}.cls-27{letter-spacing:0em;}.cls-28{letter-spacing:-0.01em;}.cls-29{letter-spacing:0em;}.cls-30{letter-spacing:0em;}.cls-31{letter-spacing:0em;}.cls-32{letter-spacing:0em;}.cls-33{letter-spacing:0.01em;}.cls-34{letter-spacing:-0.02em;}.cls-35{letter-spacing:-0.01em;}.cls-36{letter-spacing:0em;}.cls-37{letter-spacing:0em;}.cls-38{letter-spacing:0em;}.cls-39{letter-spacing:0em;}.cls-40{letter-spacing:0.01em;}.cls-41{letter-spacing:0.03em;}.cls-42{letter-spacing:0.01em;}.cls-43,.cls-50{letter-spacing:0em;}.cls-44{letter-spacing:-0.01em;}.cls-45{letter-spacing:-0.01em;}.cls-46{letter-spacing:0em;}.cls-47{letter-spacing:0em;}.cls-48{letter-spacing:0.03em;}.cls-51{letter-spacing:-0.01em;}.cls-52{letter-spacing:0em;}.cls-53{letter-spacing:0.01em;}.cls-54{letter-spacing:-0.01em;}.cls-55{letter-spacing:0.01em;}.cls-56{letter-spacing:0em;}</style></defs><g id="edges"><path class="cls-1" d="M801.17,650.59c33.28-42,146.22-55.13,188.24-21.86"/><path class="cls-1" d="M801.17,650.59c36.65,64.86-5.68,217.13-70.55,253.78"/><path class="cls-1" d="M801.17,650.59c85.12-39.19,271.58,29.72,310.76,114.85"/><path class="cls-1" d="M801.17,650.59c92-16.16,254.17,97.58,270.33,189.56"/><path class="cls-1" d="M801.17,650.59c4.69-77.43,127.86-186.53,205.28-181.84"/><path class="cls-1" d="M801.17,650.59c-18.69-3.49-41.48-36.75-38-55.44"/><path class="cls-1" d="M801.17,650.59c19.83-6.88,59.89,12.56,66.76,32.39"/><path class="cls-1" d="M801.17,650.59c-2.15,25.14-43.09,59.63-68.24,57.48"/><path class="cls-1" d="M801.17,650.59C862.92,696,887.42,856.75,842,918.5"/><path class="cls-1" d="M801.17,650.59c9.86,17.09-1,57.52-18.08,67.39"/><path class="cls-1" d="M801.17,650.59c-14.61,15.86-60.31,17.75-76.18,3.15"/><path class="cls-1" d="M801.17,650.59c4.59-48.31,83.93-113.88,132.23-109.29"/><path class="cls-1" d="M801.17,650.59c-24.76,99.1-210.55,210.61-309.65,185.86"/><path class="cls-1" d="M801.17,650.59c-47.73-57-33.88-214,23.09-261.75"/><path class="cls-1" d="M801.17,650.59c-52.38,43.53-196.25,30.26-239.78-22.12"/><path class="cls-1" d="M801.17,650.59C733.32,672.41,598.81,603.38,577,535.53"/><path class="cls-1" d="M801.17,650.59c28.15,22.51,36.59,98.51,14.08,126.66"/><path class="cls-1" d="M801.17,650.59c33.94-71.47,192.05-127.75,263.52-93.8"/><path class="cls-1" d="M801.17,650.59c-64.14-31.13-113.65-174-82.52-238.16"/><path class="cls-1" d="M801.17,650.59c-44-33.69-59.6-150.29-25.92-194.34"/><path class="cls-2" d="M266.34,902.28c93.28-92.44,371.85-91.18,464.28,2.09"/><path class="cls-2" d="M266.34,902.28C384.72,790.39,730.12,800.13,842,918.5"/><path class="cls-2" d="M266.34,902.28c-18.4,26.47-85.69,38.57-112.16,20.17"/><path class="cls-2" d="M266.34,902.28c84.78-134.79,414.12-209.8,548.91-125"/><path class="cls-2" d="M266.34,902.28C255.12,766.8,441.5,546.75,577,535.53"/><path class="cls-2" d="M266.34,902.28c4.25-113.77,181.28-278.06,295.05-273.81"/><path class="cls-2" d="M266.34,902.28c31.87-58.2,167-97.7,225.18-65.83"/><path class="cls-2" d="M266.34,902.28c-28.23,13-90.08-9.87-103.07-38.1"/><path class="cls-2" d="M266.34,902.28c13,27-8.08,87-35.08,99.93"/><path class="cls-2" d="M266.34,902.28c-34,40-145.06,48.9-185,14.86"/><path class="cls-2" d="M266.34,902.28c-2.62,34.36-58.1,82-92.46,79.32"/><path class="cls-2" d="M266.34,902.28c28.63,9.64,57.11,67,47.47,95.67"/><path class="cls-2" d="M266.34,902.28c33.43,26.51,43.8,116.4,17.3,149.83"/><path class="cls-2" d="M266.34,902.28c7.87,53.47-60.54,145.48-114,153.35"/><path class="cls-2" d="M266.34,902.28c26,44.39-1.63,149.94-46,175.92"/><path class="cls-2" d="M266.34,902.28c-32.06-3.62-74.73-57.13-71.11-89.2"/><path class="cls-2" d="M266.34,902.28c-16.06,52.44-118.8,107-171.24,90.94"/><path class="cls-2" d="M266.34,902.28c-45.66,18.66-142.15-21.86-160.81-67.52"/><path class="cls-2" d="M266.34,902.28c-61.63-109.34,9.93-365.79,119.26-427.42"/><path class="cls-2" d="M266.34,902.28c-46.77-83.84,8.82-279.76,92.66-326.54"/><path class="cls-3" d="M742.67,267.32c93-12.47,251.31,108.39,263.78,201.43"/><path class="cls-3" d="M742.67,267.32C864.3,290.26,1012.34,507.1,989.41,628.73"/><path class="cls-3" d="M742.67,267.32c-41.38-40.77-42.28-164-1.5-205.39"/><path class="cls-3" d="M742.67,267.32c-23.2-22-25-89.87-2.95-113.07"/><path class="cls-3" d="M742.67,267.32C787,298.59,806.52,412,775.25,456.25"/><path class="cls-3" d="M742.67,267.32c24.22,33.83,9.81,120.89-24,145.11"/><path class="cls-3" d="M742.67,267.32c92.94,16.65,207.38,181,190.73,274"/><path class="cls-3" d="M742.67,267.32c36,108.49-72.79,325.18-181.28,361.15"/><path class="cls-3" d="M742.67,267.32C763.17,354.1,663.76,515,577,535.53"/><path class="cls-3" d="M742.67,267.32c40.62,8,89.58,80.89,81.59,121.52"/><path class="cls-3" d="M742.67,267.32c116.5,87.47,160.05,393.43,72.58,509.93"/><path class="cls-3" d="M742.67,267.32c122.3-6.51,315.5,167.17,322,289.47"/><path class="cls-3" d="M742.67,267.32c-3.25-35.88,45.69-94.59,81.57-97.84"/><path class="cls-3" d="M742.67,267.32C719.55,227.88,744,134,783.49,110.9"/><path class="cls-3" d="M742.67,267.32c-40.83,4.11-108.25-51-112.35-91.81"/><path class="cls-3" d="M742.67,267.32C704.59,255.67,665,181.08,676.6,143"/><path class="cls-3" d="M742.67,267.32C689,246.28,639.93,134.14,661,80.42"/><path class="cls-3" d="M742.67,267.32C727.62,405.74,497.42,590.79,359,575.74"/><path class="cls-3" d="M742.67,267.32C733.8,213,802,118.15,856.38,109.28"/><path class="cls-3" d="M742.67,267.32C712.76,380.25,498.52,504.77,385.6,474.86"/><path class="cls-4" d="M1279.84,854.17c53.28,5.51,124.94,93.69,119.43,147"/><path class="cls-4" d="M1279.84,854.17c21.78,26.73,14.34,99.49-12.39,121.26"/><path class="cls-4" d="M1279.84,854.17c42.92-34.63,159.24-22.18,193.86,20.74"/><path class="cls-4" d="M1279.84,854.17c29.93,9.41,60.71,68.43,51.29,98.36"/><path class="cls-4" d="M1279.84,854.17c53.43-16.38,158.13,39.18,174.51,92.61"/><path class="cls-4" d="M1279.84,854.17c8.11-31.13,67-65.65,98.08-57.54"/><path class="cls-4" d="M1279.84,854.17c-1.39-40.2,56.83-102.58,97-104"/><path class="cls-4" d="M1279.84,854.17c42.83,24.11,70.9,124.51,46.78,167.34"/><path class="cls-4" d="M1279.84,854.17c24.84-23,96.67-20.37,119.72,4.47"/><path class="cls-4" d="M1279.84,854.17c24.24-47.53,131.9-82.47,179.43-58.23"/><path class="cls-4" d="M1279.84,854.17c33.64-7.76,95.72,31.05,103.48,64.69"/><path class="cls-4" d="M1279.84,854.17c-131.76-22.41-295.79-253.66-273.39-385.42"/><path class="cls-4" d="M1279.84,854.17c-103.17,13-277.43-122.26-290.43-225.44"/><path class="cls-4" d="M1279.84,854.17C1148,860.88,940.12,673.16,933.4,541.3"/><path class="cls-4" d="M1279.84,854.17c-99.8,119.88-429.33,150-549.22,50.2"/><path class="cls-4" d="M1279.84,854.17c-108.3,77.53-387.06,31.38-464.59-76.92"/><path class="cls-4" d="M1279.84,854.17c-51.32,15.83-152.07-37.4-167.91-88.73"/><path class="cls-4" d="M1279.84,854.17c-44.47,38.86-169.48,30.45-208.34-14"/><path class="cls-4" d="M1279.84,854.17c-74.7,100.43-337.4,139-437.83,64.33"/><path class="cls-4" d="M1279.84,854.17c-102.5-16.45-231.6-194.88-215.15-297.38"/></g><g id="node-labels"><text class="cls-5" transform="translate(960.73 633.91)"><tspan class="cls-6">t</tspan><tspan class="cls-7" x="5.62" y="0">i</tspan><tspan class="cls-8" x="10.14" y="0">f</tspan><tspan class="cls-9" x="16.06" y="0">f</tspan><tspan x="21.3" y="0">a</tspan><tspan class="cls-10" x="31.74" y="0">n</tspan><tspan class="cls-7" x="42.26" y="0">y</tspan></text><text class="cls-5" transform="translate(672.46 909.36)"><tspan class="cls-6">t</tspan><tspan x="5.62" y="0">i</tspan><tspan class="cls-11" x="10.14" y="0">f</tspan><tspan class="cls-9" x="16.06" y="0">f</tspan><tspan x="21.3" y="0">a</tspan><tspan class="cls-10" x="31.74" y="0">n</tspan><tspan x="42.26" y="0">y</tspan><tspan class="cls-10" x="51.82" y="0">y</tspan><tspan x="61.12" y="0">ou</tspan><tspan class="cls-12" x="82.9" y="0">n</tspan><tspan x="93.6" y="0">g</tspan></text><text class="cls-5" transform="translate(1077.53 770.52)"><tspan class="cls-13">n</tspan><tspan x="10.52" y="0">y</tspan><tspan class="cls-14" x="20.08" y="0">f</tspan><tspan x="26.08" y="0">w20</tspan></text><text class="cls-5" transform="translate(1035.91 844.1)"><tspan class="cls-9">f</tspan><tspan x="5.24" y="0">an</tspan><tspan class="cls-15" x="26.46" y="0">c</tspan><tspan class="cls-7" x="37.08" y="0">am</tspan></text><text class="cls-5" transform="translate(976.95 472.96)"><tspan class="cls-10">y</tspan><tspan x="9.3" y="0">ou</tspan><tspan class="cls-12" x="31.08" y="0">n</tspan><tspan x="41.78" y="0">g</tspan></text><text class="cls-16" transform="translate(739.01 600)">티파니</text><text class="cls-5" transform="translate(847.6 686.98)"><tspan class="cls-17">t</tspan><tspan x="5.6" y="0">a</tspan><tspan class="cls-18" x="16.04" y="0">k</tspan><tspan x="25.82" y="0">e</tspan></text><text class="cls-5" transform="translate(718.75 713.2)">gi<tspan class="cls-19" x="15.48" y="0">f</tspan><tspan class="cls-20" x="21.38" y="0">t</tspan></text><text class="cls-5" transform="translate(816.86 922.34)">sh<tspan class="cls-21" x="20.5" y="0">o</tspan><tspan class="cls-7" x="31.46" y="0">w</tspan></text><text class="cls-5" transform="translate(753.75 722.02)"><tspan class="cls-22">w</tspan><tspan x="13.36" y="0">a</tspan><tspan class="cls-9" x="23.8" y="0">r</tspan><tspan class="cls-23" x="30.7" y="0">g</tspan><tspan class="cls-24" x="41.68" y="0">o</tspan></text><text class="cls-5" transform="translate(704.15 657.75)"><tspan class="cls-6">t</tspan><tspan x="5.62" y="0">heo</tspan></text><text class="cls-5" transform="translate(898.5 545.45)"><tspan class="cls-9">f</tspan><tspan class="cls-25" x="5.24" y="0">a</tspan><tspan x="15.7" y="0">shion</tspan></text><text class="cls-5" transform="translate(445.42 841.48)"><tspan class="cls-10">n</tspan><tspan x="10.52" y="0">y</tspan><tspan class="cls-26" x="20.08" y="0">f</tspan><tspan x="26.08" y="0">w2020</tspan></text><text class="cls-5" transform="translate(799.13 393.03)"><tspan class="cls-9">w</tspan><tspan x="13.42" y="0">eek</tspan></text><text class="cls-5" transform="translate(541.28 633.58)"><tspan class="cls-10">y</tspan><tspan x="9.3" y="0">ork</tspan></text><text class="cls-5" transform="translate(557.46 538.61)">n<tspan class="cls-27" x="10.78" y="0">e</tspan><tspan x="21.32" y="0">w</tspan></text><text class="cls-5" transform="translate(773.77 782.26)">designer</text><text class="cls-5" transform="translate(1038.17 561.95)">logan</text><text class="cls-5" transform="translate(688.74 417.62)">p<tspan class="cls-28" x="11.24" y="0">r</tspan><tspan class="cls-20" x="18.08" y="0">abal</tspan></text><text class="cls-5" transform="translate(741.67 460.47)">guru<tspan class="cls-29" x="39.48" y="0">n</tspan><tspan class="cls-24" x="50.18" y="0">g</tspan></text><text class="cls-5" transform="translate(121.62 926.35)">ene<tspan class="cls-30" x="31.94" y="0">r</tspan><tspan class="cls-31" x="38.84" y="0">g</tspan><tspan x="49.9" y="0">y</tspan></text><text class="cls-5" transform="translate(118.61 868.05)"><tspan class="cls-32">c</tspan><tspan x="10.62" y="0">ollec</tspan><tspan class="cls-33" x="51.82" y="0">t</tspan><tspan x="57.44" y="0">ion</tspan></text><text class="cls-5" transform="translate(211.96 1005.99)">look</text><text class="cls-5" transform="translate(55.45 920.98)">ma<tspan class="cls-34" x="25.94" y="0">k</tspan><tspan class="cls-20" x="35.72" y="0">e</tspan></text><text class="cls-5" transform="translate(149.8 984.39)">mo<tspan class="cls-35" x="26.5" y="0">r</tspan><tspan class="cls-20" x="33.3" y="0">e</tspan></text><text class="cls-5" transform="translate(269.65 1001.73)"><tspan class="cls-36">c</tspan><tspan x="10.62" y="0">eleb</tspan><tspan class="cls-22" x="47.58" y="0">r</tspan><tspan class="cls-37" x="54.42" y="0">a</tspan><tspan class="cls-38" x="64.84" y="0">t</tspan><tspan class="cls-39" x="70.2" y="0">e</tspan></text><text class="cls-5" transform="translate(244.35 1056.93)">d<tspan class="cls-40" x="11.28" y="0">i</tspan><tspan class="cls-22" x="15.9" y="0">v</tspan><tspan class="cls-20" x="24.6" y="0">e</tspan><tspan class="cls-36" x="35.18" y="0">r</tspan><tspan x="42.18" y="0">si</tspan><tspan class="cls-41" x="56.42" y="0">t</tspan><tspan x="62.5" y="0">y</tspan></text><text class="cls-5" transform="translate(122.99 1059.43)"><tspan class="cls-42">t</tspan><tspan x="5.6" y="0">a</tspan><tspan class="cls-11" x="16.04" y="0">f</tspan><tspan class="cls-43" x="21.96" y="0">f</tspan><tspan class="cls-27" x="27.16" y="0">e</tspan><tspan class="cls-42" x="37.7" y="0">t</tspan><tspan x="43.3" y="0">a</tspan></text><text class="cls-5" transform="translate(186.53 1083.01)"><tspan class="cls-44">r</tspan><tspan x="6.8" y="0">e</tspan><tspan class="cls-22" x="17.38" y="0">c</tspan><tspan class="cls-45" x="27.84" y="0">y</tspan><tspan class="cls-46" x="37.14" y="0">c</tspan><tspan x="47.76" y="0">le</tspan></text><text class="cls-5" transform="translate(169.3 816.99)">b<tspan class="cls-47" x="11.28" y="0">o</tspan><tspan class="cls-48" x="22.24" y="0">t</tspan><tspan x="28.22" y="0">tle</tspan></text><text class="cls-5" transform="translate(69.84 997.08)"><tspan class="cls-23">g</tspan><tspan class="cls-47" x="10.98" y="0">o</tspan><tspan x="21.94" y="0">wn</tspan></text><text class="cls-5" transform="translate(80.26 838.72)"><tspan class="cls-9">f</tspan><tspan x="5.24" y="0">all20</tspan></text><text class="cls-5" transform="translate(351.08 479.07)">run<tspan class="cls-28" x="28.52" y="0">w</tspan><tspan class="cls-45" x="41.88" y="0">a</tspan><tspan x="52.06" y="0">y</tspan></text><text class="cls-49" transform="translate(345.67 579.88)">f<tspan class="cls-20" x="5.24" y="0">all</tspan></text><text class="cls-16" transform="translate(708.85 67.15)">티파니영</text><text class="cls-16" transform="translate(707.4 159.4)">소녀시대</text><text class="cls-50" transform="translate(806.97 172.81)">e<tspan class="cls-51" x="10.48" y="0">v</tspan><tspan class="cls-7" x="19.1" y="0">a</tspan></text><text class="cls-5" transform="translate(751.12 115.28)">b<tspan class="cls-52" x="11.28" y="0">e</tspan><tspan class="cls-37" x="21.78" y="0">a</tspan><tspan class="cls-53" x="32.2" y="0">t</tspan><tspan x="37.82" y="0">r</tspan><tspan class="cls-44" x="44.78" y="0">i</tspan><tspan class="cls-7" x="49.14" y="0">z</tspan></text><text class="cls-5" transform="translate(586.55 180.92)">b<tspan class="cls-54" x="11.28" y="0">r</tspan><tspan class="cls-27" x="18.06" y="0">o</tspan><tspan class="cls-20" x="29.02" y="0">wni</tspan><tspan class="cls-12" x="57.8" y="0">n</tspan><tspan x="68.5" y="0">g</tspan></text><text class="cls-5" transform="translate(653.37 147.36)"><tspan class="cls-32">c</tspan><tspan x="10.62" y="0">hen</tspan></text><text class="cls-5" transform="translate(614.14 85.83)">s<tspan class="cls-12" x="9.72" y="0">t</tspan><tspan x="15.08" y="0">ephanie</tspan></text><text class="cls-5" transform="translate(833.04 112.65)"><tspan class="cls-9">w</tspan><tspan class="cls-12" x="13.42" y="0">e</tspan><tspan x="23.92" y="0">ar</tspan></text><text class="cls-5" transform="translate(1378.58 1005.85)">post</text><text class="cls-5" transform="translate(1212.98 980.25)">a<tspan class="cls-36" x="10.44" y="0">cc</tspan><tspan class="cls-24" x="31.68" y="0">o</tspan><tspan class="cls-25" x="42.68" y="0">m</tspan><tspan class="cls-24" x="58.2" y="0">plish</tspan></text><text class="cls-55" transform="translate(1447.52 878.78)">v<tspan class="cls-7" x="8.94" y="0">ideo</tspan></text><text class="cls-5" transform="translate(1310.49 957.43)"><tspan class="cls-23">g</tspan><tspan x="10.98" y="0">oal</tspan></text><text class="cls-56" transform="translate(1440.29 950.66)">f<tspan class="cls-7" x="5.38" y="0">ull</tspan></text><text class="cls-57" transform="translate(1351.2 800.55)">t<tspan class="cls-7" x="5.62" y="0">hank</tspan></text><text class="cls-57" transform="translate(1351.96 754.14)">t<tspan class="cls-7" x="5.62" y="0">he</tspan><tspan class="cls-44" x="26.98" y="0">r</tspan><tspan class="cls-24" x="33.78" y="0">e</tspan></text><text class="cls-5" transform="translate(1286.83 1026.42)"><tspan class="cls-6">t</tspan><tspan class="cls-7" x="5.62" y="0">i</tspan><tspan class="cls-8" x="10.14" y="0">f</tspan><tspan class="cls-9" x="16.06" y="0">f</tspan><tspan x="21.3" y="0">a</tspan><tspan class="cls-10" x="31.74" y="0">n</tspan><tspan class="cls-7" x="42.26" y="0">yyy</tspan></text><text class="cls-5" transform="translate(1381.9 862.51)">sho</text><text class="cls-5" transform="translate(1432.5 799.86)"><tspan class="cls-25">a</tspan><tspan x="10.46" y="0">s</tspan><tspan class="cls-6" x="20.18" y="0">t</tspan><tspan x="25.8" y="0">rid</tspan></text><text class="cls-5" transform="translate(1334.8 922.69)">a<tspan class="cls-31" x="10.44" y="0">d</tspan><tspan class="cls-22" x="21.82" y="0">v</tspan><tspan x="30.52" y="0">en</tspan><tspan class="cls-36" x="51.88" y="0">t</tspan><tspan class="cls-7" x="57.36" y="0">u</tspan><tspan class="cls-44" x="68.14" y="0">r</tspan><tspan x="74.94" y="0">e</tspan></text></g></svg>